%TF.GenerationSoftware,KiCad,Pcbnew,8.0.9-8.0.9-0~ubuntu20.04.1*%
%TF.CreationDate,2026-04-22T12:51:04+10:00*%
%TF.ProjectId,QRPTransceiver,51525054-7261-46e7-9363-65697665722e,rev?*%
%TF.SameCoordinates,Original*%
%TF.FileFunction,Drillmap*%
%TF.FilePolarity,Positive*%
%FSLAX45Y45*%
G04 Gerber Fmt 4.5, Leading zero omitted, Abs format (unit mm)*
G04 Created by KiCad (PCBNEW 8.0.9-8.0.9-0~ubuntu20.04.1) date 2026-04-22 12:51:04*
%MOMM*%
%LPD*%
G01*
G04 APERTURE LIST*
%ADD10C,0.050000*%
%ADD11C,0.200000*%
G04 APERTURE END LIST*
D10*
X5750000Y-4500000D02*
X5700000Y-4500000D01*
X5700000Y-14400000D02*
X5700000Y-4500000D01*
X21950000Y-14400000D02*
X5700000Y-14400000D01*
X21950000Y-4500000D02*
X21950000Y-14400000D01*
X5750000Y-4500000D02*
X21950000Y-4500000D01*
D11*
X5958277Y-14713984D02*
X5958277Y-14513984D01*
X5958277Y-14513984D02*
X6005896Y-14513984D01*
X6005896Y-14513984D02*
X6034467Y-14523508D01*
X6034467Y-14523508D02*
X6053515Y-14542555D01*
X6053515Y-14542555D02*
X6063039Y-14561603D01*
X6063039Y-14561603D02*
X6072562Y-14599698D01*
X6072562Y-14599698D02*
X6072562Y-14628269D01*
X6072562Y-14628269D02*
X6063039Y-14666365D01*
X6063039Y-14666365D02*
X6053515Y-14685412D01*
X6053515Y-14685412D02*
X6034467Y-14704460D01*
X6034467Y-14704460D02*
X6005896Y-14713984D01*
X6005896Y-14713984D02*
X5958277Y-14713984D01*
X6158277Y-14713984D02*
X6158277Y-14580650D01*
X6158277Y-14618746D02*
X6167801Y-14599698D01*
X6167801Y-14599698D02*
X6177324Y-14590174D01*
X6177324Y-14590174D02*
X6196372Y-14580650D01*
X6196372Y-14580650D02*
X6215420Y-14580650D01*
X6282086Y-14713984D02*
X6282086Y-14580650D01*
X6282086Y-14513984D02*
X6272562Y-14523508D01*
X6272562Y-14523508D02*
X6282086Y-14533031D01*
X6282086Y-14533031D02*
X6291610Y-14523508D01*
X6291610Y-14523508D02*
X6282086Y-14513984D01*
X6282086Y-14513984D02*
X6282086Y-14533031D01*
X6405896Y-14713984D02*
X6386848Y-14704460D01*
X6386848Y-14704460D02*
X6377324Y-14685412D01*
X6377324Y-14685412D02*
X6377324Y-14513984D01*
X6510658Y-14713984D02*
X6491610Y-14704460D01*
X6491610Y-14704460D02*
X6482086Y-14685412D01*
X6482086Y-14685412D02*
X6482086Y-14513984D01*
X6739229Y-14713984D02*
X6739229Y-14513984D01*
X6739229Y-14513984D02*
X6805896Y-14656841D01*
X6805896Y-14656841D02*
X6872562Y-14513984D01*
X6872562Y-14513984D02*
X6872562Y-14713984D01*
X7053515Y-14713984D02*
X7053515Y-14609222D01*
X7053515Y-14609222D02*
X7043991Y-14590174D01*
X7043991Y-14590174D02*
X7024943Y-14580650D01*
X7024943Y-14580650D02*
X6986848Y-14580650D01*
X6986848Y-14580650D02*
X6967801Y-14590174D01*
X7053515Y-14704460D02*
X7034467Y-14713984D01*
X7034467Y-14713984D02*
X6986848Y-14713984D01*
X6986848Y-14713984D02*
X6967801Y-14704460D01*
X6967801Y-14704460D02*
X6958277Y-14685412D01*
X6958277Y-14685412D02*
X6958277Y-14666365D01*
X6958277Y-14666365D02*
X6967801Y-14647317D01*
X6967801Y-14647317D02*
X6986848Y-14637793D01*
X6986848Y-14637793D02*
X7034467Y-14637793D01*
X7034467Y-14637793D02*
X7053515Y-14628269D01*
X7148753Y-14580650D02*
X7148753Y-14780650D01*
X7148753Y-14590174D02*
X7167801Y-14580650D01*
X7167801Y-14580650D02*
X7205896Y-14580650D01*
X7205896Y-14580650D02*
X7224943Y-14590174D01*
X7224943Y-14590174D02*
X7234467Y-14599698D01*
X7234467Y-14599698D02*
X7243991Y-14618746D01*
X7243991Y-14618746D02*
X7243991Y-14675888D01*
X7243991Y-14675888D02*
X7234467Y-14694936D01*
X7234467Y-14694936D02*
X7224943Y-14704460D01*
X7224943Y-14704460D02*
X7205896Y-14713984D01*
X7205896Y-14713984D02*
X7167801Y-14713984D01*
X7167801Y-14713984D02*
X7148753Y-14704460D01*
X7329705Y-14694936D02*
X7339229Y-14704460D01*
X7339229Y-14704460D02*
X7329705Y-14713984D01*
X7329705Y-14713984D02*
X7320182Y-14704460D01*
X7320182Y-14704460D02*
X7329705Y-14694936D01*
X7329705Y-14694936D02*
X7329705Y-14713984D01*
X7329705Y-14590174D02*
X7339229Y-14599698D01*
X7339229Y-14599698D02*
X7329705Y-14609222D01*
X7329705Y-14609222D02*
X7320182Y-14599698D01*
X7320182Y-14599698D02*
X7329705Y-14590174D01*
X7329705Y-14590174D02*
X7329705Y-14609222D01*
M02*
