%TF.GenerationSoftware,KiCad,Pcbnew,8.0.9-8.0.9-0~ubuntu20.04.1*%
%TF.CreationDate,2026-04-22T12:51:15+10:00*%
%TF.ProjectId,QRPTransceiver,51525054-7261-46e7-9363-65697665722e,rev?*%
%TF.SameCoordinates,Original*%
%TF.FileFunction,Copper,L2,Bot*%
%TF.FilePolarity,Positive*%
%FSLAX46Y46*%
G04 Gerber Fmt 4.6, Leading zero omitted, Abs format (unit mm)*
G04 Created by KiCad (PCBNEW 8.0.9-8.0.9-0~ubuntu20.04.1) date 2026-04-22 12:51:15*
%MOMM*%
%LPD*%
G01*
G04 APERTURE LIST*
%TA.AperFunction,ComponentPad*%
%ADD10R,1.700000X1.700000*%
%TD*%
%TA.AperFunction,ComponentPad*%
%ADD11O,1.700000X1.700000*%
%TD*%
%TA.AperFunction,ComponentPad*%
%ADD12C,2.050000*%
%TD*%
%TA.AperFunction,ComponentPad*%
%ADD13C,2.250000*%
%TD*%
%TA.AperFunction,ComponentPad*%
%ADD14C,1.524000*%
%TD*%
%TA.AperFunction,SMDPad,CuDef*%
%ADD15R,1.500000X5.080000*%
%TD*%
%TA.AperFunction,ComponentPad*%
%ADD16C,5.080000*%
%TD*%
%TA.AperFunction,ComponentPad*%
%ADD17R,1.524000X1.524000*%
%TD*%
%TA.AperFunction,ViaPad*%
%ADD18C,0.800000*%
%TD*%
%TA.AperFunction,ViaPad*%
%ADD19C,5.000000*%
%TD*%
%TA.AperFunction,Conductor*%
%ADD20C,0.250000*%
%TD*%
%TA.AperFunction,Conductor*%
%ADD21C,0.500000*%
%TD*%
%TA.AperFunction,Profile*%
%ADD22C,0.050000*%
%TD*%
G04 APERTURE END LIST*
D10*
%TO.P,J6,1,Pin_1*%
%TO.N,Net-(J6-Pin_1)*%
X111000000Y-52420000D03*
D11*
%TO.P,J6,2,Pin_2*%
%TO.N,Net-(J6-Pin_2)*%
X108460000Y-52420000D03*
%TO.P,J6,3,Pin_3*%
%TO.N,Net-(J6-Pin_3)*%
X105920000Y-52420000D03*
%TO.P,J6,4,Pin_4*%
%TO.N,GND*%
X103380000Y-52420000D03*
%TD*%
D12*
%TO.P,J3,1,In*%
%TO.N,Net-(J3-In)*%
X72290000Y-53310000D03*
D13*
%TO.P,J3,2,Ext*%
%TO.N,GND*%
X69750000Y-50770000D03*
X69750000Y-55850000D03*
X74830000Y-50770000D03*
X74830000Y-55850000D03*
%TD*%
D14*
%TO.P,T1,1,AA*%
%TO.N,Net-(T1-AA)*%
X79850000Y-77690000D03*
%TO.P,T1,2,AB*%
%TO.N,GND*%
X67150000Y-77690000D03*
%TO.P,T1,3,SA*%
%TO.N,Net-(T1-SA)*%
X79850000Y-81500000D03*
%TO.P,T1,4,SB*%
%TO.N,Net-(T1-SB)*%
X67150000Y-81500000D03*
%TO.P,T1,5,SC*%
X79850000Y-85310000D03*
%TO.P,T1,6,SD*%
%TO.N,Net-(T1-SD)*%
X67150000Y-85310000D03*
%TD*%
D10*
%TO.P,J7,1,Pin_1*%
%TO.N,Net-(J6-Pin_3)*%
X116960000Y-52500000D03*
D11*
%TO.P,J7,2,Pin_2*%
%TO.N,GND*%
X119500000Y-52500000D03*
%TD*%
D10*
%TO.P,J1,1,Pin_1*%
%TO.N,unconnected-(J1-Pin_1-Pad1)*%
X160000000Y-134500000D03*
D11*
%TO.P,J1,2,Pin_2*%
%TO.N,SSBMUTE*%
X157460000Y-134500000D03*
%TO.P,J1,3,Pin_3*%
%TO.N,CWMUTE*%
X154920000Y-134500000D03*
%TO.P,J1,4,Pin_4*%
%TO.N,SMETER*%
X152380000Y-134500000D03*
%TO.P,J1,5,Pin_5*%
%TO.N,SCL*%
X149840000Y-134500000D03*
%TO.P,J1,6,Pin_6*%
%TO.N,SDA*%
X147300000Y-134500000D03*
%TO.P,J1,7,Pin_7*%
%TO.N,RXMUTE*%
X144760000Y-134500000D03*
%TO.P,J1,8,Pin_8*%
%TO.N,GND*%
X142220000Y-134500000D03*
%TD*%
D10*
%TO.P,J5,1,Pin_1*%
%TO.N,Net-(J5-Pin_1)*%
X130540000Y-52500000D03*
D11*
%TO.P,J5,2,Pin_2*%
%TO.N,Net-(J5-Pin_2)*%
X128000000Y-52500000D03*
%TO.P,J5,3,Pin_3*%
%TO.N,GND*%
X125460000Y-52500000D03*
%TD*%
D15*
%TO.P,U2,*%
%TO.N,*%
X95160000Y-134280000D03*
D16*
X95160000Y-116500000D03*
D15*
X90080000Y-134280000D03*
X85000000Y-134280000D03*
X79920000Y-134280000D03*
X74840000Y-134280000D03*
X69760000Y-134280000D03*
D16*
X69760000Y-116500000D03*
D17*
%TO.P,U2,1,VCC*%
%TO.N,+5V*%
X74840000Y-116500000D03*
D14*
%TO.P,U2,2,GND*%
%TO.N,GND*%
X77380000Y-116500000D03*
%TO.P,U2,3,SDA*%
%TO.N,SDA*%
X79920000Y-116500000D03*
%TO.P,U2,4,SCL*%
%TO.N,SCL*%
X82460000Y-116500000D03*
%TO.P,U2,5,CLK2*%
%TO.N,unconnected-(U2-CLK2-Pad5)*%
X85000000Y-116500000D03*
%TO.P,U2,6,CLK1*%
%TO.N,Net-(U2-CLK1)*%
X87540000Y-116500000D03*
%TO.P,U2,7,CLK0*%
%TO.N,Net-(U2-CLK0)*%
X90080000Y-116500000D03*
%TD*%
D10*
%TO.P,J2,1,Pin_1*%
%TO.N,Net-(D1-A)*%
X132280000Y-134500000D03*
D11*
%TO.P,J2,2,Pin_2*%
%TO.N,unconnected-(J2-Pin_2-Pad2)*%
X129740000Y-134500000D03*
%TO.P,J2,3,Pin_3*%
%TO.N,Net-(D1-A)*%
X127200000Y-134500000D03*
%TO.P,J2,4,Pin_4*%
%TO.N,+5V*%
X124660000Y-134500000D03*
%TO.P,J2,5,Pin_5*%
X122120000Y-134500000D03*
%TO.P,J2,6,Pin_6*%
%TO.N,unconnected-(J2-Pin_6-Pad6)*%
X119580000Y-134500000D03*
%TO.P,J2,7,Pin_7*%
%TO.N,GND*%
X117040000Y-134500000D03*
%TO.P,J2,8,Pin_8*%
X114500000Y-134500000D03*
%TD*%
D18*
%TO.N,Net-(C109-Pad2)*%
X171500000Y-71000000D03*
X209000000Y-130500000D03*
%TO.N,+12V*%
X101000000Y-94500000D03*
%TO.N,Net-(C93-Pad2)*%
X133500000Y-57500000D03*
X141500000Y-79000000D03*
%TO.N,VREF*%
X106500000Y-99000000D03*
%TO.N,GND*%
X192500000Y-125500000D03*
X197000000Y-104000000D03*
X130500000Y-130500000D03*
X160000000Y-56462500D03*
%TO.N,+12V*%
X212250000Y-64250000D03*
X201250000Y-67250000D03*
X215500000Y-83000000D03*
X206000000Y-83000000D03*
X215500000Y-94500000D03*
X197000000Y-94500000D03*
%TO.N,GND*%
X128500000Y-79500000D03*
%TO.N,+12V*%
X136500000Y-138000000D03*
X215500000Y-120500000D03*
X202500000Y-121500000D03*
X136500000Y-135500000D03*
D19*
%TO.N,*%
X63000000Y-61000000D03*
X63000000Y-130000000D03*
X176500000Y-130000000D03*
X210000000Y-55000000D03*
D18*
%TO.N,GND*%
X100000000Y-130500000D03*
X81000000Y-50500000D03*
X93500000Y-58500000D03*
X212000000Y-76500000D03*
X214000000Y-125500000D03*
%TO.N,VREF*%
X182000000Y-70000000D03*
X181675000Y-66825000D03*
X198000000Y-68080000D03*
X208500000Y-69000000D03*
X100500000Y-109500000D03*
X119000000Y-127500000D03*
%TO.N,GND*%
X100500000Y-104500000D03*
X191500000Y-93000000D03*
X111000000Y-134500000D03*
X119000000Y-130500000D03*
X108750000Y-118750000D03*
X103500000Y-123200000D03*
X102500000Y-123000000D03*
X110000000Y-119500000D03*
X66500000Y-103500000D03*
X72000000Y-101500000D03*
X79500000Y-105500000D03*
X79500000Y-91500000D03*
X87000000Y-109000000D03*
X87000000Y-103000000D03*
X87000000Y-97000000D03*
X87000000Y-91000000D03*
X99500000Y-90500000D03*
X98500000Y-109000000D03*
X85000000Y-81000000D03*
X89000000Y-81000000D03*
X79500000Y-68500000D03*
X68000000Y-69000000D03*
X75000000Y-66000000D03*
X70500000Y-73325000D03*
X69000000Y-75500000D03*
X90000000Y-76000000D03*
X93500000Y-72500000D03*
X124000000Y-63000000D03*
X118000000Y-58500000D03*
X117000000Y-57500000D03*
X113500000Y-65000000D03*
X134500000Y-59500000D03*
X132500000Y-63000000D03*
X144000000Y-54500000D03*
X143500000Y-58000000D03*
X150000000Y-62000000D03*
X150000000Y-64500000D03*
X145000000Y-65500000D03*
X134730000Y-75730000D03*
X133480000Y-76980000D03*
X143000000Y-74500000D03*
X161500000Y-74000000D03*
X181687500Y-61500000D03*
X177600000Y-66500000D03*
X185500000Y-63000000D03*
X188000000Y-67000000D03*
X188000000Y-76500000D03*
X201000000Y-70400000D03*
X206250000Y-62750000D03*
X204500000Y-61000000D03*
X201000000Y-87500000D03*
X208980000Y-92980000D03*
X201000000Y-110500000D03*
X207000000Y-121000000D03*
X204000000Y-130500000D03*
X82500000Y-52000000D03*
X82500000Y-54000000D03*
%TO.N,RXMUTE*%
X76000000Y-73000000D03*
%TO.N,SMETER*%
X152000000Y-57500000D03*
%TO.N,CWMUTE*%
X167000000Y-81000000D03*
%TO.N,SSBMUTE*%
X170000000Y-59000000D03*
%TD*%
D20*
%TO.N,Net-(C109-Pad2)*%
X209000000Y-130500000D02*
X204500000Y-126000000D01*
X204500000Y-126000000D02*
X200500000Y-126000000D01*
X200500000Y-126000000D02*
X190500000Y-116000000D01*
X190500000Y-116000000D02*
X190500000Y-86000000D01*
X190500000Y-86000000D02*
X185000000Y-80500000D01*
X185000000Y-80500000D02*
X175500000Y-80500000D01*
X175500000Y-80500000D02*
X171500000Y-76500000D01*
X171500000Y-76500000D02*
X171500000Y-71000000D01*
%TO.N,+12V*%
X111500000Y-101500000D02*
X136500000Y-126500000D01*
X101000000Y-94500000D02*
X109000000Y-94500000D01*
X111500000Y-97000000D02*
X111500000Y-101500000D01*
X109000000Y-94500000D02*
X111500000Y-97000000D01*
X136500000Y-126500000D02*
X136500000Y-135500000D01*
D21*
%TO.N,Net-(C93-Pad2)*%
X141500000Y-79000000D02*
X134000000Y-71500000D01*
X134000000Y-61000000D02*
X133500000Y-60500000D01*
X134000000Y-71500000D02*
X134000000Y-61000000D01*
X133500000Y-60500000D02*
X133500000Y-57500000D01*
D20*
%TO.N,VREF*%
X100500000Y-109500000D02*
X106500000Y-103500000D01*
X106500000Y-103500000D02*
X106500000Y-99000000D01*
D21*
X119000000Y-127500000D02*
X119000000Y-127000000D01*
%TO.N,+12V*%
X201500000Y-67000000D02*
X209000000Y-67000000D01*
X201250000Y-67250000D02*
X201500000Y-67000000D01*
X209000000Y-67000000D02*
X209500000Y-66500000D01*
X209500000Y-66500000D02*
X210000000Y-66500000D01*
X210000000Y-66500000D02*
X212250000Y-64250000D01*
X215500000Y-83000000D02*
X206000000Y-83000000D01*
X215500000Y-94500000D02*
X197000000Y-94500000D01*
X136500000Y-135500000D02*
X136500000Y-138000000D01*
D20*
X215474695Y-120500000D02*
X214249695Y-121725000D01*
X214249695Y-121725000D02*
X202725000Y-121725000D01*
X202725000Y-121725000D02*
X202500000Y-121500000D01*
%TO.N,VREF*%
X198000000Y-68080000D02*
X183000000Y-68080000D01*
X183000000Y-68080000D02*
X182930000Y-68080000D01*
X182000000Y-70000000D02*
X183000000Y-69000000D01*
X183000000Y-69000000D02*
X183000000Y-68080000D01*
X182930000Y-68080000D02*
X181675000Y-66825000D01*
X208500000Y-69000000D02*
X207580000Y-68080000D01*
X207580000Y-68080000D02*
X198000000Y-68080000D01*
D21*
X119000000Y-127000000D02*
X101500000Y-109500000D01*
X101500000Y-109500000D02*
X100500000Y-109500000D01*
%TO.N,RXMUTE*%
X76000000Y-73000000D02*
X80500000Y-73000000D01*
X80500000Y-73000000D02*
X86000000Y-78500000D01*
X95500000Y-81000000D02*
X161500000Y-81000000D01*
X86000000Y-78500000D02*
X93000000Y-78500000D01*
X93000000Y-78500000D02*
X95500000Y-81000000D01*
X161500000Y-81000000D02*
X163000000Y-82500000D01*
X163000000Y-82500000D02*
X163000000Y-115000000D01*
X163000000Y-115000000D02*
X144760000Y-133240000D01*
X144760000Y-133240000D02*
X144760000Y-134500000D01*
%TO.N,SMETER*%
X152000000Y-57500000D02*
X165500000Y-71000000D01*
X165500000Y-71000000D02*
X165500000Y-115500000D01*
X165500000Y-115500000D02*
X152500000Y-128500000D01*
X152500000Y-128500000D02*
X152500000Y-129000000D01*
X152500000Y-129000000D02*
X152380000Y-129120000D01*
X152380000Y-129120000D02*
X152380000Y-134500000D01*
%TO.N,CWMUTE*%
X154920000Y-134500000D02*
X154920000Y-129580000D01*
X154920000Y-129580000D02*
X167000000Y-117500000D01*
X167000000Y-117500000D02*
X167000000Y-81000000D01*
%TO.N,SSBMUTE*%
X157460000Y-134500000D02*
X157460000Y-129540000D01*
X157460000Y-129540000D02*
X167850000Y-119150000D01*
X167850000Y-119150000D02*
X167850000Y-61150000D01*
X167850000Y-61150000D02*
X170000000Y-59000000D01*
%TD*%
%TA.AperFunction,Conductor*%
%TO.N,GND*%
G36*
X116574075Y-134307007D02*
G01*
X116540000Y-134434174D01*
X116540000Y-134565826D01*
X116574075Y-134692993D01*
X116606988Y-134750000D01*
X114933012Y-134750000D01*
X114965925Y-134692993D01*
X115000000Y-134565826D01*
X115000000Y-134434174D01*
X114965925Y-134307007D01*
X114933012Y-134250000D01*
X116606988Y-134250000D01*
X116574075Y-134307007D01*
G37*
%TD.AperFunction*%
%TA.AperFunction,Conductor*%
G36*
X218443039Y-46019685D02*
G01*
X218488794Y-46072489D01*
X218500000Y-46124000D01*
X218500000Y-142876000D01*
X218480315Y-142943039D01*
X218427511Y-142988794D01*
X218376000Y-143000000D01*
X58124640Y-143000000D01*
X58057601Y-142980315D01*
X58011846Y-142927511D01*
X58000642Y-142875361D01*
X58021295Y-138868794D01*
X58067010Y-129999996D01*
X59986401Y-129999996D01*
X59986401Y-130000003D01*
X60006778Y-130349857D01*
X60006779Y-130349868D01*
X60067630Y-130694975D01*
X60067632Y-130694982D01*
X60168143Y-131030713D01*
X60306946Y-131352492D01*
X60306952Y-131352505D01*
X60482175Y-131656001D01*
X60691445Y-131937100D01*
X60691450Y-131937106D01*
X60815654Y-132068754D01*
X60931943Y-132192012D01*
X61200403Y-132417278D01*
X61493200Y-132609853D01*
X61806374Y-132767135D01*
X62135690Y-132886996D01*
X62135696Y-132886997D01*
X62135698Y-132886998D01*
X62476678Y-132967813D01*
X62476685Y-132967814D01*
X62476694Y-132967816D01*
X62824775Y-133008500D01*
X62824782Y-133008500D01*
X63175218Y-133008500D01*
X63175225Y-133008500D01*
X63523306Y-132967816D01*
X63523315Y-132967813D01*
X63523321Y-132967813D01*
X63798371Y-132902623D01*
X63864310Y-132886996D01*
X64193626Y-132767135D01*
X64506800Y-132609853D01*
X64799597Y-132417278D01*
X65068057Y-132192012D01*
X65308551Y-131937104D01*
X65491512Y-131691345D01*
X68501500Y-131691345D01*
X68501500Y-136868654D01*
X68508011Y-136929202D01*
X68508011Y-136929204D01*
X68559111Y-137066204D01*
X68646739Y-137183261D01*
X68763796Y-137270889D01*
X68900799Y-137321989D01*
X68928050Y-137324918D01*
X68961345Y-137328499D01*
X68961362Y-137328500D01*
X70558638Y-137328500D01*
X70558654Y-137328499D01*
X70585692Y-137325591D01*
X70619201Y-137321989D01*
X70756204Y-137270889D01*
X70873261Y-137183261D01*
X70960889Y-137066204D01*
X71011989Y-136929201D01*
X71015591Y-136895692D01*
X71018499Y-136868654D01*
X71018500Y-136868637D01*
X71018500Y-131691362D01*
X71018499Y-131691345D01*
X73581500Y-131691345D01*
X73581500Y-136868654D01*
X73588011Y-136929202D01*
X73588011Y-136929204D01*
X73639111Y-137066204D01*
X73726739Y-137183261D01*
X73843796Y-137270889D01*
X73980799Y-137321989D01*
X74008050Y-137324918D01*
X74041345Y-137328499D01*
X74041362Y-137328500D01*
X75638638Y-137328500D01*
X75638654Y-137328499D01*
X75665692Y-137325591D01*
X75699201Y-137321989D01*
X75836204Y-137270889D01*
X75953261Y-137183261D01*
X76040889Y-137066204D01*
X76091989Y-136929201D01*
X76095591Y-136895692D01*
X76098499Y-136868654D01*
X76098500Y-136868637D01*
X76098500Y-131691362D01*
X76098499Y-131691345D01*
X78661500Y-131691345D01*
X78661500Y-136868654D01*
X78668011Y-136929202D01*
X78668011Y-136929204D01*
X78719111Y-137066204D01*
X78806739Y-137183261D01*
X78923796Y-137270889D01*
X79060799Y-137321989D01*
X79088050Y-137324918D01*
X79121345Y-137328499D01*
X79121362Y-137328500D01*
X80718638Y-137328500D01*
X80718654Y-137328499D01*
X80745692Y-137325591D01*
X80779201Y-137321989D01*
X80916204Y-137270889D01*
X81033261Y-137183261D01*
X81120889Y-137066204D01*
X81171989Y-136929201D01*
X81175591Y-136895692D01*
X81178499Y-136868654D01*
X81178500Y-136868637D01*
X81178500Y-131691362D01*
X81178499Y-131691345D01*
X83741500Y-131691345D01*
X83741500Y-136868654D01*
X83748011Y-136929202D01*
X83748011Y-136929204D01*
X83799111Y-137066204D01*
X83886739Y-137183261D01*
X84003796Y-137270889D01*
X84140799Y-137321989D01*
X84168050Y-137324918D01*
X84201345Y-137328499D01*
X84201362Y-137328500D01*
X85798638Y-137328500D01*
X85798654Y-137328499D01*
X85825692Y-137325591D01*
X85859201Y-137321989D01*
X85996204Y-137270889D01*
X86113261Y-137183261D01*
X86200889Y-137066204D01*
X86251989Y-136929201D01*
X86255591Y-136895692D01*
X86258499Y-136868654D01*
X86258500Y-136868637D01*
X86258500Y-131691362D01*
X86258499Y-131691345D01*
X88821500Y-131691345D01*
X88821500Y-136868654D01*
X88828011Y-136929202D01*
X88828011Y-136929204D01*
X88879111Y-137066204D01*
X88966739Y-137183261D01*
X89083796Y-137270889D01*
X89220799Y-137321989D01*
X89248050Y-137324918D01*
X89281345Y-137328499D01*
X89281362Y-137328500D01*
X90878638Y-137328500D01*
X90878654Y-137328499D01*
X90905692Y-137325591D01*
X90939201Y-137321989D01*
X91076204Y-137270889D01*
X91193261Y-137183261D01*
X91280889Y-137066204D01*
X91331989Y-136929201D01*
X91335591Y-136895692D01*
X91338499Y-136868654D01*
X91338500Y-136868637D01*
X91338500Y-131691362D01*
X91338499Y-131691345D01*
X93901500Y-131691345D01*
X93901500Y-136868654D01*
X93908011Y-136929202D01*
X93908011Y-136929204D01*
X93959111Y-137066204D01*
X94046739Y-137183261D01*
X94163796Y-137270889D01*
X94300799Y-137321989D01*
X94328050Y-137324918D01*
X94361345Y-137328499D01*
X94361362Y-137328500D01*
X95958638Y-137328500D01*
X95958654Y-137328499D01*
X95985692Y-137325591D01*
X96019201Y-137321989D01*
X96156204Y-137270889D01*
X96273261Y-137183261D01*
X96360889Y-137066204D01*
X96411989Y-136929201D01*
X96415591Y-136895692D01*
X96418499Y-136868654D01*
X96418500Y-136868637D01*
X96418500Y-134249999D01*
X113169364Y-134249999D01*
X113169364Y-134250000D01*
X114066988Y-134250000D01*
X114034075Y-134307007D01*
X114000000Y-134434174D01*
X114000000Y-134565826D01*
X114034075Y-134692993D01*
X114066988Y-134750000D01*
X113169364Y-134750000D01*
X113226567Y-134963486D01*
X113226570Y-134963492D01*
X113326399Y-135177578D01*
X113461894Y-135371082D01*
X113628917Y-135538105D01*
X113822421Y-135673600D01*
X114036507Y-135773429D01*
X114036516Y-135773433D01*
X114250000Y-135830634D01*
X114250000Y-134933012D01*
X114307007Y-134965925D01*
X114434174Y-135000000D01*
X114565826Y-135000000D01*
X114692993Y-134965925D01*
X114750000Y-134933012D01*
X114750000Y-135830633D01*
X114963483Y-135773433D01*
X114963492Y-135773429D01*
X115177578Y-135673600D01*
X115371082Y-135538105D01*
X115538105Y-135371082D01*
X115668425Y-135184968D01*
X115723002Y-135141344D01*
X115792501Y-135134151D01*
X115854855Y-135165673D01*
X115871575Y-135184968D01*
X116001894Y-135371082D01*
X116168917Y-135538105D01*
X116362421Y-135673600D01*
X116576507Y-135773429D01*
X116576516Y-135773433D01*
X116790000Y-135830634D01*
X116790000Y-134933012D01*
X116847007Y-134965925D01*
X116974174Y-135000000D01*
X117105826Y-135000000D01*
X117232993Y-134965925D01*
X117290000Y-134933012D01*
X117290000Y-135830633D01*
X117503483Y-135773433D01*
X117503492Y-135773429D01*
X117717578Y-135673600D01*
X117911082Y-135538105D01*
X118078105Y-135371082D01*
X118204868Y-135190048D01*
X118259445Y-135146423D01*
X118328944Y-135139231D01*
X118391298Y-135170753D01*
X118410251Y-135193350D01*
X118504276Y-135337265D01*
X118504284Y-135337276D01*
X118656756Y-135502902D01*
X118656760Y-135502906D01*
X118834424Y-135641189D01*
X118834425Y-135641189D01*
X118834427Y-135641191D01*
X118961135Y-135709761D01*
X119032426Y-135748342D01*
X119245365Y-135821444D01*
X119467431Y-135858500D01*
X119692569Y-135858500D01*
X119914635Y-135821444D01*
X120127574Y-135748342D01*
X120325576Y-135641189D01*
X120503240Y-135502906D01*
X120655722Y-135337268D01*
X120746193Y-135198790D01*
X120799338Y-135153437D01*
X120868569Y-135144013D01*
X120931905Y-135173515D01*
X120953804Y-135198787D01*
X121044278Y-135337268D01*
X121044283Y-135337273D01*
X121044284Y-135337276D01*
X121196756Y-135502902D01*
X121196760Y-135502906D01*
X121374424Y-135641189D01*
X121374425Y-135641189D01*
X121374427Y-135641191D01*
X121501135Y-135709761D01*
X121572426Y-135748342D01*
X121785365Y-135821444D01*
X122007431Y-135858500D01*
X122232569Y-135858500D01*
X122454635Y-135821444D01*
X122667574Y-135748342D01*
X122865576Y-135641189D01*
X123043240Y-135502906D01*
X123195722Y-135337268D01*
X123286193Y-135198790D01*
X123339338Y-135153437D01*
X123408569Y-135144013D01*
X123471905Y-135173515D01*
X123493804Y-135198787D01*
X123584278Y-135337268D01*
X123584283Y-135337273D01*
X123584284Y-135337276D01*
X123736756Y-135502902D01*
X123736760Y-135502906D01*
X123914424Y-135641189D01*
X123914425Y-135641189D01*
X123914427Y-135641191D01*
X124041135Y-135709761D01*
X124112426Y-135748342D01*
X124325365Y-135821444D01*
X124547431Y-135858500D01*
X124772569Y-135858500D01*
X124994635Y-135821444D01*
X125207574Y-135748342D01*
X125405576Y-135641189D01*
X125583240Y-135502906D01*
X125735722Y-135337268D01*
X125826193Y-135198790D01*
X125879338Y-135153437D01*
X125948569Y-135144013D01*
X126011905Y-135173515D01*
X126033804Y-135198787D01*
X126124278Y-135337268D01*
X126124283Y-135337273D01*
X126124284Y-135337276D01*
X126276756Y-135502902D01*
X126276760Y-135502906D01*
X126454424Y-135641189D01*
X126454425Y-135641189D01*
X126454427Y-135641191D01*
X126581135Y-135709761D01*
X126652426Y-135748342D01*
X126865365Y-135821444D01*
X127087431Y-135858500D01*
X127312569Y-135858500D01*
X127534635Y-135821444D01*
X127747574Y-135748342D01*
X127945576Y-135641189D01*
X128123240Y-135502906D01*
X128275722Y-135337268D01*
X128366193Y-135198790D01*
X128419338Y-135153437D01*
X128488569Y-135144013D01*
X128551905Y-135173515D01*
X128573804Y-135198787D01*
X128664278Y-135337268D01*
X128664283Y-135337273D01*
X128664284Y-135337276D01*
X128816756Y-135502902D01*
X128816760Y-135502906D01*
X128994424Y-135641189D01*
X128994425Y-135641189D01*
X128994427Y-135641191D01*
X129121135Y-135709761D01*
X129192426Y-135748342D01*
X129405365Y-135821444D01*
X129627431Y-135858500D01*
X129852569Y-135858500D01*
X130074635Y-135821444D01*
X130287574Y-135748342D01*
X130485576Y-135641189D01*
X130663240Y-135502906D01*
X130726452Y-135434239D01*
X130786337Y-135398250D01*
X130856175Y-135400349D01*
X130913791Y-135439873D01*
X130933861Y-135474888D01*
X130979111Y-135596204D01*
X131066739Y-135713261D01*
X131183796Y-135800889D01*
X131320799Y-135851989D01*
X131348050Y-135854918D01*
X131381345Y-135858499D01*
X131381362Y-135858500D01*
X133178638Y-135858500D01*
X133178654Y-135858499D01*
X133205692Y-135855591D01*
X133239201Y-135851989D01*
X133376204Y-135800889D01*
X133493261Y-135713261D01*
X133580889Y-135596204D01*
X133631989Y-135459201D01*
X133635591Y-135425692D01*
X133638499Y-135398654D01*
X133638500Y-135398637D01*
X133638500Y-133601362D01*
X133638499Y-133601345D01*
X133634672Y-133565759D01*
X133631989Y-133540799D01*
X133580889Y-133403796D01*
X133493261Y-133286739D01*
X133376204Y-133199111D01*
X133239203Y-133148011D01*
X133178654Y-133141500D01*
X133178638Y-133141500D01*
X131381362Y-133141500D01*
X131381345Y-133141500D01*
X131320797Y-133148011D01*
X131320795Y-133148011D01*
X131183795Y-133199111D01*
X131066739Y-133286739D01*
X130979111Y-133403795D01*
X130933861Y-133525111D01*
X130891989Y-133581044D01*
X130826524Y-133605460D01*
X130758252Y-133590607D01*
X130726454Y-133565762D01*
X130663240Y-133497094D01*
X130485576Y-133358811D01*
X130485575Y-133358810D01*
X130485572Y-133358808D01*
X130287580Y-133251661D01*
X130287577Y-133251659D01*
X130287574Y-133251658D01*
X130287571Y-133251657D01*
X130287569Y-133251656D01*
X130074637Y-133178556D01*
X129852569Y-133141500D01*
X129627431Y-133141500D01*
X129405362Y-133178556D01*
X129192430Y-133251656D01*
X129192419Y-133251661D01*
X128994427Y-133358808D01*
X128994422Y-133358812D01*
X128816761Y-133497092D01*
X128816756Y-133497097D01*
X128664284Y-133662723D01*
X128664276Y-133662734D01*
X128573808Y-133801206D01*
X128520662Y-133846562D01*
X128451431Y-133855986D01*
X128388095Y-133826484D01*
X128366192Y-133801206D01*
X128275723Y-133662734D01*
X128275715Y-133662723D01*
X128123243Y-133497097D01*
X128123238Y-133497092D01*
X127966747Y-133375289D01*
X127945576Y-133358811D01*
X127945575Y-133358810D01*
X127945572Y-133358808D01*
X127747580Y-133251661D01*
X127747577Y-133251659D01*
X127747574Y-133251658D01*
X127747571Y-133251657D01*
X127747569Y-133251656D01*
X127534637Y-133178556D01*
X127312569Y-133141500D01*
X127087431Y-133141500D01*
X126865362Y-133178556D01*
X126652430Y-133251656D01*
X126652419Y-133251661D01*
X126454427Y-133358808D01*
X126454422Y-133358812D01*
X126276761Y-133497092D01*
X126276756Y-133497097D01*
X126124284Y-133662723D01*
X126124276Y-133662734D01*
X126033808Y-133801206D01*
X125980662Y-133846562D01*
X125911431Y-133855986D01*
X125848095Y-133826484D01*
X125826192Y-133801206D01*
X125735723Y-133662734D01*
X125735715Y-133662723D01*
X125583243Y-133497097D01*
X125583238Y-133497092D01*
X125426747Y-133375289D01*
X125405576Y-133358811D01*
X125405575Y-133358810D01*
X125405572Y-133358808D01*
X125207580Y-133251661D01*
X125207577Y-133251659D01*
X125207574Y-133251658D01*
X125207571Y-133251657D01*
X125207569Y-133251656D01*
X124994637Y-133178556D01*
X124772569Y-133141500D01*
X124547431Y-133141500D01*
X124325362Y-133178556D01*
X124112430Y-133251656D01*
X124112419Y-133251661D01*
X123914427Y-133358808D01*
X123914422Y-133358812D01*
X123736761Y-133497092D01*
X123736756Y-133497097D01*
X123584284Y-133662723D01*
X123584276Y-133662734D01*
X123493808Y-133801206D01*
X123440662Y-133846562D01*
X123371431Y-133855986D01*
X123308095Y-133826484D01*
X123286192Y-133801206D01*
X123195723Y-133662734D01*
X123195715Y-133662723D01*
X123043243Y-133497097D01*
X123043238Y-133497092D01*
X122886747Y-133375289D01*
X122865576Y-133358811D01*
X122865575Y-133358810D01*
X122865572Y-133358808D01*
X122667580Y-133251661D01*
X122667577Y-133251659D01*
X122667574Y-133251658D01*
X122667571Y-133251657D01*
X122667569Y-133251656D01*
X122454637Y-133178556D01*
X122232569Y-133141500D01*
X122007431Y-133141500D01*
X121785362Y-133178556D01*
X121572430Y-133251656D01*
X121572419Y-133251661D01*
X121374427Y-133358808D01*
X121374422Y-133358812D01*
X121196761Y-133497092D01*
X121196756Y-133497097D01*
X121044284Y-133662723D01*
X121044276Y-133662734D01*
X120953808Y-133801206D01*
X120900662Y-133846562D01*
X120831431Y-133855986D01*
X120768095Y-133826484D01*
X120746192Y-133801206D01*
X120655723Y-133662734D01*
X120655715Y-133662723D01*
X120503243Y-133497097D01*
X120503238Y-133497092D01*
X120346747Y-133375289D01*
X120325576Y-133358811D01*
X120325575Y-133358810D01*
X120325572Y-133358808D01*
X120127580Y-133251661D01*
X120127577Y-133251659D01*
X120127574Y-133251658D01*
X120127571Y-133251657D01*
X120127569Y-133251656D01*
X119914637Y-133178556D01*
X119692569Y-133141500D01*
X119467431Y-133141500D01*
X119245362Y-133178556D01*
X119032430Y-133251656D01*
X119032419Y-133251661D01*
X118834427Y-133358808D01*
X118834422Y-133358812D01*
X118656761Y-133497092D01*
X118656756Y-133497097D01*
X118504284Y-133662723D01*
X118504276Y-133662734D01*
X118410251Y-133806650D01*
X118357105Y-133852007D01*
X118287873Y-133861430D01*
X118224538Y-133831928D01*
X118204868Y-133809951D01*
X118078113Y-133628926D01*
X118078108Y-133628920D01*
X117911082Y-133461894D01*
X117717578Y-133326399D01*
X117503492Y-133226570D01*
X117503486Y-133226567D01*
X117290000Y-133169364D01*
X117290000Y-134066988D01*
X117232993Y-134034075D01*
X117105826Y-134000000D01*
X116974174Y-134000000D01*
X116847007Y-134034075D01*
X116790000Y-134066988D01*
X116790000Y-133169364D01*
X116789999Y-133169364D01*
X116576513Y-133226567D01*
X116576507Y-133226570D01*
X116362422Y-133326399D01*
X116362420Y-133326400D01*
X116168926Y-133461886D01*
X116168920Y-133461891D01*
X116001891Y-133628920D01*
X116001890Y-133628922D01*
X115871575Y-133815031D01*
X115816998Y-133858655D01*
X115747499Y-133865848D01*
X115685145Y-133834326D01*
X115668425Y-133815031D01*
X115538109Y-133628922D01*
X115538108Y-133628920D01*
X115371082Y-133461894D01*
X115177578Y-133326399D01*
X114963492Y-133226570D01*
X114963486Y-133226567D01*
X114750000Y-133169364D01*
X114750000Y-134066988D01*
X114692993Y-134034075D01*
X114565826Y-134000000D01*
X114434174Y-134000000D01*
X114307007Y-134034075D01*
X114250000Y-134066988D01*
X114250000Y-133169364D01*
X114249999Y-133169364D01*
X114036513Y-133226567D01*
X114036507Y-133226570D01*
X113822422Y-133326399D01*
X113822420Y-133326400D01*
X113628926Y-133461886D01*
X113628920Y-133461891D01*
X113461891Y-133628920D01*
X113461886Y-133628926D01*
X113326400Y-133822420D01*
X113326399Y-133822422D01*
X113226570Y-134036507D01*
X113226567Y-134036513D01*
X113169364Y-134249999D01*
X96418500Y-134249999D01*
X96418500Y-131691362D01*
X96418499Y-131691345D01*
X96414698Y-131656000D01*
X96411989Y-131630799D01*
X96360889Y-131493796D01*
X96273261Y-131376739D01*
X96156204Y-131289111D01*
X96019203Y-131238011D01*
X95958654Y-131231500D01*
X95958638Y-131231500D01*
X94361362Y-131231500D01*
X94361345Y-131231500D01*
X94300797Y-131238011D01*
X94300795Y-131238011D01*
X94163795Y-131289111D01*
X94046739Y-131376739D01*
X93959111Y-131493795D01*
X93908011Y-131630795D01*
X93908011Y-131630797D01*
X93901500Y-131691345D01*
X91338499Y-131691345D01*
X91334698Y-131656000D01*
X91331989Y-131630799D01*
X91280889Y-131493796D01*
X91193261Y-131376739D01*
X91076204Y-131289111D01*
X90939203Y-131238011D01*
X90878654Y-131231500D01*
X90878638Y-131231500D01*
X89281362Y-131231500D01*
X89281345Y-131231500D01*
X89220797Y-131238011D01*
X89220795Y-131238011D01*
X89083795Y-131289111D01*
X88966739Y-131376739D01*
X88879111Y-131493795D01*
X88828011Y-131630795D01*
X88828011Y-131630797D01*
X88821500Y-131691345D01*
X86258499Y-131691345D01*
X86254698Y-131656000D01*
X86251989Y-131630799D01*
X86200889Y-131493796D01*
X86113261Y-131376739D01*
X85996204Y-131289111D01*
X85859203Y-131238011D01*
X85798654Y-131231500D01*
X85798638Y-131231500D01*
X84201362Y-131231500D01*
X84201345Y-131231500D01*
X84140797Y-131238011D01*
X84140795Y-131238011D01*
X84003795Y-131289111D01*
X83886739Y-131376739D01*
X83799111Y-131493795D01*
X83748011Y-131630795D01*
X83748011Y-131630797D01*
X83741500Y-131691345D01*
X81178499Y-131691345D01*
X81174698Y-131656000D01*
X81171989Y-131630799D01*
X81120889Y-131493796D01*
X81033261Y-131376739D01*
X80916204Y-131289111D01*
X80779203Y-131238011D01*
X80718654Y-131231500D01*
X80718638Y-131231500D01*
X79121362Y-131231500D01*
X79121345Y-131231500D01*
X79060797Y-131238011D01*
X79060795Y-131238011D01*
X78923795Y-131289111D01*
X78806739Y-131376739D01*
X78719111Y-131493795D01*
X78668011Y-131630795D01*
X78668011Y-131630797D01*
X78661500Y-131691345D01*
X76098499Y-131691345D01*
X76094698Y-131656000D01*
X76091989Y-131630799D01*
X76040889Y-131493796D01*
X75953261Y-131376739D01*
X75836204Y-131289111D01*
X75699203Y-131238011D01*
X75638654Y-131231500D01*
X75638638Y-131231500D01*
X74041362Y-131231500D01*
X74041345Y-131231500D01*
X73980797Y-131238011D01*
X73980795Y-131238011D01*
X73843795Y-131289111D01*
X73726739Y-131376739D01*
X73639111Y-131493795D01*
X73588011Y-131630795D01*
X73588011Y-131630797D01*
X73581500Y-131691345D01*
X71018499Y-131691345D01*
X71014698Y-131656000D01*
X71011989Y-131630799D01*
X70960889Y-131493796D01*
X70873261Y-131376739D01*
X70756204Y-131289111D01*
X70619203Y-131238011D01*
X70558654Y-131231500D01*
X70558638Y-131231500D01*
X68961362Y-131231500D01*
X68961345Y-131231500D01*
X68900797Y-131238011D01*
X68900795Y-131238011D01*
X68763795Y-131289111D01*
X68646739Y-131376739D01*
X68559111Y-131493795D01*
X68508011Y-131630795D01*
X68508011Y-131630797D01*
X68501500Y-131691345D01*
X65491512Y-131691345D01*
X65517825Y-131656000D01*
X65693050Y-131352501D01*
X65831857Y-131030712D01*
X65932367Y-130694984D01*
X65993222Y-130349857D01*
X66013599Y-130000000D01*
X65993222Y-129650143D01*
X65976478Y-129555181D01*
X65932369Y-129305024D01*
X65932367Y-129305017D01*
X65907129Y-129220715D01*
X65831857Y-128969288D01*
X65693050Y-128647499D01*
X65517825Y-128344000D01*
X65505784Y-128327826D01*
X65308554Y-128062899D01*
X65308549Y-128062893D01*
X65128030Y-127871556D01*
X65068057Y-127807988D01*
X65068050Y-127807982D01*
X65068048Y-127807980D01*
X64799600Y-127582724D01*
X64799597Y-127582722D01*
X64506800Y-127390147D01*
X64347348Y-127310067D01*
X64193633Y-127232868D01*
X64193627Y-127232865D01*
X63864322Y-127113008D01*
X63864301Y-127113001D01*
X63523321Y-127032186D01*
X63523306Y-127032184D01*
X63175225Y-126991500D01*
X62824775Y-126991500D01*
X62533590Y-127025534D01*
X62476693Y-127032184D01*
X62476678Y-127032186D01*
X62135698Y-127113001D01*
X62135677Y-127113008D01*
X61806372Y-127232865D01*
X61806366Y-127232868D01*
X61493203Y-127390145D01*
X61200399Y-127582724D01*
X60931951Y-127807980D01*
X60931941Y-127807990D01*
X60691450Y-128062893D01*
X60691445Y-128062899D01*
X60482175Y-128343998D01*
X60306952Y-128647494D01*
X60306946Y-128647507D01*
X60168143Y-128969286D01*
X60067632Y-129305017D01*
X60067630Y-129305024D01*
X60006779Y-129650131D01*
X60006778Y-129650142D01*
X59986401Y-129999996D01*
X58067010Y-129999996D01*
X58136598Y-116500000D01*
X66706697Y-116500000D01*
X66725895Y-116841856D01*
X66725897Y-116841868D01*
X66783249Y-117179420D01*
X66783251Y-117179429D01*
X66878036Y-117508436D01*
X67009065Y-117824772D01*
X67009067Y-117824776D01*
X67009069Y-117824779D01*
X67174694Y-118124455D01*
X67372832Y-118403703D01*
X67600989Y-118659011D01*
X67856297Y-118887168D01*
X68135545Y-119085306D01*
X68387769Y-119224705D01*
X68435223Y-119250932D01*
X68435227Y-119250934D01*
X68537904Y-119293463D01*
X68751558Y-119381962D01*
X69080576Y-119476750D01*
X69418139Y-119534104D01*
X69760000Y-119553303D01*
X70101861Y-119534104D01*
X70439424Y-119476750D01*
X70768442Y-119381962D01*
X71084779Y-119250931D01*
X71384455Y-119085306D01*
X71663703Y-118887168D01*
X71919011Y-118659011D01*
X72147168Y-118403703D01*
X72345306Y-118124455D01*
X72510931Y-117824779D01*
X72641962Y-117508442D01*
X72736750Y-117179424D01*
X72794104Y-116841861D01*
X72813303Y-116500000D01*
X72794104Y-116158139D01*
X72736750Y-115820576D01*
X72698943Y-115689345D01*
X73569500Y-115689345D01*
X73569500Y-117310654D01*
X73576011Y-117371202D01*
X73576011Y-117371204D01*
X73615462Y-117476972D01*
X73627111Y-117508204D01*
X73714739Y-117625261D01*
X73831796Y-117712889D01*
X73968799Y-117763989D01*
X73995141Y-117766821D01*
X74029345Y-117770499D01*
X74029362Y-117770500D01*
X75650638Y-117770500D01*
X75650654Y-117770499D01*
X75677692Y-117767591D01*
X75711201Y-117763989D01*
X75848204Y-117712889D01*
X75965261Y-117625261D01*
X76052889Y-117508204D01*
X76103989Y-117371201D01*
X76109517Y-117319785D01*
X76110499Y-117310654D01*
X76110500Y-117310637D01*
X76110500Y-117280474D01*
X76130185Y-117213435D01*
X76182989Y-117167680D01*
X76252147Y-117157736D01*
X76315703Y-117186761D01*
X76325815Y-117197974D01*
X76328258Y-117198188D01*
X76999000Y-116527446D01*
X76999000Y-116550160D01*
X77024964Y-116647061D01*
X77075124Y-116733940D01*
X77146060Y-116804876D01*
X77232939Y-116855036D01*
X77329840Y-116881000D01*
X77352553Y-116881000D01*
X76681810Y-117551740D01*
X76746590Y-117597099D01*
X76746592Y-117597100D01*
X76946715Y-117690419D01*
X76946729Y-117690424D01*
X77160013Y-117747573D01*
X77160023Y-117747575D01*
X77379999Y-117766821D01*
X77380001Y-117766821D01*
X77599976Y-117747575D01*
X77599986Y-117747573D01*
X77813270Y-117690424D01*
X77813284Y-117690419D01*
X78013407Y-117597100D01*
X78013417Y-117597094D01*
X78078188Y-117551741D01*
X77407448Y-116881000D01*
X77430160Y-116881000D01*
X77527061Y-116855036D01*
X77613940Y-116804876D01*
X77684876Y-116733940D01*
X77735036Y-116647061D01*
X77761000Y-116550160D01*
X77761000Y-116527447D01*
X78431741Y-117198188D01*
X78477094Y-117133417D01*
X78477095Y-117133416D01*
X78532927Y-117013683D01*
X78579099Y-116961244D01*
X78646293Y-116942091D01*
X78713174Y-116962306D01*
X78757692Y-117013682D01*
X78815511Y-117137676D01*
X78836520Y-117167680D01*
X78943023Y-117319781D01*
X79100219Y-117476977D01*
X79282323Y-117604488D01*
X79483804Y-117698440D01*
X79698537Y-117755978D01*
X79856724Y-117769817D01*
X79919998Y-117775353D01*
X79920000Y-117775353D01*
X79920002Y-117775353D01*
X79975483Y-117770499D01*
X80141463Y-117755978D01*
X80356196Y-117698440D01*
X80557677Y-117604488D01*
X80739781Y-117476977D01*
X80896977Y-117319781D01*
X81024488Y-117137677D01*
X81077618Y-117023738D01*
X81123790Y-116971299D01*
X81190983Y-116952147D01*
X81257865Y-116972363D01*
X81302382Y-117023739D01*
X81353525Y-117133417D01*
X81355512Y-117137677D01*
X81483023Y-117319781D01*
X81640219Y-117476977D01*
X81822323Y-117604488D01*
X82023804Y-117698440D01*
X82238537Y-117755978D01*
X82396724Y-117769817D01*
X82459998Y-117775353D01*
X82460000Y-117775353D01*
X82460002Y-117775353D01*
X82515483Y-117770499D01*
X82681463Y-117755978D01*
X82896196Y-117698440D01*
X83097677Y-117604488D01*
X83279781Y-117476977D01*
X83436977Y-117319781D01*
X83564488Y-117137677D01*
X83617618Y-117023738D01*
X83663790Y-116971299D01*
X83730983Y-116952147D01*
X83797865Y-116972363D01*
X83842382Y-117023739D01*
X83893525Y-117133417D01*
X83895512Y-117137677D01*
X84023023Y-117319781D01*
X84180219Y-117476977D01*
X84362323Y-117604488D01*
X84563804Y-117698440D01*
X84778537Y-117755978D01*
X84936724Y-117769817D01*
X84999998Y-117775353D01*
X85000000Y-117775353D01*
X85000002Y-117775353D01*
X85055483Y-117770499D01*
X85221463Y-117755978D01*
X85436196Y-117698440D01*
X85637677Y-117604488D01*
X85819781Y-117476977D01*
X85976977Y-117319781D01*
X86104488Y-117137677D01*
X86157618Y-117023738D01*
X86203790Y-116971299D01*
X86270983Y-116952147D01*
X86337865Y-116972363D01*
X86382382Y-117023739D01*
X86433525Y-117133417D01*
X86435512Y-117137677D01*
X86563023Y-117319781D01*
X86720219Y-117476977D01*
X86902323Y-117604488D01*
X87103804Y-117698440D01*
X87318537Y-117755978D01*
X87476724Y-117769817D01*
X87539998Y-117775353D01*
X87540000Y-117775353D01*
X87540002Y-117775353D01*
X87595483Y-117770499D01*
X87761463Y-117755978D01*
X87976196Y-117698440D01*
X88177677Y-117604488D01*
X88359781Y-117476977D01*
X88516977Y-117319781D01*
X88644488Y-117137677D01*
X88697618Y-117023738D01*
X88743790Y-116971299D01*
X88810983Y-116952147D01*
X88877865Y-116972363D01*
X88922382Y-117023739D01*
X88973525Y-117133417D01*
X88975512Y-117137677D01*
X89103023Y-117319781D01*
X89260219Y-117476977D01*
X89442323Y-117604488D01*
X89643804Y-117698440D01*
X89858537Y-117755978D01*
X90016724Y-117769817D01*
X90079998Y-117775353D01*
X90080000Y-117775353D01*
X90080002Y-117775353D01*
X90135483Y-117770499D01*
X90301463Y-117755978D01*
X90516196Y-117698440D01*
X90717677Y-117604488D01*
X90899781Y-117476977D01*
X91056977Y-117319781D01*
X91184488Y-117137677D01*
X91278440Y-116936196D01*
X91335978Y-116721463D01*
X91355353Y-116500000D01*
X92106697Y-116500000D01*
X92125895Y-116841856D01*
X92125897Y-116841868D01*
X92183249Y-117179420D01*
X92183251Y-117179429D01*
X92278036Y-117508436D01*
X92409065Y-117824772D01*
X92409067Y-117824776D01*
X92409069Y-117824779D01*
X92574694Y-118124455D01*
X92772832Y-118403703D01*
X93000989Y-118659011D01*
X93256297Y-118887168D01*
X93535545Y-119085306D01*
X93787769Y-119224705D01*
X93835223Y-119250932D01*
X93835227Y-119250934D01*
X93937904Y-119293463D01*
X94151558Y-119381962D01*
X94480576Y-119476750D01*
X94818139Y-119534104D01*
X95160000Y-119553303D01*
X95501861Y-119534104D01*
X95839424Y-119476750D01*
X96168442Y-119381962D01*
X96484779Y-119250931D01*
X96784455Y-119085306D01*
X97063703Y-118887168D01*
X97319011Y-118659011D01*
X97547168Y-118403703D01*
X97745306Y-118124455D01*
X97910931Y-117824779D01*
X98041962Y-117508442D01*
X98136750Y-117179424D01*
X98194104Y-116841861D01*
X98213303Y-116500000D01*
X98194104Y-116158139D01*
X98136750Y-115820576D01*
X98041962Y-115491558D01*
X97933417Y-115229506D01*
X97910934Y-115175227D01*
X97910932Y-115175223D01*
X97745304Y-114875542D01*
X97547168Y-114596297D01*
X97319011Y-114340989D01*
X97063703Y-114112832D01*
X97063702Y-114112831D01*
X96784457Y-113914695D01*
X96484776Y-113749067D01*
X96484772Y-113749065D01*
X96265240Y-113658133D01*
X96168442Y-113618038D01*
X96168438Y-113618036D01*
X96168436Y-113618036D01*
X95839429Y-113523251D01*
X95839420Y-113523249D01*
X95501868Y-113465897D01*
X95501856Y-113465895D01*
X95160000Y-113446697D01*
X94818143Y-113465895D01*
X94818131Y-113465897D01*
X94480579Y-113523249D01*
X94480570Y-113523251D01*
X94151563Y-113618036D01*
X93835227Y-113749065D01*
X93835223Y-113749067D01*
X93535542Y-113914695D01*
X93256297Y-114112831D01*
X93000989Y-114340989D01*
X92772831Y-114596297D01*
X92574695Y-114875542D01*
X92409067Y-115175223D01*
X92409065Y-115175227D01*
X92278036Y-115491563D01*
X92183251Y-115820570D01*
X92183249Y-115820579D01*
X92125897Y-116158131D01*
X92125895Y-116158143D01*
X92106697Y-116500000D01*
X91355353Y-116500000D01*
X91335978Y-116278537D01*
X91278440Y-116063804D01*
X91184488Y-115862324D01*
X91184485Y-115862320D01*
X91184485Y-115862319D01*
X91056978Y-115680220D01*
X91005553Y-115628795D01*
X90899781Y-115523023D01*
X90728230Y-115402901D01*
X90717676Y-115395511D01*
X90616936Y-115348536D01*
X90516196Y-115301560D01*
X90516193Y-115301559D01*
X90516191Y-115301558D01*
X90301465Y-115244022D01*
X90301457Y-115244021D01*
X90080002Y-115224647D01*
X90079998Y-115224647D01*
X89858542Y-115244021D01*
X89858535Y-115244022D01*
X89643800Y-115301561D01*
X89442323Y-115395512D01*
X89442319Y-115395514D01*
X89260217Y-115523023D01*
X89103023Y-115680217D01*
X88975514Y-115862319D01*
X88975512Y-115862323D01*
X88922382Y-115976261D01*
X88876209Y-116028700D01*
X88809016Y-116047852D01*
X88742135Y-116027636D01*
X88697618Y-115976261D01*
X88677434Y-115932977D01*
X88644488Y-115862324D01*
X88644485Y-115862320D01*
X88644485Y-115862319D01*
X88516978Y-115680220D01*
X88465553Y-115628795D01*
X88359781Y-115523023D01*
X88188230Y-115402901D01*
X88177676Y-115395511D01*
X88076936Y-115348536D01*
X87976196Y-115301560D01*
X87976193Y-115301559D01*
X87976191Y-115301558D01*
X87761465Y-115244022D01*
X87761457Y-115244021D01*
X87540002Y-115224647D01*
X87539998Y-115224647D01*
X87318542Y-115244021D01*
X87318535Y-115244022D01*
X87103800Y-115301561D01*
X86902323Y-115395512D01*
X86902319Y-115395514D01*
X86720217Y-115523023D01*
X86563023Y-115680217D01*
X86435514Y-115862319D01*
X86435512Y-115862323D01*
X86382382Y-115976261D01*
X86336209Y-116028700D01*
X86269016Y-116047852D01*
X86202135Y-116027636D01*
X86157618Y-115976261D01*
X86137434Y-115932977D01*
X86104488Y-115862324D01*
X86104485Y-115862320D01*
X86104485Y-115862319D01*
X85976978Y-115680220D01*
X85925553Y-115628795D01*
X85819781Y-115523023D01*
X85648230Y-115402901D01*
X85637676Y-115395511D01*
X85536936Y-115348536D01*
X85436196Y-115301560D01*
X85436193Y-115301559D01*
X85436191Y-115301558D01*
X85221465Y-115244022D01*
X85221457Y-115244021D01*
X85000002Y-115224647D01*
X84999998Y-115224647D01*
X84778542Y-115244021D01*
X84778535Y-115244022D01*
X84563800Y-115301561D01*
X84362323Y-115395512D01*
X84362319Y-115395514D01*
X84180217Y-115523023D01*
X84023023Y-115680217D01*
X83895514Y-115862319D01*
X83895512Y-115862323D01*
X83842382Y-115976261D01*
X83796209Y-116028700D01*
X83729016Y-116047852D01*
X83662135Y-116027636D01*
X83617618Y-115976261D01*
X83597434Y-115932977D01*
X83564488Y-115862324D01*
X83564485Y-115862320D01*
X83564485Y-115862319D01*
X83436978Y-115680220D01*
X83385553Y-115628795D01*
X83279781Y-115523023D01*
X83108230Y-115402901D01*
X83097676Y-115395511D01*
X82996936Y-115348536D01*
X82896196Y-115301560D01*
X82896193Y-115301559D01*
X82896191Y-115301558D01*
X82681465Y-115244022D01*
X82681457Y-115244021D01*
X82460002Y-115224647D01*
X82459998Y-115224647D01*
X82238542Y-115244021D01*
X82238535Y-115244022D01*
X82023800Y-115301561D01*
X81822323Y-115395512D01*
X81822319Y-115395514D01*
X81640217Y-115523023D01*
X81483023Y-115680217D01*
X81355514Y-115862319D01*
X81355512Y-115862323D01*
X81302382Y-115976261D01*
X81256209Y-116028700D01*
X81189016Y-116047852D01*
X81122135Y-116027636D01*
X81077618Y-115976261D01*
X81057434Y-115932977D01*
X81024488Y-115862324D01*
X81024485Y-115862320D01*
X81024485Y-115862319D01*
X80896978Y-115680220D01*
X80845553Y-115628795D01*
X80739781Y-115523023D01*
X80568230Y-115402901D01*
X80557676Y-115395511D01*
X80456936Y-115348536D01*
X80356196Y-115301560D01*
X80356193Y-115301559D01*
X80356191Y-115301558D01*
X80141465Y-115244022D01*
X80141457Y-115244021D01*
X79920002Y-115224647D01*
X79919998Y-115224647D01*
X79698542Y-115244021D01*
X79698535Y-115244022D01*
X79483800Y-115301561D01*
X79282323Y-115395512D01*
X79282319Y-115395514D01*
X79100217Y-115523023D01*
X78943023Y-115680217D01*
X78815514Y-115862319D01*
X78815514Y-115862320D01*
X78757692Y-115986318D01*
X78711519Y-116038757D01*
X78644325Y-116057908D01*
X78577444Y-116037692D01*
X78532928Y-115986316D01*
X78477098Y-115866589D01*
X78477097Y-115866587D01*
X78431741Y-115801811D01*
X78431740Y-115801810D01*
X77761000Y-116472551D01*
X77761000Y-116449840D01*
X77735036Y-116352939D01*
X77684876Y-116266060D01*
X77613940Y-116195124D01*
X77527061Y-116144964D01*
X77430160Y-116119000D01*
X77407447Y-116119000D01*
X78078188Y-115448258D01*
X78013411Y-115402901D01*
X78013405Y-115402898D01*
X77813284Y-115309580D01*
X77813270Y-115309575D01*
X77599986Y-115252426D01*
X77599976Y-115252424D01*
X77380001Y-115233179D01*
X77379999Y-115233179D01*
X77160023Y-115252424D01*
X77160013Y-115252426D01*
X76946729Y-115309575D01*
X76946720Y-115309579D01*
X76746590Y-115402901D01*
X76681811Y-115448258D01*
X77352554Y-116119000D01*
X77329840Y-116119000D01*
X77232939Y-116144964D01*
X77146060Y-116195124D01*
X77075124Y-116266060D01*
X77024964Y-116352939D01*
X76999000Y-116449840D01*
X76999000Y-116472553D01*
X76328257Y-115801810D01*
X76321352Y-115802415D01*
X76281499Y-115834271D01*
X76212001Y-115841465D01*
X76149646Y-115809943D01*
X76114231Y-115749713D01*
X76110500Y-115719523D01*
X76110500Y-115689362D01*
X76110499Y-115689345D01*
X76107157Y-115658270D01*
X76103989Y-115628799D01*
X76052889Y-115491796D01*
X75965261Y-115374739D01*
X75848204Y-115287111D01*
X75711203Y-115236011D01*
X75650654Y-115229500D01*
X75650638Y-115229500D01*
X74029362Y-115229500D01*
X74029345Y-115229500D01*
X73968797Y-115236011D01*
X73968795Y-115236011D01*
X73831795Y-115287111D01*
X73714739Y-115374739D01*
X73627111Y-115491795D01*
X73576011Y-115628795D01*
X73576011Y-115628797D01*
X73569500Y-115689345D01*
X72698943Y-115689345D01*
X72641962Y-115491558D01*
X72533417Y-115229506D01*
X72510934Y-115175227D01*
X72510932Y-115175223D01*
X72345304Y-114875542D01*
X72147168Y-114596297D01*
X71919011Y-114340989D01*
X71663703Y-114112832D01*
X71663702Y-114112831D01*
X71384457Y-113914695D01*
X71084776Y-113749067D01*
X71084772Y-113749065D01*
X70865240Y-113658133D01*
X70768442Y-113618038D01*
X70768438Y-113618036D01*
X70768436Y-113618036D01*
X70439429Y-113523251D01*
X70439420Y-113523249D01*
X70101868Y-113465897D01*
X70101856Y-113465895D01*
X69760000Y-113446697D01*
X69418143Y-113465895D01*
X69418131Y-113465897D01*
X69080579Y-113523249D01*
X69080570Y-113523251D01*
X68751563Y-113618036D01*
X68435227Y-113749065D01*
X68435223Y-113749067D01*
X68135542Y-113914695D01*
X67856297Y-114112831D01*
X67600989Y-114340989D01*
X67372831Y-114596297D01*
X67174695Y-114875542D01*
X67009067Y-115175223D01*
X67009065Y-115175227D01*
X66878036Y-115491563D01*
X66783251Y-115820570D01*
X66783249Y-115820579D01*
X66725897Y-116158131D01*
X66725895Y-116158143D01*
X66706697Y-116500000D01*
X58136598Y-116500000D01*
X58172680Y-109500000D01*
X99586496Y-109500000D01*
X99606458Y-109689928D01*
X99606459Y-109689931D01*
X99665470Y-109871549D01*
X99665473Y-109871556D01*
X99760960Y-110036944D01*
X99888747Y-110178866D01*
X100043248Y-110291118D01*
X100217712Y-110368794D01*
X100404513Y-110408500D01*
X100595487Y-110408500D01*
X100782288Y-110368794D01*
X100956752Y-110291118D01*
X100969051Y-110282181D01*
X101034858Y-110258702D01*
X101041937Y-110258500D01*
X101134457Y-110258500D01*
X101201496Y-110278185D01*
X101222138Y-110294819D01*
X118084836Y-127157517D01*
X118118321Y-127218840D01*
X118115087Y-127283513D01*
X118106459Y-127310067D01*
X118106458Y-127310070D01*
X118106458Y-127310072D01*
X118086496Y-127500000D01*
X118106458Y-127689928D01*
X118106459Y-127689931D01*
X118165470Y-127871549D01*
X118165473Y-127871556D01*
X118260960Y-128036944D01*
X118388747Y-128178866D01*
X118543248Y-128291118D01*
X118717712Y-128368794D01*
X118904513Y-128408500D01*
X119095487Y-128408500D01*
X119282288Y-128368794D01*
X119456752Y-128291118D01*
X119611253Y-128178866D01*
X119739040Y-128036944D01*
X119834527Y-127871556D01*
X119893542Y-127689928D01*
X119913504Y-127500000D01*
X119893542Y-127310072D01*
X119834527Y-127128444D01*
X119775111Y-127025533D01*
X119758500Y-126963535D01*
X119758500Y-126925291D01*
X119733592Y-126800077D01*
X119733592Y-126800073D01*
X119729352Y-126778759D01*
X119729351Y-126778753D01*
X119690428Y-126684785D01*
X119677339Y-126653185D01*
X119672177Y-126640722D01*
X119672170Y-126640709D01*
X119589166Y-126516485D01*
X119564750Y-126492069D01*
X119483516Y-126410835D01*
X102071973Y-108999292D01*
X102038488Y-108937969D01*
X102043472Y-108868277D01*
X102071973Y-108823930D01*
X106992068Y-103903836D01*
X106992068Y-103903835D01*
X106992071Y-103903833D01*
X107061400Y-103800075D01*
X107109155Y-103684785D01*
X107133500Y-103562394D01*
X107133500Y-103437607D01*
X107133500Y-99701756D01*
X107153185Y-99634717D01*
X107165346Y-99618788D01*
X107239040Y-99536944D01*
X107334527Y-99371556D01*
X107393542Y-99189928D01*
X107413504Y-99000000D01*
X107393542Y-98810072D01*
X107334527Y-98628444D01*
X107239040Y-98463056D01*
X107111253Y-98321134D01*
X106956752Y-98208882D01*
X106782288Y-98131206D01*
X106782286Y-98131205D01*
X106595487Y-98091500D01*
X106404513Y-98091500D01*
X106217714Y-98131205D01*
X106043246Y-98208883D01*
X105888745Y-98321135D01*
X105760959Y-98463057D01*
X105665473Y-98628443D01*
X105665470Y-98628450D01*
X105606459Y-98810068D01*
X105606458Y-98810072D01*
X105586496Y-99000000D01*
X105606458Y-99189928D01*
X105606459Y-99189931D01*
X105665470Y-99371549D01*
X105665473Y-99371556D01*
X105760960Y-99536944D01*
X105834649Y-99618784D01*
X105864880Y-99681775D01*
X105866500Y-99701756D01*
X105866500Y-103186234D01*
X105846815Y-103253273D01*
X105830181Y-103273915D01*
X100548915Y-108555181D01*
X100487592Y-108588666D01*
X100461234Y-108591500D01*
X100404513Y-108591500D01*
X100217714Y-108631205D01*
X100043246Y-108708883D01*
X99888745Y-108821135D01*
X99760959Y-108963057D01*
X99665473Y-109128443D01*
X99665470Y-109128450D01*
X99606459Y-109310068D01*
X99606458Y-109310072D01*
X99586496Y-109500000D01*
X58172680Y-109500000D01*
X58250000Y-94500000D01*
X100086496Y-94500000D01*
X100106458Y-94689928D01*
X100106459Y-94689931D01*
X100165470Y-94871549D01*
X100165473Y-94871556D01*
X100260960Y-95036944D01*
X100388747Y-95178866D01*
X100543248Y-95291118D01*
X100717712Y-95368794D01*
X100904513Y-95408500D01*
X101095487Y-95408500D01*
X101282288Y-95368794D01*
X101456752Y-95291118D01*
X101611253Y-95178866D01*
X101615160Y-95174527D01*
X101674646Y-95137879D01*
X101707309Y-95133500D01*
X108686234Y-95133500D01*
X108753273Y-95153185D01*
X108773915Y-95169819D01*
X110830181Y-97226085D01*
X110863666Y-97287408D01*
X110866500Y-97313766D01*
X110866500Y-101562398D01*
X110890843Y-101684777D01*
X110890845Y-101684785D01*
X110938598Y-101800072D01*
X110938603Y-101800081D01*
X111007928Y-101903832D01*
X111007931Y-101903836D01*
X135830181Y-126726085D01*
X135863666Y-126787408D01*
X135866500Y-126813766D01*
X135866500Y-134798241D01*
X135846815Y-134865280D01*
X135834650Y-134881213D01*
X135760963Y-134963050D01*
X135760958Y-134963057D01*
X135665473Y-135128443D01*
X135665470Y-135128450D01*
X135606459Y-135310068D01*
X135606458Y-135310072D01*
X135586496Y-135500000D01*
X135606458Y-135689928D01*
X135606459Y-135689931D01*
X135665470Y-135871549D01*
X135665473Y-135871556D01*
X135724887Y-135974463D01*
X135741500Y-136036463D01*
X135741500Y-137463535D01*
X135724888Y-137525534D01*
X135665472Y-137628446D01*
X135665470Y-137628450D01*
X135606459Y-137810068D01*
X135606458Y-137810072D01*
X135586496Y-138000000D01*
X135606458Y-138189928D01*
X135606459Y-138189931D01*
X135665470Y-138371549D01*
X135665473Y-138371556D01*
X135760960Y-138536944D01*
X135888747Y-138678866D01*
X136043248Y-138791118D01*
X136217712Y-138868794D01*
X136404513Y-138908500D01*
X136595487Y-138908500D01*
X136782288Y-138868794D01*
X136956752Y-138791118D01*
X137111253Y-138678866D01*
X137239040Y-138536944D01*
X137334527Y-138371556D01*
X137393542Y-138189928D01*
X137413504Y-138000000D01*
X137393542Y-137810072D01*
X137334527Y-137628444D01*
X137275111Y-137525533D01*
X137258500Y-137463535D01*
X137258500Y-136036463D01*
X137275113Y-135974463D01*
X137334527Y-135871556D01*
X137393542Y-135689928D01*
X137413504Y-135500000D01*
X137393542Y-135310072D01*
X137334527Y-135128444D01*
X137252637Y-134986606D01*
X137239041Y-134963057D01*
X137239036Y-134963050D01*
X137165350Y-134881213D01*
X137135120Y-134818221D01*
X137133500Y-134798241D01*
X137133500Y-126437605D01*
X137133499Y-126437601D01*
X137109156Y-126315222D01*
X137109155Y-126315215D01*
X137061400Y-126199925D01*
X137061399Y-126199924D01*
X137061396Y-126199918D01*
X136992072Y-126096168D01*
X136992071Y-126096167D01*
X136903833Y-126007929D01*
X112169819Y-101273915D01*
X112136334Y-101212592D01*
X112133500Y-101186234D01*
X112133500Y-96937605D01*
X112133499Y-96937601D01*
X112109156Y-96815222D01*
X112109155Y-96815215D01*
X112061400Y-96699925D01*
X112061399Y-96699924D01*
X112061396Y-96699918D01*
X111992072Y-96596168D01*
X111992071Y-96596167D01*
X111903833Y-96507929D01*
X110654404Y-95258500D01*
X109403836Y-94007931D01*
X109403832Y-94007928D01*
X109300081Y-93938603D01*
X109300072Y-93938598D01*
X109184785Y-93890845D01*
X109184777Y-93890843D01*
X109062398Y-93866500D01*
X109062394Y-93866500D01*
X101707309Y-93866500D01*
X101640270Y-93846815D01*
X101615160Y-93825473D01*
X101611254Y-93821135D01*
X101501647Y-93741500D01*
X101456752Y-93708882D01*
X101282288Y-93631206D01*
X101282286Y-93631205D01*
X101095487Y-93591500D01*
X100904513Y-93591500D01*
X100717714Y-93631205D01*
X100717712Y-93631206D01*
X100543253Y-93708880D01*
X100543246Y-93708883D01*
X100388745Y-93821135D01*
X100260959Y-93963057D01*
X100165473Y-94128443D01*
X100165470Y-94128450D01*
X100106459Y-94310068D01*
X100106458Y-94310072D01*
X100086496Y-94500000D01*
X58250000Y-94500000D01*
X58297371Y-85309997D01*
X65874647Y-85309997D01*
X65874647Y-85310002D01*
X65894021Y-85531457D01*
X65894022Y-85531465D01*
X65951558Y-85746191D01*
X65951559Y-85746193D01*
X65951560Y-85746196D01*
X65967998Y-85781447D01*
X66045511Y-85947676D01*
X66045512Y-85947677D01*
X66173023Y-86129781D01*
X66330219Y-86286977D01*
X66512323Y-86414488D01*
X66713804Y-86508440D01*
X66928537Y-86565978D01*
X67086724Y-86579817D01*
X67149998Y-86585353D01*
X67150000Y-86585353D01*
X67150002Y-86585353D01*
X67205365Y-86580509D01*
X67371463Y-86565978D01*
X67586196Y-86508440D01*
X67787677Y-86414488D01*
X67969781Y-86286977D01*
X68126977Y-86129781D01*
X68254488Y-85947677D01*
X68348440Y-85746196D01*
X68405978Y-85531463D01*
X68425353Y-85310000D01*
X68425353Y-85309997D01*
X78574647Y-85309997D01*
X78574647Y-85310002D01*
X78594021Y-85531457D01*
X78594022Y-85531465D01*
X78651558Y-85746191D01*
X78651559Y-85746193D01*
X78651560Y-85746196D01*
X78667998Y-85781447D01*
X78745511Y-85947676D01*
X78745512Y-85947677D01*
X78873023Y-86129781D01*
X79030219Y-86286977D01*
X79212323Y-86414488D01*
X79413804Y-86508440D01*
X79628537Y-86565978D01*
X79786724Y-86579817D01*
X79849998Y-86585353D01*
X79850000Y-86585353D01*
X79850002Y-86585353D01*
X79905365Y-86580509D01*
X80071463Y-86565978D01*
X80286196Y-86508440D01*
X80487677Y-86414488D01*
X80669781Y-86286977D01*
X80826977Y-86129781D01*
X80954488Y-85947677D01*
X81048440Y-85746196D01*
X81105978Y-85531463D01*
X81125353Y-85310000D01*
X81105978Y-85088537D01*
X81048440Y-84873804D01*
X80954488Y-84672324D01*
X80954486Y-84672321D01*
X80954485Y-84672319D01*
X80826978Y-84490220D01*
X80826975Y-84490217D01*
X80669781Y-84333023D01*
X80487677Y-84205512D01*
X80487678Y-84205512D01*
X80487676Y-84205511D01*
X80386936Y-84158536D01*
X80286196Y-84111560D01*
X80286193Y-84111559D01*
X80286191Y-84111558D01*
X80071465Y-84054022D01*
X80071457Y-84054021D01*
X79850002Y-84034647D01*
X79849998Y-84034647D01*
X79628542Y-84054021D01*
X79628535Y-84054022D01*
X79413800Y-84111561D01*
X79212323Y-84205512D01*
X79212319Y-84205514D01*
X79030217Y-84333023D01*
X78873023Y-84490217D01*
X78745514Y-84672319D01*
X78745512Y-84672323D01*
X78651561Y-84873800D01*
X78594022Y-85088535D01*
X78594021Y-85088542D01*
X78574647Y-85309997D01*
X68425353Y-85309997D01*
X68405978Y-85088537D01*
X68348440Y-84873804D01*
X68254488Y-84672324D01*
X68254486Y-84672321D01*
X68254485Y-84672319D01*
X68126978Y-84490220D01*
X68126975Y-84490217D01*
X67969781Y-84333023D01*
X67787677Y-84205512D01*
X67787678Y-84205512D01*
X67787676Y-84205511D01*
X67686936Y-84158536D01*
X67586196Y-84111560D01*
X67586193Y-84111559D01*
X67586191Y-84111558D01*
X67371465Y-84054022D01*
X67371457Y-84054021D01*
X67150002Y-84034647D01*
X67149998Y-84034647D01*
X66928542Y-84054021D01*
X66928535Y-84054022D01*
X66713800Y-84111561D01*
X66512323Y-84205512D01*
X66512319Y-84205514D01*
X66330217Y-84333023D01*
X66173023Y-84490217D01*
X66045514Y-84672319D01*
X66045512Y-84672323D01*
X65951561Y-84873800D01*
X65894022Y-85088535D01*
X65894021Y-85088542D01*
X65874647Y-85309997D01*
X58297371Y-85309997D01*
X58317010Y-81499997D01*
X65874647Y-81499997D01*
X65874647Y-81500002D01*
X65894021Y-81721457D01*
X65894022Y-81721465D01*
X65951558Y-81936191D01*
X65951559Y-81936193D01*
X65951560Y-81936196D01*
X65988999Y-82016484D01*
X66045511Y-82137676D01*
X66071014Y-82174097D01*
X66173023Y-82319781D01*
X66330219Y-82476977D01*
X66512323Y-82604488D01*
X66713804Y-82698440D01*
X66928537Y-82755978D01*
X67086724Y-82769817D01*
X67149998Y-82775353D01*
X67150000Y-82775353D01*
X67150002Y-82775353D01*
X67205365Y-82770509D01*
X67371463Y-82755978D01*
X67586196Y-82698440D01*
X67787677Y-82604488D01*
X67969781Y-82476977D01*
X68126977Y-82319781D01*
X68254488Y-82137677D01*
X68348440Y-81936196D01*
X68405978Y-81721463D01*
X68425353Y-81500000D01*
X68425353Y-81499997D01*
X78574647Y-81499997D01*
X78574647Y-81500002D01*
X78594021Y-81721457D01*
X78594022Y-81721465D01*
X78651558Y-81936191D01*
X78651559Y-81936193D01*
X78651560Y-81936196D01*
X78688999Y-82016484D01*
X78745511Y-82137676D01*
X78771014Y-82174097D01*
X78873023Y-82319781D01*
X79030219Y-82476977D01*
X79212323Y-82604488D01*
X79413804Y-82698440D01*
X79628537Y-82755978D01*
X79786724Y-82769817D01*
X79849998Y-82775353D01*
X79850000Y-82775353D01*
X79850002Y-82775353D01*
X79905365Y-82770509D01*
X80071463Y-82755978D01*
X80286196Y-82698440D01*
X80487677Y-82604488D01*
X80669781Y-82476977D01*
X80826977Y-82319781D01*
X80954488Y-82137677D01*
X81048440Y-81936196D01*
X81105978Y-81721463D01*
X81125353Y-81500000D01*
X81105978Y-81278537D01*
X81048440Y-81063804D01*
X80954488Y-80862324D01*
X80954486Y-80862321D01*
X80954485Y-80862319D01*
X80826978Y-80680220D01*
X80826975Y-80680217D01*
X80669781Y-80523023D01*
X80509562Y-80410836D01*
X80487676Y-80395511D01*
X80386936Y-80348536D01*
X80286196Y-80301560D01*
X80286193Y-80301559D01*
X80286191Y-80301558D01*
X80071465Y-80244022D01*
X80071457Y-80244021D01*
X79850002Y-80224647D01*
X79849998Y-80224647D01*
X79628542Y-80244021D01*
X79628535Y-80244022D01*
X79413800Y-80301561D01*
X79212323Y-80395512D01*
X79212319Y-80395514D01*
X79030217Y-80523023D01*
X78873023Y-80680217D01*
X78745514Y-80862319D01*
X78745512Y-80862323D01*
X78651561Y-81063800D01*
X78594022Y-81278535D01*
X78594021Y-81278542D01*
X78574647Y-81499997D01*
X68425353Y-81499997D01*
X68405978Y-81278537D01*
X68348440Y-81063804D01*
X68254488Y-80862324D01*
X68254486Y-80862321D01*
X68254485Y-80862319D01*
X68126978Y-80680220D01*
X68126975Y-80680217D01*
X67969781Y-80523023D01*
X67809562Y-80410836D01*
X67787676Y-80395511D01*
X67686936Y-80348536D01*
X67586196Y-80301560D01*
X67586193Y-80301559D01*
X67586191Y-80301558D01*
X67371465Y-80244022D01*
X67371457Y-80244021D01*
X67150002Y-80224647D01*
X67149998Y-80224647D01*
X66928542Y-80244021D01*
X66928535Y-80244022D01*
X66713800Y-80301561D01*
X66512323Y-80395512D01*
X66512319Y-80395514D01*
X66330217Y-80523023D01*
X66173023Y-80680217D01*
X66045514Y-80862319D01*
X66045512Y-80862323D01*
X65951561Y-81063800D01*
X65894022Y-81278535D01*
X65894021Y-81278542D01*
X65874647Y-81499997D01*
X58317010Y-81499997D01*
X58336649Y-77689999D01*
X65883179Y-77689999D01*
X65883179Y-77690000D01*
X65902424Y-77909976D01*
X65902426Y-77909986D01*
X65959575Y-78123270D01*
X65959580Y-78123284D01*
X66052898Y-78323405D01*
X66052901Y-78323411D01*
X66098258Y-78388187D01*
X66098258Y-78388188D01*
X66769000Y-77717446D01*
X66769000Y-77740160D01*
X66794964Y-77837061D01*
X66845124Y-77923940D01*
X66916060Y-77994876D01*
X67002939Y-78045036D01*
X67099840Y-78071000D01*
X67122553Y-78071000D01*
X66451810Y-78741740D01*
X66516590Y-78787099D01*
X66516592Y-78787100D01*
X66716715Y-78880419D01*
X66716729Y-78880424D01*
X66930013Y-78937573D01*
X66930023Y-78937575D01*
X67149999Y-78956821D01*
X67150001Y-78956821D01*
X67369976Y-78937575D01*
X67369986Y-78937573D01*
X67583270Y-78880424D01*
X67583284Y-78880419D01*
X67783407Y-78787100D01*
X67783417Y-78787094D01*
X67848188Y-78741741D01*
X67177448Y-78071000D01*
X67200160Y-78071000D01*
X67297061Y-78045036D01*
X67383940Y-77994876D01*
X67454876Y-77923940D01*
X67505036Y-77837061D01*
X67531000Y-77740160D01*
X67531000Y-77717447D01*
X68201741Y-78388188D01*
X68247094Y-78323417D01*
X68247100Y-78323407D01*
X68340419Y-78123284D01*
X68340424Y-78123270D01*
X68397573Y-77909986D01*
X68397575Y-77909976D01*
X68416821Y-77690000D01*
X68416821Y-77689999D01*
X68416821Y-77689997D01*
X78574647Y-77689997D01*
X78574647Y-77690002D01*
X78594021Y-77911457D01*
X78594022Y-77911465D01*
X78651558Y-78126191D01*
X78651559Y-78126193D01*
X78651560Y-78126196D01*
X78690117Y-78208882D01*
X78745511Y-78327676D01*
X78745512Y-78327677D01*
X78873023Y-78509781D01*
X79030219Y-78666977D01*
X79212323Y-78794488D01*
X79413804Y-78888440D01*
X79628537Y-78945978D01*
X79786724Y-78959817D01*
X79849998Y-78965353D01*
X79850000Y-78965353D01*
X79850002Y-78965353D01*
X79905365Y-78960509D01*
X80071463Y-78945978D01*
X80286196Y-78888440D01*
X80487677Y-78794488D01*
X80669781Y-78666977D01*
X80826977Y-78509781D01*
X80954488Y-78327677D01*
X81048440Y-78126196D01*
X81105978Y-77911463D01*
X81125353Y-77690000D01*
X81105978Y-77468537D01*
X81048440Y-77253804D01*
X80954488Y-77052324D01*
X80954486Y-77052321D01*
X80954485Y-77052319D01*
X80826978Y-76870220D01*
X80756830Y-76800072D01*
X80669781Y-76713023D01*
X80498230Y-76592901D01*
X80487676Y-76585511D01*
X80386936Y-76538536D01*
X80286196Y-76491560D01*
X80286193Y-76491559D01*
X80286191Y-76491558D01*
X80071465Y-76434022D01*
X80071457Y-76434021D01*
X79850002Y-76414647D01*
X79849998Y-76414647D01*
X79628542Y-76434021D01*
X79628535Y-76434022D01*
X79413800Y-76491561D01*
X79212323Y-76585512D01*
X79212319Y-76585514D01*
X79030217Y-76713023D01*
X78873023Y-76870217D01*
X78745514Y-77052319D01*
X78745512Y-77052323D01*
X78651561Y-77253800D01*
X78594022Y-77468535D01*
X78594021Y-77468542D01*
X78574647Y-77689997D01*
X68416821Y-77689997D01*
X68397575Y-77470023D01*
X68397573Y-77470013D01*
X68340424Y-77256729D01*
X68340420Y-77256720D01*
X68247096Y-77056586D01*
X68201741Y-76991811D01*
X68201740Y-76991810D01*
X67531000Y-77662551D01*
X67531000Y-77639840D01*
X67505036Y-77542939D01*
X67454876Y-77456060D01*
X67383940Y-77385124D01*
X67297061Y-77334964D01*
X67200160Y-77309000D01*
X67177447Y-77309000D01*
X67848188Y-76638258D01*
X67783411Y-76592901D01*
X67783405Y-76592898D01*
X67583284Y-76499580D01*
X67583270Y-76499575D01*
X67369986Y-76442426D01*
X67369976Y-76442424D01*
X67150001Y-76423179D01*
X67149999Y-76423179D01*
X66930023Y-76442424D01*
X66930013Y-76442426D01*
X66716729Y-76499575D01*
X66716720Y-76499579D01*
X66516590Y-76592901D01*
X66451811Y-76638258D01*
X67122554Y-77309000D01*
X67099840Y-77309000D01*
X67002939Y-77334964D01*
X66916060Y-77385124D01*
X66845124Y-77456060D01*
X66794964Y-77542939D01*
X66769000Y-77639840D01*
X66769000Y-77662553D01*
X66098258Y-76991811D01*
X66052901Y-77056590D01*
X65959579Y-77256720D01*
X65959575Y-77256729D01*
X65902426Y-77470013D01*
X65902424Y-77470023D01*
X65883179Y-77689999D01*
X58336649Y-77689999D01*
X58360824Y-73000000D01*
X75086496Y-73000000D01*
X75106458Y-73189928D01*
X75106459Y-73189931D01*
X75165470Y-73371549D01*
X75165473Y-73371556D01*
X75260960Y-73536944D01*
X75388747Y-73678866D01*
X75543248Y-73791118D01*
X75717712Y-73868794D01*
X75904513Y-73908500D01*
X76095487Y-73908500D01*
X76282288Y-73868794D01*
X76456752Y-73791118D01*
X76469051Y-73782181D01*
X76534858Y-73758702D01*
X76541937Y-73758500D01*
X80134457Y-73758500D01*
X80201496Y-73778185D01*
X80222138Y-73794819D01*
X85410834Y-78983515D01*
X85410835Y-78983516D01*
X85516484Y-79089165D01*
X85516485Y-79089166D01*
X85640709Y-79172170D01*
X85640722Y-79172177D01*
X85778749Y-79229349D01*
X85778754Y-79229351D01*
X85778758Y-79229351D01*
X85778759Y-79229352D01*
X85925291Y-79258500D01*
X85925294Y-79258500D01*
X85925295Y-79258500D01*
X86074705Y-79258500D01*
X92634457Y-79258500D01*
X92701496Y-79278185D01*
X92722138Y-79294819D01*
X95016481Y-81589163D01*
X95016482Y-81589164D01*
X95016485Y-81589166D01*
X95140716Y-81672174D01*
X95278753Y-81729351D01*
X95339830Y-81741500D01*
X95368318Y-81747166D01*
X95425292Y-81758500D01*
X95425294Y-81758500D01*
X95425295Y-81758500D01*
X95574705Y-81758500D01*
X161134457Y-81758500D01*
X161201496Y-81778185D01*
X161222138Y-81794819D01*
X162205181Y-82777862D01*
X162238666Y-82839185D01*
X162241500Y-82865543D01*
X162241500Y-114634457D01*
X162221815Y-114701496D01*
X162205181Y-114722138D01*
X144276484Y-132650835D01*
X144223658Y-132703660D01*
X144170833Y-132756485D01*
X144087829Y-132880709D01*
X144087822Y-132880722D01*
X144030650Y-133018749D01*
X144030647Y-133018759D01*
X144001500Y-133165291D01*
X144001500Y-133308250D01*
X143981815Y-133375289D01*
X143953663Y-133406103D01*
X143836761Y-133497092D01*
X143836756Y-133497097D01*
X143684284Y-133662723D01*
X143684276Y-133662734D01*
X143590251Y-133806650D01*
X143537105Y-133852007D01*
X143467873Y-133861430D01*
X143404538Y-133831928D01*
X143384868Y-133809951D01*
X143258113Y-133628926D01*
X143258108Y-133628920D01*
X143091082Y-133461894D01*
X142897578Y-133326399D01*
X142683492Y-133226570D01*
X142683486Y-133226567D01*
X142470000Y-133169364D01*
X142470000Y-134066988D01*
X142412993Y-134034075D01*
X142285826Y-134000000D01*
X142154174Y-134000000D01*
X142027007Y-134034075D01*
X141970000Y-134066988D01*
X141970000Y-133169364D01*
X141969999Y-133169364D01*
X141756513Y-133226567D01*
X141756507Y-133226570D01*
X141542422Y-133326399D01*
X141542420Y-133326400D01*
X141348926Y-133461886D01*
X141348920Y-133461891D01*
X141181891Y-133628920D01*
X141181886Y-133628926D01*
X141046400Y-133822420D01*
X141046399Y-133822422D01*
X140946570Y-134036507D01*
X140946567Y-134036513D01*
X140889364Y-134249999D01*
X140889364Y-134250000D01*
X141786988Y-134250000D01*
X141754075Y-134307007D01*
X141720000Y-134434174D01*
X141720000Y-134565826D01*
X141754075Y-134692993D01*
X141786988Y-134750000D01*
X140889364Y-134750000D01*
X140946567Y-134963486D01*
X140946570Y-134963492D01*
X141046399Y-135177578D01*
X141181894Y-135371082D01*
X141348917Y-135538105D01*
X141542421Y-135673600D01*
X141756507Y-135773429D01*
X141756516Y-135773433D01*
X141970000Y-135830634D01*
X141970000Y-134933012D01*
X142027007Y-134965925D01*
X142154174Y-135000000D01*
X142285826Y-135000000D01*
X142412993Y-134965925D01*
X142470000Y-134933012D01*
X142470000Y-135830633D01*
X142683483Y-135773433D01*
X142683492Y-135773429D01*
X142897578Y-135673600D01*
X143091082Y-135538105D01*
X143258105Y-135371082D01*
X143384868Y-135190048D01*
X143439445Y-135146423D01*
X143508944Y-135139231D01*
X143571298Y-135170753D01*
X143590251Y-135193350D01*
X143684276Y-135337265D01*
X143684284Y-135337276D01*
X143836756Y-135502902D01*
X143836760Y-135502906D01*
X144014424Y-135641189D01*
X144014425Y-135641189D01*
X144014427Y-135641191D01*
X144141135Y-135709761D01*
X144212426Y-135748342D01*
X144425365Y-135821444D01*
X144647431Y-135858500D01*
X144872569Y-135858500D01*
X145094635Y-135821444D01*
X145307574Y-135748342D01*
X145505576Y-135641189D01*
X145683240Y-135502906D01*
X145835722Y-135337268D01*
X145926193Y-135198790D01*
X145979338Y-135153437D01*
X146048569Y-135144013D01*
X146111905Y-135173515D01*
X146133804Y-135198787D01*
X146224278Y-135337268D01*
X146224283Y-135337273D01*
X146224284Y-135337276D01*
X146376756Y-135502902D01*
X146376760Y-135502906D01*
X146554424Y-135641189D01*
X146554425Y-135641189D01*
X146554427Y-135641191D01*
X146681135Y-135709761D01*
X146752426Y-135748342D01*
X146965365Y-135821444D01*
X147187431Y-135858500D01*
X147412569Y-135858500D01*
X147634635Y-135821444D01*
X147847574Y-135748342D01*
X148045576Y-135641189D01*
X148223240Y-135502906D01*
X148375722Y-135337268D01*
X148466193Y-135198790D01*
X148519338Y-135153437D01*
X148588569Y-135144013D01*
X148651905Y-135173515D01*
X148673804Y-135198787D01*
X148764278Y-135337268D01*
X148764283Y-135337273D01*
X148764284Y-135337276D01*
X148916756Y-135502902D01*
X148916760Y-135502906D01*
X149094424Y-135641189D01*
X149094425Y-135641189D01*
X149094427Y-135641191D01*
X149221135Y-135709761D01*
X149292426Y-135748342D01*
X149505365Y-135821444D01*
X149727431Y-135858500D01*
X149952569Y-135858500D01*
X150174635Y-135821444D01*
X150387574Y-135748342D01*
X150585576Y-135641189D01*
X150763240Y-135502906D01*
X150915722Y-135337268D01*
X151006193Y-135198790D01*
X151059338Y-135153437D01*
X151128569Y-135144013D01*
X151191905Y-135173515D01*
X151213804Y-135198787D01*
X151304278Y-135337268D01*
X151304283Y-135337273D01*
X151304284Y-135337276D01*
X151456756Y-135502902D01*
X151456760Y-135502906D01*
X151634424Y-135641189D01*
X151634425Y-135641189D01*
X151634427Y-135641191D01*
X151761135Y-135709761D01*
X151832426Y-135748342D01*
X152045365Y-135821444D01*
X152267431Y-135858500D01*
X152492569Y-135858500D01*
X152714635Y-135821444D01*
X152927574Y-135748342D01*
X153125576Y-135641189D01*
X153303240Y-135502906D01*
X153455722Y-135337268D01*
X153546193Y-135198790D01*
X153599338Y-135153437D01*
X153668569Y-135144013D01*
X153731905Y-135173515D01*
X153753804Y-135198787D01*
X153844278Y-135337268D01*
X153844283Y-135337273D01*
X153844284Y-135337276D01*
X153996756Y-135502902D01*
X153996760Y-135502906D01*
X154174424Y-135641189D01*
X154174425Y-135641189D01*
X154174427Y-135641191D01*
X154301135Y-135709761D01*
X154372426Y-135748342D01*
X154585365Y-135821444D01*
X154807431Y-135858500D01*
X155032569Y-135858500D01*
X155254635Y-135821444D01*
X155467574Y-135748342D01*
X155665576Y-135641189D01*
X155843240Y-135502906D01*
X155995722Y-135337268D01*
X156086193Y-135198790D01*
X156139338Y-135153437D01*
X156208569Y-135144013D01*
X156271905Y-135173515D01*
X156293804Y-135198787D01*
X156384278Y-135337268D01*
X156384283Y-135337273D01*
X156384284Y-135337276D01*
X156536756Y-135502902D01*
X156536760Y-135502906D01*
X156714424Y-135641189D01*
X156714425Y-135641189D01*
X156714427Y-135641191D01*
X156841135Y-135709761D01*
X156912426Y-135748342D01*
X157125365Y-135821444D01*
X157347431Y-135858500D01*
X157572569Y-135858500D01*
X157794635Y-135821444D01*
X158007574Y-135748342D01*
X158205576Y-135641189D01*
X158383240Y-135502906D01*
X158446452Y-135434239D01*
X158506337Y-135398250D01*
X158576175Y-135400349D01*
X158633791Y-135439873D01*
X158653861Y-135474888D01*
X158699111Y-135596204D01*
X158786739Y-135713261D01*
X158903796Y-135800889D01*
X159040799Y-135851989D01*
X159068050Y-135854918D01*
X159101345Y-135858499D01*
X159101362Y-135858500D01*
X160898638Y-135858500D01*
X160898654Y-135858499D01*
X160925692Y-135855591D01*
X160959201Y-135851989D01*
X161096204Y-135800889D01*
X161213261Y-135713261D01*
X161300889Y-135596204D01*
X161351989Y-135459201D01*
X161355591Y-135425692D01*
X161358499Y-135398654D01*
X161358500Y-135398637D01*
X161358500Y-133601362D01*
X161358499Y-133601345D01*
X161354672Y-133565759D01*
X161351989Y-133540799D01*
X161300889Y-133403796D01*
X161213261Y-133286739D01*
X161096204Y-133199111D01*
X160959203Y-133148011D01*
X160898654Y-133141500D01*
X160898638Y-133141500D01*
X159101362Y-133141500D01*
X159101345Y-133141500D01*
X159040797Y-133148011D01*
X159040795Y-133148011D01*
X158903795Y-133199111D01*
X158786739Y-133286739D01*
X158699111Y-133403795D01*
X158653861Y-133525111D01*
X158611989Y-133581044D01*
X158546524Y-133605460D01*
X158478252Y-133590607D01*
X158446454Y-133565762D01*
X158383240Y-133497094D01*
X158322704Y-133449976D01*
X158266337Y-133406103D01*
X158225524Y-133349392D01*
X158218500Y-133308250D01*
X158218500Y-129999996D01*
X173486401Y-129999996D01*
X173486401Y-130000003D01*
X173506778Y-130349857D01*
X173506779Y-130349868D01*
X173567630Y-130694975D01*
X173567632Y-130694982D01*
X173668143Y-131030713D01*
X173806946Y-131352492D01*
X173806952Y-131352505D01*
X173982175Y-131656001D01*
X174191445Y-131937100D01*
X174191450Y-131937106D01*
X174315654Y-132068754D01*
X174431943Y-132192012D01*
X174700403Y-132417278D01*
X174993200Y-132609853D01*
X175306374Y-132767135D01*
X175635690Y-132886996D01*
X175635696Y-132886997D01*
X175635698Y-132886998D01*
X175976678Y-132967813D01*
X175976685Y-132967814D01*
X175976694Y-132967816D01*
X176324775Y-133008500D01*
X176324782Y-133008500D01*
X176675218Y-133008500D01*
X176675225Y-133008500D01*
X177023306Y-132967816D01*
X177023315Y-132967813D01*
X177023321Y-132967813D01*
X177298371Y-132902623D01*
X177364310Y-132886996D01*
X177693626Y-132767135D01*
X178006800Y-132609853D01*
X178299597Y-132417278D01*
X178568057Y-132192012D01*
X178808551Y-131937104D01*
X179017825Y-131656000D01*
X179193050Y-131352501D01*
X179331857Y-131030712D01*
X179432367Y-130694984D01*
X179493222Y-130349857D01*
X179513599Y-130000000D01*
X179493222Y-129650143D01*
X179476478Y-129555181D01*
X179432369Y-129305024D01*
X179432367Y-129305017D01*
X179407129Y-129220715D01*
X179331857Y-128969288D01*
X179193050Y-128647499D01*
X179017825Y-128344000D01*
X179005784Y-128327826D01*
X178808554Y-128062899D01*
X178808549Y-128062893D01*
X178628030Y-127871556D01*
X178568057Y-127807988D01*
X178568050Y-127807982D01*
X178568048Y-127807980D01*
X178299600Y-127582724D01*
X178299597Y-127582722D01*
X178006800Y-127390147D01*
X177847348Y-127310067D01*
X177693633Y-127232868D01*
X177693627Y-127232865D01*
X177364322Y-127113008D01*
X177364301Y-127113001D01*
X177023321Y-127032186D01*
X177023306Y-127032184D01*
X176675225Y-126991500D01*
X176324775Y-126991500D01*
X176033590Y-127025534D01*
X175976693Y-127032184D01*
X175976678Y-127032186D01*
X175635698Y-127113001D01*
X175635677Y-127113008D01*
X175306372Y-127232865D01*
X175306366Y-127232868D01*
X174993203Y-127390145D01*
X174700399Y-127582724D01*
X174431951Y-127807980D01*
X174431941Y-127807990D01*
X174191450Y-128062893D01*
X174191445Y-128062899D01*
X173982175Y-128343998D01*
X173806952Y-128647494D01*
X173806946Y-128647507D01*
X173668143Y-128969286D01*
X173567632Y-129305017D01*
X173567630Y-129305024D01*
X173506779Y-129650131D01*
X173506778Y-129650142D01*
X173486401Y-129999996D01*
X158218500Y-129999996D01*
X158218500Y-129905543D01*
X158238185Y-129838504D01*
X158254819Y-129817862D01*
X168439164Y-119633517D01*
X168439166Y-119633515D01*
X168522174Y-119509284D01*
X168579351Y-119371247D01*
X168608500Y-119224705D01*
X168608500Y-119075295D01*
X168608500Y-71000000D01*
X170586496Y-71000000D01*
X170606458Y-71189928D01*
X170606459Y-71189931D01*
X170665470Y-71371549D01*
X170665473Y-71371556D01*
X170760960Y-71536944D01*
X170834649Y-71618784D01*
X170864880Y-71681775D01*
X170866500Y-71701756D01*
X170866500Y-76562398D01*
X170890843Y-76684777D01*
X170890845Y-76684785D01*
X170938598Y-76800072D01*
X170938603Y-76800081D01*
X171007928Y-76903832D01*
X171007931Y-76903836D01*
X175096163Y-80992068D01*
X175096167Y-80992071D01*
X175199918Y-81061396D01*
X175199927Y-81061401D01*
X175226043Y-81072218D01*
X175315215Y-81109155D01*
X175437601Y-81133499D01*
X175437605Y-81133500D01*
X175437606Y-81133500D01*
X175562394Y-81133500D01*
X184686234Y-81133500D01*
X184753273Y-81153185D01*
X184773915Y-81169819D01*
X189830181Y-86226085D01*
X189863666Y-86287408D01*
X189866500Y-86313766D01*
X189866500Y-116062398D01*
X189890843Y-116184777D01*
X189890845Y-116184785D01*
X189938598Y-116300072D01*
X189938603Y-116300081D01*
X190007928Y-116403832D01*
X190007931Y-116403836D01*
X200096163Y-126492069D01*
X200096166Y-126492072D01*
X200199919Y-126561397D01*
X200199925Y-126561401D01*
X200272592Y-126591500D01*
X200315215Y-126609155D01*
X200437601Y-126633499D01*
X200437605Y-126633500D01*
X200437606Y-126633500D01*
X200437607Y-126633500D01*
X200562394Y-126633500D01*
X204186234Y-126633500D01*
X204253273Y-126653185D01*
X204273915Y-126669819D01*
X208053378Y-130449282D01*
X208086863Y-130510605D01*
X208089018Y-130524001D01*
X208096992Y-130599868D01*
X208106458Y-130689928D01*
X208106459Y-130689931D01*
X208165470Y-130871549D01*
X208165473Y-130871556D01*
X208260960Y-131036944D01*
X208388747Y-131178866D01*
X208543248Y-131291118D01*
X208717712Y-131368794D01*
X208904513Y-131408500D01*
X209095487Y-131408500D01*
X209282288Y-131368794D01*
X209456752Y-131291118D01*
X209611253Y-131178866D01*
X209739040Y-131036944D01*
X209834527Y-130871556D01*
X209893542Y-130689928D01*
X209913504Y-130500000D01*
X209893542Y-130310072D01*
X209834527Y-130128444D01*
X209739040Y-129963056D01*
X209611253Y-129821134D01*
X209456752Y-129708882D01*
X209282288Y-129631206D01*
X209282286Y-129631205D01*
X209095487Y-129591500D01*
X209038766Y-129591500D01*
X208971727Y-129571815D01*
X208951085Y-129555181D01*
X204903836Y-125507931D01*
X204903832Y-125507928D01*
X204800081Y-125438603D01*
X204800072Y-125438598D01*
X204684785Y-125390845D01*
X204684777Y-125390843D01*
X204562398Y-125366500D01*
X204562394Y-125366500D01*
X200813767Y-125366500D01*
X200746728Y-125346815D01*
X200726086Y-125330181D01*
X196895905Y-121500000D01*
X201586496Y-121500000D01*
X201606458Y-121689928D01*
X201606459Y-121689931D01*
X201665470Y-121871549D01*
X201665473Y-121871556D01*
X201760960Y-122036944D01*
X201888747Y-122178866D01*
X202043248Y-122291118D01*
X202217712Y-122368794D01*
X202404513Y-122408500D01*
X202595487Y-122408500D01*
X202782288Y-122368794D01*
X202782293Y-122368791D01*
X202788468Y-122366786D01*
X202788746Y-122367642D01*
X202831766Y-122358500D01*
X214312090Y-122358500D01*
X214312091Y-122358499D01*
X214434480Y-122334155D01*
X214549770Y-122286400D01*
X214653528Y-122217071D01*
X215425781Y-121444819D01*
X215487104Y-121411334D01*
X215513462Y-121408500D01*
X215595487Y-121408500D01*
X215782288Y-121368794D01*
X215956752Y-121291118D01*
X216111253Y-121178866D01*
X216239040Y-121036944D01*
X216334527Y-120871556D01*
X216393542Y-120689928D01*
X216413504Y-120500000D01*
X216393542Y-120310072D01*
X216334527Y-120128444D01*
X216239040Y-119963056D01*
X216111253Y-119821134D01*
X215956752Y-119708882D01*
X215782288Y-119631206D01*
X215782286Y-119631205D01*
X215595487Y-119591500D01*
X215404513Y-119591500D01*
X215217714Y-119631205D01*
X215043246Y-119708883D01*
X214888745Y-119821135D01*
X214760959Y-119963057D01*
X214665473Y-120128443D01*
X214665470Y-120128450D01*
X214606459Y-120310068D01*
X214606458Y-120310072D01*
X214591991Y-120447720D01*
X214565406Y-120512334D01*
X214556351Y-120522439D01*
X214023610Y-121055181D01*
X213962287Y-121088666D01*
X213935929Y-121091500D01*
X203384789Y-121091500D01*
X203317750Y-121071815D01*
X203277402Y-121029500D01*
X203257372Y-120994809D01*
X203239040Y-120963056D01*
X203111253Y-120821134D01*
X202956752Y-120708882D01*
X202782288Y-120631206D01*
X202782286Y-120631205D01*
X202595487Y-120591500D01*
X202404513Y-120591500D01*
X202217714Y-120631205D01*
X202043246Y-120708883D01*
X201888745Y-120821135D01*
X201760959Y-120963057D01*
X201665473Y-121128443D01*
X201665470Y-121128450D01*
X201606459Y-121310068D01*
X201606458Y-121310072D01*
X201586496Y-121500000D01*
X196895905Y-121500000D01*
X191169819Y-115773914D01*
X191136334Y-115712591D01*
X191133500Y-115686233D01*
X191133500Y-94500000D01*
X196086496Y-94500000D01*
X196106458Y-94689928D01*
X196106459Y-94689931D01*
X196165470Y-94871549D01*
X196165473Y-94871556D01*
X196260960Y-95036944D01*
X196388747Y-95178866D01*
X196543248Y-95291118D01*
X196717712Y-95368794D01*
X196904513Y-95408500D01*
X197095487Y-95408500D01*
X197282288Y-95368794D01*
X197456752Y-95291118D01*
X197469051Y-95282181D01*
X197534858Y-95258702D01*
X197541937Y-95258500D01*
X214958063Y-95258500D01*
X215025102Y-95278185D01*
X215030949Y-95282182D01*
X215043249Y-95291119D01*
X215110220Y-95320935D01*
X215217712Y-95368794D01*
X215404513Y-95408500D01*
X215595487Y-95408500D01*
X215782288Y-95368794D01*
X215956752Y-95291118D01*
X216111253Y-95178866D01*
X216239040Y-95036944D01*
X216334527Y-94871556D01*
X216393542Y-94689928D01*
X216413504Y-94500000D01*
X216393542Y-94310072D01*
X216334527Y-94128444D01*
X216239040Y-93963056D01*
X216111253Y-93821134D01*
X215956752Y-93708882D01*
X215782288Y-93631206D01*
X215782286Y-93631205D01*
X215595487Y-93591500D01*
X215404513Y-93591500D01*
X215217714Y-93631205D01*
X215043249Y-93708880D01*
X215030949Y-93717818D01*
X214965142Y-93741298D01*
X214958063Y-93741500D01*
X197541937Y-93741500D01*
X197474898Y-93721815D01*
X197469051Y-93717818D01*
X197456750Y-93708880D01*
X197322807Y-93649246D01*
X197282288Y-93631206D01*
X197282286Y-93631205D01*
X197095487Y-93591500D01*
X196904513Y-93591500D01*
X196717714Y-93631205D01*
X196717712Y-93631206D01*
X196543253Y-93708880D01*
X196543246Y-93708883D01*
X196388745Y-93821135D01*
X196260959Y-93963057D01*
X196165473Y-94128443D01*
X196165470Y-94128450D01*
X196106459Y-94310068D01*
X196106458Y-94310072D01*
X196086496Y-94500000D01*
X191133500Y-94500000D01*
X191133500Y-85937605D01*
X191133499Y-85937601D01*
X191109157Y-85815222D01*
X191109154Y-85815213D01*
X191095168Y-85781447D01*
X191080567Y-85746196D01*
X191061401Y-85699925D01*
X191061399Y-85699923D01*
X191061399Y-85699921D01*
X190992072Y-85596167D01*
X190992069Y-85596163D01*
X188395906Y-83000000D01*
X205086496Y-83000000D01*
X205106458Y-83189928D01*
X205106459Y-83189931D01*
X205165470Y-83371549D01*
X205165473Y-83371556D01*
X205260960Y-83536944D01*
X205388747Y-83678866D01*
X205543248Y-83791118D01*
X205717712Y-83868794D01*
X205904513Y-83908500D01*
X206095487Y-83908500D01*
X206282288Y-83868794D01*
X206456752Y-83791118D01*
X206469051Y-83782181D01*
X206534858Y-83758702D01*
X206541937Y-83758500D01*
X214958063Y-83758500D01*
X215025102Y-83778185D01*
X215030949Y-83782182D01*
X215043249Y-83791119D01*
X215110220Y-83820935D01*
X215217712Y-83868794D01*
X215404513Y-83908500D01*
X215595487Y-83908500D01*
X215782288Y-83868794D01*
X215956752Y-83791118D01*
X216111253Y-83678866D01*
X216239040Y-83536944D01*
X216334527Y-83371556D01*
X216393542Y-83189928D01*
X216413504Y-83000000D01*
X216393542Y-82810072D01*
X216334527Y-82628444D01*
X216239040Y-82463056D01*
X216111253Y-82321134D01*
X215956752Y-82208882D01*
X215782288Y-82131206D01*
X215782286Y-82131205D01*
X215595487Y-82091500D01*
X215404513Y-82091500D01*
X215217714Y-82131205D01*
X215043249Y-82208880D01*
X215030949Y-82217818D01*
X214965142Y-82241298D01*
X214958063Y-82241500D01*
X206541937Y-82241500D01*
X206474898Y-82221815D01*
X206469051Y-82217818D01*
X206456750Y-82208880D01*
X206296822Y-82137677D01*
X206282288Y-82131206D01*
X206282286Y-82131205D01*
X206095487Y-82091500D01*
X205904513Y-82091500D01*
X205717714Y-82131205D01*
X205717712Y-82131206D01*
X205543253Y-82208880D01*
X205543246Y-82208883D01*
X205388745Y-82321135D01*
X205260959Y-82463057D01*
X205165473Y-82628443D01*
X205165470Y-82628450D01*
X205106459Y-82810068D01*
X205106458Y-82810072D01*
X205086496Y-83000000D01*
X188395906Y-83000000D01*
X185403836Y-80007931D01*
X185403832Y-80007928D01*
X185300081Y-79938603D01*
X185300072Y-79938598D01*
X185184785Y-79890845D01*
X185184777Y-79890843D01*
X185062398Y-79866500D01*
X185062394Y-79866500D01*
X175813766Y-79866500D01*
X175746727Y-79846815D01*
X175726085Y-79830181D01*
X172169819Y-76273915D01*
X172136334Y-76212592D01*
X172133500Y-76186234D01*
X172133500Y-71701756D01*
X172153185Y-71634717D01*
X172165346Y-71618788D01*
X172239040Y-71536944D01*
X172334527Y-71371556D01*
X172393542Y-71189928D01*
X172413504Y-71000000D01*
X172393542Y-70810072D01*
X172334527Y-70628444D01*
X172239040Y-70463056D01*
X172111253Y-70321134D01*
X171956752Y-70208882D01*
X171782288Y-70131206D01*
X171782286Y-70131205D01*
X171595487Y-70091500D01*
X171404513Y-70091500D01*
X171217714Y-70131205D01*
X171043246Y-70208883D01*
X170888745Y-70321135D01*
X170760959Y-70463057D01*
X170665473Y-70628443D01*
X170665470Y-70628450D01*
X170606459Y-70810068D01*
X170606458Y-70810072D01*
X170586496Y-71000000D01*
X168608500Y-71000000D01*
X168608500Y-66825000D01*
X180761496Y-66825000D01*
X180781458Y-67014928D01*
X180781459Y-67014931D01*
X180840470Y-67196549D01*
X180840473Y-67196556D01*
X180935960Y-67361944D01*
X181063747Y-67503866D01*
X181218248Y-67616118D01*
X181392712Y-67693794D01*
X181579513Y-67733500D01*
X181636234Y-67733500D01*
X181703273Y-67753185D01*
X181723915Y-67769819D01*
X182330181Y-68376085D01*
X182363666Y-68437408D01*
X182366500Y-68463766D01*
X182366500Y-68686233D01*
X182346815Y-68753272D01*
X182330181Y-68773914D01*
X182048915Y-69055181D01*
X181987592Y-69088666D01*
X181961234Y-69091500D01*
X181904513Y-69091500D01*
X181717714Y-69131205D01*
X181717712Y-69131206D01*
X181543253Y-69208880D01*
X181543246Y-69208883D01*
X181388745Y-69321135D01*
X181260959Y-69463057D01*
X181165473Y-69628443D01*
X181165470Y-69628450D01*
X181106459Y-69810068D01*
X181106458Y-69810072D01*
X181086496Y-70000000D01*
X181106458Y-70189928D01*
X181106459Y-70189931D01*
X181165470Y-70371549D01*
X181165473Y-70371556D01*
X181260960Y-70536944D01*
X181388747Y-70678866D01*
X181543248Y-70791118D01*
X181717712Y-70868794D01*
X181904513Y-70908500D01*
X182095487Y-70908500D01*
X182282288Y-70868794D01*
X182456752Y-70791118D01*
X182611253Y-70678866D01*
X182739040Y-70536944D01*
X182834527Y-70371556D01*
X182893542Y-70189928D01*
X182910981Y-70023999D01*
X182937564Y-69959388D01*
X182946610Y-69949293D01*
X183492072Y-69403833D01*
X183561401Y-69300075D01*
X183599174Y-69208882D01*
X183609155Y-69184785D01*
X183633500Y-69062394D01*
X183633500Y-68837500D01*
X183653185Y-68770461D01*
X183705989Y-68724706D01*
X183757500Y-68713500D01*
X197292691Y-68713500D01*
X197359730Y-68733185D01*
X197384840Y-68754527D01*
X197388747Y-68758866D01*
X197543248Y-68871118D01*
X197717712Y-68948794D01*
X197904513Y-68988500D01*
X198095487Y-68988500D01*
X198282288Y-68948794D01*
X198456752Y-68871118D01*
X198611253Y-68758866D01*
X198615160Y-68754527D01*
X198674646Y-68717879D01*
X198707309Y-68713500D01*
X207266234Y-68713500D01*
X207333273Y-68733185D01*
X207353915Y-68749819D01*
X207553378Y-68949282D01*
X207586863Y-69010605D01*
X207589018Y-69024001D01*
X207593054Y-69062394D01*
X207606458Y-69189928D01*
X207606459Y-69189931D01*
X207665470Y-69371549D01*
X207665473Y-69371556D01*
X207760960Y-69536944D01*
X207888747Y-69678866D01*
X208043248Y-69791118D01*
X208217712Y-69868794D01*
X208404513Y-69908500D01*
X208595487Y-69908500D01*
X208782288Y-69868794D01*
X208956752Y-69791118D01*
X209111253Y-69678866D01*
X209239040Y-69536944D01*
X209334527Y-69371556D01*
X209393542Y-69189928D01*
X209413504Y-69000000D01*
X209393542Y-68810072D01*
X209334527Y-68628444D01*
X209239040Y-68463056D01*
X209111253Y-68321134D01*
X208956752Y-68208882D01*
X208782288Y-68131206D01*
X208782286Y-68131205D01*
X208595487Y-68091500D01*
X208538766Y-68091500D01*
X208471727Y-68071815D01*
X208451085Y-68055181D01*
X208366085Y-67970181D01*
X208332600Y-67908858D01*
X208337584Y-67839166D01*
X208379456Y-67783233D01*
X208444920Y-67758816D01*
X208453766Y-67758500D01*
X209074706Y-67758500D01*
X209147976Y-67743925D01*
X209147977Y-67743925D01*
X209166419Y-67740256D01*
X209221247Y-67729351D01*
X209359284Y-67672174D01*
X209483515Y-67589166D01*
X209777862Y-67294819D01*
X209839185Y-67261334D01*
X209865543Y-67258500D01*
X210074706Y-67258500D01*
X210147976Y-67243925D01*
X210147977Y-67243925D01*
X210166419Y-67240256D01*
X210221247Y-67229351D01*
X210359284Y-67172174D01*
X210483515Y-67089166D01*
X212406752Y-65165927D01*
X212468073Y-65132444D01*
X212468290Y-65132397D01*
X212532288Y-65118794D01*
X212706752Y-65041118D01*
X212861253Y-64928866D01*
X212989040Y-64786944D01*
X213084527Y-64621556D01*
X213143542Y-64439928D01*
X213163504Y-64250000D01*
X213143542Y-64060072D01*
X213084527Y-63878444D01*
X212989040Y-63713056D01*
X212861253Y-63571134D01*
X212706752Y-63458882D01*
X212532288Y-63381206D01*
X212532286Y-63381205D01*
X212345487Y-63341500D01*
X212154513Y-63341500D01*
X211967714Y-63381205D01*
X211793246Y-63458883D01*
X211638745Y-63571135D01*
X211510959Y-63713057D01*
X211415473Y-63878443D01*
X211415470Y-63878450D01*
X211360465Y-64047739D01*
X211330215Y-64097102D01*
X209722138Y-65705181D01*
X209660815Y-65738666D01*
X209634457Y-65741500D01*
X209425292Y-65741500D01*
X209278759Y-65770647D01*
X209278749Y-65770650D01*
X209140719Y-65827823D01*
X209016482Y-65910835D01*
X209016481Y-65910836D01*
X208722138Y-66205181D01*
X208660815Y-66238666D01*
X208634457Y-66241500D01*
X201425290Y-66241500D01*
X201352024Y-66256074D01*
X201278760Y-66270646D01*
X201278756Y-66270648D01*
X201278754Y-66270648D01*
X201278753Y-66270649D01*
X201236728Y-66288056D01*
X201221574Y-66294333D01*
X201140719Y-66327823D01*
X201140716Y-66327825D01*
X201124076Y-66338944D01*
X201080969Y-66357131D01*
X200967713Y-66381205D01*
X200842638Y-66436891D01*
X200805465Y-66453443D01*
X200793244Y-66458884D01*
X200638745Y-66571135D01*
X200510959Y-66713057D01*
X200415473Y-66878443D01*
X200415470Y-66878450D01*
X200371126Y-67014928D01*
X200356458Y-67060072D01*
X200338666Y-67229351D01*
X200336496Y-67250000D01*
X200342754Y-67309539D01*
X200330184Y-67378268D01*
X200282452Y-67429292D01*
X200219433Y-67446500D01*
X198707309Y-67446500D01*
X198640270Y-67426815D01*
X198615160Y-67405473D01*
X198611254Y-67401135D01*
X198579781Y-67378268D01*
X198456752Y-67288882D01*
X198282288Y-67211206D01*
X198282286Y-67211205D01*
X198095487Y-67171500D01*
X197904513Y-67171500D01*
X197717714Y-67211205D01*
X197543246Y-67288883D01*
X197388745Y-67401135D01*
X197384840Y-67405473D01*
X197325354Y-67442121D01*
X197292691Y-67446500D01*
X183243766Y-67446500D01*
X183176727Y-67426815D01*
X183156085Y-67410181D01*
X182621620Y-66875716D01*
X182588135Y-66814393D01*
X182585983Y-66801015D01*
X182568542Y-66635072D01*
X182509527Y-66453444D01*
X182414040Y-66288056D01*
X182286253Y-66146134D01*
X182131752Y-66033882D01*
X181957288Y-65956206D01*
X181957286Y-65956205D01*
X181770487Y-65916500D01*
X181579513Y-65916500D01*
X181392714Y-65956205D01*
X181218246Y-66033883D01*
X181063745Y-66146135D01*
X180935959Y-66288057D01*
X180840473Y-66453443D01*
X180840470Y-66453450D01*
X180781459Y-66635068D01*
X180781458Y-66635072D01*
X180761496Y-66825000D01*
X168608500Y-66825000D01*
X168608500Y-61515542D01*
X168628185Y-61448503D01*
X168644814Y-61427866D01*
X170156752Y-59915927D01*
X170218073Y-59882444D01*
X170218290Y-59882397D01*
X170282288Y-59868794D01*
X170456752Y-59791118D01*
X170611253Y-59678866D01*
X170739040Y-59536944D01*
X170834527Y-59371556D01*
X170893542Y-59189928D01*
X170913504Y-59000000D01*
X170893542Y-58810072D01*
X170834527Y-58628444D01*
X170739040Y-58463056D01*
X170611253Y-58321134D01*
X170456752Y-58208882D01*
X170282288Y-58131206D01*
X170282286Y-58131205D01*
X170095487Y-58091500D01*
X169904513Y-58091500D01*
X169717714Y-58131205D01*
X169543246Y-58208883D01*
X169388745Y-58321135D01*
X169260959Y-58463057D01*
X169165473Y-58628443D01*
X169165470Y-58628450D01*
X169110465Y-58797739D01*
X169080215Y-58847102D01*
X167260835Y-60666482D01*
X167177828Y-60790712D01*
X167177822Y-60790723D01*
X167122085Y-60925288D01*
X167122082Y-60925295D01*
X167120649Y-60928751D01*
X167120645Y-60928764D01*
X167091500Y-61075289D01*
X167091500Y-79967500D01*
X167071815Y-80034539D01*
X167019011Y-80080294D01*
X166967500Y-80091500D01*
X166904513Y-80091500D01*
X166717714Y-80131205D01*
X166543246Y-80208883D01*
X166494882Y-80244022D01*
X166458234Y-80270649D01*
X166455386Y-80272718D01*
X166389579Y-80296198D01*
X166321525Y-80280373D01*
X166272830Y-80230267D01*
X166258500Y-80172400D01*
X166258500Y-70925293D01*
X166258499Y-70925290D01*
X166235581Y-70810071D01*
X166235580Y-70810070D01*
X166229351Y-70778753D01*
X166187976Y-70678864D01*
X166172177Y-70640721D01*
X166172170Y-70640708D01*
X166089166Y-70516485D01*
X166089163Y-70516481D01*
X152919785Y-57347104D01*
X152889535Y-57297741D01*
X152834529Y-57128449D01*
X152834526Y-57128443D01*
X152739040Y-56963056D01*
X152611253Y-56821134D01*
X152456752Y-56708882D01*
X152282288Y-56631206D01*
X152282286Y-56631205D01*
X152095487Y-56591500D01*
X151904513Y-56591500D01*
X151717714Y-56631205D01*
X151717712Y-56631206D01*
X151563198Y-56700000D01*
X151543246Y-56708883D01*
X151388745Y-56821135D01*
X151260959Y-56963057D01*
X151165473Y-57128443D01*
X151165470Y-57128450D01*
X151108962Y-57302365D01*
X151106458Y-57310072D01*
X151086496Y-57500000D01*
X151106458Y-57689928D01*
X151106459Y-57689931D01*
X151165470Y-57871549D01*
X151165473Y-57871556D01*
X151260960Y-58036944D01*
X151388747Y-58178866D01*
X151543248Y-58291118D01*
X151717712Y-58368794D01*
X151717714Y-58368794D01*
X151717715Y-58368795D01*
X151781347Y-58382320D01*
X151842829Y-58415512D01*
X151843248Y-58415929D01*
X164705181Y-71277862D01*
X164738666Y-71339185D01*
X164741500Y-71365543D01*
X164741500Y-115134456D01*
X164721815Y-115201495D01*
X164705181Y-115222137D01*
X151910836Y-128016481D01*
X151910835Y-128016482D01*
X151827825Y-128140717D01*
X151770649Y-128278752D01*
X151770649Y-128278753D01*
X151760888Y-128327826D01*
X151741500Y-128425291D01*
X151741500Y-128672704D01*
X151721815Y-128739743D01*
X151720603Y-128741594D01*
X151707825Y-128760717D01*
X151650649Y-128898752D01*
X151650647Y-128898760D01*
X151640289Y-128950835D01*
X151634026Y-128982321D01*
X151621500Y-129045292D01*
X151621500Y-133308250D01*
X151601815Y-133375289D01*
X151573663Y-133406103D01*
X151456761Y-133497092D01*
X151456756Y-133497097D01*
X151304284Y-133662723D01*
X151304276Y-133662734D01*
X151213808Y-133801206D01*
X151160662Y-133846562D01*
X151091431Y-133855986D01*
X151028095Y-133826484D01*
X151006192Y-133801206D01*
X150915723Y-133662734D01*
X150915715Y-133662723D01*
X150763243Y-133497097D01*
X150763238Y-133497092D01*
X150606747Y-133375289D01*
X150585576Y-133358811D01*
X150585575Y-133358810D01*
X150585572Y-133358808D01*
X150387580Y-133251661D01*
X150387577Y-133251659D01*
X150387574Y-133251658D01*
X150387571Y-133251657D01*
X150387569Y-133251656D01*
X150174637Y-133178556D01*
X149952569Y-133141500D01*
X149727431Y-133141500D01*
X149505362Y-133178556D01*
X149292430Y-133251656D01*
X149292419Y-133251661D01*
X149094427Y-133358808D01*
X149094422Y-133358812D01*
X148916761Y-133497092D01*
X148916756Y-133497097D01*
X148764284Y-133662723D01*
X148764276Y-133662734D01*
X148673808Y-133801206D01*
X148620662Y-133846562D01*
X148551431Y-133855986D01*
X148488095Y-133826484D01*
X148466192Y-133801206D01*
X148375723Y-133662734D01*
X148375715Y-133662723D01*
X148223243Y-133497097D01*
X148223238Y-133497092D01*
X148066747Y-133375289D01*
X148045576Y-133358811D01*
X148045575Y-133358810D01*
X148045572Y-133358808D01*
X147847580Y-133251661D01*
X147847577Y-133251659D01*
X147847574Y-133251658D01*
X147847571Y-133251657D01*
X147847569Y-133251656D01*
X147634637Y-133178556D01*
X147412569Y-133141500D01*
X147187431Y-133141500D01*
X146965362Y-133178556D01*
X146752430Y-133251656D01*
X146752419Y-133251661D01*
X146554427Y-133358808D01*
X146554422Y-133358812D01*
X146376761Y-133497092D01*
X146376756Y-133497097D01*
X146224284Y-133662723D01*
X146224276Y-133662734D01*
X146133808Y-133801206D01*
X146080662Y-133846562D01*
X146011431Y-133855986D01*
X145948095Y-133826484D01*
X145926192Y-133801206D01*
X145835723Y-133662734D01*
X145835722Y-133662732D01*
X145712218Y-133528572D01*
X145681297Y-133465922D01*
X145689157Y-133396495D01*
X145715765Y-133356914D01*
X163589165Y-115483516D01*
X163647967Y-115395512D01*
X163672174Y-115359284D01*
X163692762Y-115309580D01*
X163725930Y-115229506D01*
X163725931Y-115229503D01*
X163727942Y-115224647D01*
X163729351Y-115221247D01*
X163758500Y-115074705D01*
X163758500Y-114925295D01*
X163758500Y-82425294D01*
X163758500Y-82425291D01*
X163737512Y-82319782D01*
X163737512Y-82319781D01*
X163729351Y-82278753D01*
X163692969Y-82190920D01*
X163672174Y-82140716D01*
X163670143Y-82137677D01*
X163589168Y-82016488D01*
X163589167Y-82016487D01*
X163589165Y-82016484D01*
X163483516Y-81910835D01*
X162742500Y-81169819D01*
X161983518Y-80410836D01*
X161983517Y-80410835D01*
X161921399Y-80369330D01*
X161859284Y-80327826D01*
X161843128Y-80321134D01*
X161721247Y-80270649D01*
X161721239Y-80270647D01*
X161647976Y-80256074D01*
X161574709Y-80241500D01*
X161574706Y-80241500D01*
X95865543Y-80241500D01*
X95798504Y-80221815D01*
X95777862Y-80205181D01*
X93483518Y-77910836D01*
X93483517Y-77910835D01*
X93373105Y-77837061D01*
X93359284Y-77827826D01*
X93221247Y-77770649D01*
X93221239Y-77770647D01*
X93147976Y-77756074D01*
X93074709Y-77741500D01*
X93074706Y-77741500D01*
X86365543Y-77741500D01*
X86298504Y-77721815D01*
X86277862Y-77705181D01*
X80983518Y-72410836D01*
X80983517Y-72410835D01*
X80921399Y-72369330D01*
X80859284Y-72327826D01*
X80843128Y-72321134D01*
X80721247Y-72270649D01*
X80721239Y-72270647D01*
X80647976Y-72256074D01*
X80574709Y-72241500D01*
X80574706Y-72241500D01*
X76541937Y-72241500D01*
X76474898Y-72221815D01*
X76469051Y-72217818D01*
X76456750Y-72208880D01*
X76322807Y-72149246D01*
X76282288Y-72131206D01*
X76282286Y-72131205D01*
X76095487Y-72091500D01*
X75904513Y-72091500D01*
X75717714Y-72131205D01*
X75717712Y-72131206D01*
X75543253Y-72208880D01*
X75543246Y-72208883D01*
X75388745Y-72321135D01*
X75260959Y-72463057D01*
X75165473Y-72628443D01*
X75165470Y-72628450D01*
X75106459Y-72810068D01*
X75106458Y-72810072D01*
X75086496Y-73000000D01*
X58360824Y-73000000D01*
X58422680Y-60999996D01*
X59986401Y-60999996D01*
X59986401Y-61000003D01*
X60006778Y-61349857D01*
X60006779Y-61349868D01*
X60067630Y-61694975D01*
X60067632Y-61694982D01*
X60168143Y-62030713D01*
X60306946Y-62352492D01*
X60306952Y-62352505D01*
X60482175Y-62656001D01*
X60691445Y-62937100D01*
X60691450Y-62937106D01*
X60815654Y-63068754D01*
X60931943Y-63192012D01*
X60931949Y-63192017D01*
X60931951Y-63192019D01*
X61110094Y-63341500D01*
X61200403Y-63417278D01*
X61493200Y-63609853D01*
X61806374Y-63767135D01*
X62135690Y-63886996D01*
X62135696Y-63886997D01*
X62135698Y-63886998D01*
X62476678Y-63967813D01*
X62476685Y-63967814D01*
X62476694Y-63967816D01*
X62824775Y-64008500D01*
X62824782Y-64008500D01*
X63175218Y-64008500D01*
X63175225Y-64008500D01*
X63523306Y-63967816D01*
X63523315Y-63967813D01*
X63523321Y-63967813D01*
X63798371Y-63902623D01*
X63864310Y-63886996D01*
X64193626Y-63767135D01*
X64506800Y-63609853D01*
X64799597Y-63417278D01*
X65068057Y-63192012D01*
X65308551Y-62937104D01*
X65517825Y-62656000D01*
X65693050Y-62352501D01*
X65831857Y-62030712D01*
X65932367Y-61694984D01*
X65964008Y-61515542D01*
X65993220Y-61349868D01*
X65993219Y-61349868D01*
X65993222Y-61349857D01*
X66013599Y-61000000D01*
X65993222Y-60650143D01*
X65979921Y-60574709D01*
X65932369Y-60305024D01*
X65932367Y-60305017D01*
X65932367Y-60305016D01*
X65831857Y-59969288D01*
X65693050Y-59647499D01*
X65618987Y-59519218D01*
X65517824Y-59343998D01*
X65308554Y-59062899D01*
X65308549Y-59062893D01*
X65081397Y-58822128D01*
X65068057Y-58807988D01*
X65068050Y-58807982D01*
X65068048Y-58807980D01*
X64799600Y-58582724D01*
X64799597Y-58582722D01*
X64506800Y-58390147D01*
X64369384Y-58321134D01*
X64193633Y-58232868D01*
X64193627Y-58232865D01*
X63864322Y-58113008D01*
X63864301Y-58113001D01*
X63523321Y-58032186D01*
X63523306Y-58032184D01*
X63175225Y-57991500D01*
X62824775Y-57991500D01*
X62520204Y-58027098D01*
X62476693Y-58032184D01*
X62476678Y-58032186D01*
X62135698Y-58113001D01*
X62135677Y-58113008D01*
X61806372Y-58232865D01*
X61806366Y-58232868D01*
X61493203Y-58390145D01*
X61200399Y-58582724D01*
X60931951Y-58807980D01*
X60931941Y-58807990D01*
X60691450Y-59062893D01*
X60691445Y-59062899D01*
X60482175Y-59343998D01*
X60306952Y-59647494D01*
X60306946Y-59647507D01*
X60168143Y-59969286D01*
X60067632Y-60305017D01*
X60067630Y-60305024D01*
X60006779Y-60650131D01*
X60006778Y-60650142D01*
X59986401Y-60999996D01*
X58422680Y-60999996D01*
X58440721Y-57500000D01*
X132586496Y-57500000D01*
X132606458Y-57689928D01*
X132606459Y-57689931D01*
X132665470Y-57871549D01*
X132665473Y-57871556D01*
X132721048Y-57967815D01*
X132724887Y-57974463D01*
X132741500Y-58036463D01*
X132741500Y-60574709D01*
X132770647Y-60721239D01*
X132770649Y-60721247D01*
X132827825Y-60859282D01*
X132910835Y-60983517D01*
X132910836Y-60983518D01*
X133205181Y-61277862D01*
X133238666Y-61339185D01*
X133241500Y-61365543D01*
X133241500Y-71574709D01*
X133244375Y-71589164D01*
X133270647Y-71721241D01*
X133270649Y-71721247D01*
X133327825Y-71859282D01*
X133410835Y-71983517D01*
X133410836Y-71983518D01*
X140580213Y-79152894D01*
X140610463Y-79202256D01*
X140665471Y-79371552D01*
X140665473Y-79371556D01*
X140760960Y-79536944D01*
X140888747Y-79678866D01*
X141043248Y-79791118D01*
X141217712Y-79868794D01*
X141404513Y-79908500D01*
X141595487Y-79908500D01*
X141782288Y-79868794D01*
X141956752Y-79791118D01*
X142111253Y-79678866D01*
X142239040Y-79536944D01*
X142334527Y-79371556D01*
X142393542Y-79189928D01*
X142413504Y-79000000D01*
X142393542Y-78810072D01*
X142334527Y-78628444D01*
X142239040Y-78463056D01*
X142111253Y-78321134D01*
X141956752Y-78208882D01*
X141782288Y-78131206D01*
X141782286Y-78131205D01*
X141718648Y-78117678D01*
X141657167Y-78084484D01*
X141656750Y-78084069D01*
X134794819Y-71222138D01*
X134761334Y-71160815D01*
X134758500Y-71134457D01*
X134758500Y-60925291D01*
X134729352Y-60778759D01*
X134729351Y-60778758D01*
X134729351Y-60778754D01*
X134676079Y-60650143D01*
X134672175Y-60640718D01*
X134628067Y-60574705D01*
X134589164Y-60516482D01*
X134294819Y-60222137D01*
X134261334Y-60160814D01*
X134258500Y-60134456D01*
X134258500Y-58036463D01*
X134275113Y-57974463D01*
X134278951Y-57967816D01*
X134334527Y-57871556D01*
X134393542Y-57689928D01*
X134413504Y-57500000D01*
X134393542Y-57310072D01*
X134334527Y-57128444D01*
X134239040Y-56963056D01*
X134111253Y-56821134D01*
X133956752Y-56708882D01*
X133782288Y-56631206D01*
X133782286Y-56631205D01*
X133595487Y-56591500D01*
X133404513Y-56591500D01*
X133217714Y-56631205D01*
X133217712Y-56631206D01*
X133063198Y-56700000D01*
X133043246Y-56708883D01*
X132888745Y-56821135D01*
X132760959Y-56963057D01*
X132665473Y-57128443D01*
X132665470Y-57128450D01*
X132608962Y-57302365D01*
X132606458Y-57310072D01*
X132586496Y-57500000D01*
X58440721Y-57500000D01*
X58449226Y-55850000D01*
X68119975Y-55850000D01*
X68140042Y-56104989D01*
X68199752Y-56353702D01*
X68297634Y-56590012D01*
X68297636Y-56590015D01*
X68431275Y-56808095D01*
X68431286Y-56808110D01*
X68434533Y-56811911D01*
X68434535Y-56811911D01*
X68995884Y-56250561D01*
X68996740Y-56252626D01*
X69089762Y-56391844D01*
X69208156Y-56510238D01*
X69347374Y-56603260D01*
X69349437Y-56604114D01*
X68788087Y-57165464D01*
X68788087Y-57165465D01*
X68791888Y-57168712D01*
X68791898Y-57168719D01*
X69009984Y-57302363D01*
X69009987Y-57302365D01*
X69246297Y-57400247D01*
X69495011Y-57459957D01*
X69495010Y-57459957D01*
X69750000Y-57480024D01*
X70004989Y-57459957D01*
X70253702Y-57400247D01*
X70490012Y-57302365D01*
X70490015Y-57302363D01*
X70708103Y-57168719D01*
X70711912Y-57165464D01*
X70150562Y-56604114D01*
X70152626Y-56603260D01*
X70291844Y-56510238D01*
X70410238Y-56391844D01*
X70503260Y-56252626D01*
X70504114Y-56250562D01*
X71065464Y-56811912D01*
X71068719Y-56808103D01*
X71202363Y-56590015D01*
X71202365Y-56590012D01*
X71300247Y-56353702D01*
X71359957Y-56104989D01*
X71380024Y-55850000D01*
X73199975Y-55850000D01*
X73220042Y-56104989D01*
X73279752Y-56353702D01*
X73377634Y-56590012D01*
X73377636Y-56590015D01*
X73511275Y-56808095D01*
X73511286Y-56808110D01*
X73514533Y-56811911D01*
X73514535Y-56811911D01*
X74075884Y-56250561D01*
X74076740Y-56252626D01*
X74169762Y-56391844D01*
X74288156Y-56510238D01*
X74427374Y-56603260D01*
X74429437Y-56604114D01*
X73868087Y-57165464D01*
X73868087Y-57165465D01*
X73871888Y-57168712D01*
X73871898Y-57168719D01*
X74089984Y-57302363D01*
X74089987Y-57302365D01*
X74326297Y-57400247D01*
X74575011Y-57459957D01*
X74575010Y-57459957D01*
X74830000Y-57480024D01*
X75084989Y-57459957D01*
X75333702Y-57400247D01*
X75570012Y-57302365D01*
X75570015Y-57302363D01*
X75788103Y-57168719D01*
X75791912Y-57165464D01*
X75230562Y-56604114D01*
X75232626Y-56603260D01*
X75371844Y-56510238D01*
X75490238Y-56391844D01*
X75583260Y-56252626D01*
X75584114Y-56250562D01*
X76145464Y-56811912D01*
X76148719Y-56808103D01*
X76282363Y-56590015D01*
X76282365Y-56590012D01*
X76380247Y-56353702D01*
X76439957Y-56104989D01*
X76460024Y-55850000D01*
X76439957Y-55595010D01*
X76380247Y-55346297D01*
X76282365Y-55109987D01*
X76282363Y-55109984D01*
X76214962Y-54999996D01*
X206986401Y-54999996D01*
X206986401Y-55000003D01*
X207006778Y-55349857D01*
X207006779Y-55349868D01*
X207067630Y-55694975D01*
X207067632Y-55694982D01*
X207168143Y-56030713D01*
X207306946Y-56352492D01*
X207306952Y-56352505D01*
X207482175Y-56656001D01*
X207691445Y-56937100D01*
X207691450Y-56937106D01*
X207715934Y-56963057D01*
X207931943Y-57192012D01*
X207931949Y-57192017D01*
X207931951Y-57192019D01*
X208072640Y-57310072D01*
X208200403Y-57417278D01*
X208493200Y-57609853D01*
X208806374Y-57767135D01*
X209135690Y-57886996D01*
X209135696Y-57886997D01*
X209135698Y-57886998D01*
X209476678Y-57967813D01*
X209476685Y-57967814D01*
X209476694Y-57967816D01*
X209824775Y-58008500D01*
X209824782Y-58008500D01*
X210175218Y-58008500D01*
X210175225Y-58008500D01*
X210523306Y-57967816D01*
X210523315Y-57967813D01*
X210523321Y-57967813D01*
X210798371Y-57902623D01*
X210864310Y-57886996D01*
X211193626Y-57767135D01*
X211506800Y-57609853D01*
X211799597Y-57417278D01*
X212068057Y-57192012D01*
X212308551Y-56937104D01*
X212517825Y-56656000D01*
X212693050Y-56352501D01*
X212831857Y-56030712D01*
X212932367Y-55694984D01*
X212948752Y-55602064D01*
X212993220Y-55349868D01*
X212993219Y-55349868D01*
X212993222Y-55349857D01*
X213010567Y-55052040D01*
X213013599Y-55000003D01*
X213013599Y-54999996D01*
X213000375Y-54772955D01*
X212993222Y-54650143D01*
X212976352Y-54554466D01*
X212932369Y-54305024D01*
X212932367Y-54305017D01*
X212905164Y-54214152D01*
X212831857Y-53969288D01*
X212693050Y-53647499D01*
X212584336Y-53459201D01*
X212517824Y-53343998D01*
X212308554Y-53062899D01*
X212308549Y-53062893D01*
X212173735Y-52920000D01*
X212068057Y-52807988D01*
X212068050Y-52807982D01*
X212068048Y-52807980D01*
X211799600Y-52582724D01*
X211773908Y-52565826D01*
X211506800Y-52390147D01*
X211341255Y-52307007D01*
X211193633Y-52232868D01*
X211193627Y-52232865D01*
X210864322Y-52113008D01*
X210864301Y-52113001D01*
X210523321Y-52032186D01*
X210523306Y-52032184D01*
X210175225Y-51991500D01*
X209824775Y-51991500D01*
X209520204Y-52027098D01*
X209476693Y-52032184D01*
X209476678Y-52032186D01*
X209135698Y-52113001D01*
X209135677Y-52113008D01*
X208806372Y-52232865D01*
X208806366Y-52232868D01*
X208493203Y-52390145D01*
X208200399Y-52582724D01*
X207931951Y-52807980D01*
X207931941Y-52807990D01*
X207691450Y-53062893D01*
X207691445Y-53062899D01*
X207482175Y-53343998D01*
X207306952Y-53647494D01*
X207306946Y-53647507D01*
X207168143Y-53969286D01*
X207067632Y-54305017D01*
X207067630Y-54305024D01*
X207006779Y-54650131D01*
X207006778Y-54650142D01*
X206986401Y-54999996D01*
X76214962Y-54999996D01*
X76148719Y-54891898D01*
X76148712Y-54891888D01*
X76145465Y-54888087D01*
X76145464Y-54888087D01*
X75584114Y-55449437D01*
X75583260Y-55447374D01*
X75490238Y-55308156D01*
X75371844Y-55189762D01*
X75232626Y-55096740D01*
X75230561Y-55095884D01*
X75791911Y-54534535D01*
X75791911Y-54534533D01*
X75788110Y-54531286D01*
X75788095Y-54531275D01*
X75570015Y-54397636D01*
X75570012Y-54397634D01*
X75333702Y-54299752D01*
X75084988Y-54240042D01*
X75084989Y-54240042D01*
X74830000Y-54219975D01*
X74575010Y-54240042D01*
X74326297Y-54299752D01*
X74089987Y-54397634D01*
X74089984Y-54397636D01*
X73871897Y-54531280D01*
X73868087Y-54534534D01*
X74429438Y-55095884D01*
X74427374Y-55096740D01*
X74288156Y-55189762D01*
X74169762Y-55308156D01*
X74076740Y-55447374D01*
X74075884Y-55449438D01*
X73514533Y-54888087D01*
X73511280Y-54891897D01*
X73377636Y-55109984D01*
X73377634Y-55109987D01*
X73279752Y-55346297D01*
X73220042Y-55595010D01*
X73199975Y-55850000D01*
X71380024Y-55850000D01*
X71359957Y-55595010D01*
X71300247Y-55346297D01*
X71202365Y-55109987D01*
X71202363Y-55109984D01*
X71068719Y-54891898D01*
X71068712Y-54891888D01*
X71065465Y-54888087D01*
X71065464Y-54888087D01*
X70504114Y-55449437D01*
X70503260Y-55447374D01*
X70410238Y-55308156D01*
X70291844Y-55189762D01*
X70152626Y-55096740D01*
X70150561Y-55095884D01*
X70711911Y-54534535D01*
X70711911Y-54534533D01*
X70708110Y-54531286D01*
X70708095Y-54531275D01*
X70490015Y-54397636D01*
X70490012Y-54397634D01*
X70253702Y-54299752D01*
X70004988Y-54240042D01*
X70004989Y-54240042D01*
X69750000Y-54219975D01*
X69495010Y-54240042D01*
X69246297Y-54299752D01*
X69009987Y-54397634D01*
X69009984Y-54397636D01*
X68791897Y-54531280D01*
X68788087Y-54534534D01*
X69349438Y-55095884D01*
X69347374Y-55096740D01*
X69208156Y-55189762D01*
X69089762Y-55308156D01*
X68996740Y-55447374D01*
X68995884Y-55449438D01*
X68434533Y-54888087D01*
X68431280Y-54891897D01*
X68297636Y-55109984D01*
X68297634Y-55109987D01*
X68199752Y-55346297D01*
X68140042Y-55595010D01*
X68119975Y-55850000D01*
X58449226Y-55850000D01*
X58462319Y-53310000D01*
X70751758Y-53310000D01*
X70770695Y-53550631D01*
X70827044Y-53785343D01*
X70919415Y-54008347D01*
X71045532Y-54214150D01*
X71045533Y-54214152D01*
X71045534Y-54214154D01*
X71045536Y-54214156D01*
X71202299Y-54397701D01*
X71385844Y-54554464D01*
X71385846Y-54554465D01*
X71385847Y-54554466D01*
X71385849Y-54554467D01*
X71591652Y-54680584D01*
X71814656Y-54772955D01*
X71873334Y-54787042D01*
X72049366Y-54829304D01*
X72290000Y-54848242D01*
X72530634Y-54829304D01*
X72765343Y-54772955D01*
X72988347Y-54680584D01*
X73194156Y-54554464D01*
X73377701Y-54397701D01*
X73534464Y-54214156D01*
X73660584Y-54008347D01*
X73752955Y-53785343D01*
X73809304Y-53550634D01*
X73828242Y-53310000D01*
X73809304Y-53069366D01*
X73768666Y-52900099D01*
X73752955Y-52834656D01*
X73660584Y-52611652D01*
X73534467Y-52405849D01*
X73534466Y-52405847D01*
X73534465Y-52405846D01*
X73534464Y-52405844D01*
X73377701Y-52222299D01*
X73194156Y-52065536D01*
X73194154Y-52065534D01*
X73194152Y-52065533D01*
X73194150Y-52065532D01*
X72988347Y-51939415D01*
X72765343Y-51847044D01*
X72530630Y-51790695D01*
X72530631Y-51790695D01*
X72290000Y-51771758D01*
X72049368Y-51790695D01*
X71814656Y-51847044D01*
X71591652Y-51939415D01*
X71385849Y-52065532D01*
X71385847Y-52065533D01*
X71202299Y-52222299D01*
X71045533Y-52405847D01*
X71045532Y-52405849D01*
X70919415Y-52611652D01*
X70827044Y-52834656D01*
X70770695Y-53069368D01*
X70751758Y-53310000D01*
X58462319Y-53310000D01*
X58475412Y-50770000D01*
X68119975Y-50770000D01*
X68140042Y-51024989D01*
X68199752Y-51273702D01*
X68297634Y-51510012D01*
X68297636Y-51510015D01*
X68431275Y-51728095D01*
X68431286Y-51728110D01*
X68434533Y-51731911D01*
X68434535Y-51731911D01*
X68995884Y-51170561D01*
X68996740Y-51172626D01*
X69089762Y-51311844D01*
X69208156Y-51430238D01*
X69347374Y-51523260D01*
X69349437Y-51524114D01*
X68788087Y-52085464D01*
X68788087Y-52085465D01*
X68791888Y-52088712D01*
X68791898Y-52088719D01*
X69009984Y-52222363D01*
X69009987Y-52222365D01*
X69246297Y-52320247D01*
X69495011Y-52379957D01*
X69495010Y-52379957D01*
X69750000Y-52400024D01*
X70004989Y-52379957D01*
X70253702Y-52320247D01*
X70490012Y-52222365D01*
X70490015Y-52222363D01*
X70708103Y-52088719D01*
X70711912Y-52085464D01*
X70150562Y-51524114D01*
X70152626Y-51523260D01*
X70291844Y-51430238D01*
X70410238Y-51311844D01*
X70503260Y-51172626D01*
X70504114Y-51170562D01*
X71065464Y-51731912D01*
X71068719Y-51728103D01*
X71202363Y-51510015D01*
X71202365Y-51510012D01*
X71300247Y-51273702D01*
X71359957Y-51024989D01*
X71380024Y-50770000D01*
X73199975Y-50770000D01*
X73220042Y-51024989D01*
X73279752Y-51273702D01*
X73377634Y-51510012D01*
X73377636Y-51510015D01*
X73511275Y-51728095D01*
X73511286Y-51728110D01*
X73514533Y-51731911D01*
X73514535Y-51731911D01*
X74075884Y-51170561D01*
X74076740Y-51172626D01*
X74169762Y-51311844D01*
X74288156Y-51430238D01*
X74427374Y-51523260D01*
X74429437Y-51524114D01*
X73868087Y-52085464D01*
X73868087Y-52085465D01*
X73871888Y-52088712D01*
X73871898Y-52088719D01*
X74089984Y-52222363D01*
X74089987Y-52222365D01*
X74326297Y-52320247D01*
X74575011Y-52379957D01*
X74575010Y-52379957D01*
X74830000Y-52400024D01*
X75084989Y-52379957D01*
X75333702Y-52320247D01*
X75570012Y-52222365D01*
X75570015Y-52222363D01*
X75655466Y-52169999D01*
X102049364Y-52169999D01*
X102049364Y-52170000D01*
X102946988Y-52170000D01*
X102914075Y-52227007D01*
X102880000Y-52354174D01*
X102880000Y-52485826D01*
X102914075Y-52612993D01*
X102946988Y-52670000D01*
X102049364Y-52670000D01*
X102106567Y-52883486D01*
X102106570Y-52883492D01*
X102206399Y-53097578D01*
X102341894Y-53291082D01*
X102508917Y-53458105D01*
X102702421Y-53593600D01*
X102916507Y-53693429D01*
X102916516Y-53693433D01*
X103130000Y-53750634D01*
X103130000Y-52853012D01*
X103187007Y-52885925D01*
X103314174Y-52920000D01*
X103445826Y-52920000D01*
X103572993Y-52885925D01*
X103630000Y-52853012D01*
X103630000Y-53750633D01*
X103843483Y-53693433D01*
X103843492Y-53693429D01*
X104057578Y-53593600D01*
X104251082Y-53458105D01*
X104418105Y-53291082D01*
X104544868Y-53110048D01*
X104599445Y-53066423D01*
X104668944Y-53059231D01*
X104731298Y-53090753D01*
X104750251Y-53113350D01*
X104844276Y-53257265D01*
X104844284Y-53257276D01*
X104996176Y-53422272D01*
X104996760Y-53422906D01*
X105174424Y-53561189D01*
X105174425Y-53561189D01*
X105174427Y-53561191D01*
X105234314Y-53593600D01*
X105372426Y-53668342D01*
X105585365Y-53741444D01*
X105807431Y-53778500D01*
X106032569Y-53778500D01*
X106254635Y-53741444D01*
X106467574Y-53668342D01*
X106665576Y-53561189D01*
X106843240Y-53422906D01*
X106995722Y-53257268D01*
X107086193Y-53118790D01*
X107139338Y-53073437D01*
X107208569Y-53064013D01*
X107271905Y-53093515D01*
X107293804Y-53118787D01*
X107384278Y-53257268D01*
X107384283Y-53257273D01*
X107384284Y-53257276D01*
X107536176Y-53422272D01*
X107536760Y-53422906D01*
X107714424Y-53561189D01*
X107714425Y-53561189D01*
X107714427Y-53561191D01*
X107774314Y-53593600D01*
X107912426Y-53668342D01*
X108125365Y-53741444D01*
X108347431Y-53778500D01*
X108572569Y-53778500D01*
X108794635Y-53741444D01*
X109007574Y-53668342D01*
X109205576Y-53561189D01*
X109383240Y-53422906D01*
X109446452Y-53354239D01*
X109506337Y-53318250D01*
X109576175Y-53320349D01*
X109633791Y-53359873D01*
X109653861Y-53394888D01*
X109694150Y-53502903D01*
X109699111Y-53516204D01*
X109786739Y-53633261D01*
X109903796Y-53720889D01*
X110040799Y-53771989D01*
X110068050Y-53774918D01*
X110101345Y-53778499D01*
X110101362Y-53778500D01*
X111898638Y-53778500D01*
X111898654Y-53778499D01*
X111925692Y-53775591D01*
X111959201Y-53771989D01*
X112096204Y-53720889D01*
X112213261Y-53633261D01*
X112300889Y-53516204D01*
X112351989Y-53379201D01*
X112356497Y-53337268D01*
X112358499Y-53318654D01*
X112358500Y-53318637D01*
X112358500Y-51601345D01*
X115601500Y-51601345D01*
X115601500Y-53398654D01*
X115608011Y-53459202D01*
X115608011Y-53459204D01*
X115658140Y-53593600D01*
X115659111Y-53596204D01*
X115746739Y-53713261D01*
X115863796Y-53800889D01*
X116000799Y-53851989D01*
X116028050Y-53854918D01*
X116061345Y-53858499D01*
X116061362Y-53858500D01*
X117858638Y-53858500D01*
X117858654Y-53858499D01*
X117885692Y-53855591D01*
X117919201Y-53851989D01*
X118056204Y-53800889D01*
X118173261Y-53713261D01*
X118260889Y-53596204D01*
X118309223Y-53466615D01*
X118351093Y-53410686D01*
X118416557Y-53386269D01*
X118484830Y-53401121D01*
X118513084Y-53422272D01*
X118628917Y-53538105D01*
X118822421Y-53673600D01*
X119036507Y-53773429D01*
X119036516Y-53773433D01*
X119250000Y-53830634D01*
X119250000Y-52933012D01*
X119307007Y-52965925D01*
X119434174Y-53000000D01*
X119565826Y-53000000D01*
X119692993Y-52965925D01*
X119750000Y-52933012D01*
X119750000Y-53830633D01*
X119963483Y-53773433D01*
X119963492Y-53773429D01*
X120177578Y-53673600D01*
X120371082Y-53538105D01*
X120538105Y-53371082D01*
X120673600Y-53177578D01*
X120773429Y-52963492D01*
X120773432Y-52963486D01*
X120830636Y-52750000D01*
X119933012Y-52750000D01*
X119965925Y-52692993D01*
X120000000Y-52565826D01*
X120000000Y-52434174D01*
X119965925Y-52307007D01*
X119933012Y-52250000D01*
X120830636Y-52250000D01*
X120830635Y-52249999D01*
X124129364Y-52249999D01*
X124129364Y-52250000D01*
X125026988Y-52250000D01*
X124994075Y-52307007D01*
X124960000Y-52434174D01*
X124960000Y-52565826D01*
X124994075Y-52692993D01*
X125026988Y-52750000D01*
X124129364Y-52750000D01*
X124186567Y-52963486D01*
X124186570Y-52963492D01*
X124286399Y-53177578D01*
X124421894Y-53371082D01*
X124588917Y-53538105D01*
X124782421Y-53673600D01*
X124996507Y-53773429D01*
X124996516Y-53773433D01*
X125210000Y-53830634D01*
X125210000Y-52933012D01*
X125267007Y-52965925D01*
X125394174Y-53000000D01*
X125525826Y-53000000D01*
X125652993Y-52965925D01*
X125710000Y-52933012D01*
X125710000Y-53830633D01*
X125923483Y-53773433D01*
X125923492Y-53773429D01*
X126137578Y-53673600D01*
X126331082Y-53538105D01*
X126498105Y-53371082D01*
X126624868Y-53190048D01*
X126679445Y-53146423D01*
X126748944Y-53139231D01*
X126811298Y-53170753D01*
X126830251Y-53193350D01*
X126924276Y-53337265D01*
X126924284Y-53337276D01*
X127043355Y-53466619D01*
X127076760Y-53502906D01*
X127254424Y-53641189D01*
X127254425Y-53641189D01*
X127254427Y-53641191D01*
X127304600Y-53668343D01*
X127452426Y-53748342D01*
X127665365Y-53821444D01*
X127887431Y-53858500D01*
X128112569Y-53858500D01*
X128334635Y-53821444D01*
X128547574Y-53748342D01*
X128745576Y-53641189D01*
X128923240Y-53502906D01*
X128986452Y-53434239D01*
X129046337Y-53398250D01*
X129116175Y-53400349D01*
X129173791Y-53439873D01*
X129193861Y-53474888D01*
X129238140Y-53593600D01*
X129239111Y-53596204D01*
X129326739Y-53713261D01*
X129443796Y-53800889D01*
X129580799Y-53851989D01*
X129608050Y-53854918D01*
X129641345Y-53858499D01*
X129641362Y-53858500D01*
X131438638Y-53858500D01*
X131438654Y-53858499D01*
X131465692Y-53855591D01*
X131499201Y-53851989D01*
X131636204Y-53800889D01*
X131753261Y-53713261D01*
X131840889Y-53596204D01*
X131891989Y-53459201D01*
X131895891Y-53422903D01*
X131898499Y-53398654D01*
X131898500Y-53398637D01*
X131898500Y-51601362D01*
X131898499Y-51601345D01*
X131894672Y-51565759D01*
X131891989Y-51540799D01*
X131885447Y-51523260D01*
X131862559Y-51461894D01*
X131840889Y-51403796D01*
X131753261Y-51286739D01*
X131636204Y-51199111D01*
X131499203Y-51148011D01*
X131438654Y-51141500D01*
X131438638Y-51141500D01*
X129641362Y-51141500D01*
X129641345Y-51141500D01*
X129580797Y-51148011D01*
X129580795Y-51148011D01*
X129443795Y-51199111D01*
X129326739Y-51286739D01*
X129239111Y-51403795D01*
X129193861Y-51525111D01*
X129151989Y-51581044D01*
X129086524Y-51605460D01*
X129018252Y-51590607D01*
X128986454Y-51565762D01*
X128923240Y-51497094D01*
X128745576Y-51358811D01*
X128745575Y-51358810D01*
X128745572Y-51358808D01*
X128547580Y-51251661D01*
X128547577Y-51251659D01*
X128547574Y-51251658D01*
X128547571Y-51251657D01*
X128547569Y-51251656D01*
X128334637Y-51178556D01*
X128112569Y-51141500D01*
X127887431Y-51141500D01*
X127665362Y-51178556D01*
X127452430Y-51251656D01*
X127452419Y-51251661D01*
X127254427Y-51358808D01*
X127254422Y-51358812D01*
X127076761Y-51497092D01*
X127076756Y-51497097D01*
X126924284Y-51662723D01*
X126924276Y-51662734D01*
X126830251Y-51806650D01*
X126777105Y-51852007D01*
X126707873Y-51861430D01*
X126644538Y-51831928D01*
X126624868Y-51809951D01*
X126498113Y-51628926D01*
X126498108Y-51628920D01*
X126331082Y-51461894D01*
X126137578Y-51326399D01*
X125923492Y-51226570D01*
X125923486Y-51226567D01*
X125710000Y-51169364D01*
X125710000Y-52066988D01*
X125652993Y-52034075D01*
X125525826Y-52000000D01*
X125394174Y-52000000D01*
X125267007Y-52034075D01*
X125210000Y-52066988D01*
X125210000Y-51169364D01*
X125209999Y-51169364D01*
X124996513Y-51226567D01*
X124996507Y-51226570D01*
X124782422Y-51326399D01*
X124782420Y-51326400D01*
X124588926Y-51461886D01*
X124588920Y-51461891D01*
X124421891Y-51628920D01*
X124421886Y-51628926D01*
X124286400Y-51822420D01*
X124286399Y-51822422D01*
X124186570Y-52036507D01*
X124186567Y-52036513D01*
X124129364Y-52249999D01*
X120830635Y-52249999D01*
X120773432Y-52036513D01*
X120773429Y-52036507D01*
X120673600Y-51822422D01*
X120673599Y-51822420D01*
X120538113Y-51628926D01*
X120538108Y-51628920D01*
X120371082Y-51461894D01*
X120177578Y-51326399D01*
X119963492Y-51226570D01*
X119963486Y-51226567D01*
X119750000Y-51169364D01*
X119750000Y-52066988D01*
X119692993Y-52034075D01*
X119565826Y-52000000D01*
X119434174Y-52000000D01*
X119307007Y-52034075D01*
X119250000Y-52066988D01*
X119250000Y-51169364D01*
X119249999Y-51169364D01*
X119036513Y-51226567D01*
X119036507Y-51226570D01*
X118822422Y-51326399D01*
X118822420Y-51326400D01*
X118628926Y-51461886D01*
X118513084Y-51577728D01*
X118451761Y-51611212D01*
X118382069Y-51606228D01*
X118326136Y-51564356D01*
X118309223Y-51533384D01*
X118260889Y-51403796D01*
X118173261Y-51286739D01*
X118056204Y-51199111D01*
X117919203Y-51148011D01*
X117858654Y-51141500D01*
X117858638Y-51141500D01*
X116061362Y-51141500D01*
X116061345Y-51141500D01*
X116000797Y-51148011D01*
X116000795Y-51148011D01*
X115863795Y-51199111D01*
X115746739Y-51286739D01*
X115659111Y-51403795D01*
X115608011Y-51540795D01*
X115608011Y-51540797D01*
X115601500Y-51601345D01*
X112358500Y-51601345D01*
X112358500Y-51521362D01*
X112358499Y-51521345D01*
X112354672Y-51485759D01*
X112351989Y-51460799D01*
X112300889Y-51323796D01*
X112213261Y-51206739D01*
X112096204Y-51119111D01*
X111959203Y-51068011D01*
X111898654Y-51061500D01*
X111898638Y-51061500D01*
X110101362Y-51061500D01*
X110101345Y-51061500D01*
X110040797Y-51068011D01*
X110040795Y-51068011D01*
X109903795Y-51119111D01*
X109786739Y-51206739D01*
X109699111Y-51323795D01*
X109653861Y-51445111D01*
X109611989Y-51501044D01*
X109546524Y-51525460D01*
X109478252Y-51510607D01*
X109446454Y-51485762D01*
X109383240Y-51417094D01*
X109205576Y-51278811D01*
X109205575Y-51278810D01*
X109205572Y-51278808D01*
X109007580Y-51171661D01*
X109007577Y-51171659D01*
X109007574Y-51171658D01*
X109007571Y-51171657D01*
X109007569Y-51171656D01*
X108794637Y-51098556D01*
X108572569Y-51061500D01*
X108347431Y-51061500D01*
X108125362Y-51098556D01*
X107912430Y-51171656D01*
X107912419Y-51171661D01*
X107714427Y-51278808D01*
X107714422Y-51278812D01*
X107536761Y-51417092D01*
X107536756Y-51417097D01*
X107384284Y-51582723D01*
X107384276Y-51582734D01*
X107293808Y-51721206D01*
X107240662Y-51766562D01*
X107171431Y-51775986D01*
X107108095Y-51746484D01*
X107086192Y-51721206D01*
X107010571Y-51605460D01*
X106995722Y-51582732D01*
X106995719Y-51582729D01*
X106995715Y-51582723D01*
X106843243Y-51417097D01*
X106843238Y-51417092D01*
X106665577Y-51278812D01*
X106665572Y-51278808D01*
X106467580Y-51171661D01*
X106467577Y-51171659D01*
X106467574Y-51171658D01*
X106467571Y-51171657D01*
X106467569Y-51171656D01*
X106254637Y-51098556D01*
X106032569Y-51061500D01*
X105807431Y-51061500D01*
X105585362Y-51098556D01*
X105372430Y-51171656D01*
X105372419Y-51171661D01*
X105174427Y-51278808D01*
X105174422Y-51278812D01*
X104996761Y-51417092D01*
X104996756Y-51417097D01*
X104844284Y-51582723D01*
X104844276Y-51582734D01*
X104750251Y-51726650D01*
X104697105Y-51772007D01*
X104627873Y-51781430D01*
X104564538Y-51751928D01*
X104544868Y-51729951D01*
X104418113Y-51548926D01*
X104418108Y-51548920D01*
X104251082Y-51381894D01*
X104057578Y-51246399D01*
X103843492Y-51146570D01*
X103843486Y-51146567D01*
X103630000Y-51089364D01*
X103630000Y-51986988D01*
X103572993Y-51954075D01*
X103445826Y-51920000D01*
X103314174Y-51920000D01*
X103187007Y-51954075D01*
X103130000Y-51986988D01*
X103130000Y-51089364D01*
X103129999Y-51089364D01*
X102916513Y-51146567D01*
X102916507Y-51146570D01*
X102702422Y-51246399D01*
X102702420Y-51246400D01*
X102508926Y-51381886D01*
X102508920Y-51381891D01*
X102341891Y-51548920D01*
X102341886Y-51548926D01*
X102206400Y-51742420D01*
X102206399Y-51742422D01*
X102106570Y-51956507D01*
X102106567Y-51956513D01*
X102049364Y-52169999D01*
X75655466Y-52169999D01*
X75788103Y-52088719D01*
X75791912Y-52085464D01*
X75230562Y-51524114D01*
X75232626Y-51523260D01*
X75371844Y-51430238D01*
X75490238Y-51311844D01*
X75583260Y-51172626D01*
X75584114Y-51170562D01*
X76145464Y-51731912D01*
X76148719Y-51728103D01*
X76282363Y-51510015D01*
X76282365Y-51510012D01*
X76380247Y-51273702D01*
X76439957Y-51024989D01*
X76460024Y-50770000D01*
X76439957Y-50515010D01*
X76380247Y-50266297D01*
X76282365Y-50029987D01*
X76282363Y-50029984D01*
X76148719Y-49811898D01*
X76148712Y-49811888D01*
X76145465Y-49808087D01*
X76145464Y-49808087D01*
X75584114Y-50369437D01*
X75583260Y-50367374D01*
X75490238Y-50228156D01*
X75371844Y-50109762D01*
X75232626Y-50016740D01*
X75230561Y-50015884D01*
X75791911Y-49454535D01*
X75791911Y-49454533D01*
X75788110Y-49451286D01*
X75788095Y-49451275D01*
X75570015Y-49317636D01*
X75570012Y-49317634D01*
X75333702Y-49219752D01*
X75084988Y-49160042D01*
X75084989Y-49160042D01*
X74830000Y-49139975D01*
X74575010Y-49160042D01*
X74326297Y-49219752D01*
X74089987Y-49317634D01*
X74089984Y-49317636D01*
X73871897Y-49451280D01*
X73868087Y-49454534D01*
X74429438Y-50015884D01*
X74427374Y-50016740D01*
X74288156Y-50109762D01*
X74169762Y-50228156D01*
X74076740Y-50367374D01*
X74075884Y-50369438D01*
X73514533Y-49808087D01*
X73511280Y-49811897D01*
X73377636Y-50029984D01*
X73377634Y-50029987D01*
X73279752Y-50266297D01*
X73220042Y-50515010D01*
X73199975Y-50770000D01*
X71380024Y-50770000D01*
X71359957Y-50515010D01*
X71300247Y-50266297D01*
X71202365Y-50029987D01*
X71202363Y-50029984D01*
X71068719Y-49811898D01*
X71068712Y-49811888D01*
X71065465Y-49808087D01*
X71065464Y-49808087D01*
X70504114Y-50369437D01*
X70503260Y-50367374D01*
X70410238Y-50228156D01*
X70291844Y-50109762D01*
X70152626Y-50016740D01*
X70150561Y-50015884D01*
X70711911Y-49454535D01*
X70711911Y-49454533D01*
X70708110Y-49451286D01*
X70708095Y-49451275D01*
X70490015Y-49317636D01*
X70490012Y-49317634D01*
X70253702Y-49219752D01*
X70004988Y-49160042D01*
X70004989Y-49160042D01*
X69750000Y-49139975D01*
X69495010Y-49160042D01*
X69246297Y-49219752D01*
X69009987Y-49317634D01*
X69009984Y-49317636D01*
X68791897Y-49451280D01*
X68788087Y-49454534D01*
X69349438Y-50015884D01*
X69347374Y-50016740D01*
X69208156Y-50109762D01*
X69089762Y-50228156D01*
X68996740Y-50367374D01*
X68995885Y-50369438D01*
X68434534Y-49808087D01*
X68431280Y-49811897D01*
X68297636Y-50029984D01*
X68297634Y-50029987D01*
X68199752Y-50266297D01*
X68140042Y-50515010D01*
X68119975Y-50770000D01*
X58475412Y-50770000D01*
X58499364Y-46123360D01*
X58519394Y-46056424D01*
X58572433Y-46010942D01*
X58623362Y-46000000D01*
X218376000Y-46000000D01*
X218443039Y-46019685D01*
G37*
%TD.AperFunction*%
%TD*%
D22*
X57500000Y-45000000D02*
X57000000Y-45000000D01*
X57000000Y-144000000D02*
X57000000Y-45000000D01*
X219500000Y-144000000D02*
X57000000Y-144000000D01*
X219500000Y-45000000D02*
X219500000Y-144000000D01*
X57500000Y-45000000D02*
X219500000Y-45000000D01*
M02*
