%TF.GenerationSoftware,KiCad,Pcbnew,8.0.9-8.0.9-0~ubuntu20.04.1*%
%TF.CreationDate,2026-04-22T12:51:15+10:00*%
%TF.ProjectId,QRPTransceiver,51525054-7261-46e7-9363-65697665722e,rev?*%
%TF.SameCoordinates,Original*%
%TF.FileFunction,Copper,L1,Top*%
%TF.FilePolarity,Positive*%
%FSLAX46Y46*%
G04 Gerber Fmt 4.6, Leading zero omitted, Abs format (unit mm)*
G04 Created by KiCad (PCBNEW 8.0.9-8.0.9-0~ubuntu20.04.1) date 2026-04-22 12:51:15*
%MOMM*%
%LPD*%
G01*
G04 APERTURE LIST*
G04 Aperture macros list*
%AMRoundRect*
0 Rectangle with rounded corners*
0 $1 Rounding radius*
0 $2 $3 $4 $5 $6 $7 $8 $9 X,Y pos of 4 corners*
0 Add a 4 corners polygon primitive as box body*
4,1,4,$2,$3,$4,$5,$6,$7,$8,$9,$2,$3,0*
0 Add four circle primitives for the rounded corners*
1,1,$1+$1,$2,$3*
1,1,$1+$1,$4,$5*
1,1,$1+$1,$6,$7*
1,1,$1+$1,$8,$9*
0 Add four rect primitives between the rounded corners*
20,1,$1+$1,$2,$3,$4,$5,0*
20,1,$1+$1,$4,$5,$6,$7,0*
20,1,$1+$1,$6,$7,$8,$9,0*
20,1,$1+$1,$8,$9,$2,$3,0*%
G04 Aperture macros list end*
%TA.AperFunction,SMDPad,CuDef*%
%ADD10RoundRect,0.250000X-0.250000X-0.475000X0.250000X-0.475000X0.250000X0.475000X-0.250000X0.475000X0*%
%TD*%
%TA.AperFunction,SMDPad,CuDef*%
%ADD11RoundRect,0.250001X1.999999X0.799999X-1.999999X0.799999X-1.999999X-0.799999X1.999999X-0.799999X0*%
%TD*%
%TA.AperFunction,SMDPad,CuDef*%
%ADD12RoundRect,0.250000X-0.475000X0.250000X-0.475000X-0.250000X0.475000X-0.250000X0.475000X0.250000X0*%
%TD*%
%TA.AperFunction,ComponentPad*%
%ADD13R,1.700000X1.700000*%
%TD*%
%TA.AperFunction,ComponentPad*%
%ADD14O,1.700000X1.700000*%
%TD*%
%TA.AperFunction,SMDPad,CuDef*%
%ADD15RoundRect,0.250000X0.450000X-0.262500X0.450000X0.262500X-0.450000X0.262500X-0.450000X-0.262500X0*%
%TD*%
%TA.AperFunction,SMDPad,CuDef*%
%ADD16R,2.100000X2.600000*%
%TD*%
%TA.AperFunction,SMDPad,CuDef*%
%ADD17RoundRect,0.250000X0.250000X0.475000X-0.250000X0.475000X-0.250000X-0.475000X0.250000X-0.475000X0*%
%TD*%
%TA.AperFunction,SMDPad,CuDef*%
%ADD18RoundRect,0.250000X-0.450000X0.262500X-0.450000X-0.262500X0.450000X-0.262500X0.450000X0.262500X0*%
%TD*%
%TA.AperFunction,SMDPad,CuDef*%
%ADD19RoundRect,0.250000X0.262500X0.450000X-0.262500X0.450000X-0.262500X-0.450000X0.262500X-0.450000X0*%
%TD*%
%TA.AperFunction,SMDPad,CuDef*%
%ADD20RoundRect,0.150000X0.150000X-0.725000X0.150000X0.725000X-0.150000X0.725000X-0.150000X-0.725000X0*%
%TD*%
%TA.AperFunction,SMDPad,CuDef*%
%ADD21RoundRect,0.250000X0.475000X-0.250000X0.475000X0.250000X-0.475000X0.250000X-0.475000X-0.250000X0*%
%TD*%
%TA.AperFunction,SMDPad,CuDef*%
%ADD22RoundRect,0.200000X0.200000X-0.250000X0.200000X0.250000X-0.200000X0.250000X-0.200000X-0.250000X0*%
%TD*%
%TA.AperFunction,SMDPad,CuDef*%
%ADD23RoundRect,0.243750X-0.243750X-0.456250X0.243750X-0.456250X0.243750X0.456250X-0.243750X0.456250X0*%
%TD*%
%TA.AperFunction,SMDPad,CuDef*%
%ADD24RoundRect,0.250000X0.325000X0.650000X-0.325000X0.650000X-0.325000X-0.650000X0.325000X-0.650000X0*%
%TD*%
%TA.AperFunction,SMDPad,CuDef*%
%ADD25RoundRect,0.250000X-0.262500X-0.450000X0.262500X-0.450000X0.262500X0.450000X-0.262500X0.450000X0*%
%TD*%
%TA.AperFunction,SMDPad,CuDef*%
%ADD26RoundRect,0.218750X-0.218750X-0.381250X0.218750X-0.381250X0.218750X0.381250X-0.218750X0.381250X0*%
%TD*%
%TA.AperFunction,ComponentPad*%
%ADD27C,2.050000*%
%TD*%
%TA.AperFunction,ComponentPad*%
%ADD28C,2.250000*%
%TD*%
%TA.AperFunction,ComponentPad*%
%ADD29C,1.524000*%
%TD*%
%TA.AperFunction,SMDPad,CuDef*%
%ADD30RoundRect,0.150000X0.725000X0.150000X-0.725000X0.150000X-0.725000X-0.150000X0.725000X-0.150000X0*%
%TD*%
%TA.AperFunction,SMDPad,CuDef*%
%ADD31RoundRect,0.150000X-0.150000X0.587500X-0.150000X-0.587500X0.150000X-0.587500X0.150000X0.587500X0*%
%TD*%
%TA.AperFunction,SMDPad,CuDef*%
%ADD32RoundRect,0.150000X-0.150000X0.825000X-0.150000X-0.825000X0.150000X-0.825000X0.150000X0.825000X0*%
%TD*%
%TA.AperFunction,SMDPad,CuDef*%
%ADD33RoundRect,0.150000X0.825000X0.150000X-0.825000X0.150000X-0.825000X-0.150000X0.825000X-0.150000X0*%
%TD*%
%TA.AperFunction,SMDPad,CuDef*%
%ADD34RoundRect,0.250000X-0.325000X-0.650000X0.325000X-0.650000X0.325000X0.650000X-0.325000X0.650000X0*%
%TD*%
%TA.AperFunction,SMDPad,CuDef*%
%ADD35RoundRect,0.150000X0.587500X0.150000X-0.587500X0.150000X-0.587500X-0.150000X0.587500X-0.150000X0*%
%TD*%
%TA.AperFunction,SMDPad,CuDef*%
%ADD36RoundRect,0.200000X0.250000X0.200000X-0.250000X0.200000X-0.250000X-0.200000X0.250000X-0.200000X0*%
%TD*%
%TA.AperFunction,SMDPad,CuDef*%
%ADD37RoundRect,0.150000X-0.150000X0.725000X-0.150000X-0.725000X0.150000X-0.725000X0.150000X0.725000X0*%
%TD*%
%TA.AperFunction,SMDPad,CuDef*%
%ADD38RoundRect,0.250000X-0.625000X0.375000X-0.625000X-0.375000X0.625000X-0.375000X0.625000X0.375000X0*%
%TD*%
%TA.AperFunction,SMDPad,CuDef*%
%ADD39RoundRect,0.218750X0.218750X0.381250X-0.218750X0.381250X-0.218750X-0.381250X0.218750X-0.381250X0*%
%TD*%
%TA.AperFunction,SMDPad,CuDef*%
%ADD40RoundRect,0.150000X-0.587500X-0.150000X0.587500X-0.150000X0.587500X0.150000X-0.587500X0.150000X0*%
%TD*%
%TA.AperFunction,SMDPad,CuDef*%
%ADD41RoundRect,0.250000X-0.650000X0.325000X-0.650000X-0.325000X0.650000X-0.325000X0.650000X0.325000X0*%
%TD*%
%TA.AperFunction,SMDPad,CuDef*%
%ADD42R,1.600000X2.200000*%
%TD*%
%TA.AperFunction,SMDPad,CuDef*%
%ADD43RoundRect,0.243750X0.243750X0.456250X-0.243750X0.456250X-0.243750X-0.456250X0.243750X-0.456250X0*%
%TD*%
%TA.AperFunction,SMDPad,CuDef*%
%ADD44R,2.200000X1.600000*%
%TD*%
%TA.AperFunction,SMDPad,CuDef*%
%ADD45R,1.500000X5.080000*%
%TD*%
%TA.AperFunction,ComponentPad*%
%ADD46C,5.080000*%
%TD*%
%TA.AperFunction,ComponentPad*%
%ADD47R,1.524000X1.524000*%
%TD*%
%TA.AperFunction,SMDPad,CuDef*%
%ADD48RoundRect,0.375000X-0.625000X-0.375000X0.625000X-0.375000X0.625000X0.375000X-0.625000X0.375000X0*%
%TD*%
%TA.AperFunction,SMDPad,CuDef*%
%ADD49RoundRect,0.500000X-0.500000X-1.400000X0.500000X-1.400000X0.500000X1.400000X-0.500000X1.400000X0*%
%TD*%
%TA.AperFunction,ViaPad*%
%ADD50C,0.800000*%
%TD*%
%TA.AperFunction,ViaPad*%
%ADD51C,5.000000*%
%TD*%
%TA.AperFunction,Conductor*%
%ADD52C,0.500000*%
%TD*%
%TA.AperFunction,Conductor*%
%ADD53C,0.250000*%
%TD*%
%TA.AperFunction,Conductor*%
%ADD54C,0.750000*%
%TD*%
%TA.AperFunction,Profile*%
%ADD55C,0.050000*%
%TD*%
G04 APERTURE END LIST*
D10*
%TO.P,C18,2*%
%TO.N,GND*%
X84900000Y-91000000D03*
%TO.P,C18,1*%
%TO.N,Mix0Deg*%
X83000000Y-91000000D03*
%TD*%
D11*
%TO.P,C106,1*%
%TO.N,Net-(C106-Pad1)*%
X111600000Y-67500000D03*
%TO.P,C106,2*%
%TO.N,Net-(J6-Pin_2)*%
X104400000Y-67500000D03*
%TD*%
D12*
%TO.P,C68,1*%
%TO.N,+12V*%
X197500000Y-83500000D03*
%TO.P,C68,2*%
%TO.N,GND*%
X197500000Y-85400000D03*
%TD*%
D13*
%TO.P,J6,1,Pin_1*%
%TO.N,Net-(J6-Pin_1)*%
X111000000Y-52420000D03*
D14*
%TO.P,J6,2,Pin_2*%
%TO.N,Net-(J6-Pin_2)*%
X108460000Y-52420000D03*
%TO.P,J6,3,Pin_3*%
%TO.N,Net-(J6-Pin_3)*%
X105920000Y-52420000D03*
%TO.P,J6,4,Pin_4*%
%TO.N,GND*%
X103380000Y-52420000D03*
%TD*%
D15*
%TO.P,R13,1*%
%TO.N,+5V*%
X68000000Y-99325000D03*
%TO.P,R13,2*%
%TO.N,Net-(T1-SB)*%
X68000000Y-97500000D03*
%TD*%
D16*
%TO.P,R57,1*%
%TO.N,Net-(U5D-+)*%
X186900000Y-111000000D03*
%TO.P,R57,2*%
%TO.N,Net-(C59-Pad1)*%
X182000000Y-111000000D03*
%TD*%
D10*
%TO.P,C77,1*%
%TO.N,VREF*%
X212000000Y-127500000D03*
%TO.P,C77,2*%
%TO.N,GND*%
X213900000Y-127500000D03*
%TD*%
D17*
%TO.P,C51,1*%
%TO.N,Net-(C51-Pad1)*%
X157000000Y-85000000D03*
%TO.P,C51,2*%
%TO.N,/Sheet62579414/F*%
X155100000Y-85000000D03*
%TD*%
%TO.P,C28,1*%
%TO.N,/Sheet62579414/B*%
X112400000Y-92500000D03*
%TO.P,C28,2*%
%TO.N,Net-(C28-Pad2)*%
X110500000Y-92500000D03*
%TD*%
D16*
%TO.P,R52,1*%
%TO.N,Net-(C58-Pad1)*%
X177500000Y-103500000D03*
%TO.P,R52,2*%
%TO.N,Net-(C54-Pad1)*%
X172600000Y-103500000D03*
%TD*%
%TO.P,R30,1*%
%TO.N,/Sheet62579414/D*%
X132000000Y-89000000D03*
%TO.P,R30,2*%
%TO.N,/Sheet62579414/C*%
X127100000Y-89000000D03*
%TD*%
D18*
%TO.P,R67,1*%
%TO.N,Net-(C67-Pad2)*%
X208000000Y-107500000D03*
%TO.P,R67,2*%
%TO.N,Net-(C75-Pad2)*%
X208000000Y-109325000D03*
%TD*%
D19*
%TO.P,R111,1*%
%TO.N,CWMUTE*%
X166825000Y-75462500D03*
%TO.P,R111,2*%
%TO.N,Net-(D4-A)*%
X165000000Y-75462500D03*
%TD*%
D15*
%TO.P,R8,1*%
%TO.N,Net-(Q3-D)*%
X93500000Y-66500000D03*
%TO.P,R8,2*%
%TO.N,Net-(Q3-G)*%
X93500000Y-64675000D03*
%TD*%
D20*
%TO.P,U6,1,NC*%
%TO.N,unconnected-(U6-NC-Pad1)*%
X205170000Y-90480000D03*
%TO.P,U6,2,-*%
%TO.N,Net-(U6--)*%
X206440000Y-90480000D03*
%TO.P,U6,3,+*%
%TO.N,Net-(U6-+)*%
X207710000Y-90480000D03*
%TO.P,U6,4,V-*%
%TO.N,GND*%
X208980000Y-90480000D03*
%TO.P,U6,5,NC*%
%TO.N,unconnected-(U6-NC-Pad5)*%
X208980000Y-85330000D03*
%TO.P,U6,6*%
%TO.N,PPOut*%
X207710000Y-85330000D03*
%TO.P,U6,7,V+*%
%TO.N,+12V*%
X206440000Y-85330000D03*
%TO.P,U6,8,NC*%
%TO.N,unconnected-(U6-NC-Pad8)*%
X205170000Y-85330000D03*
%TD*%
D21*
%TO.P,C13,1*%
%TO.N,Net-(T1-SB)*%
X87000000Y-82900000D03*
%TO.P,C13,2*%
%TO.N,GND*%
X87000000Y-81000000D03*
%TD*%
D17*
%TO.P,C100,1*%
%TO.N,Net-(U8D-+)*%
X179500000Y-65000000D03*
%TO.P,C100,2*%
%TO.N,GND*%
X177600000Y-65000000D03*
%TD*%
D22*
%TO.P,Q2,1,S*%
%TO.N,Net-(Q2-S)*%
X81550000Y-58400000D03*
%TO.P,Q2,2,D*%
%TO.N,Net-(Q2-D)*%
X83450000Y-58400000D03*
%TO.P,Q2,3,G*%
%TO.N,GND*%
X82500000Y-56000000D03*
%TD*%
D17*
%TO.P,C41,1*%
%TO.N,Net-(C41-Pad1)*%
X139900000Y-100000000D03*
%TO.P,C41,2*%
%TO.N,Net-(C38-Pad1)*%
X138000000Y-100000000D03*
%TD*%
D18*
%TO.P,R113,1*%
%TO.N,+12V*%
X156500000Y-69550000D03*
%TO.P,R113,2*%
%TO.N,Net-(Q8-D)*%
X156500000Y-71375000D03*
%TD*%
D10*
%TO.P,C22,1*%
%TO.N,Mix180Deg*%
X83050000Y-100000000D03*
%TO.P,C22,2*%
%TO.N,Net-(C22-Pad2)*%
X84950000Y-100000000D03*
%TD*%
D23*
%TO.P,D3,1,K*%
%TO.N,Net-(D3-K)*%
X141500000Y-56500000D03*
%TO.P,D3,2,A*%
%TO.N,GND*%
X143375000Y-56500000D03*
%TD*%
D19*
%TO.P,R69,1*%
%TO.N,Net-(C73-Pad2)*%
X199000000Y-76000000D03*
%TO.P,R69,2*%
%TO.N,Net-(C84-Pad1)*%
X197175000Y-76000000D03*
%TD*%
D17*
%TO.P,C40,1*%
%TO.N,/Sheet62579414/E*%
X140000000Y-92500000D03*
%TO.P,C40,2*%
%TO.N,Net-(C37-Pad1)*%
X138100000Y-92500000D03*
%TD*%
D24*
%TO.P,C97,1*%
%TO.N,Net-(C93-Pad2)*%
X131500000Y-57500000D03*
%TO.P,C97,2*%
%TO.N,Net-(J5-Pin_1)*%
X128550000Y-57500000D03*
%TD*%
D25*
%TO.P,R2,1*%
%TO.N,Net-(C1-Pad2)*%
X75750000Y-59850000D03*
%TO.P,R2,2*%
%TO.N,Net-(Q2-S)*%
X77575000Y-59850000D03*
%TD*%
D10*
%TO.P,C21,1*%
%TO.N,Mix90Deg*%
X83050000Y-94000000D03*
%TO.P,C21,2*%
%TO.N,Net-(C21-Pad2)*%
X84950000Y-94000000D03*
%TD*%
D26*
%TO.P,L3,1,1*%
%TO.N,Net-(C10-Pad1)*%
X88000000Y-54500000D03*
%TO.P,L3,2,2*%
%TO.N,Net-(L3-Pad2)*%
X90125000Y-54500000D03*
%TD*%
D27*
%TO.P,J3,1,In*%
%TO.N,Net-(J3-In)*%
X72290000Y-53310000D03*
D28*
%TO.P,J3,2,Ext*%
%TO.N,GND*%
X69750000Y-50770000D03*
X69750000Y-55850000D03*
X74830000Y-50770000D03*
X74830000Y-55850000D03*
%TD*%
D18*
%TO.P,R106,1*%
%TO.N,Net-(Q7-D)*%
X163000000Y-62550000D03*
%TO.P,R106,2*%
%TO.N,Net-(C105-Pad1)*%
X163000000Y-64375000D03*
%TD*%
D16*
%TO.P,R35,1*%
%TO.N,Net-(C41-Pad1)*%
X141400000Y-96000000D03*
%TO.P,R35,2*%
%TO.N,Net-(C37-Pad1)*%
X136500000Y-96000000D03*
%TD*%
%TO.P,R37,1*%
%TO.N,Net-(C43-Pad1)*%
X141400000Y-111000000D03*
%TO.P,R37,2*%
%TO.N,Net-(C39-Pad1)*%
X136500000Y-111000000D03*
%TD*%
D19*
%TO.P,R88,1*%
%TO.N,Net-(U8C--)*%
X187825000Y-64000000D03*
%TO.P,R88,2*%
%TO.N,GND*%
X186000000Y-64000000D03*
%TD*%
D29*
%TO.P,T1,1,AA*%
%TO.N,Net-(T1-AA)*%
X79850000Y-77690000D03*
%TO.P,T1,2,AB*%
%TO.N,GND*%
X67150000Y-77690000D03*
%TO.P,T1,3,SA*%
%TO.N,Net-(T1-SA)*%
X79850000Y-81500000D03*
%TO.P,T1,4,SB*%
%TO.N,Net-(T1-SB)*%
X67150000Y-81500000D03*
%TO.P,T1,5,SC*%
X79850000Y-85310000D03*
%TO.P,T1,6,SD*%
%TO.N,Net-(T1-SD)*%
X67150000Y-85310000D03*
%TD*%
D16*
%TO.P,R25,1*%
%TO.N,Net-(C31-Pad1)*%
X113900000Y-111000000D03*
%TO.P,R25,2*%
%TO.N,Net-(C30-Pad2)*%
X109000000Y-111000000D03*
%TD*%
D18*
%TO.P,R21,1*%
%TO.N,Net-(C30-Pad2)*%
X93500000Y-103175000D03*
%TO.P,R21,2*%
%TO.N,Net-(U4C--)*%
X93500000Y-105000000D03*
%TD*%
D25*
%TO.P,R1,1*%
%TO.N,Net-(C1-Pad2)*%
X70750000Y-63350000D03*
%TO.P,R1,2*%
%TO.N,Net-(L1-Pad1)*%
X72575000Y-63350000D03*
%TD*%
D16*
%TO.P,R56,1*%
%TO.N,Net-(U5C-+)*%
X186900000Y-103500000D03*
%TO.P,R56,2*%
%TO.N,Net-(C58-Pad1)*%
X182000000Y-103500000D03*
%TD*%
%TO.P,R33,1*%
%TO.N,Net-(C39-Pad1)*%
X131900000Y-111000000D03*
%TO.P,R33,2*%
%TO.N,Net-(C35-Pad1)*%
X127000000Y-111000000D03*
%TD*%
D25*
%TO.P,R98,1*%
%TO.N,SMETER*%
X148175000Y-60000000D03*
%TO.P,R98,2*%
%TO.N,GND*%
X150000000Y-60000000D03*
%TD*%
D12*
%TO.P,C67,1*%
%TO.N,PPOut*%
X211500000Y-105500000D03*
%TO.P,C67,2*%
%TO.N,Net-(C67-Pad2)*%
X211500000Y-107400000D03*
%TD*%
D30*
%TO.P,U10,1,GAIN*%
%TO.N,Net-(R103-Pad1)*%
X124000000Y-69040000D03*
%TO.P,U10,2,-*%
%TO.N,GND*%
X124000000Y-67770000D03*
%TO.P,U10,3,+*%
%TO.N,Net-(J5-Pin_2)*%
X124000000Y-66500000D03*
%TO.P,U10,4,GND*%
%TO.N,GND*%
X124000000Y-65230000D03*
%TO.P,U10,5*%
%TO.N,Net-(C106-Pad1)*%
X118850000Y-65230000D03*
%TO.P,U10,6,V+*%
%TO.N,+12V*%
X118850000Y-66500000D03*
%TO.P,U10,7,BYPASS*%
%TO.N,Net-(U10-BYPASS)*%
X118850000Y-67770000D03*
%TO.P,U10,8,GAIN*%
%TO.N,Net-(C102-Pad1)*%
X118850000Y-69040000D03*
%TD*%
D31*
%TO.P,Q5,1*%
%TO.N,Net-(D3-K)*%
X138000000Y-60000000D03*
%TO.P,Q5,2*%
%TO.N,GND*%
X136100000Y-60000000D03*
%TO.P,Q5,3*%
%TO.N,Net-(Q5-Pad3)*%
X137050000Y-61875000D03*
%TD*%
D21*
%TO.P,C65,1*%
%TO.N,PPOut*%
X208000000Y-81450000D03*
%TO.P,C65,2*%
%TO.N,Net-(C65-Pad2)*%
X208000000Y-79550000D03*
%TD*%
D32*
%TO.P,U4,1*%
%TO.N,Net-(C28-Pad2)*%
X103620000Y-97050000D03*
%TO.P,U4,2,-*%
%TO.N,Net-(U4A--)*%
X102350000Y-97050000D03*
%TO.P,U4,3,+*%
%TO.N,VREF*%
X101080000Y-97050000D03*
%TO.P,U4,4,V+*%
%TO.N,+12V*%
X99810000Y-97050000D03*
%TO.P,U4,5,+*%
%TO.N,VREF*%
X98540000Y-97050000D03*
%TO.P,U4,6,-*%
%TO.N,Net-(U4B--)*%
X97270000Y-97050000D03*
%TO.P,U4,7*%
%TO.N,/Sheet62579414/A*%
X96000000Y-97050000D03*
%TO.P,U4,8*%
%TO.N,Net-(C30-Pad2)*%
X96000000Y-102000000D03*
%TO.P,U4,9,-*%
%TO.N,Net-(U4C--)*%
X97270000Y-102000000D03*
%TO.P,U4,10,+*%
%TO.N,VREF*%
X98540000Y-102000000D03*
%TO.P,U4,11,V-*%
%TO.N,GND*%
X99810000Y-102000000D03*
%TO.P,U4,12,+*%
%TO.N,VREF*%
X101080000Y-102000000D03*
%TO.P,U4,13,-*%
%TO.N,Net-(U4D--)*%
X102350000Y-102000000D03*
%TO.P,U4,14*%
%TO.N,Net-(C29-Pad2)*%
X103620000Y-102000000D03*
%TD*%
D23*
%TO.P,D2,1,K*%
%TO.N,VREF*%
X126500000Y-130500000D03*
%TO.P,D2,2,A*%
%TO.N,GND*%
X128375000Y-130500000D03*
%TD*%
D16*
%TO.P,R31,1*%
%TO.N,Net-(C37-Pad1)*%
X131900000Y-96000000D03*
%TO.P,R31,2*%
%TO.N,Net-(C33-Pad1)*%
X127000000Y-96000000D03*
%TD*%
D25*
%TO.P,R62,1*%
%TO.N,Net-(U6--)*%
X209175000Y-101000000D03*
%TO.P,R62,2*%
%TO.N,PPOut*%
X211000000Y-101000000D03*
%TD*%
D19*
%TO.P,R14,1*%
%TO.N,Net-(U4B--)*%
X90325000Y-88000000D03*
%TO.P,R14,2*%
%TO.N,Net-(C20-Pad2)*%
X88500000Y-88000000D03*
%TD*%
D21*
%TO.P,C75,1*%
%TO.N,Net-(U7A--)*%
X208000000Y-114400000D03*
%TO.P,C75,2*%
%TO.N,Net-(C75-Pad2)*%
X208000000Y-112500000D03*
%TD*%
D18*
%TO.P,R109,1*%
%TO.N,/Sheet6280C94B/AudioAGC*%
X159500000Y-69725000D03*
%TO.P,R109,2*%
%TO.N,Net-(Q8-D)*%
X159500000Y-71550000D03*
%TD*%
D33*
%TO.P,U3,1,1~{OE}*%
%TO.N,GND*%
X78975000Y-103445000D03*
%TO.P,U3,2,S1*%
%TO.N,Net-(U2-CLK0)*%
X78975000Y-102175000D03*
%TO.P,U3,3,1B4*%
%TO.N,Mix270Deg*%
X78975000Y-100905000D03*
%TO.P,U3,4,1B3*%
%TO.N,Mix180Deg*%
X78975000Y-99635000D03*
%TO.P,U3,5,1B2*%
%TO.N,Mix90Deg*%
X78975000Y-98365000D03*
%TO.P,U3,6,1B1*%
%TO.N,Mix0Deg*%
X78975000Y-97095000D03*
%TO.P,U3,7,1A*%
%TO.N,Net-(T1-SA)*%
X78975000Y-95825000D03*
%TO.P,U3,8,GND*%
%TO.N,GND*%
X78975000Y-94555000D03*
%TO.P,U3,9,2A*%
%TO.N,Net-(T1-SD)*%
X74025000Y-94555000D03*
%TO.P,U3,10,2B1*%
%TO.N,Mix270Deg*%
X74025000Y-95825000D03*
%TO.P,U3,11,2B2*%
%TO.N,Mix180Deg*%
X74025000Y-97095000D03*
%TO.P,U3,12,2B3*%
%TO.N,Mix90Deg*%
X74025000Y-98365000D03*
%TO.P,U3,13,2B4*%
%TO.N,Mix0Deg*%
X74025000Y-99635000D03*
%TO.P,U3,14,S0*%
%TO.N,Net-(U2-CLK1)*%
X74025000Y-100905000D03*
%TO.P,U3,15,2~{OE}*%
%TO.N,GND*%
X74025000Y-102175000D03*
%TO.P,U3,16,VCC*%
%TO.N,+5V*%
X74025000Y-103445000D03*
%TD*%
D17*
%TO.P,C57,1*%
%TO.N,Net-(C57-Pad1)*%
X176000000Y-100000000D03*
%TO.P,C57,2*%
%TO.N,Net-(C54-Pad1)*%
X174100000Y-100000000D03*
%TD*%
%TO.P,C54,1*%
%TO.N,Net-(C54-Pad1)*%
X166900000Y-107000000D03*
%TO.P,C54,2*%
%TO.N,Net-(C51-Pad1)*%
X165000000Y-107000000D03*
%TD*%
D15*
%TO.P,R65,1*%
%TO.N,VREF*%
X211500000Y-114500000D03*
%TO.P,R65,2*%
%TO.N,Net-(C67-Pad2)*%
X211500000Y-112675000D03*
%TD*%
D12*
%TO.P,C80,1*%
%TO.N,VREF*%
X212000000Y-73100000D03*
%TO.P,C80,2*%
%TO.N,GND*%
X212000000Y-75000000D03*
%TD*%
D18*
%TO.P,R4,1*%
%TO.N,Net-(Q1-D)*%
X81000000Y-70000000D03*
%TO.P,R4,2*%
%TO.N,+12V*%
X81000000Y-71825000D03*
%TD*%
D25*
%TO.P,R80,1*%
%TO.N,+12V*%
X129500000Y-73000000D03*
%TO.P,R80,2*%
%TO.N,Net-(C87-Pad1)*%
X131325000Y-73000000D03*
%TD*%
%TO.P,R104,1*%
%TO.N,Net-(U7D--)*%
X206175000Y-133000000D03*
%TO.P,R104,2*%
%TO.N,Net-(C109-Pad2)*%
X208000000Y-133000000D03*
%TD*%
D17*
%TO.P,C61,1*%
%TO.N,Net-(U5B-+)*%
X185500000Y-100000000D03*
%TO.P,C61,2*%
%TO.N,Net-(C58-Pad1)*%
X183600000Y-100000000D03*
%TD*%
%TO.P,C94,1*%
%TO.N,Net-(U7C--)*%
X196000000Y-130500000D03*
%TO.P,C94,2*%
%TO.N,Net-(C94-Pad2)*%
X194100000Y-130500000D03*
%TD*%
D12*
%TO.P,C101,1*%
%TO.N,Net-(U7C--)*%
X199500000Y-132000000D03*
%TO.P,C101,2*%
%TO.N,Net-(C101-Pad2)*%
X199500000Y-133900000D03*
%TD*%
D15*
%TO.P,R105,1*%
%TO.N,Net-(C106-Pad1)*%
X115087500Y-62412500D03*
%TO.P,R105,2*%
%TO.N,Net-(C104-Pad1)*%
X115087500Y-60587500D03*
%TD*%
D21*
%TO.P,C19,1*%
%TO.N,+12V*%
X99500000Y-94000000D03*
%TO.P,C19,2*%
%TO.N,GND*%
X99500000Y-92100000D03*
%TD*%
D12*
%TO.P,C79,1*%
%TO.N,GND*%
X201000000Y-112500000D03*
%TO.P,C79,2*%
%TO.N,Net-(U7A-+)*%
X201000000Y-114400000D03*
%TD*%
D16*
%TO.P,R53,1*%
%TO.N,Net-(C59-Pad1)*%
X177500000Y-111000000D03*
%TO.P,R53,2*%
%TO.N,Net-(C55-Pad1)*%
X172600000Y-111000000D03*
%TD*%
D13*
%TO.P,J7,1,Pin_1*%
%TO.N,Net-(J6-Pin_3)*%
X116960000Y-52500000D03*
D14*
%TO.P,J7,2,Pin_2*%
%TO.N,GND*%
X119500000Y-52500000D03*
%TD*%
D21*
%TO.P,C4,1*%
%TO.N,Net-(Q2-S)*%
X79000000Y-53000000D03*
%TO.P,C4,2*%
%TO.N,GND*%
X79000000Y-51100000D03*
%TD*%
D34*
%TO.P,C103,1*%
%TO.N,GND*%
X118550000Y-60500000D03*
%TO.P,C103,2*%
%TO.N,Net-(U10-BYPASS)*%
X121500000Y-60500000D03*
%TD*%
D25*
%TO.P,R94,1*%
%TO.N,Net-(C95-Pad2)*%
X136175000Y-56500000D03*
%TO.P,R94,2*%
%TO.N,Net-(D3-K)*%
X138000000Y-56500000D03*
%TD*%
D17*
%TO.P,C52,1*%
%TO.N,/Sheet62579414/H*%
X167000000Y-92500000D03*
%TO.P,C52,2*%
%TO.N,Net-(C49-Pad1)*%
X165100000Y-92500000D03*
%TD*%
D35*
%TO.P,Q8,1,G*%
%TO.N,Net-(D4-A)*%
X158375000Y-77912500D03*
%TO.P,Q8,2,S*%
%TO.N,GND*%
X158375000Y-76012500D03*
%TO.P,Q8,3,D*%
%TO.N,Net-(Q8-D)*%
X156500000Y-76962500D03*
%TD*%
D12*
%TO.P,C12,1*%
%TO.N,Net-(Q3-S)*%
X85000000Y-72600000D03*
%TO.P,C12,2*%
%TO.N,Net-(T1-AA)*%
X85000000Y-74500000D03*
%TD*%
D17*
%TO.P,C30,1*%
%TO.N,Net-(C30-Pad1)*%
X112000000Y-107500000D03*
%TO.P,C30,2*%
%TO.N,Net-(C30-Pad2)*%
X110100000Y-107500000D03*
%TD*%
D25*
%TO.P,R86,1*%
%TO.N,VREF*%
X181675000Y-65500000D03*
%TO.P,R86,2*%
%TO.N,Net-(U8C-+)*%
X183500000Y-65500000D03*
%TD*%
D16*
%TO.P,R26,1*%
%TO.N,/Sheet62579414/C*%
X122850000Y-89000000D03*
%TO.P,R26,2*%
%TO.N,/Sheet62579414/B*%
X117950000Y-89000000D03*
%TD*%
D25*
%TO.P,R72,1*%
%TO.N,Net-(U8B--)*%
X200500000Y-59500000D03*
%TO.P,R72,2*%
%TO.N,GND*%
X202325000Y-59500000D03*
%TD*%
D19*
%TO.P,R100,1*%
%TO.N,Net-(U8D--)*%
X191500000Y-76500000D03*
%TO.P,R100,2*%
%TO.N,GND*%
X189675000Y-76500000D03*
%TD*%
D36*
%TO.P,Q3,1,S*%
%TO.N,Net-(Q3-S)*%
X90000000Y-69500000D03*
%TO.P,Q3,2,D*%
%TO.N,Net-(Q3-D)*%
X90000000Y-67600000D03*
%TO.P,Q3,3,G*%
%TO.N,Net-(Q3-G)*%
X87600000Y-68550000D03*
%TD*%
D10*
%TO.P,C27,1*%
%TO.N,+12V*%
X203600000Y-120000000D03*
%TO.P,C27,2*%
%TO.N,GND*%
X205500000Y-120000000D03*
%TD*%
D18*
%TO.P,R10,1*%
%TO.N,Net-(Q3-S)*%
X90000000Y-73000000D03*
%TO.P,R10,2*%
%TO.N,GND*%
X90000000Y-74825000D03*
%TD*%
D16*
%TO.P,R49,1*%
%TO.N,Net-(C55-Pad1)*%
X168400000Y-111000000D03*
%TO.P,R49,2*%
%TO.N,Net-(C51-Pad1)*%
X163500000Y-111000000D03*
%TD*%
D12*
%TO.P,C10,1*%
%TO.N,Net-(C10-Pad1)*%
X89550000Y-62000000D03*
%TO.P,C10,2*%
%TO.N,Net-(Q3-G)*%
X89550000Y-63900000D03*
%TD*%
D10*
%TO.P,C16,1*%
%TO.N,Mix180Deg*%
X83050000Y-103000000D03*
%TO.P,C16,2*%
%TO.N,GND*%
X84950000Y-103000000D03*
%TD*%
D17*
%TO.P,C63,1*%
%TO.N,Net-(U5D-+)*%
X184000000Y-85000000D03*
%TO.P,C63,2*%
%TO.N,/Sheet62579414/J*%
X182100000Y-85000000D03*
%TD*%
D10*
%TO.P,C88,1*%
%TO.N,GND*%
X194100000Y-125500000D03*
%TO.P,C88,2*%
%TO.N,Net-(U7B-+)*%
X196000000Y-125500000D03*
%TD*%
D17*
%TO.P,C98,1*%
%TO.N,Net-(C105-Pad2)*%
X185500000Y-75000000D03*
%TO.P,C98,2*%
%TO.N,Net-(C96-Pad2)*%
X183600000Y-75000000D03*
%TD*%
%TO.P,C45,1*%
%TO.N,Net-(C45-Pad1)*%
X148900000Y-100000000D03*
%TO.P,C45,2*%
%TO.N,Net-(C42-Pad1)*%
X147000000Y-100000000D03*
%TD*%
D10*
%TO.P,C89,1*%
%TO.N,Net-(C89-Pad1)*%
X191500000Y-55000000D03*
%TO.P,C89,2*%
%TO.N,Net-(C89-Pad2)*%
X193400000Y-55000000D03*
%TD*%
D34*
%TO.P,C102,1*%
%TO.N,Net-(C102-Pad1)*%
X116000000Y-72500000D03*
%TO.P,C102,2*%
%TO.N,Net-(C102-Pad2)*%
X118950000Y-72500000D03*
%TD*%
D25*
%TO.P,R95,1*%
%TO.N,Net-(D3-K)*%
X141675000Y-59500000D03*
%TO.P,R95,2*%
%TO.N,GND*%
X143500000Y-59500000D03*
%TD*%
D26*
%TO.P,L2,1,1*%
%TO.N,Net-(Q2-S)*%
X80750000Y-63350000D03*
%TO.P,L2,2,2*%
%TO.N,Net-(L2-Pad2)*%
X82875000Y-63350000D03*
%TD*%
D12*
%TO.P,C74,1*%
%TO.N,VREF*%
X98500000Y-105050000D03*
%TO.P,C74,2*%
%TO.N,GND*%
X98500000Y-106950000D03*
%TD*%
D25*
%TO.P,R81,1*%
%TO.N,Net-(C87-Pad1)*%
X130000000Y-77000000D03*
%TO.P,R81,2*%
%TO.N,GND*%
X131825000Y-77000000D03*
%TD*%
D17*
%TO.P,C99,1*%
%TO.N,GND*%
X204000000Y-133000000D03*
%TO.P,C99,2*%
%TO.N,Net-(U7C-+)*%
X202100000Y-133000000D03*
%TD*%
D26*
%TO.P,L1,1,1*%
%TO.N,Net-(L1-Pad1)*%
X75750000Y-63350000D03*
%TO.P,L1,2,2*%
%TO.N,Net-(Q2-S)*%
X77875000Y-63350000D03*
%TD*%
D10*
%TO.P,C15,1*%
%TO.N,Mix270Deg*%
X83050000Y-109000000D03*
%TO.P,C15,2*%
%TO.N,GND*%
X84950000Y-109000000D03*
%TD*%
D16*
%TO.P,R45,1*%
%TO.N,Net-(C51-Pad1)*%
X159400000Y-111000000D03*
%TO.P,R45,2*%
%TO.N,Net-(C47-Pad1)*%
X154500000Y-111000000D03*
%TD*%
D25*
%TO.P,R71,1*%
%TO.N,Net-(U8B-+)*%
X204675000Y-65500000D03*
%TO.P,R71,2*%
%TO.N,GND*%
X206500000Y-65500000D03*
%TD*%
D17*
%TO.P,C5,1*%
%TO.N,Net-(Q1-D)*%
X71400000Y-69000000D03*
%TO.P,C5,2*%
%TO.N,GND*%
X69500000Y-69000000D03*
%TD*%
D18*
%TO.P,R5,1*%
%TO.N,RXMUTE*%
X69000000Y-71500000D03*
%TO.P,R5,2*%
%TO.N,GND*%
X69000000Y-73325000D03*
%TD*%
D25*
%TO.P,R85,1*%
%TO.N,+12V*%
X129675000Y-61000000D03*
%TO.P,R85,2*%
%TO.N,Net-(Q5-Pad3)*%
X131500000Y-61000000D03*
%TD*%
D17*
%TO.P,C56,1*%
%TO.N,/Sheet62579414/J*%
X176000000Y-92500000D03*
%TO.P,C56,2*%
%TO.N,Net-(C53-Pad1)*%
X174100000Y-92500000D03*
%TD*%
D19*
%TO.P,R87,1*%
%TO.N,VREF*%
X196000000Y-128000000D03*
%TO.P,R87,2*%
%TO.N,Net-(C91-Pad2)*%
X194175000Y-128000000D03*
%TD*%
%TO.P,R93,1*%
%TO.N,Net-(U7C-+)*%
X195825000Y-133500000D03*
%TO.P,R93,2*%
%TO.N,Net-(C94-Pad2)*%
X194000000Y-133500000D03*
%TD*%
D17*
%TO.P,C91,1*%
%TO.N,Net-(U7B--)*%
X197000000Y-122000000D03*
%TO.P,C91,2*%
%TO.N,Net-(C91-Pad2)*%
X195100000Y-122000000D03*
%TD*%
%TO.P,C70,1*%
%TO.N,+12V*%
X116500000Y-65000000D03*
%TO.P,C70,2*%
%TO.N,GND*%
X114600000Y-65000000D03*
%TD*%
D19*
%TO.P,R7,1*%
%TO.N,Net-(L3-Pad2)*%
X89825000Y-51000000D03*
%TO.P,R7,2*%
%TO.N,+12V*%
X88000000Y-51000000D03*
%TD*%
D16*
%TO.P,R39,1*%
%TO.N,Net-(C45-Pad1)*%
X150400000Y-96000000D03*
%TO.P,R39,2*%
%TO.N,Net-(C41-Pad1)*%
X145500000Y-96000000D03*
%TD*%
D19*
%TO.P,R83,1*%
%TO.N,Net-(U8C-+)*%
X183500000Y-60000000D03*
%TO.P,R83,2*%
%TO.N,GND*%
X181675000Y-60000000D03*
%TD*%
%TO.P,R19,1*%
%TO.N,Net-(C29-Pad2)*%
X103912500Y-107000000D03*
%TO.P,R19,2*%
%TO.N,Net-(U4D--)*%
X102087500Y-107000000D03*
%TD*%
D15*
%TO.P,R75,1*%
%TO.N,+12V*%
X156500000Y-64375000D03*
%TO.P,R75,2*%
%TO.N,Net-(Q7-D)*%
X156500000Y-62550000D03*
%TD*%
D25*
%TO.P,R84,1*%
%TO.N,Net-(U8C-+)*%
X191587500Y-58912500D03*
%TO.P,R84,2*%
%TO.N,Net-(C89-Pad2)*%
X193412500Y-58912500D03*
%TD*%
D16*
%TO.P,R44,1*%
%TO.N,Net-(C50-Pad1)*%
X159400000Y-103500000D03*
%TO.P,R44,2*%
%TO.N,Net-(C46-Pad1)*%
X154500000Y-103500000D03*
%TD*%
%TO.P,R41,1*%
%TO.N,Net-(C47-Pad1)*%
X150500000Y-111000000D03*
%TO.P,R41,2*%
%TO.N,Net-(C43-Pad1)*%
X145600000Y-111000000D03*
%TD*%
D17*
%TO.P,C62,1*%
%TO.N,Net-(U5C-+)*%
X185450000Y-107000000D03*
%TO.P,C62,2*%
%TO.N,Net-(C59-Pad1)*%
X183550000Y-107000000D03*
%TD*%
D19*
%TO.P,R17,1*%
%TO.N,Net-(U4C--)*%
X90500000Y-106000000D03*
%TO.P,R17,2*%
%TO.N,Net-(C23-Pad2)*%
X88675000Y-106000000D03*
%TD*%
D15*
%TO.P,R68,1*%
%TO.N,Net-(U7A-+)*%
X204500000Y-114325000D03*
%TO.P,R68,2*%
%TO.N,Net-(C75-Pad2)*%
X204500000Y-112500000D03*
%TD*%
D19*
%TO.P,R11,1*%
%TO.N,Net-(Q3-D)*%
X85325000Y-70000000D03*
%TO.P,R11,2*%
%TO.N,+12V*%
X83500000Y-70000000D03*
%TD*%
D17*
%TO.P,C53,1*%
%TO.N,Net-(C53-Pad1)*%
X166900000Y-100000000D03*
%TO.P,C53,2*%
%TO.N,Net-(C50-Pad1)*%
X165000000Y-100000000D03*
%TD*%
D18*
%TO.P,R79,1*%
%TO.N,Net-(C89-Pad2)*%
X194000000Y-75000000D03*
%TO.P,R79,2*%
%TO.N,Net-(C84-Pad2)*%
X194000000Y-76825000D03*
%TD*%
D25*
%TO.P,R6,1*%
%TO.N,Net-(Q2-D)*%
X88000000Y-58500000D03*
%TO.P,R6,2*%
%TO.N,Net-(C10-Pad1)*%
X89825000Y-58500000D03*
%TD*%
D16*
%TO.P,R36,1*%
%TO.N,Net-(C42-Pad1)*%
X141400000Y-103500000D03*
%TO.P,R36,2*%
%TO.N,Net-(C38-Pad1)*%
X136500000Y-103500000D03*
%TD*%
D13*
%TO.P,J1,1,Pin_1*%
%TO.N,unconnected-(J1-Pin_1-Pad1)*%
X160000000Y-134500000D03*
D14*
%TO.P,J1,2,Pin_2*%
%TO.N,SSBMUTE*%
X157460000Y-134500000D03*
%TO.P,J1,3,Pin_3*%
%TO.N,CWMUTE*%
X154920000Y-134500000D03*
%TO.P,J1,4,Pin_4*%
%TO.N,SMETER*%
X152380000Y-134500000D03*
%TO.P,J1,5,Pin_5*%
%TO.N,SCL*%
X149840000Y-134500000D03*
%TO.P,J1,6,Pin_6*%
%TO.N,SDA*%
X147300000Y-134500000D03*
%TO.P,J1,7,Pin_7*%
%TO.N,RXMUTE*%
X144760000Y-134500000D03*
%TO.P,J1,8,Pin_8*%
%TO.N,GND*%
X142220000Y-134500000D03*
%TD*%
D17*
%TO.P,C42,1*%
%TO.N,Net-(C42-Pad1)*%
X140000000Y-107000000D03*
%TO.P,C42,2*%
%TO.N,Net-(C39-Pad1)*%
X138100000Y-107000000D03*
%TD*%
D19*
%TO.P,R112,1*%
%TO.N,SSBMUTE*%
X167325000Y-55962500D03*
%TO.P,R112,2*%
%TO.N,Net-(D5-A)*%
X165500000Y-55962500D03*
%TD*%
D16*
%TO.P,R29,1*%
%TO.N,Net-(C35-Pad1)*%
X122950000Y-111000000D03*
%TO.P,R29,2*%
%TO.N,Net-(C31-Pad1)*%
X118050000Y-111000000D03*
%TD*%
D19*
%TO.P,R15,1*%
%TO.N,Net-(U4A--)*%
X90412500Y-94000000D03*
%TO.P,R15,2*%
%TO.N,Net-(C21-Pad2)*%
X88587500Y-94000000D03*
%TD*%
D10*
%TO.P,C20,1*%
%TO.N,Mix0Deg*%
X83050000Y-88000000D03*
%TO.P,C20,2*%
%TO.N,Net-(C20-Pad2)*%
X84950000Y-88000000D03*
%TD*%
D17*
%TO.P,C90,1*%
%TO.N,Net-(U8C-+)*%
X183587500Y-63000000D03*
%TO.P,C90,2*%
%TO.N,GND*%
X181687500Y-63000000D03*
%TD*%
D15*
%TO.P,R90,1*%
%TO.N,Net-(C94-Pad2)*%
X191000000Y-129825000D03*
%TO.P,R90,2*%
%TO.N,Net-(C91-Pad2)*%
X191000000Y-128000000D03*
%TD*%
D16*
%TO.P,R34,1*%
%TO.N,/Sheet62579414/E*%
X141500000Y-89000000D03*
%TO.P,R34,2*%
%TO.N,/Sheet62579414/D*%
X136600000Y-89000000D03*
%TD*%
D37*
%TO.P,U9,1,NC*%
%TO.N,unconnected-(U9-NC-Pad1)*%
X139770000Y-74500000D03*
%TO.P,U9,2,-*%
%TO.N,Net-(U9--)*%
X138500000Y-74500000D03*
%TO.P,U9,3,+*%
%TO.N,Net-(U9-+)*%
X137230000Y-74500000D03*
%TO.P,U9,4,V-*%
%TO.N,GND*%
X135960000Y-74500000D03*
%TO.P,U9,5,NC*%
%TO.N,unconnected-(U9-NC-Pad5)*%
X135960000Y-79650000D03*
%TO.P,U9,6*%
%TO.N,Net-(C93-Pad2)*%
X137230000Y-79650000D03*
%TO.P,U9,7,V+*%
%TO.N,+12V*%
X138500000Y-79650000D03*
%TO.P,U9,8,NC*%
%TO.N,unconnected-(U9-NC-Pad8)*%
X139770000Y-79650000D03*
%TD*%
D10*
%TO.P,C23,1*%
%TO.N,Mix270Deg*%
X83050000Y-106000000D03*
%TO.P,C23,2*%
%TO.N,Net-(C23-Pad2)*%
X84950000Y-106000000D03*
%TD*%
D12*
%TO.P,C11,1*%
%TO.N,Net-(Q3-D)*%
X93500000Y-69050000D03*
%TO.P,C11,2*%
%TO.N,GND*%
X93500000Y-70950000D03*
%TD*%
D19*
%TO.P,R64,1*%
%TO.N,Net-(C73-Pad1)*%
X204912500Y-76000000D03*
%TO.P,R64,2*%
%TO.N,Net-(U8A--)*%
X203087500Y-76000000D03*
%TD*%
D38*
%TO.P,D1,1,K*%
%TO.N,+12V*%
X132500000Y-127600000D03*
%TO.P,D1,2,A*%
%TO.N,Net-(D1-A)*%
X132500000Y-130400000D03*
%TD*%
D21*
%TO.P,C78,1*%
%TO.N,Net-(C73-Pad2)*%
X205500000Y-70400000D03*
%TO.P,C78,2*%
%TO.N,Net-(U8B-+)*%
X205500000Y-68500000D03*
%TD*%
D15*
%TO.P,R91,1*%
%TO.N,Net-(C93-Pad2)*%
X143500000Y-80000000D03*
%TO.P,R91,2*%
%TO.N,Net-(U9--)*%
X143500000Y-78175000D03*
%TD*%
D10*
%TO.P,C17,1*%
%TO.N,Mix90Deg*%
X83050000Y-97000000D03*
%TO.P,C17,2*%
%TO.N,GND*%
X84950000Y-97000000D03*
%TD*%
D18*
%TO.P,R89,1*%
%TO.N,Net-(U9--)*%
X149500000Y-78175000D03*
%TO.P,R89,2*%
%TO.N,Net-(C92-Pad1)*%
X149500000Y-80000000D03*
%TD*%
D16*
%TO.P,R27,1*%
%TO.N,Net-(C33-Pad1)*%
X122900000Y-96000000D03*
%TO.P,R27,2*%
%TO.N,Net-(C29-Pad1)*%
X118000000Y-96000000D03*
%TD*%
D17*
%TO.P,C69,1*%
%TO.N,+12V*%
X195500000Y-93000000D03*
%TO.P,C69,2*%
%TO.N,GND*%
X193600000Y-93000000D03*
%TD*%
D25*
%TO.P,R59,1*%
%TO.N,Net-(U5B--)*%
X197500000Y-91500000D03*
%TO.P,R59,2*%
%TO.N,Net-(U6-+)*%
X199325000Y-91500000D03*
%TD*%
D17*
%TO.P,C33,1*%
%TO.N,Net-(C33-Pad1)*%
X121000000Y-100000000D03*
%TO.P,C33,2*%
%TO.N,Net-(C30-Pad1)*%
X119100000Y-100000000D03*
%TD*%
D25*
%TO.P,R102,1*%
%TO.N,Net-(C105-Pad2)*%
X189675000Y-74000000D03*
%TO.P,R102,2*%
%TO.N,Net-(U8D--)*%
X191500000Y-74000000D03*
%TD*%
D19*
%TO.P,R70,1*%
%TO.N,Net-(U8B-+)*%
X201950000Y-65770000D03*
%TO.P,R70,2*%
%TO.N,+12V*%
X200125000Y-65770000D03*
%TD*%
D17*
%TO.P,C44,1*%
%TO.N,/Sheet62579414/F*%
X149000000Y-92500000D03*
%TO.P,C44,2*%
%TO.N,Net-(C41-Pad1)*%
X147100000Y-92500000D03*
%TD*%
D25*
%TO.P,R99,1*%
%TO.N,VREF*%
X183675000Y-70000000D03*
%TO.P,R99,2*%
%TO.N,Net-(U8D-+)*%
X185500000Y-70000000D03*
%TD*%
D39*
%TO.P,D5,1,K*%
%TO.N,SSBMUTE*%
X167412500Y-58962500D03*
%TO.P,D5,2,A*%
%TO.N,Net-(D5-A)*%
X165287500Y-58962500D03*
%TD*%
D19*
%TO.P,R16,1*%
%TO.N,Net-(U4D--)*%
X90412500Y-100000000D03*
%TO.P,R16,2*%
%TO.N,Net-(C22-Pad2)*%
X88587500Y-100000000D03*
%TD*%
%TO.P,R20,1*%
%TO.N,/Sheet62579414/A*%
X95912500Y-88000000D03*
%TO.P,R20,2*%
%TO.N,Net-(U4B--)*%
X94087500Y-88000000D03*
%TD*%
D17*
%TO.P,C47,1*%
%TO.N,Net-(C47-Pad1)*%
X147400000Y-85000000D03*
%TO.P,C47,2*%
%TO.N,/Sheet62579414/E*%
X145500000Y-85000000D03*
%TD*%
D19*
%TO.P,R96,1*%
%TO.N,Net-(U8D-+)*%
X185500000Y-72500000D03*
%TO.P,R96,2*%
%TO.N,Net-(C96-Pad2)*%
X183675000Y-72500000D03*
%TD*%
D17*
%TO.P,C34,1*%
%TO.N,Net-(C34-Pad1)*%
X121500000Y-107000000D03*
%TO.P,C34,2*%
%TO.N,Net-(C31-Pad1)*%
X119600000Y-107000000D03*
%TD*%
D15*
%TO.P,R107,1*%
%TO.N,Net-(Q8-D)*%
X163000000Y-71375000D03*
%TO.P,R107,2*%
%TO.N,Net-(C109-Pad1)*%
X163000000Y-69550000D03*
%TD*%
D16*
%TO.P,R40,1*%
%TO.N,Net-(C46-Pad1)*%
X150500000Y-103500000D03*
%TO.P,R40,2*%
%TO.N,Net-(C42-Pad1)*%
X145600000Y-103500000D03*
%TD*%
D24*
%TO.P,C84,1*%
%TO.N,Net-(C84-Pad1)*%
X197000000Y-79500000D03*
%TO.P,C84,2*%
%TO.N,Net-(C84-Pad2)*%
X194050000Y-79500000D03*
%TD*%
D15*
%TO.P,R12,1*%
%TO.N,Net-(T1-SB)*%
X83500000Y-82825000D03*
%TO.P,R12,2*%
%TO.N,GND*%
X83500000Y-81000000D03*
%TD*%
D16*
%TO.P,R55,1*%
%TO.N,Net-(U5B-+)*%
X186400000Y-96000000D03*
%TO.P,R55,2*%
%TO.N,Net-(C57-Pad1)*%
X181500000Y-96000000D03*
%TD*%
D25*
%TO.P,R76,1*%
%TO.N,Net-(C86-Pad2)*%
X203675000Y-117000000D03*
%TO.P,R76,2*%
%TO.N,Net-(C82-Pad2)*%
X205500000Y-117000000D03*
%TD*%
D16*
%TO.P,R42,1*%
%TO.N,/Sheet62579414/G*%
X159400000Y-89000000D03*
%TO.P,R42,2*%
%TO.N,/Sheet62579414/F*%
X154500000Y-89000000D03*
%TD*%
D21*
%TO.P,C107,1*%
%TO.N,Net-(D5-A)*%
X161912500Y-58962500D03*
%TO.P,C107,2*%
%TO.N,GND*%
X161912500Y-57062500D03*
%TD*%
D17*
%TO.P,C31,1*%
%TO.N,Net-(C31-Pad1)*%
X110900000Y-85000000D03*
%TO.P,C31,2*%
%TO.N,/Sheet62579414/A*%
X109000000Y-85000000D03*
%TD*%
D16*
%TO.P,R46,1*%
%TO.N,/Sheet62579414/H*%
X168400000Y-89000000D03*
%TO.P,R46,2*%
%TO.N,/Sheet62579414/G*%
X163500000Y-89000000D03*
%TD*%
D40*
%TO.P,Q1,1,D*%
%TO.N,Net-(Q1-D)*%
X75750000Y-68350000D03*
%TO.P,Q1,2,G*%
%TO.N,RXMUTE*%
X75750000Y-70250000D03*
%TO.P,Q1,3,S*%
%TO.N,GND*%
X77625000Y-69300000D03*
%TD*%
D17*
%TO.P,C43,1*%
%TO.N,Net-(C43-Pad1)*%
X138500000Y-85000000D03*
%TO.P,C43,2*%
%TO.N,/Sheet62579414/D*%
X136600000Y-85000000D03*
%TD*%
%TO.P,C37,1*%
%TO.N,Net-(C37-Pad1)*%
X131000000Y-100000000D03*
%TO.P,C37,2*%
%TO.N,Net-(C34-Pad1)*%
X129100000Y-100000000D03*
%TD*%
D12*
%TO.P,C81,1*%
%TO.N,VREF*%
X199500000Y-68500000D03*
%TO.P,C81,2*%
%TO.N,GND*%
X199500000Y-70400000D03*
%TD*%
D10*
%TO.P,C104,1*%
%TO.N,Net-(C104-Pad1)*%
X113500000Y-57500000D03*
%TO.P,C104,2*%
%TO.N,GND*%
X115400000Y-57500000D03*
%TD*%
D17*
%TO.P,C83,1*%
%TO.N,/Sheet6280C94B/AudioAGC*%
X148000000Y-70000000D03*
%TO.P,C83,2*%
%TO.N,Net-(U9-+)*%
X146100000Y-70000000D03*
%TD*%
D12*
%TO.P,C26,1*%
%TO.N,+12V*%
X202500000Y-68600000D03*
%TO.P,C26,2*%
%TO.N,GND*%
X202500000Y-70500000D03*
%TD*%
D16*
%TO.P,R38,1*%
%TO.N,/Sheet62579414/F*%
X150500000Y-89000000D03*
%TO.P,R38,2*%
%TO.N,/Sheet62579414/E*%
X145600000Y-89000000D03*
%TD*%
%TO.P,R28,1*%
%TO.N,Net-(C34-Pad1)*%
X122900000Y-103500000D03*
%TO.P,R28,2*%
%TO.N,Net-(C30-Pad1)*%
X118000000Y-103500000D03*
%TD*%
D41*
%TO.P,C72,1*%
%TO.N,+12V*%
X201000000Y-83000000D03*
%TO.P,C72,2*%
%TO.N,GND*%
X201000000Y-85950000D03*
%TD*%
D18*
%TO.P,R103,1*%
%TO.N,Net-(R103-Pad1)*%
X122500000Y-72175000D03*
%TO.P,R103,2*%
%TO.N,Net-(C102-Pad2)*%
X122500000Y-74000000D03*
%TD*%
D10*
%TO.P,C64,1*%
%TO.N,Net-(U6--)*%
X209100000Y-97000000D03*
%TO.P,C64,2*%
%TO.N,PPOut*%
X211000000Y-97000000D03*
%TD*%
D17*
%TO.P,C46,1*%
%TO.N,Net-(C46-Pad1)*%
X148900000Y-107000000D03*
%TO.P,C46,2*%
%TO.N,Net-(C43-Pad1)*%
X147000000Y-107000000D03*
%TD*%
D16*
%TO.P,R50,1*%
%TO.N,/Sheet62579414/J*%
X177400000Y-89000000D03*
%TO.P,R50,2*%
%TO.N,/Sheet62579414/H*%
X172500000Y-89000000D03*
%TD*%
D15*
%TO.P,R110,1*%
%TO.N,/Sheet6280C94B/AudioAGC*%
X159500000Y-64375000D03*
%TO.P,R110,2*%
%TO.N,Net-(Q7-D)*%
X159500000Y-62550000D03*
%TD*%
D42*
%TO.P,C71,1*%
%TO.N,VREF*%
X122500000Y-127500000D03*
%TO.P,C71,2*%
%TO.N,GND*%
X122500000Y-130500000D03*
%TD*%
D17*
%TO.P,C73,1*%
%TO.N,Net-(C73-Pad1)*%
X205000000Y-73000000D03*
%TO.P,C73,2*%
%TO.N,Net-(C73-Pad2)*%
X203100000Y-73000000D03*
%TD*%
D13*
%TO.P,J5,1,Pin_1*%
%TO.N,Net-(J5-Pin_1)*%
X130540000Y-52500000D03*
D14*
%TO.P,J5,2,Pin_2*%
%TO.N,Net-(J5-Pin_2)*%
X128000000Y-52500000D03*
%TO.P,J5,3,Pin_3*%
%TO.N,GND*%
X125460000Y-52500000D03*
%TD*%
D25*
%TO.P,R63,1*%
%TO.N,Net-(U8A--)*%
X203175000Y-79500000D03*
%TO.P,R63,2*%
%TO.N,Net-(C65-Pad2)*%
X205000000Y-79500000D03*
%TD*%
D34*
%TO.P,C109,1*%
%TO.N,Net-(C109-Pad1)*%
X166550000Y-69000000D03*
%TO.P,C109,2*%
%TO.N,Net-(C109-Pad2)*%
X169500000Y-69000000D03*
%TD*%
D25*
%TO.P,R60,1*%
%TO.N,Net-(U5C--)*%
X197000000Y-106000000D03*
%TO.P,R60,2*%
%TO.N,Net-(U6-+)*%
X198825000Y-106000000D03*
%TD*%
%TO.P,R73,1*%
%TO.N,Net-(C84-Pad1)*%
X196175000Y-59000000D03*
%TO.P,R73,2*%
%TO.N,Net-(U8B--)*%
X198000000Y-59000000D03*
%TD*%
D16*
%TO.P,R24,1*%
%TO.N,Net-(C30-Pad1)*%
X113900000Y-103500000D03*
%TO.P,R24,2*%
%TO.N,Net-(C29-Pad2)*%
X109000000Y-103500000D03*
%TD*%
D25*
%TO.P,R58,1*%
%TO.N,Net-(U5A--)*%
X204587500Y-97000000D03*
%TO.P,R58,2*%
%TO.N,Net-(U6--)*%
X206412500Y-97000000D03*
%TD*%
D16*
%TO.P,R32,1*%
%TO.N,Net-(C38-Pad1)*%
X131900000Y-103500000D03*
%TO.P,R32,2*%
%TO.N,Net-(C34-Pad1)*%
X127000000Y-103500000D03*
%TD*%
D32*
%TO.P,U5,1*%
%TO.N,Net-(U5A--)*%
X200810000Y-97025000D03*
%TO.P,U5,2,-*%
X199540000Y-97025000D03*
%TO.P,U5,3,+*%
%TO.N,Net-(U5A-+)*%
X198270000Y-97025000D03*
%TO.P,U5,4,V+*%
%TO.N,+12V*%
X197000000Y-97025000D03*
%TO.P,U5,5,+*%
%TO.N,Net-(U5B-+)*%
X195730000Y-97025000D03*
%TO.P,U5,6,-*%
%TO.N,Net-(U5B--)*%
X194460000Y-97025000D03*
%TO.P,U5,7*%
X193190000Y-97025000D03*
%TO.P,U5,8*%
%TO.N,Net-(U5C--)*%
X193190000Y-101975000D03*
%TO.P,U5,9,-*%
X194460000Y-101975000D03*
%TO.P,U5,10,+*%
%TO.N,Net-(U5C-+)*%
X195730000Y-101975000D03*
%TO.P,U5,11,V-*%
%TO.N,GND*%
X197000000Y-101975000D03*
%TO.P,U5,12,+*%
%TO.N,Net-(U5D-+)*%
X198270000Y-101975000D03*
%TO.P,U5,13,-*%
%TO.N,Net-(U5D--)*%
X199540000Y-101975000D03*
%TO.P,U5,14*%
X200810000Y-101975000D03*
%TD*%
D21*
%TO.P,C86,1*%
%TO.N,Net-(U7B--)*%
X201000000Y-119400000D03*
%TO.P,C86,2*%
%TO.N,Net-(C86-Pad2)*%
X201000000Y-117500000D03*
%TD*%
D18*
%TO.P,R74,1*%
%TO.N,VREF*%
X212000000Y-117675000D03*
%TO.P,R74,2*%
%TO.N,Net-(C82-Pad2)*%
X212000000Y-119500000D03*
%TD*%
D43*
%TO.P,D4,1,K*%
%TO.N,CWMUTE*%
X166875000Y-78462500D03*
%TO.P,D4,2,A*%
%TO.N,Net-(D4-A)*%
X165000000Y-78462500D03*
%TD*%
D10*
%TO.P,C1,1*%
%TO.N,Net-(J3-In)*%
X70750000Y-59850000D03*
%TO.P,C1,2*%
%TO.N,Net-(C1-Pad2)*%
X72650000Y-59850000D03*
%TD*%
D17*
%TO.P,C66,1*%
%TO.N,+12V*%
X132000000Y-81000000D03*
%TO.P,C66,2*%
%TO.N,GND*%
X130100000Y-81000000D03*
%TD*%
D25*
%TO.P,R3,1*%
%TO.N,Net-(Q1-D)*%
X80750000Y-66350000D03*
%TO.P,R3,2*%
%TO.N,Net-(L2-Pad2)*%
X82575000Y-66350000D03*
%TD*%
D17*
%TO.P,C49,1*%
%TO.N,Net-(C49-Pad1)*%
X157900000Y-100000000D03*
%TO.P,C49,2*%
%TO.N,Net-(C46-Pad1)*%
X156000000Y-100000000D03*
%TD*%
D12*
%TO.P,C9,1*%
%TO.N,+12V*%
X85500000Y-51000000D03*
%TO.P,C9,2*%
%TO.N,GND*%
X85500000Y-52900000D03*
%TD*%
D19*
%TO.P,R92,1*%
%TO.N,Net-(C89-Pad1)*%
X187912500Y-61000000D03*
%TO.P,R92,2*%
%TO.N,Net-(U8C--)*%
X186087500Y-61000000D03*
%TD*%
D17*
%TO.P,C29,1*%
%TO.N,Net-(C29-Pad1)*%
X112000000Y-100000000D03*
%TO.P,C29,2*%
%TO.N,Net-(C29-Pad2)*%
X110100000Y-100000000D03*
%TD*%
%TO.P,C48,1*%
%TO.N,/Sheet62579414/G*%
X157900000Y-92500000D03*
%TO.P,C48,2*%
%TO.N,Net-(C45-Pad1)*%
X156000000Y-92500000D03*
%TD*%
D44*
%TO.P,C92,1*%
%TO.N,Net-(C92-Pad1)*%
X148000000Y-74500000D03*
%TO.P,C92,2*%
%TO.N,GND*%
X145000000Y-74500000D03*
%TD*%
D19*
%TO.P,R18,1*%
%TO.N,Net-(C28-Pad2)*%
X104412500Y-93000000D03*
%TO.P,R18,2*%
%TO.N,Net-(U4A--)*%
X102587500Y-93000000D03*
%TD*%
D15*
%TO.P,R9,1*%
%TO.N,Net-(Q3-G)*%
X93500000Y-62000000D03*
%TO.P,R9,2*%
%TO.N,GND*%
X93500000Y-60175000D03*
%TD*%
D41*
%TO.P,C85,1*%
%TO.N,Net-(Q4-G)*%
X147000000Y-63000000D03*
%TO.P,C85,2*%
%TO.N,GND*%
X147000000Y-65950000D03*
%TD*%
D17*
%TO.P,C38,1*%
%TO.N,Net-(C38-Pad1)*%
X131000000Y-107000000D03*
%TO.P,C38,2*%
%TO.N,Net-(C35-Pad1)*%
X129100000Y-107000000D03*
%TD*%
%TO.P,C59,1*%
%TO.N,Net-(C59-Pad1)*%
X174950000Y-85000000D03*
%TO.P,C59,2*%
%TO.N,/Sheet62579414/H*%
X173050000Y-85000000D03*
%TD*%
D36*
%TO.P,Q4,1,D*%
%TO.N,/Sheet6280C94B/AudioAGC*%
X143400000Y-66450000D03*
%TO.P,Q4,2,S*%
%TO.N,GND*%
X143400000Y-64550000D03*
%TO.P,Q4,3,G*%
%TO.N,Net-(Q4-G)*%
X141000000Y-65500000D03*
%TD*%
D40*
%TO.P,Q6,1*%
%TO.N,Net-(Q5-Pad3)*%
X148000000Y-53500000D03*
%TO.P,Q6,2*%
%TO.N,SMETER*%
X148000000Y-55400000D03*
%TO.P,Q6,3*%
%TO.N,+12V*%
X149875000Y-54450000D03*
%TD*%
D16*
%TO.P,R48,1*%
%TO.N,Net-(C54-Pad1)*%
X168400000Y-103500000D03*
%TO.P,R48,2*%
%TO.N,Net-(C50-Pad1)*%
X163500000Y-103500000D03*
%TD*%
D12*
%TO.P,C93,1*%
%TO.N,Net-(U9--)*%
X146500000Y-78175000D03*
%TO.P,C93,2*%
%TO.N,Net-(C93-Pad2)*%
X146500000Y-80075000D03*
%TD*%
%TO.P,C82,1*%
%TO.N,Net-(U7A--)*%
X208000000Y-117500000D03*
%TO.P,C82,2*%
%TO.N,Net-(C82-Pad2)*%
X208000000Y-119400000D03*
%TD*%
D10*
%TO.P,C2,1*%
%TO.N,Net-(C1-Pad2)*%
X70750000Y-66350000D03*
%TO.P,C2,2*%
%TO.N,GND*%
X72650000Y-66350000D03*
%TD*%
D12*
%TO.P,C8,1*%
%TO.N,RXMUTE*%
X72000000Y-71500000D03*
%TO.P,C8,2*%
%TO.N,GND*%
X72000000Y-73400000D03*
%TD*%
D19*
%TO.P,R78,1*%
%TO.N,Net-(U9-+)*%
X137912500Y-69500000D03*
%TO.P,R78,2*%
%TO.N,Net-(C87-Pad1)*%
X136087500Y-69500000D03*
%TD*%
D17*
%TO.P,C58,1*%
%TO.N,Net-(C58-Pad1)*%
X176000000Y-107000000D03*
%TO.P,C58,2*%
%TO.N,Net-(C55-Pad1)*%
X174100000Y-107000000D03*
%TD*%
D19*
%TO.P,R66,1*%
%TO.N,+12V*%
X128500000Y-127500000D03*
%TO.P,R66,2*%
%TO.N,VREF*%
X126675000Y-127500000D03*
%TD*%
D35*
%TO.P,Q7,1,G*%
%TO.N,Net-(D5-A)*%
X158287500Y-58362500D03*
%TO.P,Q7,2,S*%
%TO.N,GND*%
X158287500Y-56462500D03*
%TO.P,Q7,3,D*%
%TO.N,Net-(Q7-D)*%
X156412500Y-57412500D03*
%TD*%
D44*
%TO.P,C6,1*%
%TO.N,+5V*%
X104500000Y-117500000D03*
%TO.P,C6,2*%
%TO.N,GND*%
X107500000Y-117500000D03*
%TD*%
D12*
%TO.P,C7,1*%
%TO.N,+5V*%
X99950000Y-127050000D03*
%TO.P,C7,2*%
%TO.N,GND*%
X99950000Y-128950000D03*
%TD*%
D25*
%TO.P,R61,1*%
%TO.N,Net-(U5D--)*%
X204675000Y-102000000D03*
%TO.P,R61,2*%
%TO.N,Net-(U6--)*%
X206500000Y-102000000D03*
%TD*%
D21*
%TO.P,C108,1*%
%TO.N,Net-(D4-A)*%
X161500000Y-77962500D03*
%TO.P,C108,2*%
%TO.N,GND*%
X161500000Y-76062500D03*
%TD*%
D17*
%TO.P,C14,1*%
%TO.N,+5V*%
X70400000Y-103500000D03*
%TO.P,C14,2*%
%TO.N,GND*%
X68500000Y-103500000D03*
%TD*%
D15*
%TO.P,R82,1*%
%TO.N,Net-(Q4-G)*%
X137000000Y-66325000D03*
%TO.P,R82,2*%
%TO.N,Net-(Q5-Pad3)*%
X137000000Y-64500000D03*
%TD*%
D16*
%TO.P,R47,1*%
%TO.N,Net-(C53-Pad1)*%
X168400000Y-96000000D03*
%TO.P,R47,2*%
%TO.N,Net-(C49-Pad1)*%
X163500000Y-96000000D03*
%TD*%
%TO.P,R22,1*%
%TO.N,/Sheet62579414/B*%
X113950000Y-89000000D03*
%TO.P,R22,2*%
%TO.N,/Sheet62579414/A*%
X109050000Y-89000000D03*
%TD*%
D45*
%TO.P,U2,*%
%TO.N,*%
X95160000Y-134280000D03*
D46*
X95160000Y-116500000D03*
D45*
X92620000Y-134280000D03*
X90080000Y-134280000D03*
X85000000Y-134280000D03*
X82460000Y-134280000D03*
X79920000Y-134280000D03*
X74840000Y-134280000D03*
X72300000Y-134280000D03*
X69760000Y-134280000D03*
D46*
X69760000Y-116500000D03*
D47*
%TO.P,U2,1,VCC*%
%TO.N,+5V*%
X74840000Y-116500000D03*
D29*
%TO.P,U2,2,GND*%
%TO.N,GND*%
X77380000Y-116500000D03*
%TO.P,U2,3,SDA*%
%TO.N,SDA*%
X79920000Y-116500000D03*
%TO.P,U2,4,SCL*%
%TO.N,SCL*%
X82460000Y-116500000D03*
%TO.P,U2,5,CLK2*%
%TO.N,unconnected-(U2-CLK2-Pad5)*%
X85000000Y-116500000D03*
%TO.P,U2,6,CLK1*%
%TO.N,Net-(U2-CLK1)*%
X87540000Y-116500000D03*
%TO.P,U2,7,CLK0*%
%TO.N,Net-(U2-CLK0)*%
X90080000Y-116500000D03*
%TD*%
D44*
%TO.P,C95,1*%
%TO.N,Net-(C93-Pad2)*%
X136500000Y-53000000D03*
%TO.P,C95,2*%
%TO.N,Net-(C95-Pad2)*%
X139500000Y-53000000D03*
%TD*%
D19*
%TO.P,R108,1*%
%TO.N,Net-(J6-Pin_1)*%
X109825000Y-58500000D03*
%TO.P,R108,2*%
%TO.N,Net-(J6-Pin_2)*%
X108000000Y-58500000D03*
%TD*%
D17*
%TO.P,C55,1*%
%TO.N,Net-(C55-Pad1)*%
X166000000Y-85000000D03*
%TO.P,C55,2*%
%TO.N,/Sheet62579414/G*%
X164100000Y-85000000D03*
%TD*%
D16*
%TO.P,R23,1*%
%TO.N,Net-(C29-Pad1)*%
X113900000Y-96000000D03*
%TO.P,R23,2*%
%TO.N,Net-(C28-Pad2)*%
X109000000Y-96000000D03*
%TD*%
D17*
%TO.P,C35,1*%
%TO.N,Net-(C35-Pad1)*%
X119900000Y-85000000D03*
%TO.P,C35,2*%
%TO.N,/Sheet62579414/B*%
X118000000Y-85000000D03*
%TD*%
D19*
%TO.P,R101,1*%
%TO.N,Net-(U7D--)*%
X204000000Y-136500000D03*
%TO.P,R101,2*%
%TO.N,Net-(C101-Pad2)*%
X202175000Y-136500000D03*
%TD*%
D17*
%TO.P,C96,1*%
%TO.N,Net-(C89-Pad1)*%
X188000000Y-58000000D03*
%TO.P,C96,2*%
%TO.N,Net-(C96-Pad2)*%
X186100000Y-58000000D03*
%TD*%
D33*
%TO.P,U8,1*%
%TO.N,Net-(C73-Pad1)*%
X195950000Y-70620000D03*
%TO.P,U8,2,-*%
%TO.N,Net-(U8A--)*%
X195950000Y-69350000D03*
%TO.P,U8,3,+*%
%TO.N,VREF*%
X195950000Y-68080000D03*
%TO.P,U8,4,V+*%
%TO.N,+12V*%
X195950000Y-66810000D03*
%TO.P,U8,5,+*%
%TO.N,Net-(U8B-+)*%
X195950000Y-65540000D03*
%TO.P,U8,6,-*%
%TO.N,Net-(U8B--)*%
X195950000Y-64270000D03*
%TO.P,U8,7*%
%TO.N,Net-(C84-Pad1)*%
X195950000Y-63000000D03*
%TO.P,U8,8*%
%TO.N,Net-(C89-Pad1)*%
X191000000Y-63000000D03*
%TO.P,U8,9,-*%
%TO.N,Net-(U8C--)*%
X191000000Y-64270000D03*
%TO.P,U8,10,+*%
%TO.N,Net-(U8C-+)*%
X191000000Y-65540000D03*
%TO.P,U8,11,V-*%
%TO.N,GND*%
X191000000Y-66810000D03*
%TO.P,U8,12,+*%
%TO.N,Net-(U8D-+)*%
X191000000Y-68080000D03*
%TO.P,U8,13,-*%
%TO.N,Net-(U8D--)*%
X191000000Y-69350000D03*
%TO.P,U8,14*%
%TO.N,Net-(C105-Pad2)*%
X191000000Y-70620000D03*
%TD*%
D15*
%TO.P,R77,1*%
%TO.N,Net-(U7B-+)*%
X197000000Y-119325000D03*
%TO.P,R77,2*%
%TO.N,Net-(C86-Pad2)*%
X197000000Y-117500000D03*
%TD*%
D42*
%TO.P,C87,1*%
%TO.N,Net-(C87-Pad1)*%
X132500000Y-68000000D03*
%TO.P,C87,2*%
%TO.N,GND*%
X132500000Y-65000000D03*
%TD*%
D16*
%TO.P,R51,1*%
%TO.N,Net-(C57-Pad1)*%
X177500000Y-96000000D03*
%TO.P,R51,2*%
%TO.N,Net-(C53-Pad1)*%
X172600000Y-96000000D03*
%TD*%
D17*
%TO.P,C39,1*%
%TO.N,Net-(C39-Pad1)*%
X129000000Y-85000000D03*
%TO.P,C39,2*%
%TO.N,/Sheet62579414/C*%
X127100000Y-85000000D03*
%TD*%
%TO.P,C32,1*%
%TO.N,/Sheet62579414/C*%
X121150000Y-92500000D03*
%TO.P,C32,2*%
%TO.N,Net-(C29-Pad1)*%
X119250000Y-92500000D03*
%TD*%
D19*
%TO.P,R97,1*%
%TO.N,Net-(U8D-+)*%
X179412500Y-68000000D03*
%TO.P,R97,2*%
%TO.N,GND*%
X177587500Y-68000000D03*
%TD*%
D34*
%TO.P,C105,1*%
%TO.N,Net-(C105-Pad1)*%
X182550000Y-78000000D03*
%TO.P,C105,2*%
%TO.N,Net-(C105-Pad2)*%
X185500000Y-78000000D03*
%TD*%
D17*
%TO.P,C50,1*%
%TO.N,Net-(C50-Pad1)*%
X158000000Y-107000000D03*
%TO.P,C50,2*%
%TO.N,Net-(C47-Pad1)*%
X156100000Y-107000000D03*
%TD*%
%TO.P,C36,1*%
%TO.N,/Sheet62579414/D*%
X130500000Y-92500000D03*
%TO.P,C36,2*%
%TO.N,Net-(C33-Pad1)*%
X128600000Y-92500000D03*
%TD*%
D32*
%TO.P,U7,1*%
%TO.N,Net-(U7A--)*%
X207540000Y-123500000D03*
%TO.P,U7,2,-*%
X206270000Y-123500000D03*
%TO.P,U7,3,+*%
%TO.N,Net-(U7A-+)*%
X205000000Y-123500000D03*
%TO.P,U7,4,V+*%
%TO.N,+12V*%
X203730000Y-123500000D03*
%TO.P,U7,5,+*%
%TO.N,Net-(U7B-+)*%
X202460000Y-123500000D03*
%TO.P,U7,6,-*%
%TO.N,Net-(U7B--)*%
X201190000Y-123500000D03*
%TO.P,U7,7*%
X199920000Y-123500000D03*
%TO.P,U7,8*%
%TO.N,Net-(U7C--)*%
X199920000Y-128450000D03*
%TO.P,U7,9,-*%
X201190000Y-128450000D03*
%TO.P,U7,10,+*%
%TO.N,Net-(U7C-+)*%
X202460000Y-128450000D03*
%TO.P,U7,11,V-*%
%TO.N,GND*%
X203730000Y-128450000D03*
%TO.P,U7,12,+*%
%TO.N,VREF*%
X205000000Y-128450000D03*
%TO.P,U7,13,-*%
%TO.N,Net-(U7D--)*%
X206270000Y-128450000D03*
%TO.P,U7,14*%
%TO.N,Net-(C109-Pad2)*%
X207540000Y-128450000D03*
%TD*%
D17*
%TO.P,C60,1*%
%TO.N,Net-(U5A-+)*%
X184900000Y-92500000D03*
%TO.P,C60,2*%
%TO.N,Net-(C57-Pad1)*%
X183000000Y-92500000D03*
%TD*%
D16*
%TO.P,R43,1*%
%TO.N,Net-(C49-Pad1)*%
X159400000Y-96000000D03*
%TO.P,R43,2*%
%TO.N,Net-(C45-Pad1)*%
X154500000Y-96000000D03*
%TD*%
%TO.P,R54,1*%
%TO.N,Net-(U5A-+)*%
X186400000Y-89000000D03*
%TO.P,R54,2*%
%TO.N,/Sheet62579414/J*%
X181500000Y-89000000D03*
%TD*%
D44*
%TO.P,C3,1*%
%TO.N,+12V*%
X104700000Y-134500000D03*
%TO.P,C3,2*%
%TO.N,GND*%
X107700000Y-134500000D03*
%TD*%
D48*
%TO.P,U1,1,GND*%
%TO.N,GND*%
X105000000Y-123200000D03*
%TO.P,U1,2,VO*%
%TO.N,+5V*%
X105000000Y-125500000D03*
D49*
X111300000Y-125500000D03*
D48*
%TO.P,U1,3,VI*%
%TO.N,+12V*%
X105000000Y-127800000D03*
%TD*%
D13*
%TO.P,J2,1,Pin_1*%
%TO.N,Net-(D1-A)*%
X132280000Y-134500000D03*
D14*
%TO.P,J2,2,Pin_2*%
%TO.N,unconnected-(J2-Pin_2-Pad2)*%
X129740000Y-134500000D03*
%TO.P,J2,3,Pin_3*%
%TO.N,Net-(D1-A)*%
X127200000Y-134500000D03*
%TO.P,J2,4,Pin_4*%
%TO.N,+5V*%
X124660000Y-134500000D03*
%TO.P,J2,5,Pin_5*%
X122120000Y-134500000D03*
%TO.P,J2,6,Pin_6*%
%TO.N,unconnected-(J2-Pin_6-Pad6)*%
X119580000Y-134500000D03*
%TO.P,J2,7,Pin_7*%
%TO.N,GND*%
X117040000Y-134500000D03*
%TO.P,J2,8,Pin_8*%
X114500000Y-134500000D03*
%TD*%
D50*
%TO.N,Net-(C109-Pad2)*%
X171500000Y-71000000D03*
X209000000Y-130500000D03*
%TO.N,+12V*%
X101000000Y-94500000D03*
%TO.N,Net-(C93-Pad2)*%
X133500000Y-57500000D03*
X141500000Y-79000000D03*
%TO.N,VREF*%
X106500000Y-99000000D03*
%TO.N,GND*%
X192500000Y-125500000D03*
X197000000Y-104000000D03*
X130500000Y-130500000D03*
X160000000Y-56462500D03*
%TO.N,+12V*%
X212250000Y-64250000D03*
X201250000Y-67250000D03*
X215500000Y-83000000D03*
X206000000Y-83000000D03*
X215500000Y-94500000D03*
X197000000Y-94500000D03*
%TO.N,GND*%
X128500000Y-79500000D03*
%TO.N,+12V*%
X136500000Y-138000000D03*
X215500000Y-120500000D03*
X202500000Y-121500000D03*
X136500000Y-135500000D03*
D51*
%TO.N,*%
X63000000Y-61000000D03*
X63000000Y-130000000D03*
X176500000Y-130000000D03*
X210000000Y-55000000D03*
D50*
%TO.N,GND*%
X100000000Y-130500000D03*
X81000000Y-50500000D03*
X93500000Y-58500000D03*
X212000000Y-76500000D03*
X214000000Y-125500000D03*
%TO.N,VREF*%
X182000000Y-70000000D03*
X181675000Y-66825000D03*
X198000000Y-68080000D03*
X208500000Y-69000000D03*
X100500000Y-109500000D03*
X119000000Y-127500000D03*
%TO.N,GND*%
X100500000Y-104500000D03*
X191500000Y-93000000D03*
X111000000Y-134500000D03*
X119000000Y-130500000D03*
X108750000Y-118750000D03*
X103500000Y-123200000D03*
X102500000Y-123000000D03*
X110000000Y-119500000D03*
X66500000Y-103500000D03*
X72000000Y-101500000D03*
X79500000Y-105500000D03*
X79500000Y-91500000D03*
X87000000Y-109000000D03*
X87000000Y-103000000D03*
X87000000Y-97000000D03*
X87000000Y-91000000D03*
X99500000Y-90500000D03*
X98500000Y-109000000D03*
X85000000Y-81000000D03*
X89000000Y-81000000D03*
X79500000Y-68500000D03*
X68000000Y-69000000D03*
X75000000Y-66000000D03*
X70500000Y-73325000D03*
X69000000Y-75500000D03*
X90000000Y-76000000D03*
X93500000Y-72500000D03*
X124000000Y-63000000D03*
X118000000Y-58500000D03*
X117000000Y-57500000D03*
X113500000Y-65000000D03*
X134500000Y-59500000D03*
X132500000Y-63000000D03*
X144000000Y-54500000D03*
X143500000Y-58000000D03*
X150000000Y-62000000D03*
X150000000Y-64500000D03*
X145000000Y-65500000D03*
X134730000Y-75730000D03*
X133480000Y-76980000D03*
X143000000Y-74500000D03*
X161500000Y-74000000D03*
X181687500Y-61500000D03*
X177600000Y-66500000D03*
X185500000Y-63000000D03*
X188000000Y-67000000D03*
X188000000Y-76500000D03*
X201000000Y-70400000D03*
X206250000Y-62750000D03*
X204500000Y-61000000D03*
X201000000Y-87500000D03*
X208980000Y-92980000D03*
X201000000Y-110500000D03*
X207000000Y-121000000D03*
X204000000Y-130500000D03*
X82500000Y-52000000D03*
X82500000Y-54000000D03*
%TO.N,RXMUTE*%
X76000000Y-73000000D03*
%TO.N,SMETER*%
X152000000Y-57500000D03*
%TO.N,CWMUTE*%
X167000000Y-81000000D03*
%TO.N,SSBMUTE*%
X170000000Y-59000000D03*
%TD*%
D52*
%TO.N,Net-(C109-Pad2)*%
X169500000Y-69000000D02*
X171500000Y-71000000D01*
D53*
X209000000Y-129910000D02*
X209000000Y-130500000D01*
X207540000Y-128450000D02*
X209000000Y-129910000D01*
D52*
%TO.N,Net-(C84-Pad1)*%
X196175000Y-59000000D02*
X196175000Y-62775000D01*
X196175000Y-62775000D02*
X195950000Y-63000000D01*
%TO.N,Net-(U8B--)*%
X200500000Y-59500000D02*
X198500000Y-59500000D01*
X198500000Y-59500000D02*
X198000000Y-59000000D01*
X195950000Y-64270000D02*
X197230000Y-64270000D01*
X197230000Y-64270000D02*
X200500000Y-61000000D01*
X200500000Y-61000000D02*
X200500000Y-59500000D01*
%TO.N,/Sheet62579414/J*%
X181500000Y-89000000D02*
X181500000Y-85600000D01*
X181500000Y-85600000D02*
X182100000Y-85000000D01*
X177400000Y-89000000D02*
X181500000Y-89000000D01*
X176000000Y-92500000D02*
X176000000Y-90400000D01*
X176000000Y-90400000D02*
X177400000Y-89000000D01*
D53*
%TO.N,Net-(U7C-+)*%
X202100000Y-133000000D02*
X196325000Y-133000000D01*
X196325000Y-133000000D02*
X195825000Y-133500000D01*
%TO.N,+12V*%
X100500000Y-94000000D02*
X101000000Y-94500000D01*
X99500000Y-94000000D02*
X100500000Y-94000000D01*
D52*
%TO.N,Net-(C93-Pad2)*%
X131750000Y-57250000D02*
X133250000Y-57250000D01*
X133250000Y-57250000D02*
X133500000Y-57500000D01*
X131500000Y-57500000D02*
X131750000Y-57250000D01*
X142000000Y-79500000D02*
X141500000Y-79000000D01*
X143000000Y-79500000D02*
X142000000Y-79500000D01*
X143500000Y-80000000D02*
X143000000Y-79500000D01*
%TO.N,+12V*%
X81000000Y-71825000D02*
X81675000Y-71825000D01*
X81675000Y-71825000D02*
X83500000Y-70000000D01*
X81000000Y-71825000D02*
X82725000Y-73550000D01*
X82725000Y-73550000D02*
X86550000Y-73550000D01*
X86550000Y-73550000D02*
X87500000Y-74500000D01*
X87500000Y-74500000D02*
X87500000Y-77000000D01*
X95000000Y-77000000D02*
X99500000Y-72500000D01*
X87500000Y-77000000D02*
X95000000Y-77000000D01*
D53*
%TO.N,Net-(C82-Pad2)*%
X208000000Y-119400000D02*
X205600000Y-117000000D01*
X205600000Y-117000000D02*
X205500000Y-117000000D01*
%TO.N,VREF*%
X101500000Y-99000000D02*
X106500000Y-99000000D01*
X101080000Y-97050000D02*
X101080000Y-98580000D01*
X101080000Y-98580000D02*
X101500000Y-99000000D01*
X100500000Y-99000000D02*
X101080000Y-98420000D01*
X101080000Y-98420000D02*
X101080000Y-97050000D01*
X99000000Y-99000000D02*
X100500000Y-99000000D01*
X98540000Y-97050000D02*
X98540000Y-98540000D01*
X98540000Y-98540000D02*
X99000000Y-99000000D01*
X98540000Y-100960000D02*
X99000000Y-100500000D01*
X98540000Y-102000000D02*
X98540000Y-100960000D01*
X99000000Y-100500000D02*
X100554999Y-100500000D01*
X100554999Y-100500000D02*
X101080000Y-101025001D01*
X101080000Y-101025001D02*
X101080000Y-102000000D01*
D52*
%TO.N,GND*%
X194100000Y-125500000D02*
X192500000Y-125500000D01*
X197000000Y-101975000D02*
X197000000Y-104000000D01*
X128375000Y-130500000D02*
X130500000Y-130500000D01*
X124000000Y-67770000D02*
X122770000Y-67770000D01*
X122500000Y-67500000D02*
X122500000Y-65500000D01*
X122770000Y-67770000D02*
X122500000Y-67500000D01*
X122500000Y-65500000D02*
X122770000Y-65230000D01*
X122770000Y-65230000D02*
X124000000Y-65230000D01*
X160000000Y-56462500D02*
X161312500Y-56462500D01*
D53*
%TO.N,Net-(U5A-+)*%
X198270000Y-97025000D02*
X198337500Y-96957500D01*
X198337500Y-96957500D02*
X198337500Y-90804900D01*
X198337500Y-90804900D02*
X196532600Y-89000000D01*
X196532600Y-89000000D02*
X186400000Y-89000000D01*
D52*
%TO.N,+12V*%
X212250000Y-64250000D02*
X200500000Y-52500000D01*
X201250000Y-67250000D02*
X200125000Y-66125000D01*
X215500000Y-83000000D02*
X215500000Y-67500000D01*
X215500000Y-94500000D02*
X215500000Y-83000000D01*
X154375000Y-64375000D02*
X154000000Y-64000000D01*
X156500000Y-64375000D02*
X154375000Y-64375000D01*
X154000000Y-64000000D02*
X154000000Y-54325000D01*
X154000000Y-54325000D02*
X152000000Y-52325000D01*
X132000000Y-81000000D02*
X133500000Y-82500000D01*
X133500000Y-82500000D02*
X151500000Y-82500000D01*
X151500000Y-82500000D02*
X153500000Y-80500000D01*
X153500000Y-80500000D02*
X153500000Y-71000000D01*
X153500000Y-71000000D02*
X154950000Y-69550000D01*
X154950000Y-69550000D02*
X156500000Y-69550000D01*
X129500000Y-73000000D02*
X129500000Y-72500000D01*
X129500000Y-72500000D02*
X129675000Y-72325000D01*
X129675000Y-72325000D02*
X129675000Y-61000000D01*
X127000000Y-78500000D02*
X114500000Y-78500000D01*
X130500000Y-78500000D02*
X127000000Y-78500000D01*
X127000000Y-78500000D02*
X127000000Y-75500000D01*
X127000000Y-75500000D02*
X129500000Y-73000000D01*
X132000000Y-81000000D02*
X132000000Y-80000000D01*
X132000000Y-80000000D02*
X130500000Y-78500000D01*
X114500000Y-78500000D02*
X111000000Y-75000000D01*
X111000000Y-75000000D02*
X111000000Y-72500000D01*
%TO.N,GND*%
X128600000Y-79500000D02*
X128500000Y-79500000D01*
X130100000Y-81000000D02*
X128600000Y-79500000D01*
%TO.N,+12V*%
X149875000Y-54450000D02*
X152000000Y-52325000D01*
X152000000Y-52325000D02*
X152000000Y-51500000D01*
X111000000Y-72500000D02*
X99500000Y-72500000D01*
X117000000Y-66500000D02*
X111000000Y-72500000D01*
X149500000Y-49000000D02*
X99500000Y-49000000D01*
X99500000Y-49000000D02*
X88000000Y-49000000D01*
X99500000Y-72500000D02*
X99500000Y-49000000D01*
X88000000Y-49000000D02*
X85500000Y-49000000D01*
X88000000Y-51000000D02*
X88000000Y-49000000D01*
X85500000Y-51000000D02*
X85500000Y-49000000D01*
X206500000Y-140000000D02*
X200500000Y-140000000D01*
X215500000Y-120500000D02*
X215500000Y-94500000D01*
X215500000Y-67500000D02*
X212250000Y-64250000D01*
X198500000Y-138000000D02*
X136500000Y-138000000D01*
X200500000Y-52500000D02*
X200500000Y-51500000D01*
X152000000Y-51500000D02*
X149500000Y-49000000D01*
X200500000Y-51500000D02*
X152000000Y-51500000D01*
X215500000Y-120500000D02*
X215500000Y-131000000D01*
X215500000Y-131000000D02*
X206500000Y-140000000D01*
X200500000Y-140000000D02*
X198500000Y-138000000D01*
D53*
X202500000Y-121100000D02*
X202500000Y-121500000D01*
X203600000Y-120000000D02*
X202500000Y-121100000D01*
D52*
X136500000Y-128500000D02*
X136500000Y-135500000D01*
X132500000Y-127600000D02*
X135600000Y-127600000D01*
X135600000Y-127600000D02*
X136500000Y-128500000D01*
%TO.N,GND*%
X198100000Y-86000000D02*
X198500000Y-86000000D01*
X198550000Y-85950000D02*
X201000000Y-85950000D01*
X197500000Y-85400000D02*
X198100000Y-86000000D01*
X198500000Y-86000000D02*
X198550000Y-85950000D01*
%TO.N,+12V*%
X197500000Y-83500000D02*
X198000000Y-83000000D01*
X198000000Y-83000000D02*
X201000000Y-83000000D01*
%TO.N,GND*%
X99950000Y-130450000D02*
X100000000Y-130500000D01*
X99950000Y-128950000D02*
X99950000Y-130450000D01*
D54*
%TO.N,+5V*%
X81500000Y-125500000D02*
X100000000Y-125500000D01*
X100000000Y-125500000D02*
X102500000Y-125500000D01*
D52*
X99950000Y-125550000D02*
X100000000Y-125500000D01*
X99950000Y-127050000D02*
X99950000Y-125550000D01*
%TO.N,GND*%
X82500000Y-52000000D02*
X81000000Y-50500000D01*
X80400000Y-51100000D02*
X81000000Y-50500000D01*
X79000000Y-51100000D02*
X80400000Y-51100000D01*
%TO.N,Net-(J6-Pin_3)*%
X106500000Y-50500000D02*
X116000000Y-50500000D01*
X116960000Y-51460000D02*
X116960000Y-52500000D01*
X105920000Y-52420000D02*
X105920000Y-51080000D01*
X105920000Y-51080000D02*
X106500000Y-50500000D01*
X116000000Y-50500000D02*
X116960000Y-51460000D01*
D53*
%TO.N,GND*%
X93500000Y-60175000D02*
X93500000Y-58500000D01*
X212000000Y-75000000D02*
X212000000Y-76500000D01*
%TO.N,VREF*%
X209000000Y-76500000D02*
X209000000Y-73000000D01*
X209000000Y-73000000D02*
X209000000Y-69500000D01*
X212000000Y-73100000D02*
X209100000Y-73100000D01*
X209100000Y-73100000D02*
X209000000Y-73000000D01*
%TO.N,GND*%
X213900000Y-125600000D02*
X214000000Y-125500000D01*
X213900000Y-127500000D02*
X213900000Y-125600000D01*
%TO.N,VREF*%
X210000000Y-126000000D02*
X210000000Y-127500000D01*
X210000000Y-127500000D02*
X210000000Y-133500000D01*
X212000000Y-127500000D02*
X210000000Y-127500000D01*
X183675000Y-70000000D02*
X182000000Y-70000000D01*
X181675000Y-65500000D02*
X181675000Y-66825000D01*
D52*
X198000000Y-68080000D02*
X195950000Y-68080000D01*
D53*
X209000000Y-69500000D02*
X208500000Y-69000000D01*
X213500000Y-81000000D02*
X209000000Y-76500000D01*
X211500000Y-114500000D02*
X213000000Y-114500000D01*
X213500000Y-114000000D02*
X213500000Y-81000000D01*
X213000000Y-114500000D02*
X213500000Y-114000000D01*
X127000000Y-137000000D02*
X126000000Y-136000000D01*
X199000000Y-137000000D02*
X127000000Y-137000000D01*
X210000000Y-133500000D02*
X205000000Y-138500000D01*
X200500000Y-138500000D02*
X199000000Y-137000000D01*
X126000000Y-131000000D02*
X126500000Y-130500000D01*
X205000000Y-138500000D02*
X200500000Y-138500000D01*
X126000000Y-136000000D02*
X126000000Y-131000000D01*
D52*
X122500000Y-127500000D02*
X119000000Y-127500000D01*
D53*
X100500000Y-107050000D02*
X100500000Y-109500000D01*
X98500000Y-105050000D02*
X100500000Y-107050000D01*
%TO.N,GND*%
X193600000Y-93000000D02*
X191500000Y-93000000D01*
D52*
%TO.N,+12V*%
X197000000Y-97025000D02*
X197000000Y-94500000D01*
X197000000Y-94500000D02*
X195500000Y-93000000D01*
D53*
%TO.N,Net-(U5B--)*%
X194500000Y-92000000D02*
X195000000Y-91500000D01*
X194460000Y-94540000D02*
X194500000Y-94500000D01*
X194500000Y-94500000D02*
X194500000Y-92000000D01*
X195000000Y-91500000D02*
X197500000Y-91500000D01*
D52*
%TO.N,GND*%
X111000000Y-134500000D02*
X114500000Y-134500000D01*
X114500000Y-134500000D02*
X117040000Y-134500000D01*
X107700000Y-134500000D02*
X111000000Y-134500000D01*
X122500000Y-130500000D02*
X119000000Y-130500000D01*
X108750000Y-118750000D02*
X109500000Y-119500000D01*
X103500000Y-123200000D02*
X102700000Y-123200000D01*
X102700000Y-123200000D02*
X102500000Y-123000000D01*
X105000000Y-123200000D02*
X103500000Y-123200000D01*
X109500000Y-119500000D02*
X110000000Y-119500000D01*
X107500000Y-117500000D02*
X108750000Y-118750000D01*
X99500000Y-92100000D02*
X99500000Y-90500000D01*
X99810000Y-103810000D02*
X100500000Y-104500000D01*
X99810000Y-102000000D02*
X99810000Y-103810000D01*
X98500000Y-106950000D02*
X98500000Y-109000000D01*
X68500000Y-103500000D02*
X66500000Y-103500000D01*
X72675000Y-102175000D02*
X72000000Y-101500000D01*
X74025000Y-102175000D02*
X72675000Y-102175000D01*
X79500000Y-103970000D02*
X79500000Y-105500000D01*
X78975000Y-103445000D02*
X79500000Y-103970000D01*
X84950000Y-103000000D02*
X87000000Y-103000000D01*
X84950000Y-109000000D02*
X87000000Y-109000000D01*
X79500000Y-94030000D02*
X79500000Y-91500000D01*
X78975000Y-94555000D02*
X79500000Y-94030000D01*
X84950000Y-97000000D02*
X87000000Y-97000000D01*
X84900000Y-91000000D02*
X87000000Y-91000000D01*
X85000000Y-81000000D02*
X87000000Y-81000000D01*
X87000000Y-81000000D02*
X89000000Y-81000000D01*
X83500000Y-81000000D02*
X85000000Y-81000000D01*
X82500000Y-54000000D02*
X82500000Y-53000000D01*
X82500000Y-53000000D02*
X82500000Y-52000000D01*
X85500000Y-52900000D02*
X82600000Y-52900000D01*
X82600000Y-52900000D02*
X82500000Y-53000000D01*
X78700000Y-69300000D02*
X79500000Y-68500000D01*
X77625000Y-69300000D02*
X78700000Y-69300000D01*
X70500000Y-73325000D02*
X71925000Y-73325000D01*
X69000000Y-75500000D02*
X69000000Y-75840000D01*
X118000000Y-58500000D02*
X118550000Y-59050000D01*
X135600000Y-59500000D02*
X134500000Y-59500000D01*
X136100000Y-60000000D02*
X135600000Y-59500000D01*
X143500000Y-58000000D02*
X143500000Y-56625000D01*
X150000000Y-62000000D02*
X150000000Y-64500000D01*
X145000000Y-65500000D02*
X145500000Y-66000000D01*
X134730000Y-75730000D02*
X133480000Y-76980000D01*
X133480000Y-76980000D02*
X133460000Y-77000000D01*
X181687500Y-61500000D02*
X181687500Y-60012500D01*
X177600000Y-66500000D02*
X177600000Y-67987500D01*
X201000000Y-70400000D02*
X202400000Y-70400000D01*
X206250000Y-62750000D02*
X204500000Y-61000000D01*
X204500000Y-61000000D02*
X203000000Y-59500000D01*
X206500000Y-121000000D02*
X207000000Y-121000000D01*
X205500000Y-120000000D02*
X206500000Y-121000000D01*
D53*
X204000000Y-130500000D02*
X204000000Y-128720000D01*
D52*
X201000000Y-112500000D02*
X201000000Y-110500000D01*
X208980000Y-92980000D02*
X209000000Y-93000000D01*
X208980000Y-90480000D02*
X208980000Y-92980000D01*
X201000000Y-85950000D02*
X201000000Y-87500000D01*
X206500000Y-65500000D02*
X206500000Y-63000000D01*
X206500000Y-63000000D02*
X206250000Y-62750000D01*
X203000000Y-59500000D02*
X202325000Y-59500000D01*
X199500000Y-70400000D02*
X201000000Y-70400000D01*
X202400000Y-70400000D02*
X202500000Y-70500000D01*
X188190000Y-66810000D02*
X188000000Y-67000000D01*
X191000000Y-66810000D02*
X188190000Y-66810000D01*
X189675000Y-76500000D02*
X188000000Y-76500000D01*
X185500000Y-63500000D02*
X185500000Y-63000000D01*
X186000000Y-64000000D02*
X185500000Y-63500000D01*
X181687500Y-63000000D02*
X181687500Y-61500000D01*
X181687500Y-60012500D02*
X181675000Y-60000000D01*
X177600000Y-65000000D02*
X177600000Y-66500000D01*
X177600000Y-67987500D02*
X177587500Y-68000000D01*
X161450000Y-74050000D02*
X161500000Y-74000000D01*
X161450000Y-76012500D02*
X161450000Y-74050000D01*
X158375000Y-76012500D02*
X161450000Y-76012500D01*
X161450000Y-76012500D02*
X161500000Y-76062500D01*
X158287500Y-56462500D02*
X160000000Y-56462500D01*
X161312500Y-56462500D02*
X161912500Y-57062500D01*
X143375000Y-55125000D02*
X144000000Y-54500000D01*
X143375000Y-56500000D02*
X143375000Y-55125000D01*
X143500000Y-59500000D02*
X143500000Y-58000000D01*
X143500000Y-56625000D02*
X143375000Y-56500000D01*
X150000000Y-60000000D02*
X150000000Y-62000000D01*
X150000000Y-64500000D02*
X148550000Y-65950000D01*
X148550000Y-65950000D02*
X147000000Y-65950000D01*
X144050000Y-64550000D02*
X145000000Y-65500000D01*
X143400000Y-64550000D02*
X144050000Y-64550000D01*
X145500000Y-66000000D02*
X145550000Y-65950000D01*
X145550000Y-65950000D02*
X147000000Y-65950000D01*
X145000000Y-74500000D02*
X143000000Y-74500000D01*
X135960000Y-74500000D02*
X134730000Y-75730000D01*
X133460000Y-77000000D02*
X131825000Y-77000000D01*
X132500000Y-65000000D02*
X132500000Y-63000000D01*
X124000000Y-65230000D02*
X124000000Y-63000000D01*
X114600000Y-65000000D02*
X113500000Y-65000000D01*
X115400000Y-57500000D02*
X117000000Y-57500000D01*
X117000000Y-57500000D02*
X118000000Y-58500000D01*
X118550000Y-59050000D02*
X118550000Y-60500000D01*
%TO.N,Net-(J6-Pin_1)*%
X109825000Y-57175000D02*
X110500000Y-56500000D01*
X111000000Y-55500000D02*
X111000000Y-52420000D01*
X109825000Y-58500000D02*
X109825000Y-57175000D01*
X110500000Y-56500000D02*
X110500000Y-56000000D01*
X110500000Y-56000000D02*
X111000000Y-55500000D01*
%TO.N,GND*%
X93500000Y-70950000D02*
X93500000Y-72500000D01*
X90000000Y-74825000D02*
X90000000Y-76000000D01*
X69000000Y-73325000D02*
X70500000Y-73325000D01*
X71925000Y-73325000D02*
X72000000Y-73400000D01*
X69000000Y-73325000D02*
X69000000Y-75500000D01*
X69000000Y-75840000D02*
X67150000Y-77690000D01*
X69500000Y-69000000D02*
X68000000Y-69000000D01*
X74650000Y-66350000D02*
X75000000Y-66000000D01*
X72650000Y-66350000D02*
X74650000Y-66350000D01*
%TO.N,Net-(Q3-S)*%
X88500000Y-73000000D02*
X88000000Y-72500000D01*
X90000000Y-73000000D02*
X88500000Y-73000000D01*
X88000000Y-72500000D02*
X87900000Y-72600000D01*
X87900000Y-72600000D02*
X85000000Y-72600000D01*
X90000000Y-69500000D02*
X90000000Y-73000000D01*
%TO.N,Net-(C10-Pad1)*%
X88000000Y-55500000D02*
X89500000Y-57000000D01*
X89500000Y-57000000D02*
X89500000Y-57500000D01*
X88000000Y-54500000D02*
X88000000Y-55500000D01*
X89500000Y-57500000D02*
X89825000Y-57825000D01*
X89825000Y-57825000D02*
X89825000Y-58500000D01*
%TO.N,Net-(L3-Pad2)*%
X89825000Y-51000000D02*
X89825000Y-54200000D01*
X89825000Y-54200000D02*
X90125000Y-54500000D01*
%TO.N,RXMUTE*%
X75750000Y-72750000D02*
X76000000Y-73000000D01*
X75750000Y-70250000D02*
X75750000Y-72750000D01*
%TO.N,SMETER*%
X148175000Y-57500000D02*
X152000000Y-57500000D01*
X148175000Y-60000000D02*
X148175000Y-57500000D01*
X148175000Y-57500000D02*
X148175000Y-55575000D01*
%TO.N,CWMUTE*%
X166875000Y-80875000D02*
X167000000Y-81000000D01*
X166875000Y-78462500D02*
X166875000Y-80875000D01*
%TO.N,SSBMUTE*%
X169962500Y-58962500D02*
X170000000Y-59000000D01*
X167412500Y-58962500D02*
X169962500Y-58962500D01*
X167325000Y-55962500D02*
X167325000Y-58875000D01*
X167325000Y-58875000D02*
X167412500Y-58962500D01*
D54*
%TO.N,+5V*%
X102500000Y-125500000D02*
X105000000Y-125500000D01*
D52*
X120120000Y-136500000D02*
X103000000Y-136500000D01*
X122120000Y-134500000D02*
X120120000Y-136500000D01*
X103000000Y-136500000D02*
X102500000Y-136000000D01*
X102500000Y-136000000D02*
X102500000Y-125500000D01*
X124660000Y-134500000D02*
X122120000Y-134500000D01*
D53*
%TO.N,SCL*%
X82460000Y-116500000D02*
X82460000Y-117960000D01*
X82460000Y-117960000D02*
X84500000Y-120000000D01*
X84500000Y-120000000D02*
X98500000Y-120000000D01*
X98500000Y-120000000D02*
X100500000Y-118000000D01*
X100500000Y-118000000D02*
X100500000Y-114500000D01*
X100500000Y-114500000D02*
X101000000Y-114000000D01*
X101000000Y-114000000D02*
X108500000Y-114000000D01*
X108500000Y-114000000D02*
X117500000Y-123000000D01*
X117500000Y-123000000D02*
X142000000Y-123000000D01*
X142000000Y-123000000D02*
X149840000Y-130840000D01*
X149840000Y-130840000D02*
X149840000Y-134500000D01*
%TO.N,SDA*%
X147300000Y-134500000D02*
X147300000Y-129800000D01*
X147300000Y-129800000D02*
X141500000Y-124000000D01*
X141500000Y-124000000D02*
X117000000Y-124000000D01*
X117000000Y-124000000D02*
X108000000Y-115000000D01*
X108000000Y-115000000D02*
X102000000Y-115000000D01*
X102000000Y-115000000D02*
X101500000Y-115500000D01*
X101500000Y-115500000D02*
X101500000Y-118500000D01*
X101500000Y-118500000D02*
X99000000Y-121000000D01*
X99000000Y-121000000D02*
X83000000Y-121000000D01*
X83000000Y-121000000D02*
X79920000Y-117920000D01*
X79920000Y-117920000D02*
X79920000Y-116500000D01*
%TO.N,Net-(U8A--)*%
X195950000Y-69350000D02*
X196100000Y-69500000D01*
X207000000Y-69500000D02*
X207500000Y-70000000D01*
X207500000Y-70000000D02*
X207500000Y-76500000D01*
X206500000Y-77500000D02*
X203175000Y-77500000D01*
X196100000Y-69500000D02*
X207000000Y-69500000D01*
X207500000Y-76500000D02*
X206500000Y-77500000D01*
D52*
%TO.N,+12V*%
X201500000Y-67600000D02*
X201500000Y-67500000D01*
X202500000Y-68600000D02*
X201500000Y-67600000D01*
X201500000Y-67500000D02*
X201250000Y-67250000D01*
X200125000Y-66125000D02*
X200125000Y-65770000D01*
%TO.N,VREF*%
X199500000Y-68500000D02*
X199000000Y-68000000D01*
X199000000Y-68000000D02*
X198920000Y-68080000D01*
X198920000Y-68080000D02*
X198000000Y-68080000D01*
%TO.N,Net-(U8A--)*%
X203175000Y-79500000D02*
X203175000Y-77500000D01*
X203175000Y-77500000D02*
X203175000Y-76087500D01*
%TO.N,Net-(U8B-+)*%
X205000000Y-68000000D02*
X205000000Y-67500000D01*
X205500000Y-68500000D02*
X205000000Y-68000000D01*
X205000000Y-67500000D02*
X204675000Y-67175000D01*
X204675000Y-67175000D02*
X204675000Y-65500000D01*
%TO.N,Net-(C73-Pad2)*%
X203100000Y-73000000D02*
X203100000Y-72800000D01*
X203100000Y-72800000D02*
X205500000Y-70400000D01*
%TO.N,Net-(U8D--)*%
X192500000Y-72000000D02*
X192500000Y-70000000D01*
X191500000Y-74000000D02*
X191500000Y-73000000D01*
X191500000Y-73000000D02*
X192500000Y-72000000D01*
X192500000Y-70000000D02*
X191850000Y-69350000D01*
X191850000Y-69350000D02*
X191000000Y-69350000D01*
D53*
%TO.N,Net-(C73-Pad1)*%
X204912500Y-74500000D02*
X201500000Y-74500000D01*
X201500000Y-74500000D02*
X201000000Y-75000000D01*
X201000000Y-75000000D02*
X201000000Y-76500000D01*
X201000000Y-76500000D02*
X200000000Y-77500000D01*
X200000000Y-77500000D02*
X198500000Y-77500000D01*
X198500000Y-77500000D02*
X198012500Y-77012500D01*
X198012500Y-77012500D02*
X198012500Y-74012500D01*
X198012500Y-74012500D02*
X196000000Y-72000000D01*
X196000000Y-72000000D02*
X196000000Y-71500000D01*
X196000000Y-71500000D02*
X195950000Y-71450000D01*
X195950000Y-71450000D02*
X195950000Y-70620000D01*
D52*
%TO.N,+12V*%
X138500000Y-78000000D02*
X134500000Y-78000000D01*
X138500000Y-79650000D02*
X138500000Y-78000000D01*
X134500000Y-78000000D02*
X134500000Y-78500000D01*
X134500000Y-78500000D02*
X132000000Y-81000000D01*
X118850000Y-66500000D02*
X117000000Y-66500000D01*
X117000000Y-66500000D02*
X116500000Y-66000000D01*
X116500000Y-66000000D02*
X116500000Y-65000000D01*
%TO.N,Net-(U10-BYPASS)*%
X121500000Y-66500000D02*
X121500000Y-60500000D01*
%TO.N,+12V*%
X206000000Y-83000000D02*
X206500000Y-83500000D01*
X201000000Y-83000000D02*
X206000000Y-83000000D01*
X206500000Y-83500000D02*
X206440000Y-83560000D01*
X206440000Y-83560000D02*
X206440000Y-85330000D01*
%TO.N,Net-(C105-Pad1)*%
X182550000Y-78000000D02*
X181550000Y-77000000D01*
X181550000Y-77000000D02*
X180500000Y-77000000D01*
X180500000Y-77000000D02*
X178000000Y-74500000D01*
X178000000Y-74500000D02*
X178000000Y-73000000D01*
X178000000Y-73000000D02*
X169375000Y-64375000D01*
X169375000Y-64375000D02*
X163000000Y-64375000D01*
D53*
%TO.N,Net-(C96-Pad2)*%
X186100000Y-58000000D02*
X180000000Y-58000000D01*
X180000000Y-58000000D02*
X178575000Y-59425000D01*
X178575000Y-59425000D02*
X178575000Y-70575000D01*
X178575000Y-70575000D02*
X180500000Y-72500000D01*
X180500000Y-72500000D02*
X183675000Y-72500000D01*
X183675000Y-72500000D02*
X183675000Y-74925000D01*
X183675000Y-74925000D02*
X183600000Y-75000000D01*
%TO.N,Net-(U8D-+)*%
X179412500Y-68000000D02*
X179412500Y-67587500D01*
X179412500Y-67587500D02*
X179500000Y-67500000D01*
X179500000Y-67500000D02*
X179500000Y-65000000D01*
X185500000Y-69000000D02*
X185000000Y-68500000D01*
X185000000Y-68500000D02*
X184500000Y-68500000D01*
X185500000Y-70000000D02*
X185500000Y-69000000D01*
X184500000Y-68500000D02*
X184000000Y-68000000D01*
X184000000Y-68000000D02*
X179412500Y-68000000D01*
%TO.N,Net-(C84-Pad2)*%
X194050000Y-79500000D02*
X194050000Y-76875000D01*
X194050000Y-76875000D02*
X194000000Y-76825000D01*
%TO.N,Net-(C105-Pad2)*%
X185500000Y-75000000D02*
X186500000Y-74000000D01*
X186500000Y-74000000D02*
X189675000Y-74000000D01*
X185500000Y-78000000D02*
X185500000Y-75000000D01*
%TO.N,Net-(C89-Pad1)*%
X191500000Y-55000000D02*
X190000000Y-55000000D01*
X188000000Y-57000000D02*
X188000000Y-58000000D01*
X190000000Y-55000000D02*
X188000000Y-57000000D01*
%TO.N,Net-(C89-Pad2)*%
X193400000Y-55000000D02*
X193400000Y-58900000D01*
X193400000Y-58900000D02*
X193412500Y-58912500D01*
%TO.N,Net-(U8D-+)*%
X185500000Y-70000000D02*
X185500000Y-72500000D01*
X191000000Y-68080000D02*
X187920000Y-68080000D01*
X187920000Y-68080000D02*
X186000000Y-70000000D01*
X186000000Y-70000000D02*
X185500000Y-70000000D01*
%TO.N,Net-(U8C-+)*%
X183587500Y-63000000D02*
X183587500Y-60087500D01*
X183587500Y-60087500D02*
X183500000Y-60000000D01*
X183500000Y-65500000D02*
X183500000Y-63087500D01*
X183500000Y-63087500D02*
X183587500Y-63000000D01*
X191000000Y-65540000D02*
X183540000Y-65540000D01*
X183540000Y-65540000D02*
X183500000Y-65500000D01*
%TO.N,Net-(C89-Pad1)*%
X187912500Y-61000000D02*
X187912500Y-58087500D01*
X187912500Y-58087500D02*
X188000000Y-58000000D01*
%TO.N,Net-(U8C--)*%
X186500000Y-62500000D02*
X187500000Y-62500000D01*
X187500000Y-62500000D02*
X187500000Y-63675000D01*
X186087500Y-61000000D02*
X186087500Y-62087500D01*
X186087500Y-62087500D02*
X186500000Y-62500000D01*
X187500000Y-63675000D02*
X187825000Y-64000000D01*
%TO.N,Net-(C89-Pad1)*%
X191000000Y-63000000D02*
X190500000Y-63000000D01*
X190500000Y-63000000D02*
X188500000Y-61000000D01*
X188500000Y-61000000D02*
X187912500Y-61000000D01*
%TO.N,Net-(U8C--)*%
X190730000Y-64000000D02*
X191000000Y-64270000D01*
X187825000Y-64000000D02*
X190730000Y-64000000D01*
%TO.N,Net-(U8C-+)*%
X191000000Y-65540000D02*
X191960000Y-65540000D01*
X191960000Y-65540000D02*
X192500000Y-65000000D01*
X192500000Y-65000000D02*
X192500000Y-60500000D01*
X192500000Y-60500000D02*
X191587500Y-59587500D01*
X191587500Y-59587500D02*
X191587500Y-58912500D01*
%TO.N,Net-(C89-Pad2)*%
X194000000Y-75000000D02*
X194000000Y-74000000D01*
X194000000Y-74000000D02*
X193412500Y-73412500D01*
X193412500Y-73412500D02*
X193412500Y-58912500D01*
%TO.N,Net-(C84-Pad1)*%
X197175000Y-76000000D02*
X197175000Y-76325000D01*
X197175000Y-76325000D02*
X197000000Y-76500000D01*
X197000000Y-76500000D02*
X197000000Y-79500000D01*
D52*
%TO.N,Net-(C105-Pad1)*%
X163000000Y-64500000D02*
X163000000Y-64375000D01*
%TO.N,Net-(U8D--)*%
X191500000Y-74000000D02*
X191500000Y-76500000D01*
%TO.N,Net-(C105-Pad2)*%
X189880000Y-70620000D02*
X189500000Y-71000000D01*
X189675000Y-71175000D02*
X189675000Y-74000000D01*
X191000000Y-70620000D02*
X189880000Y-70620000D01*
X189500000Y-71000000D02*
X189675000Y-71175000D01*
D53*
%TO.N,Net-(C84-Pad1)*%
X197175000Y-75175000D02*
X194000000Y-72000000D01*
X197175000Y-76000000D02*
X197175000Y-75175000D01*
X194000000Y-72000000D02*
X194000000Y-63975001D01*
X194000000Y-63975001D02*
X194975001Y-63000000D01*
X194975001Y-63000000D02*
X195950000Y-63000000D01*
D52*
%TO.N,Net-(C73-Pad1)*%
X204912500Y-76000000D02*
X204912500Y-74500000D01*
X204912500Y-74500000D02*
X204912500Y-73087500D01*
%TO.N,Net-(D5-A)*%
X165287500Y-58962500D02*
X165287500Y-56175000D01*
X165287500Y-56175000D02*
X165500000Y-55962500D01*
X161912500Y-58962500D02*
X165287500Y-58962500D01*
X158287500Y-58787500D02*
X158500000Y-59000000D01*
X158287500Y-58362500D02*
X158287500Y-58787500D01*
X158500000Y-59000000D02*
X158537500Y-58962500D01*
X158537500Y-58962500D02*
X161912500Y-58962500D01*
%TO.N,Net-(Q5-Pad3)*%
X148000000Y-53500000D02*
X146500000Y-53500000D01*
X146500000Y-53500000D02*
X145500000Y-54500000D01*
X145500000Y-54500000D02*
X145500000Y-60500000D01*
X145500000Y-60500000D02*
X144125000Y-61875000D01*
X144125000Y-61875000D02*
X137050000Y-61875000D01*
%TO.N,SMETER*%
X148175000Y-55575000D02*
X148000000Y-55400000D01*
%TO.N,Net-(Q4-G)*%
X147000000Y-63000000D02*
X142000000Y-63000000D01*
X142000000Y-63000000D02*
X141000000Y-64000000D01*
X141000000Y-64000000D02*
X141000000Y-65500000D01*
%TO.N,Net-(D1-A)*%
X127200000Y-133800000D02*
X128000000Y-133000000D01*
X127200000Y-134500000D02*
X127200000Y-133800000D01*
X132500000Y-130400000D02*
X132500000Y-133000000D01*
X132500000Y-133000000D02*
X132500000Y-134280000D01*
X128000000Y-133000000D02*
X132500000Y-133000000D01*
X132500000Y-134280000D02*
X132280000Y-134500000D01*
D54*
%TO.N,+12V*%
X104700000Y-134500000D02*
X104700000Y-130000000D01*
X104700000Y-130000000D02*
X104700000Y-128100000D01*
D52*
X115500000Y-129500000D02*
X105200000Y-129500000D01*
X128500000Y-127500000D02*
X128500000Y-126000000D01*
X118000000Y-125500000D02*
X115500000Y-128000000D01*
X128500000Y-126000000D02*
X128000000Y-125500000D01*
X128000000Y-125500000D02*
X118000000Y-125500000D01*
X115500000Y-128000000D02*
X115500000Y-129500000D01*
X105200000Y-129500000D02*
X104700000Y-130000000D01*
X128500000Y-127500000D02*
X132400000Y-127500000D01*
X132400000Y-127500000D02*
X132500000Y-127600000D01*
%TO.N,VREF*%
X126500000Y-130500000D02*
X126500000Y-127675000D01*
X126500000Y-127675000D02*
X126675000Y-127500000D01*
X122500000Y-127500000D02*
X126675000Y-127500000D01*
D54*
%TO.N,Net-(C1-Pad2)*%
X72650000Y-59850000D02*
X75750000Y-59850000D01*
X70750000Y-63350000D02*
X70750000Y-66350000D01*
X72650000Y-59850000D02*
X70750000Y-61750000D01*
X70750000Y-61750000D02*
X70750000Y-63350000D01*
%TO.N,Net-(J3-In)*%
X72290000Y-53310000D02*
X72290000Y-56710000D01*
X70750000Y-58250000D02*
X70750000Y-59850000D01*
X72290000Y-56710000D02*
X70750000Y-58250000D01*
D52*
%TO.N,GND*%
X82500000Y-56000000D02*
X82500000Y-54000000D01*
D53*
X204000000Y-133000000D02*
X204000000Y-130500000D01*
X204000000Y-128720000D02*
X203730000Y-128450000D01*
D54*
%TO.N,Net-(Q2-S)*%
X77575000Y-63050000D02*
X77875000Y-63350000D01*
D52*
X79000000Y-57000000D02*
X80400000Y-58400000D01*
D54*
X77575000Y-59850000D02*
X77575000Y-63050000D01*
D52*
X80400000Y-58400000D02*
X81550000Y-58400000D01*
D54*
X80100000Y-59850000D02*
X81550000Y-58400000D01*
X77575000Y-59850000D02*
X80100000Y-59850000D01*
D52*
X79000000Y-53000000D02*
X79000000Y-57000000D01*
D54*
X77875000Y-63350000D02*
X80750000Y-63350000D01*
D52*
%TO.N,Net-(Q1-D)*%
X75100000Y-69000000D02*
X75750000Y-68350000D01*
X71400000Y-69000000D02*
X75100000Y-69000000D01*
D54*
X80750000Y-66350000D02*
X77750000Y-66350000D01*
D52*
X81000000Y-70000000D02*
X81000000Y-66600000D01*
X81000000Y-66600000D02*
X80750000Y-66350000D01*
D54*
X77750000Y-66350000D02*
X75750000Y-68350000D01*
D52*
%TO.N,RXMUTE*%
X69000000Y-71500000D02*
X72000000Y-71500000D01*
X72000000Y-71500000D02*
X74500000Y-71500000D01*
X74500000Y-71500000D02*
X75750000Y-70250000D01*
%TO.N,Net-(C10-Pad1)*%
X89825000Y-61725000D02*
X89550000Y-62000000D01*
X89825000Y-58500000D02*
X89825000Y-61725000D01*
%TO.N,Net-(Q3-G)*%
X89550000Y-63900000D02*
X88600000Y-63900000D01*
X87600000Y-65100000D02*
X87600000Y-68550000D01*
X87500000Y-65000000D02*
X87600000Y-65100000D01*
X93500000Y-64675000D02*
X93500000Y-62000000D01*
X88600000Y-63900000D02*
X87500000Y-65000000D01*
X92725000Y-63900000D02*
X93500000Y-64675000D01*
X89550000Y-63900000D02*
X92725000Y-63900000D01*
%TO.N,Net-(Q3-D)*%
X85325000Y-70000000D02*
X88000000Y-70000000D01*
X93500000Y-66500000D02*
X93500000Y-69050000D01*
X89000000Y-69000000D02*
X89000000Y-67500000D01*
X89000000Y-67500000D02*
X89100000Y-67600000D01*
X90400000Y-67600000D02*
X90000000Y-67600000D01*
X89100000Y-67600000D02*
X90000000Y-67600000D01*
X88000000Y-70000000D02*
X89000000Y-69000000D01*
X90000000Y-67600000D02*
X92400000Y-67600000D01*
X90400000Y-67600000D02*
X90500000Y-67500000D01*
X92400000Y-67600000D02*
X93500000Y-66500000D01*
%TO.N,Net-(T1-AA)*%
X79850000Y-77690000D02*
X81810000Y-77690000D01*
X81810000Y-77690000D02*
X85000000Y-74500000D01*
%TO.N,Net-(T1-SB)*%
X64000000Y-88000000D02*
X64000000Y-83000000D01*
X81015000Y-85310000D02*
X83500000Y-82825000D01*
X79850000Y-85310000D02*
X81015000Y-85310000D01*
X68000000Y-97500000D02*
X68000000Y-92000000D01*
X81000000Y-79500000D02*
X81500000Y-80000000D01*
X86925000Y-82825000D02*
X87000000Y-82900000D01*
X83500000Y-82825000D02*
X86925000Y-82825000D01*
X65500000Y-81500000D02*
X67150000Y-81500000D01*
X64000000Y-83000000D02*
X65500000Y-81500000D01*
X81500000Y-82000000D02*
X82325000Y-82825000D01*
X82325000Y-82825000D02*
X83500000Y-82825000D01*
X81500000Y-80000000D02*
X81500000Y-82000000D01*
X67150000Y-81500000D02*
X69150000Y-79500000D01*
X68000000Y-92000000D02*
X64000000Y-88000000D01*
X69150000Y-79500000D02*
X81000000Y-79500000D01*
D53*
%TO.N,Net-(C21-Pad2)*%
X88587500Y-94000000D02*
X84950000Y-94000000D01*
%TO.N,Net-(C28-Pad2)*%
X109000000Y-96000000D02*
X106000000Y-93000000D01*
X109000000Y-94000000D02*
X110500000Y-92500000D01*
X103620000Y-97050000D02*
X103620000Y-95380000D01*
X109000000Y-96000000D02*
X109000000Y-94000000D01*
X103620000Y-95380000D02*
X104412500Y-94587500D01*
X106000000Y-93000000D02*
X104412500Y-93000000D01*
X104412500Y-94587500D02*
X104412500Y-93000000D01*
%TO.N,Net-(C29-Pad1)*%
X118000000Y-93500000D02*
X118000000Y-96000000D01*
X118000000Y-96000000D02*
X113900000Y-96000000D01*
X113500000Y-100000000D02*
X112000000Y-100000000D01*
X117500000Y-92500000D02*
X117500000Y-93000000D01*
X113900000Y-96000000D02*
X113900000Y-99600000D01*
X113900000Y-99600000D02*
X113500000Y-100000000D01*
X117500000Y-93000000D02*
X118000000Y-93500000D01*
X119250000Y-92500000D02*
X117500000Y-92500000D01*
%TO.N,Net-(C29-Pad2)*%
X103912500Y-102292500D02*
X103620000Y-102000000D01*
X109000000Y-103500000D02*
X109000000Y-101100000D01*
X109000000Y-101100000D02*
X110100000Y-100000000D01*
X108500000Y-103500000D02*
X105000000Y-107000000D01*
X105000000Y-107000000D02*
X103912500Y-107000000D01*
X109000000Y-103500000D02*
X108500000Y-103500000D01*
X103912500Y-107000000D02*
X103912500Y-102292500D01*
%TO.N,Net-(C30-Pad2)*%
X89662500Y-103837500D02*
X90500000Y-103000000D01*
X109000000Y-107500000D02*
X109000000Y-111000000D01*
X109000000Y-111000000D02*
X91500000Y-111000000D01*
X90000000Y-109000000D02*
X89662500Y-108662500D01*
X90000000Y-109500000D02*
X90000000Y-109000000D01*
X94825000Y-103175000D02*
X96000000Y-102000000D01*
X90500000Y-103000000D02*
X91000000Y-103000000D01*
X91500000Y-111000000D02*
X90000000Y-109500000D01*
X91000000Y-103000000D02*
X91175000Y-103175000D01*
X91175000Y-103175000D02*
X93500000Y-103175000D01*
X89662500Y-108662500D02*
X89662500Y-103837500D01*
X110100000Y-107500000D02*
X109000000Y-107500000D01*
X93500000Y-103175000D02*
X94825000Y-103175000D01*
%TO.N,Net-(C30-Pad1)*%
X113900000Y-103500000D02*
X113900000Y-105600000D01*
X117500000Y-100500000D02*
X118000000Y-101000000D01*
X119100000Y-100000000D02*
X117500000Y-100000000D01*
X113900000Y-105600000D02*
X112000000Y-107500000D01*
X118000000Y-101000000D02*
X118000000Y-103500000D01*
X118000000Y-103500000D02*
X113900000Y-103500000D01*
X117500000Y-100000000D02*
X117500000Y-100500000D01*
%TO.N,Net-(C31-Pad1)*%
X111500000Y-93500000D02*
X111500000Y-85600000D01*
X113900000Y-111000000D02*
X111175000Y-108275000D01*
X118050000Y-107050000D02*
X118050000Y-111000000D01*
X118000000Y-107000000D02*
X118050000Y-107050000D01*
X111175000Y-93825000D02*
X111500000Y-93500000D01*
X119600000Y-107000000D02*
X118000000Y-107000000D01*
X118050000Y-111000000D02*
X113900000Y-111000000D01*
X111500000Y-85600000D02*
X110900000Y-85000000D01*
X111175000Y-108275000D02*
X111175000Y-93825000D01*
%TO.N,Net-(C33-Pad1)*%
X127000000Y-96000000D02*
X122900000Y-96000000D01*
X122900000Y-98100000D02*
X121000000Y-100000000D01*
X127000000Y-94100000D02*
X128600000Y-92500000D01*
X122900000Y-96000000D02*
X122900000Y-98100000D01*
X127000000Y-96000000D02*
X127000000Y-94100000D01*
%TO.N,Net-(C34-Pad1)*%
X122900000Y-103500000D02*
X122900000Y-105600000D01*
X127000000Y-103500000D02*
X122900000Y-103500000D01*
X127500000Y-100000000D02*
X127000000Y-100500000D01*
X129100000Y-100000000D02*
X127500000Y-100000000D01*
X122900000Y-105600000D02*
X121500000Y-107000000D01*
X127000000Y-100500000D02*
X127000000Y-103500000D01*
%TO.N,Net-(C35-Pad1)*%
X120175000Y-100720100D02*
X120175000Y-85275000D01*
X120500000Y-108550000D02*
X120500000Y-101045100D01*
X129100000Y-107000000D02*
X128500000Y-107000000D01*
X120175000Y-85275000D02*
X119900000Y-85000000D01*
X122950000Y-111000000D02*
X120500000Y-108550000D01*
X128500000Y-107000000D02*
X127000000Y-108500000D01*
X120500000Y-101045100D02*
X120175000Y-100720100D01*
X127000000Y-111000000D02*
X122950000Y-111000000D01*
X127000000Y-108500000D02*
X127000000Y-111000000D01*
%TO.N,Net-(C41-Pad1)*%
X141500000Y-99500000D02*
X141000000Y-100000000D01*
X141000000Y-100000000D02*
X139900000Y-100000000D01*
X141400000Y-99400000D02*
X141500000Y-99500000D01*
X146000000Y-92500000D02*
X145500000Y-93000000D01*
X145500000Y-93000000D02*
X145500000Y-96000000D01*
X147100000Y-92500000D02*
X146000000Y-92500000D01*
X145500000Y-96000000D02*
X141400000Y-96000000D01*
X141400000Y-96000000D02*
X141400000Y-99400000D01*
%TO.N,Net-(C20-Pad2)*%
X88500000Y-88000000D02*
X84950000Y-88000000D01*
%TO.N,Net-(C42-Pad1)*%
X141400000Y-103500000D02*
X141400000Y-106100000D01*
X141400000Y-106100000D02*
X141000000Y-106500000D01*
X145500000Y-100500000D02*
X145600000Y-100600000D01*
X145600000Y-100600000D02*
X145600000Y-103500000D01*
X147000000Y-100000000D02*
X145500000Y-100000000D01*
X145600000Y-103500000D02*
X141400000Y-103500000D01*
X141000000Y-106500000D02*
X140500000Y-106500000D01*
X145500000Y-100000000D02*
X145500000Y-100500000D01*
X140500000Y-106500000D02*
X140000000Y-107000000D01*
%TO.N,Net-(C43-Pad1)*%
X145500000Y-109000000D02*
X145600000Y-109100000D01*
X138925000Y-85425000D02*
X138500000Y-85000000D01*
X138925000Y-108525000D02*
X138925000Y-85425000D01*
X145500000Y-108500000D02*
X145500000Y-109000000D01*
X147000000Y-107000000D02*
X145500000Y-108500000D01*
X147000000Y-107000000D02*
X147000000Y-106500000D01*
X145600000Y-111000000D02*
X141400000Y-111000000D01*
X145600000Y-109100000D02*
X145600000Y-111000000D01*
X141400000Y-111000000D02*
X138925000Y-108525000D01*
%TO.N,Net-(C22-Pad2)*%
X88587500Y-100000000D02*
X84950000Y-100000000D01*
%TO.N,Net-(C23-Pad2)*%
X88675000Y-106000000D02*
X84950000Y-106000000D01*
%TO.N,Net-(C50-Pad1)*%
X159400000Y-103500000D02*
X159400000Y-106400000D01*
X159400000Y-106400000D02*
X159500000Y-106500000D01*
X163500000Y-103500000D02*
X159400000Y-103500000D01*
X159500000Y-106500000D02*
X159000000Y-107000000D01*
X159000000Y-107000000D02*
X158000000Y-107000000D01*
X163000000Y-100500000D02*
X163000000Y-101000000D01*
X163500000Y-101500000D02*
X163500000Y-103500000D01*
X165000000Y-100000000D02*
X163500000Y-100000000D01*
X163500000Y-100000000D02*
X163000000Y-100500000D01*
X163000000Y-101000000D02*
X163500000Y-101500000D01*
%TO.N,Net-(C54-Pad1)*%
X168000000Y-107000000D02*
X166900000Y-107000000D01*
X168400000Y-106600000D02*
X168000000Y-107000000D01*
X173000000Y-100000000D02*
X172500000Y-100500000D01*
X174100000Y-100000000D02*
X173000000Y-100000000D01*
X172600000Y-103500000D02*
X168400000Y-103500000D01*
X172500000Y-100500000D02*
X172500000Y-101000000D01*
X168400000Y-103500000D02*
X168400000Y-106600000D01*
X172500000Y-101000000D02*
X172600000Y-101100000D01*
X172600000Y-101100000D02*
X172600000Y-103500000D01*
%TO.N,Net-(C58-Pad1)*%
X177500000Y-103500000D02*
X177500000Y-106500000D01*
X177000000Y-107000000D02*
X176000000Y-107000000D01*
X177500000Y-106500000D02*
X177000000Y-107000000D01*
X182000000Y-100500000D02*
X182000000Y-103500000D01*
X182500000Y-100000000D02*
X182000000Y-100500000D01*
X183600000Y-100000000D02*
X182500000Y-100000000D01*
X182000000Y-103500000D02*
X177500000Y-103500000D01*
%TO.N,Net-(U5A-+)*%
X186400000Y-91100000D02*
X186400000Y-89000000D01*
X185500000Y-92000000D02*
X185400000Y-92000000D01*
X185400000Y-92000000D02*
X184900000Y-92500000D01*
X185900000Y-91500000D02*
X186000000Y-91500000D01*
X184900000Y-92500000D02*
X185900000Y-91500000D01*
X186000000Y-91500000D02*
X186400000Y-91100000D01*
%TO.N,Net-(U5B-+)*%
X195000000Y-99000000D02*
X195730000Y-98270000D01*
X189500000Y-99000000D02*
X195000000Y-99000000D01*
X186500000Y-96000000D02*
X189500000Y-99000000D01*
X195730000Y-98270000D02*
X195730000Y-97025000D01*
X186400000Y-99100000D02*
X185500000Y-100000000D01*
X186400000Y-96000000D02*
X186500000Y-96000000D01*
X186400000Y-96000000D02*
X186400000Y-99100000D01*
D54*
%TO.N,+5V*%
X70400000Y-101725000D02*
X68000000Y-99325000D01*
X73970000Y-103500000D02*
X74025000Y-103445000D01*
X104500000Y-118700000D02*
X111300000Y-125500000D01*
X105000000Y-125500000D02*
X111300000Y-125500000D01*
X70400000Y-103500000D02*
X70400000Y-101725000D01*
X74840000Y-118840000D02*
X81500000Y-125500000D01*
X70400000Y-111900000D02*
X70400000Y-103500000D01*
X74840000Y-116500000D02*
X74840000Y-116340000D01*
X74840000Y-116500000D02*
X74840000Y-118840000D01*
X70400000Y-103500000D02*
X73970000Y-103500000D01*
X104500000Y-117500000D02*
X104500000Y-118700000D01*
X74840000Y-116340000D02*
X70400000Y-111900000D01*
D53*
%TO.N,Net-(U5C-+)*%
X195000000Y-100000000D02*
X195730000Y-100730000D01*
X195730000Y-100730000D02*
X195730000Y-101975000D01*
X186900000Y-103500000D02*
X186900000Y-102600000D01*
X189500000Y-100000000D02*
X195000000Y-100000000D01*
X186900000Y-105600000D02*
X186900000Y-103500000D01*
X186450000Y-106000000D02*
X186500000Y-106000000D01*
X186900000Y-102600000D02*
X189500000Y-100000000D01*
X185450000Y-107000000D02*
X186450000Y-106000000D01*
X186500000Y-106000000D02*
X186900000Y-105600000D01*
%TO.N,Net-(U5D-+)*%
X184500000Y-98554900D02*
X184500000Y-108600000D01*
X197987500Y-104012500D02*
X197987500Y-108512500D01*
X198270000Y-103730000D02*
X197987500Y-104012500D01*
X197987500Y-108512500D02*
X195500000Y-111000000D01*
X198270000Y-101975000D02*
X198270000Y-103730000D01*
X184500000Y-108600000D02*
X186900000Y-111000000D01*
X184000000Y-98054900D02*
X184500000Y-98554900D01*
X195500000Y-111000000D02*
X186900000Y-111000000D01*
X184000000Y-85000000D02*
X184000000Y-98054900D01*
%TO.N,Net-(C47-Pad1)*%
X154500000Y-111000000D02*
X150500000Y-111000000D01*
X156100000Y-107000000D02*
X155000000Y-107000000D01*
X155000000Y-107000000D02*
X154500000Y-107500000D01*
X147925000Y-108425000D02*
X147925000Y-85525000D01*
X154500000Y-107500000D02*
X154500000Y-111000000D01*
X147925000Y-85525000D02*
X147400000Y-85000000D01*
X150500000Y-111000000D02*
X147925000Y-108425000D01*
D52*
%TO.N,CWMUTE*%
X166875000Y-75512500D02*
X166825000Y-75462500D01*
X166875000Y-78462500D02*
X166875000Y-75512500D01*
D53*
%TO.N,Net-(U6--)*%
X208175000Y-102000000D02*
X209175000Y-101000000D01*
X206500000Y-97087500D02*
X206412500Y-97000000D01*
X206412500Y-97000000D02*
X206412500Y-90507500D01*
X206412500Y-90507500D02*
X206440000Y-90480000D01*
X206500000Y-102000000D02*
X208175000Y-102000000D01*
X209175000Y-101000000D02*
X209175000Y-100825000D01*
X206500000Y-102000000D02*
X206500000Y-97087500D01*
X209175000Y-100825000D02*
X209100000Y-100750000D01*
X209100000Y-100750000D02*
X209100000Y-97000000D01*
%TO.N,Net-(C65-Pad2)*%
X205050000Y-79550000D02*
X205000000Y-79500000D01*
X208000000Y-79550000D02*
X208000000Y-79500000D01*
X208000000Y-79550000D02*
X205050000Y-79550000D01*
%TO.N,Net-(C67-Pad2)*%
X211500000Y-107400000D02*
X208100000Y-107400000D01*
X208100000Y-107400000D02*
X208000000Y-107500000D01*
X211500000Y-107400000D02*
X211500000Y-112675000D01*
%TO.N,VREF*%
X197000000Y-128000000D02*
X198500000Y-126500000D01*
X211500000Y-117175000D02*
X212000000Y-117675000D01*
X205500000Y-126000000D02*
X205000000Y-126500000D01*
X98540000Y-102460000D02*
X98500000Y-102500000D01*
X196000000Y-128000000D02*
X197000000Y-128000000D01*
X213175000Y-117675000D02*
X214500000Y-119000000D01*
X214500000Y-121500000D02*
X210000000Y-126000000D01*
X205000000Y-126500000D02*
X205000000Y-128450000D01*
X98540000Y-102000000D02*
X98540000Y-102460000D01*
X211500000Y-114500000D02*
X211500000Y-117175000D01*
X212000000Y-117675000D02*
X213175000Y-117675000D01*
X198500000Y-126500000D02*
X204024999Y-126500000D01*
X98500000Y-102500000D02*
X98500000Y-105050000D01*
X210000000Y-126000000D02*
X205500000Y-126000000D01*
X204024999Y-126500000D02*
X205000000Y-127475001D01*
X205000000Y-127475001D02*
X205000000Y-128450000D01*
X214500000Y-119000000D02*
X214500000Y-121500000D01*
D52*
%TO.N,Net-(C73-Pad2)*%
X201500000Y-73000000D02*
X199000000Y-75500000D01*
X203100000Y-73000000D02*
X201500000Y-73000000D01*
X199000000Y-75500000D02*
X199000000Y-76000000D01*
D53*
%TO.N,Net-(C75-Pad2)*%
X208000000Y-109325000D02*
X208000000Y-112500000D01*
X208000000Y-112500000D02*
X204500000Y-112500000D01*
%TO.N,Net-(U7A--)*%
X209000000Y-117500000D02*
X208000000Y-117500000D01*
X213500000Y-121000000D02*
X213500000Y-119000000D01*
X213500000Y-119000000D02*
X213000000Y-118500000D01*
X207540000Y-123500000D02*
X211000000Y-123500000D01*
X206270000Y-123500000D02*
X207540000Y-123500000D01*
X211000000Y-123500000D02*
X213500000Y-121000000D01*
X213000000Y-118500000D02*
X212987500Y-118512500D01*
X210012500Y-118512500D02*
X209000000Y-117500000D01*
X208000000Y-114400000D02*
X208000000Y-117500000D01*
X212987500Y-118512500D02*
X210012500Y-118512500D01*
D52*
%TO.N,Net-(U8B-+)*%
X195950000Y-65540000D02*
X197460000Y-65540000D01*
X198500000Y-64500000D02*
X201500000Y-64500000D01*
X201950000Y-65770000D02*
X204405000Y-65770000D01*
X201950000Y-64950000D02*
X201950000Y-65770000D01*
X197460000Y-65540000D02*
X198500000Y-64500000D01*
X201500000Y-64500000D02*
X201950000Y-64950000D01*
X204405000Y-65770000D02*
X204675000Y-65500000D01*
D53*
%TO.N,Net-(U7A-+)*%
X204512500Y-121987500D02*
X204512500Y-114337500D01*
X204512500Y-114337500D02*
X204500000Y-114325000D01*
X204175000Y-114325000D02*
X204500000Y-114325000D01*
X205000000Y-122500000D02*
X204500000Y-122000000D01*
X204012500Y-114812500D02*
X204500000Y-114325000D01*
X205000000Y-123500000D02*
X205000000Y-122500000D01*
X204500000Y-122000000D02*
X204512500Y-121987500D01*
X201075000Y-114325000D02*
X201000000Y-114400000D01*
X204500000Y-114325000D02*
X201075000Y-114325000D01*
%TO.N,Net-(C82-Pad2)*%
X208000000Y-119400000D02*
X207600000Y-119400000D01*
X207600000Y-119400000D02*
X207525000Y-119325000D01*
X211500000Y-119500000D02*
X211400000Y-119400000D01*
X211400000Y-119400000D02*
X208000000Y-119400000D01*
X212000000Y-119500000D02*
X211500000Y-119500000D01*
D52*
%TO.N,Net-(U9-+)*%
X137912500Y-70912500D02*
X137912500Y-69500000D01*
X137912500Y-69500000D02*
X145600000Y-69500000D01*
X137230000Y-74500000D02*
X137230000Y-72270000D01*
X145600000Y-69500000D02*
X146100000Y-70000000D01*
X138000000Y-71500000D02*
X138000000Y-71000000D01*
X137230000Y-72270000D02*
X138000000Y-71500000D01*
X138000000Y-71000000D02*
X137912500Y-70912500D01*
%TO.N,Net-(Q4-G)*%
X140175000Y-66325000D02*
X141000000Y-65500000D01*
X137000000Y-66325000D02*
X140175000Y-66325000D01*
D53*
%TO.N,Net-(U7B--)*%
X201000000Y-119400000D02*
X201000000Y-123310000D01*
X201190000Y-123500000D02*
X199920000Y-123500000D01*
X198500000Y-123500000D02*
X199920000Y-123500000D01*
X197000000Y-122000000D02*
X198500000Y-123500000D01*
X201000000Y-123310000D02*
X201190000Y-123500000D01*
D52*
%TO.N,+12V*%
X200125000Y-65770000D02*
X199085000Y-66810000D01*
D53*
X99500000Y-94000000D02*
X99500000Y-94500000D01*
X99500000Y-94500000D02*
X99810000Y-94810000D01*
D54*
X104700000Y-128100000D02*
X105000000Y-127800000D01*
D53*
X203500000Y-123500000D02*
X203730000Y-123500000D01*
X203730000Y-123500000D02*
X203730000Y-120130000D01*
X203730000Y-120130000D02*
X203600000Y-120000000D01*
D52*
X199085000Y-66810000D02*
X195950000Y-66810000D01*
D53*
X99810000Y-94810000D02*
X99810000Y-97050000D01*
%TO.N,Mix0Deg*%
X80405000Y-97095000D02*
X78975000Y-97095000D01*
X83050000Y-90450000D02*
X83050000Y-88000000D01*
X82000000Y-91000000D02*
X81500000Y-91500000D01*
X81500000Y-96500000D02*
X81000000Y-96500000D01*
X77595000Y-97095000D02*
X76950000Y-96450000D01*
X83000000Y-91000000D02*
X82000000Y-91000000D01*
X72135000Y-99635000D02*
X74025000Y-99635000D01*
X83000000Y-90500000D02*
X83050000Y-90450000D01*
X81000000Y-96500000D02*
X80405000Y-97095000D01*
X81500000Y-91500000D02*
X81500000Y-96500000D01*
X71500000Y-99000000D02*
X72135000Y-99635000D01*
X78975000Y-97095000D02*
X77595000Y-97095000D01*
X76950000Y-96450000D02*
X72050000Y-96450000D01*
X72050000Y-96450000D02*
X71500000Y-97000000D01*
X71500000Y-97000000D02*
X71500000Y-99000000D01*
X83000000Y-91000000D02*
X83000000Y-90500000D01*
%TO.N,Net-(C37-Pad1)*%
X136500000Y-92500000D02*
X136500000Y-96000000D01*
X136500000Y-96000000D02*
X131900000Y-96000000D01*
X138100000Y-92500000D02*
X136500000Y-92500000D01*
X131900000Y-99100000D02*
X131000000Y-100000000D01*
X131900000Y-96000000D02*
X131900000Y-99100000D01*
%TO.N,Net-(C38-Pad1)*%
X136500000Y-103500000D02*
X131900000Y-103500000D01*
X137000000Y-100000000D02*
X136500000Y-100500000D01*
X131900000Y-103500000D02*
X131900000Y-106100000D01*
X138000000Y-100000000D02*
X137000000Y-100000000D01*
X131900000Y-106100000D02*
X131000000Y-107000000D01*
X136500000Y-100500000D02*
X136500000Y-103500000D01*
%TO.N,Mix180Deg*%
X72405000Y-97095000D02*
X74025000Y-97095000D01*
X80865000Y-99635000D02*
X78975000Y-99635000D01*
X72500000Y-99000000D02*
X72000000Y-98500000D01*
X77000000Y-99000000D02*
X72500000Y-99000000D01*
X78975000Y-99635000D02*
X77635000Y-99635000D01*
X83050000Y-100000000D02*
X82550000Y-99500000D01*
X83050000Y-103000000D02*
X83050000Y-100000000D01*
X72000000Y-98500000D02*
X72000000Y-97500000D01*
X72000000Y-97500000D02*
X72405000Y-97095000D01*
X81000000Y-99500000D02*
X80865000Y-99635000D01*
X82550000Y-99500000D02*
X81000000Y-99500000D01*
X77635000Y-99635000D02*
X77000000Y-99000000D01*
%TO.N,Mix270Deg*%
X71675000Y-95825000D02*
X74025000Y-95825000D01*
X83050000Y-106000000D02*
X81500000Y-106000000D01*
X78880000Y-101000000D02*
X77500000Y-101000000D01*
X80905000Y-100905000D02*
X78975000Y-100905000D01*
X76760000Y-100260000D02*
X71260000Y-100260000D01*
X71000000Y-96500000D02*
X71675000Y-95825000D01*
X71000000Y-100000000D02*
X71000000Y-96500000D01*
X78975000Y-100905000D02*
X78880000Y-101000000D01*
X71260000Y-100260000D02*
X71000000Y-100000000D01*
X83050000Y-109000000D02*
X83050000Y-106000000D01*
X77500000Y-101000000D02*
X76760000Y-100260000D01*
X81500000Y-101500000D02*
X80905000Y-100905000D01*
X81500000Y-106000000D02*
X81500000Y-101500000D01*
%TO.N,Net-(C39-Pad1)*%
X129500000Y-94650000D02*
X129500000Y-85500000D01*
X129500000Y-85500000D02*
X129000000Y-85000000D01*
X129925000Y-95075000D02*
X129500000Y-94650000D01*
X135500000Y-107500000D02*
X135500000Y-108000000D01*
X136500000Y-107000000D02*
X136000000Y-107500000D01*
X136500000Y-109000000D02*
X136500000Y-111000000D01*
X131900000Y-111000000D02*
X129925000Y-109025000D01*
X136500000Y-111000000D02*
X131900000Y-111000000D01*
X136000000Y-107500000D02*
X135500000Y-107500000D01*
X135500000Y-108000000D02*
X136500000Y-109000000D01*
X138100000Y-107000000D02*
X136500000Y-107000000D01*
X129925000Y-109025000D02*
X129925000Y-95075000D01*
%TO.N,Mix90Deg*%
X82500000Y-97000000D02*
X81135000Y-98365000D01*
X81135000Y-98365000D02*
X78975000Y-98365000D01*
X83050000Y-97000000D02*
X83050000Y-94000000D01*
X78975000Y-98365000D02*
X74025000Y-98365000D01*
X83050000Y-97000000D02*
X82500000Y-97000000D01*
%TO.N,Net-(C45-Pad1)*%
X150400000Y-99600000D02*
X150000000Y-100000000D01*
X150000000Y-100000000D02*
X148900000Y-100000000D01*
X154500000Y-92500000D02*
X154500000Y-96000000D01*
X156000000Y-92500000D02*
X154500000Y-92500000D01*
X150400000Y-96000000D02*
X150400000Y-99600000D01*
X154500000Y-96000000D02*
X150400000Y-96000000D01*
%TO.N,Net-(C86-Pad2)*%
X201000000Y-117500000D02*
X197000000Y-117500000D01*
X204000000Y-117000000D02*
X203500000Y-117500000D01*
X203500000Y-117500000D02*
X201000000Y-117500000D01*
X203675000Y-117000000D02*
X204000000Y-117000000D01*
%TO.N,Net-(C46-Pad1)*%
X150500000Y-105400000D02*
X148900000Y-107000000D01*
X154500000Y-103500000D02*
X150500000Y-103500000D01*
X150500000Y-103500000D02*
X150500000Y-105400000D01*
X156000000Y-100000000D02*
X154500000Y-100000000D01*
X154500000Y-100000000D02*
X154500000Y-103500000D01*
D52*
%TO.N,Net-(C87-Pad1)*%
X132500000Y-71825000D02*
X131325000Y-73000000D01*
X130000000Y-76000000D02*
X131325000Y-74675000D01*
X136087500Y-69500000D02*
X134000000Y-69500000D01*
X134000000Y-69500000D02*
X132500000Y-68000000D01*
X130000000Y-77000000D02*
X130000000Y-76000000D01*
X132500000Y-68000000D02*
X132500000Y-71825000D01*
X131325000Y-74675000D02*
X131325000Y-73000000D01*
D53*
%TO.N,Net-(U7B-+)*%
X202460000Y-125040000D02*
X202460000Y-123500000D01*
X196000000Y-120325000D02*
X197000000Y-119325000D01*
X196000000Y-125500000D02*
X202000000Y-125500000D01*
X196000000Y-125500000D02*
X196000000Y-120325000D01*
X202000000Y-125500000D02*
X202460000Y-125040000D01*
%TO.N,Net-(C49-Pad1)*%
X164000000Y-92500000D02*
X165100000Y-92500000D01*
X159400000Y-99100000D02*
X158500000Y-100000000D01*
X159400000Y-96000000D02*
X163500000Y-96000000D01*
X158500000Y-100000000D02*
X157900000Y-100000000D01*
X159400000Y-96000000D02*
X159400000Y-99100000D01*
X163500000Y-93000000D02*
X164000000Y-92500000D01*
X163500000Y-96000000D02*
X163500000Y-93000000D01*
%TO.N,/Sheet62579414/B*%
X118000000Y-88950000D02*
X117950000Y-89000000D01*
X117950000Y-89000000D02*
X113950000Y-89000000D01*
X113950000Y-89000000D02*
X113950000Y-92050000D01*
X118000000Y-85000000D02*
X118000000Y-88950000D01*
X113500000Y-92500000D02*
X112400000Y-92500000D01*
X113950000Y-92050000D02*
X113500000Y-92500000D01*
%TO.N,Net-(C91-Pad2)*%
X194175000Y-128000000D02*
X191000000Y-128000000D01*
X191000000Y-124000000D02*
X193000000Y-122000000D01*
X191000000Y-128000000D02*
X191000000Y-124000000D01*
X193000000Y-122000000D02*
X195100000Y-122000000D01*
%TO.N,Net-(C51-Pad1)*%
X163500000Y-111000000D02*
X159400000Y-111000000D01*
X165000000Y-107000000D02*
X163500000Y-107000000D01*
X159400000Y-111000000D02*
X158500000Y-111000000D01*
X158500000Y-111000000D02*
X157000000Y-109500000D01*
X163500000Y-107000000D02*
X163500000Y-111000000D01*
X157000000Y-109500000D02*
X157000000Y-85000000D01*
D52*
%TO.N,Net-(C92-Pad1)*%
X151000000Y-75500000D02*
X150000000Y-74500000D01*
X149500000Y-80000000D02*
X151000000Y-80000000D01*
X151000000Y-80000000D02*
X151000000Y-75500000D01*
X150000000Y-74500000D02*
X148000000Y-74500000D01*
%TO.N,Net-(C93-Pad2)*%
X143500000Y-80500000D02*
X143500000Y-80000000D01*
X142500000Y-81500000D02*
X143500000Y-80500000D01*
X137500000Y-81500000D02*
X142500000Y-81500000D01*
X137230000Y-79650000D02*
X137230000Y-81270000D01*
X136000000Y-53000000D02*
X131500000Y-57500000D01*
X137230000Y-81270000D02*
X137270000Y-81270000D01*
X137270000Y-81270000D02*
X137500000Y-81500000D01*
X146425000Y-80000000D02*
X146500000Y-80075000D01*
X143500000Y-80000000D02*
X146425000Y-80000000D01*
X136500000Y-53000000D02*
X136000000Y-53000000D01*
D53*
%TO.N,/Sheet62579414/A*%
X89487500Y-86512500D02*
X90000000Y-86000000D01*
X96000000Y-97050000D02*
X96000000Y-96000000D01*
X98500000Y-88000000D02*
X95912500Y-88000000D01*
X95912500Y-86912500D02*
X95912500Y-88000000D01*
X109050000Y-89000000D02*
X109050000Y-85050000D01*
X90000000Y-86000000D02*
X95000000Y-86000000D01*
X109050000Y-85050000D02*
X109000000Y-85000000D01*
X95000000Y-86000000D02*
X95912500Y-86912500D01*
X99500000Y-89000000D02*
X98500000Y-88000000D01*
X96000000Y-96000000D02*
X89487500Y-89487500D01*
X89487500Y-89487500D02*
X89487500Y-86512500D01*
X109050000Y-89000000D02*
X99500000Y-89000000D01*
%TO.N,Net-(C53-Pad1)*%
X168400000Y-96000000D02*
X168400000Y-99600000D01*
X172500000Y-93000000D02*
X172600000Y-93100000D01*
X174100000Y-92500000D02*
X173000000Y-92500000D01*
X173000000Y-92500000D02*
X172500000Y-93000000D01*
X168400000Y-99600000D02*
X168000000Y-100000000D01*
X172600000Y-93100000D02*
X172600000Y-96000000D01*
X168000000Y-100000000D02*
X166900000Y-100000000D01*
X172600000Y-96000000D02*
X168400000Y-96000000D01*
%TO.N,/Sheet62579414/C*%
X122850000Y-90800000D02*
X121150000Y-92500000D01*
X127100000Y-85000000D02*
X127100000Y-89000000D01*
X122850000Y-89000000D02*
X122850000Y-90800000D01*
X127100000Y-89000000D02*
X122850000Y-89000000D01*
%TO.N,Net-(C55-Pad1)*%
X167500000Y-111000000D02*
X166000000Y-109500000D01*
X172000000Y-107500000D02*
X172000000Y-108000000D01*
X172000000Y-108000000D02*
X172600000Y-108600000D01*
X166000000Y-109500000D02*
X166000000Y-85000000D01*
X174100000Y-107000000D02*
X172500000Y-107000000D01*
X168400000Y-111000000D02*
X167500000Y-111000000D01*
X172500000Y-107000000D02*
X172000000Y-107500000D01*
X172600000Y-108600000D02*
X172600000Y-111000000D01*
X172600000Y-111000000D02*
X168400000Y-111000000D01*
D52*
%TO.N,Net-(U9--)*%
X138500000Y-76000000D02*
X139500000Y-77000000D01*
X138500000Y-74500000D02*
X138500000Y-76000000D01*
X143500000Y-77500000D02*
X143500000Y-78175000D01*
X143000000Y-77000000D02*
X143500000Y-77500000D01*
X146500000Y-78175000D02*
X149500000Y-78175000D01*
X143500000Y-78175000D02*
X146500000Y-78175000D01*
X139500000Y-77000000D02*
X143000000Y-77000000D01*
D53*
%TO.N,Net-(C57-Pad1)*%
X183000000Y-92500000D02*
X182000000Y-92500000D01*
X177000000Y-100000000D02*
X176000000Y-100000000D01*
X182000000Y-92500000D02*
X181500000Y-93000000D01*
X177500000Y-99500000D02*
X177000000Y-100000000D01*
X177500000Y-96000000D02*
X177500000Y-99500000D01*
X181500000Y-93000000D02*
X181500000Y-96000000D01*
X181500000Y-96000000D02*
X177500000Y-96000000D01*
%TO.N,/Sheet62579414/D*%
X132000000Y-91000000D02*
X130500000Y-92500000D01*
X136600000Y-89000000D02*
X136600000Y-85000000D01*
X132000000Y-89000000D02*
X132000000Y-91000000D01*
X136600000Y-89000000D02*
X132000000Y-89000000D01*
%TO.N,Net-(C59-Pad1)*%
X174950000Y-108950000D02*
X175000000Y-109000000D01*
X175500000Y-111000000D02*
X177500000Y-111000000D01*
X175000000Y-110500000D02*
X175500000Y-111000000D01*
X174950000Y-85000000D02*
X174950000Y-108950000D01*
X182500000Y-107000000D02*
X182000000Y-107500000D01*
X183550000Y-107000000D02*
X182500000Y-107000000D01*
X182000000Y-107500000D02*
X182000000Y-111000000D01*
X182000000Y-111000000D02*
X177500000Y-111000000D01*
X175000000Y-109000000D02*
X175000000Y-110500000D01*
%TO.N,Net-(U7C--)*%
X196000000Y-130500000D02*
X196500000Y-130500000D01*
X199500000Y-128870000D02*
X199920000Y-128450000D01*
X198000000Y-132000000D02*
X199500000Y-132000000D01*
X196500000Y-130500000D02*
X198000000Y-132000000D01*
X199500000Y-132000000D02*
X199500000Y-128870000D01*
X199920000Y-128450000D02*
X201190000Y-128450000D01*
%TO.N,Net-(C94-Pad2)*%
X193425000Y-129825000D02*
X194100000Y-130500000D01*
X194100000Y-133400000D02*
X194000000Y-133500000D01*
X191000000Y-129825000D02*
X193425000Y-129825000D01*
X194100000Y-130500000D02*
X194100000Y-133400000D01*
%TO.N,/Sheet62579414/E*%
X145600000Y-89000000D02*
X141500000Y-89000000D01*
X141500000Y-92000000D02*
X141000000Y-92500000D01*
X145500000Y-88900000D02*
X145600000Y-89000000D01*
X141500000Y-89000000D02*
X141500000Y-92000000D01*
X141000000Y-92500000D02*
X140000000Y-92500000D01*
X145500000Y-85000000D02*
X145500000Y-88900000D01*
D52*
%TO.N,Net-(J5-Pin_1)*%
X129000000Y-55500000D02*
X129500000Y-55500000D01*
X130540000Y-54460000D02*
X130540000Y-52500000D01*
X128550000Y-55950000D02*
X129000000Y-55500000D01*
X129500000Y-55500000D02*
X130540000Y-54460000D01*
X128550000Y-57500000D02*
X128550000Y-55950000D01*
D53*
%TO.N,/Sheet62579414/F*%
X150000000Y-92000000D02*
X149500000Y-92000000D01*
X150500000Y-89000000D02*
X150500000Y-91500000D01*
X150500000Y-91500000D02*
X150000000Y-92000000D01*
X149500000Y-92000000D02*
X149000000Y-92500000D01*
X154500000Y-85000000D02*
X154500000Y-89000000D01*
X154500000Y-89000000D02*
X150500000Y-89000000D01*
X155100000Y-85000000D02*
X154500000Y-85000000D01*
%TO.N,Net-(U7C-+)*%
X202100000Y-133000000D02*
X202100000Y-128810000D01*
X202100000Y-128810000D02*
X202460000Y-128450000D01*
%TO.N,/Sheet62579414/G*%
X158500000Y-92500000D02*
X157900000Y-92500000D01*
X163500000Y-89000000D02*
X164100000Y-88400000D01*
X163500000Y-89000000D02*
X159400000Y-89000000D01*
X164100000Y-88400000D02*
X164100000Y-85000000D01*
X159400000Y-91600000D02*
X158500000Y-92500000D01*
X159400000Y-89000000D02*
X159400000Y-91600000D01*
%TO.N,Net-(C101-Pad2)*%
X202175000Y-136500000D02*
X202100000Y-136500000D01*
X202100000Y-136500000D02*
X199500000Y-133900000D01*
D52*
%TO.N,Net-(C102-Pad2)*%
X118950000Y-72500000D02*
X120450000Y-74000000D01*
X120450000Y-74000000D02*
X122500000Y-74000000D01*
%TO.N,Net-(C73-Pad1)*%
X204912500Y-73087500D02*
X205000000Y-73000000D01*
D53*
%TO.N,/Sheet62579414/H*%
X168500000Y-92000000D02*
X168000000Y-92500000D01*
X168000000Y-92500000D02*
X167000000Y-92500000D01*
X168400000Y-91900000D02*
X168500000Y-92000000D01*
X168400000Y-89000000D02*
X168400000Y-91900000D01*
X173050000Y-85000000D02*
X172000000Y-85000000D01*
X172500000Y-89000000D02*
X168400000Y-89000000D01*
X172000000Y-88500000D02*
X172500000Y-89000000D01*
X172000000Y-85000000D02*
X172000000Y-88500000D01*
D52*
%TO.N,Net-(C102-Pad1)*%
X118850000Y-69040000D02*
X116960000Y-69040000D01*
X116960000Y-69040000D02*
X116000000Y-70000000D01*
X116000000Y-70000000D02*
X116000000Y-72500000D01*
%TO.N,Net-(U10-BYPASS)*%
X120500000Y-67500000D02*
X120000000Y-67500000D01*
X120000000Y-67500000D02*
X119730000Y-67770000D01*
X119730000Y-67770000D02*
X118850000Y-67770000D01*
X121500000Y-66500000D02*
X120500000Y-67500000D01*
%TO.N,Net-(C104-Pad1)*%
X115087500Y-60587500D02*
X114087500Y-60587500D01*
X114087500Y-60587500D02*
X113500000Y-60000000D01*
X113500000Y-60000000D02*
X113500000Y-57500000D01*
%TO.N,Net-(C106-Pad1)*%
X112087500Y-62412500D02*
X115087500Y-62412500D01*
X111600000Y-62900000D02*
X112087500Y-62412500D01*
X116032500Y-62412500D02*
X118850000Y-65230000D01*
X115087500Y-62412500D02*
X116032500Y-62412500D01*
X111600000Y-67500000D02*
X111600000Y-62900000D01*
%TO.N,Net-(J6-Pin_2)*%
X105500000Y-58500000D02*
X108000000Y-58500000D01*
X104500000Y-64500000D02*
X104500000Y-59500000D01*
X104500000Y-59500000D02*
X105500000Y-58500000D01*
X104400000Y-67500000D02*
X104400000Y-64600000D01*
X108000000Y-58500000D02*
X108000000Y-52880000D01*
X104400000Y-64600000D02*
X104500000Y-64500000D01*
X108000000Y-52880000D02*
X108460000Y-52420000D01*
%TO.N,Net-(D4-A)*%
X165000000Y-78462500D02*
X165000000Y-75462500D01*
X164500000Y-77962500D02*
X165000000Y-78462500D01*
X161500000Y-77962500D02*
X164500000Y-77962500D01*
X158375000Y-77912500D02*
X161450000Y-77912500D01*
X161450000Y-77912500D02*
X161500000Y-77962500D01*
%TO.N,Net-(D3-K)*%
X141500000Y-56500000D02*
X141500000Y-59325000D01*
X138000000Y-60000000D02*
X138000000Y-56500000D01*
X141500000Y-59325000D02*
X141675000Y-59500000D01*
X138000000Y-56500000D02*
X141500000Y-56500000D01*
D53*
%TO.N,PPOut*%
X207710000Y-81740000D02*
X207710000Y-85330000D01*
X211000000Y-88500000D02*
X211000000Y-97000000D01*
X208000000Y-88000000D02*
X210500000Y-88000000D01*
X211000000Y-97000000D02*
X211000000Y-101000000D01*
X211000000Y-101000000D02*
X211000000Y-105000000D01*
X210710000Y-101290000D02*
X211000000Y-101000000D01*
X207710000Y-87710000D02*
X208000000Y-88000000D01*
X208000000Y-81450000D02*
X207710000Y-81740000D01*
X210500000Y-88000000D02*
X211000000Y-88500000D01*
X211000000Y-105000000D02*
X211500000Y-105500000D01*
X207710000Y-85330000D02*
X207710000Y-87710000D01*
D52*
%TO.N,Net-(J5-Pin_2)*%
X125500000Y-55000000D02*
X128000000Y-52500000D01*
X125500000Y-66500000D02*
X125500000Y-55000000D01*
X124000000Y-66500000D02*
X125500000Y-66500000D01*
D54*
%TO.N,Net-(L1-Pad1)*%
X72575000Y-63350000D02*
X75750000Y-63350000D01*
%TO.N,Net-(L2-Pad2)*%
X82875000Y-66050000D02*
X82575000Y-66350000D01*
X82875000Y-63350000D02*
X82875000Y-66050000D01*
D52*
%TO.N,Net-(Q2-D)*%
X83450000Y-58400000D02*
X87900000Y-58400000D01*
X87900000Y-58400000D02*
X88000000Y-58500000D01*
X83900000Y-58400000D02*
X83450000Y-58400000D01*
X83900000Y-58400000D02*
X84000000Y-58500000D01*
%TO.N,Net-(Q5-Pad3)*%
X137000000Y-64500000D02*
X137000000Y-61925000D01*
X132375000Y-61875000D02*
X131500000Y-61000000D01*
X137000000Y-61925000D02*
X137050000Y-61875000D01*
X137050000Y-61875000D02*
X132375000Y-61875000D01*
%TO.N,Net-(Q7-D)*%
X156500000Y-62550000D02*
X159500000Y-62550000D01*
X156500000Y-62550000D02*
X156500000Y-57500000D01*
X156500000Y-57500000D02*
X156412500Y-57412500D01*
X159500000Y-62550000D02*
X163000000Y-62550000D01*
%TO.N,Net-(Q8-D)*%
X156500000Y-71375000D02*
X156125000Y-71375000D01*
X162825000Y-71550000D02*
X163000000Y-71375000D01*
X156000000Y-71500000D02*
X156000000Y-76462500D01*
X156125000Y-71375000D02*
X156000000Y-71500000D01*
X156000000Y-76462500D02*
X156500000Y-76962500D01*
X159325000Y-71375000D02*
X159500000Y-71550000D01*
X159500000Y-71550000D02*
X162825000Y-71550000D01*
X156500000Y-71375000D02*
X159325000Y-71375000D01*
D53*
%TO.N,Net-(U4A--)*%
X102350000Y-93650000D02*
X102350000Y-97050000D01*
X102587500Y-93412500D02*
X102350000Y-93650000D01*
X90412500Y-94000000D02*
X90412500Y-94412500D01*
X97895000Y-93105000D02*
X98000000Y-93000000D01*
X96990908Y-99000000D02*
X97895000Y-98095908D01*
X102587500Y-93000000D02*
X102587500Y-93412500D01*
X98000000Y-93000000D02*
X102587500Y-93000000D01*
X90412500Y-94412500D02*
X95000000Y-99000000D01*
X95000000Y-99000000D02*
X96990908Y-99000000D01*
X97895000Y-98095908D02*
X97895000Y-93105000D01*
%TO.N,Net-(U4B--)*%
X97270000Y-97050000D02*
X97270000Y-94270000D01*
X97270000Y-94270000D02*
X94087500Y-91087500D01*
X90325000Y-88000000D02*
X94087500Y-88000000D01*
X94087500Y-91087500D02*
X94087500Y-88000000D01*
%TO.N,Net-(U4C--)*%
X97270000Y-102000000D02*
X97270000Y-102974999D01*
X97270000Y-102974999D02*
X95244999Y-105000000D01*
X93500000Y-105000000D02*
X91500000Y-105000000D01*
X95244999Y-105000000D02*
X93500000Y-105000000D01*
X91500000Y-105000000D02*
X90500000Y-106000000D01*
%TO.N,Net-(U4D--)*%
X102350000Y-104150000D02*
X102350000Y-102000000D01*
X102350000Y-100350000D02*
X102350000Y-102000000D01*
X102087500Y-104412500D02*
X102350000Y-104150000D01*
X102087500Y-107000000D02*
X102087500Y-104412500D01*
X90412500Y-100000000D02*
X102000000Y-100000000D01*
X102000000Y-100000000D02*
X102350000Y-100350000D01*
%TO.N,Net-(U5A--)*%
X200975000Y-97025000D02*
X201000000Y-97000000D01*
X201000000Y-97000000D02*
X204587500Y-97000000D01*
X199540000Y-97025000D02*
X200810000Y-97025000D01*
X200810000Y-97025000D02*
X200975000Y-97025000D01*
%TO.N,Net-(U5B--)*%
X194460000Y-97025000D02*
X194460000Y-94540000D01*
X193190000Y-97025000D02*
X194460000Y-97025000D01*
%TO.N,Net-(U6-+)*%
X207500000Y-89000000D02*
X207710000Y-89210000D01*
X207710000Y-89210000D02*
X207710000Y-90480000D01*
X199325000Y-93000000D02*
X199325000Y-90175000D01*
X199325000Y-90175000D02*
X200500000Y-89000000D01*
X198895000Y-105930000D02*
X198895000Y-93430000D01*
X200500000Y-89000000D02*
X207500000Y-89000000D01*
X198895000Y-93430000D02*
X199325000Y-93000000D01*
X198825000Y-106000000D02*
X198895000Y-105930000D01*
%TO.N,Net-(U5C--)*%
X194500000Y-103500000D02*
X194460000Y-103460000D01*
X194500000Y-104000000D02*
X194500000Y-103500000D01*
X196500000Y-106000000D02*
X194500000Y-104000000D01*
X193190000Y-101975000D02*
X194460000Y-101975000D01*
X194460000Y-103460000D02*
X194460000Y-101975000D01*
X197000000Y-106000000D02*
X196500000Y-106000000D01*
%TO.N,Net-(U5D--)*%
X199540000Y-101975000D02*
X200810000Y-101975000D01*
X200810000Y-101975000D02*
X204650000Y-101975000D01*
X204650000Y-101975000D02*
X204675000Y-102000000D01*
D52*
%TO.N,Net-(U8A--)*%
X203175000Y-76087500D02*
X203087500Y-76000000D01*
%TO.N,/Sheet6280C94B/AudioAGC*%
X159500000Y-69725000D02*
X159500000Y-67000000D01*
X147500000Y-68000000D02*
X148000000Y-68500000D01*
X148000000Y-68500000D02*
X148000000Y-70000000D01*
X150000000Y-67000000D02*
X148000000Y-69000000D01*
X143450000Y-66450000D02*
X145000000Y-68000000D01*
X159500000Y-67000000D02*
X159500000Y-64375000D01*
X159500000Y-67000000D02*
X150000000Y-67000000D01*
X143400000Y-66450000D02*
X143450000Y-66450000D01*
X145000000Y-68000000D02*
X147500000Y-68000000D01*
X148000000Y-69000000D02*
X148000000Y-70000000D01*
D53*
%TO.N,Net-(U7D--)*%
X206000000Y-135000000D02*
X206175000Y-134825000D01*
X204000000Y-136500000D02*
X205000000Y-136500000D01*
X206175000Y-134825000D02*
X206175000Y-133000000D01*
X206270000Y-128450000D02*
X206270000Y-132905000D01*
X206270000Y-132905000D02*
X206175000Y-133000000D01*
X206000000Y-135500000D02*
X206000000Y-135000000D01*
X205000000Y-136500000D02*
X206000000Y-135500000D01*
D52*
%TO.N,Net-(R103-Pad1)*%
X124000000Y-71000000D02*
X124000000Y-69040000D01*
X122500000Y-72175000D02*
X122825000Y-72175000D01*
X122825000Y-72175000D02*
X124000000Y-71000000D01*
%TO.N,Net-(T1-SA)*%
X77325000Y-95825000D02*
X78975000Y-95825000D01*
X79850000Y-81500000D02*
X76500000Y-84850000D01*
X76500000Y-84850000D02*
X76500000Y-95000000D01*
X76500000Y-95000000D02*
X77325000Y-95825000D01*
%TO.N,Net-(T1-SD)*%
X67150000Y-87680000D02*
X74025000Y-94555000D01*
X67150000Y-85310000D02*
X67150000Y-87680000D01*
D54*
%TO.N,Net-(U2-CLK0)*%
X90080000Y-115080000D02*
X86000000Y-111000000D01*
X77325000Y-102175000D02*
X78975000Y-102175000D01*
X79000000Y-111000000D02*
X77000000Y-109000000D01*
X77000000Y-102500000D02*
X77325000Y-102175000D01*
X86000000Y-111000000D02*
X79000000Y-111000000D01*
X77000000Y-109000000D02*
X77000000Y-102500000D01*
X90080000Y-116500000D02*
X90080000Y-115080000D01*
%TO.N,Net-(U2-CLK1)*%
X84500000Y-112500000D02*
X78500000Y-112500000D01*
X86000000Y-114000000D02*
X84500000Y-112500000D01*
X78500000Y-112500000D02*
X76000000Y-110000000D01*
X74960000Y-100960000D02*
X74080000Y-100960000D01*
X76000000Y-110000000D02*
X76000000Y-102000000D01*
X87540000Y-116500000D02*
X86000000Y-114960000D01*
X76000000Y-102000000D02*
X74960000Y-100960000D01*
X86000000Y-114960000D02*
X86000000Y-114000000D01*
D52*
%TO.N,Net-(C95-Pad2)*%
X136175000Y-55325000D02*
X136500000Y-55000000D01*
X137500000Y-55000000D02*
X139500000Y-53000000D01*
X136500000Y-55000000D02*
X137500000Y-55000000D01*
X136175000Y-56500000D02*
X136175000Y-55325000D01*
%TO.N,Net-(C109-Pad1)*%
X163000000Y-69550000D02*
X166000000Y-69550000D01*
X166000000Y-69550000D02*
X166500000Y-69050000D01*
D53*
%TO.N,Net-(C109-Pad2)*%
X207540000Y-128450000D02*
X207540000Y-132540000D01*
X207540000Y-132540000D02*
X208000000Y-133000000D01*
%TD*%
D55*
X57500000Y-45000000D02*
X57000000Y-45000000D01*
X57000000Y-144000000D02*
X57000000Y-45000000D01*
X219500000Y-144000000D02*
X57000000Y-144000000D01*
X219500000Y-45000000D02*
X219500000Y-144000000D01*
X57500000Y-45000000D02*
X219500000Y-45000000D01*
M02*
