M48
; DRILL file {KiCad 8.0.9-8.0.9-0~ubuntu20.04.1} date 2026-04-22T12:51:07+1000
; FORMAT={-:-/ absolute / inch / decimal}
; #@! TF.CreationDate,2026-04-22T12:51:07+10:00
; #@! TF.GenerationSoftware,Kicad,Pcbnew,8.0.9-8.0.9-0~ubuntu20.04.1
; #@! TF.FileFunction,Plated,1,2,PTH
FMAT,2
INCH
; #@! TA.AperFunction,Plated,PTH,ViaDrill
T1C0.0157
; #@! TA.AperFunction,Plated,PTH,ComponentDrill
T2C0.0300
; #@! TA.AperFunction,Plated,PTH,ComponentDrill
T3C0.0394
; #@! TA.AperFunction,Plated,PTH,ComponentDrill
T4C0.0591
; #@! TA.AperFunction,Plated,PTH,ComponentDrill
T5C0.0669
; #@! TA.AperFunction,Plated,PTH,ViaDrill
T6C0.1181
; #@! TA.AperFunction,Plated,PTH,ComponentDrill
T7C0.1181
%
G90
G05
T1
X2.6181Y-4.0748
X2.6772Y-2.7165
X2.7165Y-2.9724
X2.7756Y-2.8868
X2.8346Y-3.9961
X2.9528Y-2.5984
X2.9921Y-2.874
X3.1299Y-2.6969
X3.1299Y-3.6024
X3.1299Y-4.1535
X3.189Y-1.9882
X3.248Y-2.0472
X3.248Y-2.126
X3.3465Y-3.189
X3.4252Y-3.5827
X3.4252Y-3.8189
X3.4252Y-4.0551
X3.4252Y-4.2913
X3.5039Y-3.189
X3.5433Y-2.9921
X3.6811Y-2.3031
X3.6811Y-2.8543
X3.878Y-4.2913
X3.9173Y-3.563
X3.937Y-5.1378
X3.9567Y-4.1142
X3.9567Y-4.311
X3.9764Y-3.7205
X4.0354Y-4.8425
X4.0748Y-4.8504
X4.1929Y-3.8976
X4.2815Y-4.6752
X4.3307Y-4.7047
X4.3701Y-5.2953
X4.4685Y-2.5591
X4.6063Y-2.2638
X4.6457Y-2.3031
X4.685Y-5.0197
X4.685Y-5.1378
X4.8819Y-2.4803
X5.0591Y-3.1299
X5.1378Y-5.1378
X5.2165Y-2.4803
X5.2551Y-3.0307
X5.2559Y-2.2638
X5.2953Y-2.3425
X5.3043Y-2.9815
X5.374Y-5.3346
X5.374Y-5.4331
X5.5709Y-3.1102
X5.6299Y-2.9331
X5.6496Y-2.2835
X5.6693Y-2.1457
X5.7087Y-2.5787
X5.9055Y-2.4409
X5.9055Y-2.5394
X5.9843Y-2.2638
X6.2992Y-2.2229
X6.3583Y-2.9134
X6.5748Y-3.189
X6.6929Y-2.3228
X6.752Y-2.7953
X6.9921Y-2.6181
X7.1526Y-2.6309
X7.1531Y-2.4213
X7.1654Y-2.7559
X7.3031Y-2.4803
X7.4016Y-2.6378
X7.4016Y-3.0118
X7.5394Y-3.6614
X7.5787Y-4.9409
X7.7559Y-3.7205
X7.7559Y-4.0945
X7.7953Y-2.6803
X7.9134Y-2.7717
X7.9134Y-3.4449
X7.9134Y-4.3504
X7.9232Y-2.6476
X7.9724Y-4.7835
X8.0315Y-5.1378
X8.0512Y-2.4016
X8.1102Y-3.2677
X8.1201Y-2.4705
X8.1496Y-4.7638
X8.2087Y-2.7165
X8.2276Y-3.6606
X8.2283Y-5.1378
X8.3465Y-3.0118
X8.3563Y-2.5295
X8.4252Y-4.9409
X8.4843Y-3.2677
X8.4843Y-3.7205
X8.4843Y-4.7441
T2
X2.6437Y-3.0587
X2.6437Y-3.2087
X2.6437Y-3.3587
X2.9465Y-4.5866
X3.0465Y-4.5866
X3.1437Y-3.0587
X3.1437Y-3.2087
X3.1437Y-3.3587
X3.1465Y-4.5866
X3.2465Y-4.5866
X3.3465Y-4.5866
X3.4465Y-4.5866
X3.5465Y-4.5866
T3
X4.0701Y-2.0638
X4.1701Y-2.0638
X4.2701Y-2.0638
X4.3701Y-2.0638
X4.5079Y-5.2953
X4.6047Y-2.0669
X4.6079Y-5.2953
X4.7047Y-2.0669
X4.7079Y-5.2953
X4.8079Y-5.2953
X4.9079Y-5.2953
X4.9394Y-2.0669
X5.0079Y-5.2953
X5.0394Y-2.0669
X5.1079Y-5.2953
X5.1394Y-2.0669
X5.2079Y-5.2953
X5.5992Y-5.2953
X5.6992Y-5.2953
X5.7992Y-5.2953
X5.8992Y-5.2953
X5.9992Y-5.2953
X6.0992Y-5.2953
X6.1992Y-5.2953
X6.2992Y-5.2953
T4
X2.8461Y-2.0988
T5
X2.7461Y-1.9988
X2.7461Y-2.1988
X2.9461Y-1.9988
X2.9461Y-2.1988
T6
X2.4803Y-2.4016
X2.4803Y-5.1181
X6.9488Y-5.1181
X8.2677Y-2.1654
T7
X2.7465Y-4.5866
X3.7465Y-4.5866
M30
