%TF.GenerationSoftware,KiCad,Pcbnew,8.0.9-8.0.9-0~ubuntu20.04.1*%
%TF.CreationDate,2026-04-22T12:51:04+10:00*%
%TF.ProjectId,QRPTransceiver,51525054-7261-46e7-9363-65697665722e,rev?*%
%TF.SameCoordinates,Original*%
%TF.FileFunction,Drillmap*%
%TF.FilePolarity,Positive*%
%FSLAX45Y45*%
G04 Gerber Fmt 4.5, Leading zero omitted, Abs format (unit mm)*
G04 Created by KiCad (PCBNEW 8.0.9-8.0.9-0~ubuntu20.04.1) date 2026-04-22 12:51:04*
%MOMM*%
%LPD*%
G01*
G04 APERTURE LIST*
%ADD10C,0.050000*%
%ADD11C,0.200000*%
%ADD12C,0.100000*%
%ADD13C,0.150000*%
%ADD14C,0.170000*%
%ADD15C,0.300000*%
G04 APERTURE END LIST*
D10*
X5750000Y-4500000D02*
X5700000Y-4500000D01*
X5700000Y-14400000D02*
X5700000Y-4500000D01*
X21950000Y-14400000D02*
X5700000Y-14400000D01*
X21950000Y-4500000D02*
X21950000Y-14400000D01*
X5750000Y-4500000D02*
X21950000Y-4500000D01*
D11*
D12*
X6630000Y-10330000D02*
X6670000Y-10370000D01*
X6670000Y-10330000D02*
X6630000Y-10370000D01*
X6780000Y-6880000D02*
X6820000Y-6920000D01*
X6820000Y-6880000D02*
X6780000Y-6920000D01*
X6880000Y-7530000D02*
X6920000Y-7570000D01*
X6920000Y-7530000D02*
X6880000Y-7570000D01*
X7030000Y-7312500D02*
X7070000Y-7352500D01*
X7070000Y-7312500D02*
X7030000Y-7352500D01*
X7180000Y-10130000D02*
X7220000Y-10170000D01*
X7220000Y-10130000D02*
X7180000Y-10170000D01*
X7480000Y-6580000D02*
X7520000Y-6620000D01*
X7520000Y-6580000D02*
X7480000Y-6620000D01*
X7580000Y-7280000D02*
X7620000Y-7320000D01*
X7620000Y-7280000D02*
X7580000Y-7320000D01*
X7930000Y-6830000D02*
X7970000Y-6870000D01*
X7970000Y-6830000D02*
X7930000Y-6870000D01*
X7930000Y-9130000D02*
X7970000Y-9170000D01*
X7970000Y-9130000D02*
X7930000Y-9170000D01*
X7930000Y-10530000D02*
X7970000Y-10570000D01*
X7970000Y-10530000D02*
X7930000Y-10570000D01*
X8080000Y-5030000D02*
X8120000Y-5070000D01*
X8120000Y-5030000D02*
X8080000Y-5070000D01*
X8230000Y-5180000D02*
X8270000Y-5220000D01*
X8270000Y-5180000D02*
X8230000Y-5220000D01*
X8230000Y-5380000D02*
X8270000Y-5420000D01*
X8270000Y-5380000D02*
X8230000Y-5420000D01*
X8480000Y-8080000D02*
X8520000Y-8120000D01*
X8520000Y-8080000D02*
X8480000Y-8120000D01*
X8680000Y-9080000D02*
X8720000Y-9120000D01*
X8720000Y-9080000D02*
X8680000Y-9120000D01*
X8680000Y-9680000D02*
X8720000Y-9720000D01*
X8720000Y-9680000D02*
X8680000Y-9720000D01*
X8680000Y-10280000D02*
X8720000Y-10320000D01*
X8720000Y-10280000D02*
X8680000Y-10320000D01*
X8680000Y-10880000D02*
X8720000Y-10920000D01*
X8720000Y-10880000D02*
X8680000Y-10920000D01*
X8880000Y-8080000D02*
X8920000Y-8120000D01*
X8920000Y-8080000D02*
X8880000Y-8120000D01*
X8980000Y-7580000D02*
X9020000Y-7620000D01*
X9020000Y-7580000D02*
X8980000Y-7620000D01*
X9330000Y-5830000D02*
X9370000Y-5870000D01*
X9370000Y-5830000D02*
X9330000Y-5870000D01*
X9330000Y-7230000D02*
X9370000Y-7270000D01*
X9370000Y-7230000D02*
X9330000Y-7270000D01*
X9830000Y-10880000D02*
X9870000Y-10920000D01*
X9870000Y-10880000D02*
X9830000Y-10920000D01*
X9930000Y-9030000D02*
X9970000Y-9070000D01*
X9970000Y-9030000D02*
X9930000Y-9070000D01*
X9980000Y-13030000D02*
X10020000Y-13070000D01*
X10020000Y-13030000D02*
X9980000Y-13070000D01*
X10030000Y-10430000D02*
X10070000Y-10470000D01*
X10070000Y-10430000D02*
X10030000Y-10470000D01*
X10030000Y-10930000D02*
X10070000Y-10970000D01*
X10070000Y-10930000D02*
X10030000Y-10970000D01*
X10080000Y-9430000D02*
X10120000Y-9470000D01*
X10120000Y-9430000D02*
X10080000Y-9470000D01*
X10230000Y-12280000D02*
X10270000Y-12320000D01*
X10270000Y-12280000D02*
X10230000Y-12320000D01*
X10330000Y-12300000D02*
X10370000Y-12340000D01*
X10370000Y-12300000D02*
X10330000Y-12340000D01*
X10630000Y-9880000D02*
X10670000Y-9920000D01*
X10670000Y-9880000D02*
X10630000Y-9920000D01*
X10855000Y-11855000D02*
X10895000Y-11895000D01*
X10895000Y-11855000D02*
X10855000Y-11895000D01*
X10980000Y-11930000D02*
X11020000Y-11970000D01*
X11020000Y-11930000D02*
X10980000Y-11970000D01*
X11080000Y-13430000D02*
X11120000Y-13470000D01*
X11120000Y-13430000D02*
X11080000Y-13470000D01*
X11330000Y-6480000D02*
X11370000Y-6520000D01*
X11370000Y-6480000D02*
X11330000Y-6520000D01*
X11680000Y-5730000D02*
X11720000Y-5770000D01*
X11720000Y-5730000D02*
X11680000Y-5770000D01*
X11780000Y-5830000D02*
X11820000Y-5870000D01*
X11820000Y-5830000D02*
X11780000Y-5870000D01*
X11880000Y-12730000D02*
X11920000Y-12770000D01*
X11920000Y-12730000D02*
X11880000Y-12770000D01*
X11880000Y-13030000D02*
X11920000Y-13070000D01*
X11920000Y-13030000D02*
X11880000Y-13070000D01*
X12380000Y-6280000D02*
X12420000Y-6320000D01*
X12420000Y-6280000D02*
X12380000Y-6320000D01*
X12830000Y-7930000D02*
X12870000Y-7970000D01*
X12870000Y-7930000D02*
X12830000Y-7970000D01*
X13030000Y-13030000D02*
X13070000Y-13070000D01*
X13070000Y-13030000D02*
X13030000Y-13070000D01*
X13230000Y-6280000D02*
X13270000Y-6320000D01*
X13270000Y-6280000D02*
X13230000Y-6320000D01*
X13328000Y-7678000D02*
X13368000Y-7718000D01*
X13368000Y-7678000D02*
X13328000Y-7718000D01*
X13330000Y-5730000D02*
X13370000Y-5770000D01*
X13370000Y-5730000D02*
X13330000Y-5770000D01*
X13430000Y-5930000D02*
X13470000Y-5970000D01*
X13470000Y-5930000D02*
X13430000Y-5970000D01*
X13453000Y-7553000D02*
X13493000Y-7593000D01*
X13493000Y-7553000D02*
X13453000Y-7593000D01*
X13630000Y-13530000D02*
X13670000Y-13570000D01*
X13670000Y-13530000D02*
X13630000Y-13570000D01*
X13630000Y-13780000D02*
X13670000Y-13820000D01*
X13670000Y-13780000D02*
X13630000Y-13820000D01*
X14130000Y-7880000D02*
X14170000Y-7920000D01*
X14170000Y-7880000D02*
X14130000Y-7920000D01*
X14280000Y-7430000D02*
X14320000Y-7470000D01*
X14320000Y-7430000D02*
X14280000Y-7470000D01*
X14330000Y-5780000D02*
X14370000Y-5820000D01*
X14370000Y-5780000D02*
X14330000Y-5820000D01*
X14380000Y-5430000D02*
X14420000Y-5470000D01*
X14420000Y-5430000D02*
X14380000Y-5470000D01*
X14480000Y-6530000D02*
X14520000Y-6570000D01*
X14520000Y-6530000D02*
X14480000Y-6570000D01*
X14980000Y-6180000D02*
X15020000Y-6220000D01*
X15020000Y-6180000D02*
X14980000Y-6220000D01*
X14980000Y-6430000D02*
X15020000Y-6470000D01*
X15020000Y-6430000D02*
X14980000Y-6470000D01*
X15180000Y-5730000D02*
X15220000Y-5770000D01*
X15220000Y-5730000D02*
X15180000Y-5770000D01*
X15980000Y-5626250D02*
X16020000Y-5666250D01*
X16020000Y-5626250D02*
X15980000Y-5666250D01*
X16130000Y-7380000D02*
X16170000Y-7420000D01*
X16170000Y-7380000D02*
X16130000Y-7420000D01*
X16680000Y-8080000D02*
X16720000Y-8120000D01*
X16720000Y-8080000D02*
X16680000Y-8120000D01*
X16980000Y-5880000D02*
X17020000Y-5920000D01*
X17020000Y-5880000D02*
X16980000Y-5920000D01*
X17130000Y-7080000D02*
X17170000Y-7120000D01*
X17170000Y-7080000D02*
X17130000Y-7120000D01*
X17740000Y-6630000D02*
X17780000Y-6670000D01*
X17780000Y-6630000D02*
X17740000Y-6670000D01*
X18147500Y-6662500D02*
X18187500Y-6702500D01*
X18187500Y-6662500D02*
X18147500Y-6702500D01*
X18148750Y-6130000D02*
X18188750Y-6170000D01*
X18188750Y-6130000D02*
X18148750Y-6170000D01*
X18180000Y-6980000D02*
X18220000Y-7020000D01*
X18220000Y-6980000D02*
X18180000Y-7020000D01*
X18530000Y-6280000D02*
X18570000Y-6320000D01*
X18570000Y-6280000D02*
X18530000Y-6320000D01*
X18780000Y-6680000D02*
X18820000Y-6720000D01*
X18820000Y-6680000D02*
X18780000Y-6720000D01*
X18780000Y-7630000D02*
X18820000Y-7670000D01*
X18820000Y-7630000D02*
X18780000Y-7670000D01*
X19130000Y-9280000D02*
X19170000Y-9320000D01*
X19170000Y-9280000D02*
X19130000Y-9320000D01*
X19230000Y-12530000D02*
X19270000Y-12570000D01*
X19270000Y-12530000D02*
X19230000Y-12570000D01*
X19680000Y-9430000D02*
X19720000Y-9470000D01*
X19720000Y-9430000D02*
X19680000Y-9470000D01*
X19680000Y-10380000D02*
X19720000Y-10420000D01*
X19720000Y-10380000D02*
X19680000Y-10420000D01*
X19780000Y-6788000D02*
X19820000Y-6828000D01*
X19820000Y-6788000D02*
X19780000Y-6828000D01*
X20080000Y-7020000D02*
X20120000Y-7060000D01*
X20120000Y-7020000D02*
X20080000Y-7060000D01*
X20080000Y-8730000D02*
X20120000Y-8770000D01*
X20120000Y-8730000D02*
X20080000Y-8770000D01*
X20080000Y-11030000D02*
X20120000Y-11070000D01*
X20120000Y-11030000D02*
X20080000Y-11070000D01*
X20105000Y-6705000D02*
X20145000Y-6745000D01*
X20145000Y-6705000D02*
X20105000Y-6745000D01*
X20230000Y-12130000D02*
X20270000Y-12170000D01*
X20270000Y-12130000D02*
X20230000Y-12170000D01*
X20380000Y-13030000D02*
X20420000Y-13070000D01*
X20420000Y-13030000D02*
X20380000Y-13070000D01*
X20430000Y-6080000D02*
X20470000Y-6120000D01*
X20470000Y-6080000D02*
X20430000Y-6120000D01*
X20580000Y-8280000D02*
X20620000Y-8320000D01*
X20620000Y-8280000D02*
X20580000Y-8320000D01*
X20605000Y-6255000D02*
X20645000Y-6295000D01*
X20645000Y-6255000D02*
X20605000Y-6295000D01*
X20680000Y-12080000D02*
X20720000Y-12120000D01*
X20720000Y-12080000D02*
X20680000Y-12120000D01*
X20830000Y-6880000D02*
X20870000Y-6920000D01*
X20870000Y-6880000D02*
X20830000Y-6920000D01*
X20878000Y-9278000D02*
X20918000Y-9318000D01*
X20918000Y-9278000D02*
X20878000Y-9318000D01*
X20880000Y-13030000D02*
X20920000Y-13070000D01*
X20920000Y-13030000D02*
X20880000Y-13070000D01*
X21180000Y-7630000D02*
X21220000Y-7670000D01*
X21220000Y-7630000D02*
X21180000Y-7670000D01*
X21205000Y-6405000D02*
X21245000Y-6445000D01*
X21245000Y-6405000D02*
X21205000Y-6445000D01*
X21380000Y-12530000D02*
X21420000Y-12570000D01*
X21420000Y-12530000D02*
X21380000Y-12570000D01*
X21530000Y-8280000D02*
X21570000Y-8320000D01*
X21570000Y-8280000D02*
X21530000Y-8320000D01*
X21530000Y-9430000D02*
X21570000Y-9470000D01*
X21570000Y-9430000D02*
X21530000Y-9470000D01*
X21530000Y-12030000D02*
X21570000Y-12070000D01*
X21570000Y-12030000D02*
X21530000Y-12070000D01*
X6753100Y-7769000D02*
G75*
G02*
X6676900Y-7769000I-38100J0D01*
G01*
X6676900Y-7769000D02*
G75*
G02*
X6753100Y-7769000I38100J0D01*
G01*
X6753100Y-8150000D02*
G75*
G02*
X6676900Y-8150000I-38100J0D01*
G01*
X6676900Y-8150000D02*
G75*
G02*
X6753100Y-8150000I38100J0D01*
G01*
X6753100Y-8531000D02*
G75*
G02*
X6676900Y-8531000I-38100J0D01*
G01*
X6676900Y-8531000D02*
G75*
G02*
X6753100Y-8531000I38100J0D01*
G01*
X7522100Y-11650000D02*
G75*
G02*
X7445900Y-11650000I-38100J0D01*
G01*
X7445900Y-11650000D02*
G75*
G02*
X7522100Y-11650000I38100J0D01*
G01*
X7776100Y-11650000D02*
G75*
G02*
X7699900Y-11650000I-38100J0D01*
G01*
X7699900Y-11650000D02*
G75*
G02*
X7776100Y-11650000I38100J0D01*
G01*
X8023100Y-7769000D02*
G75*
G02*
X7946900Y-7769000I-38100J0D01*
G01*
X7946900Y-7769000D02*
G75*
G02*
X8023100Y-7769000I38100J0D01*
G01*
X8023100Y-8150000D02*
G75*
G02*
X7946900Y-8150000I-38100J0D01*
G01*
X7946900Y-8150000D02*
G75*
G02*
X8023100Y-8150000I38100J0D01*
G01*
X8023100Y-8531000D02*
G75*
G02*
X7946900Y-8531000I-38100J0D01*
G01*
X7946900Y-8531000D02*
G75*
G02*
X8023100Y-8531000I38100J0D01*
G01*
X8030100Y-11650000D02*
G75*
G02*
X7953900Y-11650000I-38100J0D01*
G01*
X7953900Y-11650000D02*
G75*
G02*
X8030100Y-11650000I38100J0D01*
G01*
X8284100Y-11650000D02*
G75*
G02*
X8207900Y-11650000I-38100J0D01*
G01*
X8207900Y-11650000D02*
G75*
G02*
X8284100Y-11650000I38100J0D01*
G01*
X8538100Y-11650000D02*
G75*
G02*
X8461900Y-11650000I-38100J0D01*
G01*
X8461900Y-11650000D02*
G75*
G02*
X8538100Y-11650000I38100J0D01*
G01*
X8792100Y-11650000D02*
G75*
G02*
X8715900Y-11650000I-38100J0D01*
G01*
X8715900Y-11650000D02*
G75*
G02*
X8792100Y-11650000I38100J0D01*
G01*
X9046100Y-11650000D02*
G75*
G02*
X8969900Y-11650000I-38100J0D01*
G01*
X8969900Y-11650000D02*
G75*
G02*
X9046100Y-11650000I38100J0D01*
G01*
X10338000Y-5192000D02*
X10338000Y-5292000D01*
X10288000Y-5242000D02*
X10388000Y-5242000D01*
X10592000Y-5192000D02*
X10592000Y-5292000D01*
X10542000Y-5242000D02*
X10642000Y-5242000D01*
X10846000Y-5192000D02*
X10846000Y-5292000D01*
X10796000Y-5242000D02*
X10896000Y-5242000D01*
X11100000Y-5192000D02*
X11100000Y-5292000D01*
X11050000Y-5242000D02*
X11150000Y-5242000D01*
X11450000Y-13400000D02*
X11450000Y-13500000D01*
X11400000Y-13450000D02*
X11500000Y-13450000D01*
X11696000Y-5200000D02*
X11696000Y-5300000D01*
X11646000Y-5250000D02*
X11746000Y-5250000D01*
X11704000Y-13400000D02*
X11704000Y-13500000D01*
X11654000Y-13450000D02*
X11754000Y-13450000D01*
X11950000Y-5200000D02*
X11950000Y-5300000D01*
X11900000Y-5250000D02*
X12000000Y-5250000D01*
X11958000Y-13400000D02*
X11958000Y-13500000D01*
X11908000Y-13450000D02*
X12008000Y-13450000D01*
X12212000Y-13400000D02*
X12212000Y-13500000D01*
X12162000Y-13450000D02*
X12262000Y-13450000D01*
X12466000Y-13400000D02*
X12466000Y-13500000D01*
X12416000Y-13450000D02*
X12516000Y-13450000D01*
X12546000Y-5200000D02*
X12546000Y-5300000D01*
X12496000Y-5250000D02*
X12596000Y-5250000D01*
X12720000Y-13400000D02*
X12720000Y-13500000D01*
X12670000Y-13450000D02*
X12770000Y-13450000D01*
X12800000Y-5200000D02*
X12800000Y-5300000D01*
X12750000Y-5250000D02*
X12850000Y-5250000D01*
X12974000Y-13400000D02*
X12974000Y-13500000D01*
X12924000Y-13450000D02*
X13024000Y-13450000D01*
X13054000Y-5200000D02*
X13054000Y-5300000D01*
X13004000Y-5250000D02*
X13104000Y-5250000D01*
X13228000Y-13400000D02*
X13228000Y-13500000D01*
X13178000Y-13450000D02*
X13278000Y-13450000D01*
X14222000Y-13400000D02*
X14222000Y-13500000D01*
X14172000Y-13450000D02*
X14272000Y-13450000D01*
X14476000Y-13400000D02*
X14476000Y-13500000D01*
X14426000Y-13450000D02*
X14526000Y-13450000D01*
X14730000Y-13400000D02*
X14730000Y-13500000D01*
X14680000Y-13450000D02*
X14780000Y-13450000D01*
X14984000Y-13400000D02*
X14984000Y-13500000D01*
X14934000Y-13450000D02*
X15034000Y-13450000D01*
X15238000Y-13400000D02*
X15238000Y-13500000D01*
X15188000Y-13450000D02*
X15288000Y-13450000D01*
X15492000Y-13400000D02*
X15492000Y-13500000D01*
X15442000Y-13450000D02*
X15542000Y-13450000D01*
X15746000Y-13400000D02*
X15746000Y-13500000D01*
X15696000Y-13450000D02*
X15796000Y-13450000D01*
X16000000Y-13400000D02*
X16000000Y-13500000D01*
X15950000Y-13450000D02*
X16050000Y-13450000D01*
D13*
X7282033Y-5384034D02*
X7282033Y-5277967D01*
X7175966Y-5277967D01*
X7175966Y-5384034D01*
X7282033Y-5384034D01*
D14*
X6975000Y-5162000D02*
X7060000Y-5077000D01*
X6975000Y-4992000D01*
X6890000Y-5077000D01*
X6975000Y-5162000D01*
X6975000Y-5670000D02*
X7060000Y-5585000D01*
X6975000Y-5500000D01*
X6890000Y-5585000D01*
X6975000Y-5670000D01*
X7483000Y-5162000D02*
X7568000Y-5077000D01*
X7483000Y-4992000D01*
X7398000Y-5077000D01*
X7483000Y-5162000D01*
X7483000Y-5670000D02*
X7568000Y-5585000D01*
X7483000Y-5500000D01*
X7398000Y-5585000D01*
X7483000Y-5670000D01*
D15*
X6150000Y-5950000D02*
X6450000Y-6250000D01*
X6450000Y-5950000D02*
X6150000Y-6250000D01*
X6450000Y-6100000D02*
G75*
G02*
X6150000Y-6100000I-150000J0D01*
G01*
X6150000Y-6100000D02*
G75*
G02*
X6450000Y-6100000I150000J0D01*
G01*
X6150000Y-12850000D02*
X6450000Y-13150000D01*
X6450000Y-12850000D02*
X6150000Y-13150000D01*
X6450000Y-13000000D02*
G75*
G02*
X6150000Y-13000000I-150000J0D01*
G01*
X6150000Y-13000000D02*
G75*
G02*
X6450000Y-13000000I150000J0D01*
G01*
X17500000Y-12850000D02*
X17800000Y-13150000D01*
X17800000Y-12850000D02*
X17500000Y-13150000D01*
X17800000Y-13000000D02*
G75*
G02*
X17500000Y-13000000I-150000J0D01*
G01*
X17500000Y-13000000D02*
G75*
G02*
X17800000Y-13000000I150000J0D01*
G01*
X20850000Y-5350000D02*
X21150000Y-5650000D01*
X21150000Y-5350000D02*
X20850000Y-5650000D01*
X21150000Y-5500000D02*
G75*
G02*
X20850000Y-5500000I-150000J0D01*
G01*
X20850000Y-5500000D02*
G75*
G02*
X21150000Y-5500000I150000J0D01*
G01*
X6826000Y-11500000D02*
X7126000Y-11800000D01*
X7126000Y-11500000D02*
X6826000Y-11800000D01*
X6976000Y-11500000D02*
X6976000Y-11800000D01*
X6826000Y-11650000D02*
X7126000Y-11650000D01*
X9366000Y-11500000D02*
X9666000Y-11800000D01*
X9666000Y-11500000D02*
X9366000Y-11800000D01*
X9516000Y-11500000D02*
X9516000Y-11800000D01*
X9366000Y-11650000D02*
X9666000Y-11650000D01*
D11*
X5958277Y-14713984D02*
X5958277Y-14513984D01*
X5958277Y-14513984D02*
X6005896Y-14513984D01*
X6005896Y-14513984D02*
X6034467Y-14523508D01*
X6034467Y-14523508D02*
X6053515Y-14542555D01*
X6053515Y-14542555D02*
X6063039Y-14561603D01*
X6063039Y-14561603D02*
X6072562Y-14599698D01*
X6072562Y-14599698D02*
X6072562Y-14628269D01*
X6072562Y-14628269D02*
X6063039Y-14666365D01*
X6063039Y-14666365D02*
X6053515Y-14685412D01*
X6053515Y-14685412D02*
X6034467Y-14704460D01*
X6034467Y-14704460D02*
X6005896Y-14713984D01*
X6005896Y-14713984D02*
X5958277Y-14713984D01*
X6158277Y-14713984D02*
X6158277Y-14580650D01*
X6158277Y-14618746D02*
X6167801Y-14599698D01*
X6167801Y-14599698D02*
X6177324Y-14590174D01*
X6177324Y-14590174D02*
X6196372Y-14580650D01*
X6196372Y-14580650D02*
X6215420Y-14580650D01*
X6282086Y-14713984D02*
X6282086Y-14580650D01*
X6282086Y-14513984D02*
X6272562Y-14523508D01*
X6272562Y-14523508D02*
X6282086Y-14533031D01*
X6282086Y-14533031D02*
X6291610Y-14523508D01*
X6291610Y-14523508D02*
X6282086Y-14513984D01*
X6282086Y-14513984D02*
X6282086Y-14533031D01*
X6405896Y-14713984D02*
X6386848Y-14704460D01*
X6386848Y-14704460D02*
X6377324Y-14685412D01*
X6377324Y-14685412D02*
X6377324Y-14513984D01*
X6510658Y-14713984D02*
X6491610Y-14704460D01*
X6491610Y-14704460D02*
X6482086Y-14685412D01*
X6482086Y-14685412D02*
X6482086Y-14513984D01*
X6739229Y-14713984D02*
X6739229Y-14513984D01*
X6739229Y-14513984D02*
X6805896Y-14656841D01*
X6805896Y-14656841D02*
X6872562Y-14513984D01*
X6872562Y-14513984D02*
X6872562Y-14713984D01*
X7053515Y-14713984D02*
X7053515Y-14609222D01*
X7053515Y-14609222D02*
X7043991Y-14590174D01*
X7043991Y-14590174D02*
X7024943Y-14580650D01*
X7024943Y-14580650D02*
X6986848Y-14580650D01*
X6986848Y-14580650D02*
X6967801Y-14590174D01*
X7053515Y-14704460D02*
X7034467Y-14713984D01*
X7034467Y-14713984D02*
X6986848Y-14713984D01*
X6986848Y-14713984D02*
X6967801Y-14704460D01*
X6967801Y-14704460D02*
X6958277Y-14685412D01*
X6958277Y-14685412D02*
X6958277Y-14666365D01*
X6958277Y-14666365D02*
X6967801Y-14647317D01*
X6967801Y-14647317D02*
X6986848Y-14637793D01*
X6986848Y-14637793D02*
X7034467Y-14637793D01*
X7034467Y-14637793D02*
X7053515Y-14628269D01*
X7148753Y-14580650D02*
X7148753Y-14780650D01*
X7148753Y-14590174D02*
X7167801Y-14580650D01*
X7167801Y-14580650D02*
X7205896Y-14580650D01*
X7205896Y-14580650D02*
X7224943Y-14590174D01*
X7224943Y-14590174D02*
X7234467Y-14599698D01*
X7234467Y-14599698D02*
X7243991Y-14618746D01*
X7243991Y-14618746D02*
X7243991Y-14675888D01*
X7243991Y-14675888D02*
X7234467Y-14694936D01*
X7234467Y-14694936D02*
X7224943Y-14704460D01*
X7224943Y-14704460D02*
X7205896Y-14713984D01*
X7205896Y-14713984D02*
X7167801Y-14713984D01*
X7167801Y-14713984D02*
X7148753Y-14704460D01*
X7329705Y-14694936D02*
X7339229Y-14704460D01*
X7339229Y-14704460D02*
X7329705Y-14713984D01*
X7329705Y-14713984D02*
X7320182Y-14704460D01*
X7320182Y-14704460D02*
X7329705Y-14694936D01*
X7329705Y-14694936D02*
X7329705Y-14713984D01*
X7329705Y-14590174D02*
X7339229Y-14599698D01*
X7339229Y-14599698D02*
X7329705Y-14609222D01*
X7329705Y-14609222D02*
X7320182Y-14599698D01*
X7320182Y-14599698D02*
X7329705Y-14590174D01*
X7329705Y-14590174D02*
X7329705Y-14609222D01*
D12*
X5657500Y-15022500D02*
X5697500Y-15062500D01*
X5697500Y-15022500D02*
X5657500Y-15062500D01*
D11*
X5996372Y-14933984D02*
X6015420Y-14933984D01*
X6015420Y-14933984D02*
X6034467Y-14943508D01*
X6034467Y-14943508D02*
X6043991Y-14953031D01*
X6043991Y-14953031D02*
X6053515Y-14972079D01*
X6053515Y-14972079D02*
X6063039Y-15010174D01*
X6063039Y-15010174D02*
X6063039Y-15057793D01*
X6063039Y-15057793D02*
X6053515Y-15095888D01*
X6053515Y-15095888D02*
X6043991Y-15114936D01*
X6043991Y-15114936D02*
X6034467Y-15124460D01*
X6034467Y-15124460D02*
X6015420Y-15133984D01*
X6015420Y-15133984D02*
X5996372Y-15133984D01*
X5996372Y-15133984D02*
X5977324Y-15124460D01*
X5977324Y-15124460D02*
X5967801Y-15114936D01*
X5967801Y-15114936D02*
X5958277Y-15095888D01*
X5958277Y-15095888D02*
X5948753Y-15057793D01*
X5948753Y-15057793D02*
X5948753Y-15010174D01*
X5948753Y-15010174D02*
X5958277Y-14972079D01*
X5958277Y-14972079D02*
X5967801Y-14953031D01*
X5967801Y-14953031D02*
X5977324Y-14943508D01*
X5977324Y-14943508D02*
X5996372Y-14933984D01*
X6148753Y-15114936D02*
X6158277Y-15124460D01*
X6158277Y-15124460D02*
X6148753Y-15133984D01*
X6148753Y-15133984D02*
X6139229Y-15124460D01*
X6139229Y-15124460D02*
X6148753Y-15114936D01*
X6148753Y-15114936D02*
X6148753Y-15133984D01*
X6329705Y-15000650D02*
X6329705Y-15133984D01*
X6282086Y-14924460D02*
X6234467Y-15067317D01*
X6234467Y-15067317D02*
X6358277Y-15067317D01*
X6472562Y-14933984D02*
X6491610Y-14933984D01*
X6491610Y-14933984D02*
X6510658Y-14943508D01*
X6510658Y-14943508D02*
X6520182Y-14953031D01*
X6520182Y-14953031D02*
X6529705Y-14972079D01*
X6529705Y-14972079D02*
X6539229Y-15010174D01*
X6539229Y-15010174D02*
X6539229Y-15057793D01*
X6539229Y-15057793D02*
X6529705Y-15095888D01*
X6529705Y-15095888D02*
X6520182Y-15114936D01*
X6520182Y-15114936D02*
X6510658Y-15124460D01*
X6510658Y-15124460D02*
X6491610Y-15133984D01*
X6491610Y-15133984D02*
X6472562Y-15133984D01*
X6472562Y-15133984D02*
X6453515Y-15124460D01*
X6453515Y-15124460D02*
X6443991Y-15114936D01*
X6443991Y-15114936D02*
X6434467Y-15095888D01*
X6434467Y-15095888D02*
X6424943Y-15057793D01*
X6424943Y-15057793D02*
X6424943Y-15010174D01*
X6424943Y-15010174D02*
X6434467Y-14972079D01*
X6434467Y-14972079D02*
X6443991Y-14953031D01*
X6443991Y-14953031D02*
X6453515Y-14943508D01*
X6453515Y-14943508D02*
X6472562Y-14933984D01*
X6663039Y-14933984D02*
X6682086Y-14933984D01*
X6682086Y-14933984D02*
X6701134Y-14943508D01*
X6701134Y-14943508D02*
X6710658Y-14953031D01*
X6710658Y-14953031D02*
X6720182Y-14972079D01*
X6720182Y-14972079D02*
X6729705Y-15010174D01*
X6729705Y-15010174D02*
X6729705Y-15057793D01*
X6729705Y-15057793D02*
X6720182Y-15095888D01*
X6720182Y-15095888D02*
X6710658Y-15114936D01*
X6710658Y-15114936D02*
X6701134Y-15124460D01*
X6701134Y-15124460D02*
X6682086Y-15133984D01*
X6682086Y-15133984D02*
X6663039Y-15133984D01*
X6663039Y-15133984D02*
X6643991Y-15124460D01*
X6643991Y-15124460D02*
X6634467Y-15114936D01*
X6634467Y-15114936D02*
X6624943Y-15095888D01*
X6624943Y-15095888D02*
X6615420Y-15057793D01*
X6615420Y-15057793D02*
X6615420Y-15010174D01*
X6615420Y-15010174D02*
X6624943Y-14972079D01*
X6624943Y-14972079D02*
X6634467Y-14953031D01*
X6634467Y-14953031D02*
X6643991Y-14943508D01*
X6643991Y-14943508D02*
X6663039Y-14933984D01*
X6815420Y-15133984D02*
X6815420Y-15000650D01*
X6815420Y-15019698D02*
X6824943Y-15010174D01*
X6824943Y-15010174D02*
X6843991Y-15000650D01*
X6843991Y-15000650D02*
X6872563Y-15000650D01*
X6872563Y-15000650D02*
X6891610Y-15010174D01*
X6891610Y-15010174D02*
X6901134Y-15029222D01*
X6901134Y-15029222D02*
X6901134Y-15133984D01*
X6901134Y-15029222D02*
X6910658Y-15010174D01*
X6910658Y-15010174D02*
X6929705Y-15000650D01*
X6929705Y-15000650D02*
X6958277Y-15000650D01*
X6958277Y-15000650D02*
X6977324Y-15010174D01*
X6977324Y-15010174D02*
X6986848Y-15029222D01*
X6986848Y-15029222D02*
X6986848Y-15133984D01*
X7082086Y-15133984D02*
X7082086Y-15000650D01*
X7082086Y-15019698D02*
X7091610Y-15010174D01*
X7091610Y-15010174D02*
X7110658Y-15000650D01*
X7110658Y-15000650D02*
X7139229Y-15000650D01*
X7139229Y-15000650D02*
X7158277Y-15010174D01*
X7158277Y-15010174D02*
X7167801Y-15029222D01*
X7167801Y-15029222D02*
X7167801Y-15133984D01*
X7167801Y-15029222D02*
X7177324Y-15010174D01*
X7177324Y-15010174D02*
X7196372Y-15000650D01*
X7196372Y-15000650D02*
X7224943Y-15000650D01*
X7224943Y-15000650D02*
X7243991Y-15010174D01*
X7243991Y-15010174D02*
X7253515Y-15029222D01*
X7253515Y-15029222D02*
X7253515Y-15133984D01*
X7643991Y-14924460D02*
X7472563Y-15181603D01*
X7901134Y-14933984D02*
X7920182Y-14933984D01*
X7920182Y-14933984D02*
X7939229Y-14943508D01*
X7939229Y-14943508D02*
X7948753Y-14953031D01*
X7948753Y-14953031D02*
X7958277Y-14972079D01*
X7958277Y-14972079D02*
X7967801Y-15010174D01*
X7967801Y-15010174D02*
X7967801Y-15057793D01*
X7967801Y-15057793D02*
X7958277Y-15095888D01*
X7958277Y-15095888D02*
X7948753Y-15114936D01*
X7948753Y-15114936D02*
X7939229Y-15124460D01*
X7939229Y-15124460D02*
X7920182Y-15133984D01*
X7920182Y-15133984D02*
X7901134Y-15133984D01*
X7901134Y-15133984D02*
X7882086Y-15124460D01*
X7882086Y-15124460D02*
X7872563Y-15114936D01*
X7872563Y-15114936D02*
X7863039Y-15095888D01*
X7863039Y-15095888D02*
X7853515Y-15057793D01*
X7853515Y-15057793D02*
X7853515Y-15010174D01*
X7853515Y-15010174D02*
X7863039Y-14972079D01*
X7863039Y-14972079D02*
X7872563Y-14953031D01*
X7872563Y-14953031D02*
X7882086Y-14943508D01*
X7882086Y-14943508D02*
X7901134Y-14933984D01*
X8053515Y-15114936D02*
X8063039Y-15124460D01*
X8063039Y-15124460D02*
X8053515Y-15133984D01*
X8053515Y-15133984D02*
X8043991Y-15124460D01*
X8043991Y-15124460D02*
X8053515Y-15114936D01*
X8053515Y-15114936D02*
X8053515Y-15133984D01*
X8186848Y-14933984D02*
X8205896Y-14933984D01*
X8205896Y-14933984D02*
X8224944Y-14943508D01*
X8224944Y-14943508D02*
X8234467Y-14953031D01*
X8234467Y-14953031D02*
X8243991Y-14972079D01*
X8243991Y-14972079D02*
X8253515Y-15010174D01*
X8253515Y-15010174D02*
X8253515Y-15057793D01*
X8253515Y-15057793D02*
X8243991Y-15095888D01*
X8243991Y-15095888D02*
X8234467Y-15114936D01*
X8234467Y-15114936D02*
X8224944Y-15124460D01*
X8224944Y-15124460D02*
X8205896Y-15133984D01*
X8205896Y-15133984D02*
X8186848Y-15133984D01*
X8186848Y-15133984D02*
X8167801Y-15124460D01*
X8167801Y-15124460D02*
X8158277Y-15114936D01*
X8158277Y-15114936D02*
X8148753Y-15095888D01*
X8148753Y-15095888D02*
X8139229Y-15057793D01*
X8139229Y-15057793D02*
X8139229Y-15010174D01*
X8139229Y-15010174D02*
X8148753Y-14972079D01*
X8148753Y-14972079D02*
X8158277Y-14953031D01*
X8158277Y-14953031D02*
X8167801Y-14943508D01*
X8167801Y-14943508D02*
X8186848Y-14933984D01*
X8443991Y-15133984D02*
X8329706Y-15133984D01*
X8386848Y-15133984D02*
X8386848Y-14933984D01*
X8386848Y-14933984D02*
X8367801Y-14962555D01*
X8367801Y-14962555D02*
X8348753Y-14981603D01*
X8348753Y-14981603D02*
X8329706Y-14991127D01*
X8624944Y-14933984D02*
X8529706Y-14933984D01*
X8529706Y-14933984D02*
X8520182Y-15029222D01*
X8520182Y-15029222D02*
X8529706Y-15019698D01*
X8529706Y-15019698D02*
X8548753Y-15010174D01*
X8548753Y-15010174D02*
X8596372Y-15010174D01*
X8596372Y-15010174D02*
X8615420Y-15019698D01*
X8615420Y-15019698D02*
X8624944Y-15029222D01*
X8624944Y-15029222D02*
X8634468Y-15048269D01*
X8634468Y-15048269D02*
X8634468Y-15095888D01*
X8634468Y-15095888D02*
X8624944Y-15114936D01*
X8624944Y-15114936D02*
X8615420Y-15124460D01*
X8615420Y-15124460D02*
X8596372Y-15133984D01*
X8596372Y-15133984D02*
X8548753Y-15133984D01*
X8548753Y-15133984D02*
X8529706Y-15124460D01*
X8529706Y-15124460D02*
X8520182Y-15114936D01*
X8701134Y-14933984D02*
X8834468Y-14933984D01*
X8834468Y-14933984D02*
X8748753Y-15133984D01*
X8901134Y-14933984D02*
X8901134Y-14972079D01*
X8977325Y-14933984D02*
X8977325Y-14972079D01*
X9272563Y-15210174D02*
X9263039Y-15200650D01*
X9263039Y-15200650D02*
X9243991Y-15172079D01*
X9243991Y-15172079D02*
X9234468Y-15153031D01*
X9234468Y-15153031D02*
X9224944Y-15124460D01*
X9224944Y-15124460D02*
X9215420Y-15076841D01*
X9215420Y-15076841D02*
X9215420Y-15038746D01*
X9215420Y-15038746D02*
X9224944Y-14991127D01*
X9224944Y-14991127D02*
X9234468Y-14962555D01*
X9234468Y-14962555D02*
X9243991Y-14943508D01*
X9243991Y-14943508D02*
X9263039Y-14914936D01*
X9263039Y-14914936D02*
X9272563Y-14905412D01*
X9358277Y-15133984D02*
X9396372Y-15133984D01*
X9396372Y-15133984D02*
X9415420Y-15124460D01*
X9415420Y-15124460D02*
X9424944Y-15114936D01*
X9424944Y-15114936D02*
X9443991Y-15086365D01*
X9443991Y-15086365D02*
X9453515Y-15048269D01*
X9453515Y-15048269D02*
X9453515Y-14972079D01*
X9453515Y-14972079D02*
X9443991Y-14953031D01*
X9443991Y-14953031D02*
X9434468Y-14943508D01*
X9434468Y-14943508D02*
X9415420Y-14933984D01*
X9415420Y-14933984D02*
X9377325Y-14933984D01*
X9377325Y-14933984D02*
X9358277Y-14943508D01*
X9358277Y-14943508D02*
X9348753Y-14953031D01*
X9348753Y-14953031D02*
X9339230Y-14972079D01*
X9339230Y-14972079D02*
X9339230Y-15019698D01*
X9339230Y-15019698D02*
X9348753Y-15038746D01*
X9348753Y-15038746D02*
X9358277Y-15048269D01*
X9358277Y-15048269D02*
X9377325Y-15057793D01*
X9377325Y-15057793D02*
X9415420Y-15057793D01*
X9415420Y-15057793D02*
X9434468Y-15048269D01*
X9434468Y-15048269D02*
X9443991Y-15038746D01*
X9443991Y-15038746D02*
X9453515Y-15019698D01*
X9520182Y-14933984D02*
X9643991Y-14933984D01*
X9643991Y-14933984D02*
X9577325Y-15010174D01*
X9577325Y-15010174D02*
X9605896Y-15010174D01*
X9605896Y-15010174D02*
X9624944Y-15019698D01*
X9624944Y-15019698D02*
X9634468Y-15029222D01*
X9634468Y-15029222D02*
X9643991Y-15048269D01*
X9643991Y-15048269D02*
X9643991Y-15095888D01*
X9643991Y-15095888D02*
X9634468Y-15114936D01*
X9634468Y-15114936D02*
X9624944Y-15124460D01*
X9624944Y-15124460D02*
X9605896Y-15133984D01*
X9605896Y-15133984D02*
X9548753Y-15133984D01*
X9548753Y-15133984D02*
X9529706Y-15124460D01*
X9529706Y-15124460D02*
X9520182Y-15114936D01*
X9882087Y-15133984D02*
X9882087Y-14933984D01*
X9967801Y-15133984D02*
X9967801Y-15029222D01*
X9967801Y-15029222D02*
X9958277Y-15010174D01*
X9958277Y-15010174D02*
X9939230Y-15000650D01*
X9939230Y-15000650D02*
X9910658Y-15000650D01*
X9910658Y-15000650D02*
X9891611Y-15010174D01*
X9891611Y-15010174D02*
X9882087Y-15019698D01*
X10091611Y-15133984D02*
X10072563Y-15124460D01*
X10072563Y-15124460D02*
X10063039Y-15114936D01*
X10063039Y-15114936D02*
X10053515Y-15095888D01*
X10053515Y-15095888D02*
X10053515Y-15038746D01*
X10053515Y-15038746D02*
X10063039Y-15019698D01*
X10063039Y-15019698D02*
X10072563Y-15010174D01*
X10072563Y-15010174D02*
X10091611Y-15000650D01*
X10091611Y-15000650D02*
X10120182Y-15000650D01*
X10120182Y-15000650D02*
X10139230Y-15010174D01*
X10139230Y-15010174D02*
X10148753Y-15019698D01*
X10148753Y-15019698D02*
X10158277Y-15038746D01*
X10158277Y-15038746D02*
X10158277Y-15095888D01*
X10158277Y-15095888D02*
X10148753Y-15114936D01*
X10148753Y-15114936D02*
X10139230Y-15124460D01*
X10139230Y-15124460D02*
X10120182Y-15133984D01*
X10120182Y-15133984D02*
X10091611Y-15133984D01*
X10272563Y-15133984D02*
X10253515Y-15124460D01*
X10253515Y-15124460D02*
X10243992Y-15105412D01*
X10243992Y-15105412D02*
X10243992Y-14933984D01*
X10424944Y-15124460D02*
X10405896Y-15133984D01*
X10405896Y-15133984D02*
X10367801Y-15133984D01*
X10367801Y-15133984D02*
X10348753Y-15124460D01*
X10348753Y-15124460D02*
X10339230Y-15105412D01*
X10339230Y-15105412D02*
X10339230Y-15029222D01*
X10339230Y-15029222D02*
X10348753Y-15010174D01*
X10348753Y-15010174D02*
X10367801Y-15000650D01*
X10367801Y-15000650D02*
X10405896Y-15000650D01*
X10405896Y-15000650D02*
X10424944Y-15010174D01*
X10424944Y-15010174D02*
X10434468Y-15029222D01*
X10434468Y-15029222D02*
X10434468Y-15048269D01*
X10434468Y-15048269D02*
X10339230Y-15067317D01*
X10510658Y-15124460D02*
X10529706Y-15133984D01*
X10529706Y-15133984D02*
X10567801Y-15133984D01*
X10567801Y-15133984D02*
X10586849Y-15124460D01*
X10586849Y-15124460D02*
X10596373Y-15105412D01*
X10596373Y-15105412D02*
X10596373Y-15095888D01*
X10596373Y-15095888D02*
X10586849Y-15076841D01*
X10586849Y-15076841D02*
X10567801Y-15067317D01*
X10567801Y-15067317D02*
X10539230Y-15067317D01*
X10539230Y-15067317D02*
X10520182Y-15057793D01*
X10520182Y-15057793D02*
X10510658Y-15038746D01*
X10510658Y-15038746D02*
X10510658Y-15029222D01*
X10510658Y-15029222D02*
X10520182Y-15010174D01*
X10520182Y-15010174D02*
X10539230Y-15000650D01*
X10539230Y-15000650D02*
X10567801Y-15000650D01*
X10567801Y-15000650D02*
X10586849Y-15010174D01*
X10663039Y-15210174D02*
X10672563Y-15200650D01*
X10672563Y-15200650D02*
X10691611Y-15172079D01*
X10691611Y-15172079D02*
X10701134Y-15153031D01*
X10701134Y-15153031D02*
X10710658Y-15124460D01*
X10710658Y-15124460D02*
X10720182Y-15076841D01*
X10720182Y-15076841D02*
X10720182Y-15038746D01*
X10720182Y-15038746D02*
X10710658Y-14991127D01*
X10710658Y-14991127D02*
X10701134Y-14962555D01*
X10701134Y-14962555D02*
X10691611Y-14943508D01*
X10691611Y-14943508D02*
X10672563Y-14914936D01*
X10672563Y-14914936D02*
X10663039Y-14905412D01*
D12*
X5697500Y-15306500D02*
G75*
G02*
X5621300Y-15306500I-38100J0D01*
G01*
X5621300Y-15306500D02*
G75*
G02*
X5697500Y-15306500I38100J0D01*
G01*
D11*
X5996372Y-15197984D02*
X6015420Y-15197984D01*
X6015420Y-15197984D02*
X6034467Y-15207508D01*
X6034467Y-15207508D02*
X6043991Y-15217031D01*
X6043991Y-15217031D02*
X6053515Y-15236079D01*
X6053515Y-15236079D02*
X6063039Y-15274174D01*
X6063039Y-15274174D02*
X6063039Y-15321793D01*
X6063039Y-15321793D02*
X6053515Y-15359888D01*
X6053515Y-15359888D02*
X6043991Y-15378936D01*
X6043991Y-15378936D02*
X6034467Y-15388460D01*
X6034467Y-15388460D02*
X6015420Y-15397984D01*
X6015420Y-15397984D02*
X5996372Y-15397984D01*
X5996372Y-15397984D02*
X5977324Y-15388460D01*
X5977324Y-15388460D02*
X5967801Y-15378936D01*
X5967801Y-15378936D02*
X5958277Y-15359888D01*
X5958277Y-15359888D02*
X5948753Y-15321793D01*
X5948753Y-15321793D02*
X5948753Y-15274174D01*
X5948753Y-15274174D02*
X5958277Y-15236079D01*
X5958277Y-15236079D02*
X5967801Y-15217031D01*
X5967801Y-15217031D02*
X5977324Y-15207508D01*
X5977324Y-15207508D02*
X5996372Y-15197984D01*
X6148753Y-15378936D02*
X6158277Y-15388460D01*
X6158277Y-15388460D02*
X6148753Y-15397984D01*
X6148753Y-15397984D02*
X6139229Y-15388460D01*
X6139229Y-15388460D02*
X6148753Y-15378936D01*
X6148753Y-15378936D02*
X6148753Y-15397984D01*
X6224943Y-15197984D02*
X6358277Y-15197984D01*
X6358277Y-15197984D02*
X6272562Y-15397984D01*
X6520182Y-15197984D02*
X6482086Y-15197984D01*
X6482086Y-15197984D02*
X6463039Y-15207508D01*
X6463039Y-15207508D02*
X6453515Y-15217031D01*
X6453515Y-15217031D02*
X6434467Y-15245603D01*
X6434467Y-15245603D02*
X6424943Y-15283698D01*
X6424943Y-15283698D02*
X6424943Y-15359888D01*
X6424943Y-15359888D02*
X6434467Y-15378936D01*
X6434467Y-15378936D02*
X6443991Y-15388460D01*
X6443991Y-15388460D02*
X6463039Y-15397984D01*
X6463039Y-15397984D02*
X6501134Y-15397984D01*
X6501134Y-15397984D02*
X6520182Y-15388460D01*
X6520182Y-15388460D02*
X6529705Y-15378936D01*
X6529705Y-15378936D02*
X6539229Y-15359888D01*
X6539229Y-15359888D02*
X6539229Y-15312269D01*
X6539229Y-15312269D02*
X6529705Y-15293222D01*
X6529705Y-15293222D02*
X6520182Y-15283698D01*
X6520182Y-15283698D02*
X6501134Y-15274174D01*
X6501134Y-15274174D02*
X6463039Y-15274174D01*
X6463039Y-15274174D02*
X6443991Y-15283698D01*
X6443991Y-15283698D02*
X6434467Y-15293222D01*
X6434467Y-15293222D02*
X6424943Y-15312269D01*
X6615420Y-15217031D02*
X6624943Y-15207508D01*
X6624943Y-15207508D02*
X6643991Y-15197984D01*
X6643991Y-15197984D02*
X6691610Y-15197984D01*
X6691610Y-15197984D02*
X6710658Y-15207508D01*
X6710658Y-15207508D02*
X6720182Y-15217031D01*
X6720182Y-15217031D02*
X6729705Y-15236079D01*
X6729705Y-15236079D02*
X6729705Y-15255127D01*
X6729705Y-15255127D02*
X6720182Y-15283698D01*
X6720182Y-15283698D02*
X6605896Y-15397984D01*
X6605896Y-15397984D02*
X6729705Y-15397984D01*
X6815420Y-15397984D02*
X6815420Y-15264650D01*
X6815420Y-15283698D02*
X6824943Y-15274174D01*
X6824943Y-15274174D02*
X6843991Y-15264650D01*
X6843991Y-15264650D02*
X6872563Y-15264650D01*
X6872563Y-15264650D02*
X6891610Y-15274174D01*
X6891610Y-15274174D02*
X6901134Y-15293222D01*
X6901134Y-15293222D02*
X6901134Y-15397984D01*
X6901134Y-15293222D02*
X6910658Y-15274174D01*
X6910658Y-15274174D02*
X6929705Y-15264650D01*
X6929705Y-15264650D02*
X6958277Y-15264650D01*
X6958277Y-15264650D02*
X6977324Y-15274174D01*
X6977324Y-15274174D02*
X6986848Y-15293222D01*
X6986848Y-15293222D02*
X6986848Y-15397984D01*
X7082086Y-15397984D02*
X7082086Y-15264650D01*
X7082086Y-15283698D02*
X7091610Y-15274174D01*
X7091610Y-15274174D02*
X7110658Y-15264650D01*
X7110658Y-15264650D02*
X7139229Y-15264650D01*
X7139229Y-15264650D02*
X7158277Y-15274174D01*
X7158277Y-15274174D02*
X7167801Y-15293222D01*
X7167801Y-15293222D02*
X7167801Y-15397984D01*
X7167801Y-15293222D02*
X7177324Y-15274174D01*
X7177324Y-15274174D02*
X7196372Y-15264650D01*
X7196372Y-15264650D02*
X7224943Y-15264650D01*
X7224943Y-15264650D02*
X7243991Y-15274174D01*
X7243991Y-15274174D02*
X7253515Y-15293222D01*
X7253515Y-15293222D02*
X7253515Y-15397984D01*
X7643991Y-15188460D02*
X7472563Y-15445603D01*
X7901134Y-15197984D02*
X7920182Y-15197984D01*
X7920182Y-15197984D02*
X7939229Y-15207508D01*
X7939229Y-15207508D02*
X7948753Y-15217031D01*
X7948753Y-15217031D02*
X7958277Y-15236079D01*
X7958277Y-15236079D02*
X7967801Y-15274174D01*
X7967801Y-15274174D02*
X7967801Y-15321793D01*
X7967801Y-15321793D02*
X7958277Y-15359888D01*
X7958277Y-15359888D02*
X7948753Y-15378936D01*
X7948753Y-15378936D02*
X7939229Y-15388460D01*
X7939229Y-15388460D02*
X7920182Y-15397984D01*
X7920182Y-15397984D02*
X7901134Y-15397984D01*
X7901134Y-15397984D02*
X7882086Y-15388460D01*
X7882086Y-15388460D02*
X7872563Y-15378936D01*
X7872563Y-15378936D02*
X7863039Y-15359888D01*
X7863039Y-15359888D02*
X7853515Y-15321793D01*
X7853515Y-15321793D02*
X7853515Y-15274174D01*
X7853515Y-15274174D02*
X7863039Y-15236079D01*
X7863039Y-15236079D02*
X7872563Y-15217031D01*
X7872563Y-15217031D02*
X7882086Y-15207508D01*
X7882086Y-15207508D02*
X7901134Y-15197984D01*
X8053515Y-15378936D02*
X8063039Y-15388460D01*
X8063039Y-15388460D02*
X8053515Y-15397984D01*
X8053515Y-15397984D02*
X8043991Y-15388460D01*
X8043991Y-15388460D02*
X8053515Y-15378936D01*
X8053515Y-15378936D02*
X8053515Y-15397984D01*
X8186848Y-15197984D02*
X8205896Y-15197984D01*
X8205896Y-15197984D02*
X8224944Y-15207508D01*
X8224944Y-15207508D02*
X8234467Y-15217031D01*
X8234467Y-15217031D02*
X8243991Y-15236079D01*
X8243991Y-15236079D02*
X8253515Y-15274174D01*
X8253515Y-15274174D02*
X8253515Y-15321793D01*
X8253515Y-15321793D02*
X8243991Y-15359888D01*
X8243991Y-15359888D02*
X8234467Y-15378936D01*
X8234467Y-15378936D02*
X8224944Y-15388460D01*
X8224944Y-15388460D02*
X8205896Y-15397984D01*
X8205896Y-15397984D02*
X8186848Y-15397984D01*
X8186848Y-15397984D02*
X8167801Y-15388460D01*
X8167801Y-15388460D02*
X8158277Y-15378936D01*
X8158277Y-15378936D02*
X8148753Y-15359888D01*
X8148753Y-15359888D02*
X8139229Y-15321793D01*
X8139229Y-15321793D02*
X8139229Y-15274174D01*
X8139229Y-15274174D02*
X8148753Y-15236079D01*
X8148753Y-15236079D02*
X8158277Y-15217031D01*
X8158277Y-15217031D02*
X8167801Y-15207508D01*
X8167801Y-15207508D02*
X8186848Y-15197984D01*
X8320182Y-15197984D02*
X8443991Y-15197984D01*
X8443991Y-15197984D02*
X8377325Y-15274174D01*
X8377325Y-15274174D02*
X8405896Y-15274174D01*
X8405896Y-15274174D02*
X8424944Y-15283698D01*
X8424944Y-15283698D02*
X8434468Y-15293222D01*
X8434468Y-15293222D02*
X8443991Y-15312269D01*
X8443991Y-15312269D02*
X8443991Y-15359888D01*
X8443991Y-15359888D02*
X8434468Y-15378936D01*
X8434468Y-15378936D02*
X8424944Y-15388460D01*
X8424944Y-15388460D02*
X8405896Y-15397984D01*
X8405896Y-15397984D02*
X8348753Y-15397984D01*
X8348753Y-15397984D02*
X8329706Y-15388460D01*
X8329706Y-15388460D02*
X8320182Y-15378936D01*
X8567801Y-15197984D02*
X8586849Y-15197984D01*
X8586849Y-15197984D02*
X8605896Y-15207508D01*
X8605896Y-15207508D02*
X8615420Y-15217031D01*
X8615420Y-15217031D02*
X8624944Y-15236079D01*
X8624944Y-15236079D02*
X8634468Y-15274174D01*
X8634468Y-15274174D02*
X8634468Y-15321793D01*
X8634468Y-15321793D02*
X8624944Y-15359888D01*
X8624944Y-15359888D02*
X8615420Y-15378936D01*
X8615420Y-15378936D02*
X8605896Y-15388460D01*
X8605896Y-15388460D02*
X8586849Y-15397984D01*
X8586849Y-15397984D02*
X8567801Y-15397984D01*
X8567801Y-15397984D02*
X8548753Y-15388460D01*
X8548753Y-15388460D02*
X8539229Y-15378936D01*
X8539229Y-15378936D02*
X8529706Y-15359888D01*
X8529706Y-15359888D02*
X8520182Y-15321793D01*
X8520182Y-15321793D02*
X8520182Y-15274174D01*
X8520182Y-15274174D02*
X8529706Y-15236079D01*
X8529706Y-15236079D02*
X8539229Y-15217031D01*
X8539229Y-15217031D02*
X8548753Y-15207508D01*
X8548753Y-15207508D02*
X8567801Y-15197984D01*
X8758277Y-15197984D02*
X8777325Y-15197984D01*
X8777325Y-15197984D02*
X8796372Y-15207508D01*
X8796372Y-15207508D02*
X8805896Y-15217031D01*
X8805896Y-15217031D02*
X8815420Y-15236079D01*
X8815420Y-15236079D02*
X8824944Y-15274174D01*
X8824944Y-15274174D02*
X8824944Y-15321793D01*
X8824944Y-15321793D02*
X8815420Y-15359888D01*
X8815420Y-15359888D02*
X8805896Y-15378936D01*
X8805896Y-15378936D02*
X8796372Y-15388460D01*
X8796372Y-15388460D02*
X8777325Y-15397984D01*
X8777325Y-15397984D02*
X8758277Y-15397984D01*
X8758277Y-15397984D02*
X8739229Y-15388460D01*
X8739229Y-15388460D02*
X8729706Y-15378936D01*
X8729706Y-15378936D02*
X8720182Y-15359888D01*
X8720182Y-15359888D02*
X8710658Y-15321793D01*
X8710658Y-15321793D02*
X8710658Y-15274174D01*
X8710658Y-15274174D02*
X8720182Y-15236079D01*
X8720182Y-15236079D02*
X8729706Y-15217031D01*
X8729706Y-15217031D02*
X8739229Y-15207508D01*
X8739229Y-15207508D02*
X8758277Y-15197984D01*
X8901134Y-15197984D02*
X8901134Y-15236079D01*
X8977325Y-15197984D02*
X8977325Y-15236079D01*
X9272563Y-15474174D02*
X9263039Y-15464650D01*
X9263039Y-15464650D02*
X9243991Y-15436079D01*
X9243991Y-15436079D02*
X9234468Y-15417031D01*
X9234468Y-15417031D02*
X9224944Y-15388460D01*
X9224944Y-15388460D02*
X9215420Y-15340841D01*
X9215420Y-15340841D02*
X9215420Y-15302746D01*
X9215420Y-15302746D02*
X9224944Y-15255127D01*
X9224944Y-15255127D02*
X9234468Y-15226555D01*
X9234468Y-15226555D02*
X9243991Y-15207508D01*
X9243991Y-15207508D02*
X9263039Y-15178936D01*
X9263039Y-15178936D02*
X9272563Y-15169412D01*
X9453515Y-15397984D02*
X9339230Y-15397984D01*
X9396372Y-15397984D02*
X9396372Y-15197984D01*
X9396372Y-15197984D02*
X9377325Y-15226555D01*
X9377325Y-15226555D02*
X9358277Y-15245603D01*
X9358277Y-15245603D02*
X9339230Y-15255127D01*
X9520182Y-15197984D02*
X9643991Y-15197984D01*
X9643991Y-15197984D02*
X9577325Y-15274174D01*
X9577325Y-15274174D02*
X9605896Y-15274174D01*
X9605896Y-15274174D02*
X9624944Y-15283698D01*
X9624944Y-15283698D02*
X9634468Y-15293222D01*
X9634468Y-15293222D02*
X9643991Y-15312269D01*
X9643991Y-15312269D02*
X9643991Y-15359888D01*
X9643991Y-15359888D02*
X9634468Y-15378936D01*
X9634468Y-15378936D02*
X9624944Y-15388460D01*
X9624944Y-15388460D02*
X9605896Y-15397984D01*
X9605896Y-15397984D02*
X9548753Y-15397984D01*
X9548753Y-15397984D02*
X9529706Y-15388460D01*
X9529706Y-15388460D02*
X9520182Y-15378936D01*
X9882087Y-15397984D02*
X9882087Y-15197984D01*
X9967801Y-15397984D02*
X9967801Y-15293222D01*
X9967801Y-15293222D02*
X9958277Y-15274174D01*
X9958277Y-15274174D02*
X9939230Y-15264650D01*
X9939230Y-15264650D02*
X9910658Y-15264650D01*
X9910658Y-15264650D02*
X9891611Y-15274174D01*
X9891611Y-15274174D02*
X9882087Y-15283698D01*
X10091611Y-15397984D02*
X10072563Y-15388460D01*
X10072563Y-15388460D02*
X10063039Y-15378936D01*
X10063039Y-15378936D02*
X10053515Y-15359888D01*
X10053515Y-15359888D02*
X10053515Y-15302746D01*
X10053515Y-15302746D02*
X10063039Y-15283698D01*
X10063039Y-15283698D02*
X10072563Y-15274174D01*
X10072563Y-15274174D02*
X10091611Y-15264650D01*
X10091611Y-15264650D02*
X10120182Y-15264650D01*
X10120182Y-15264650D02*
X10139230Y-15274174D01*
X10139230Y-15274174D02*
X10148753Y-15283698D01*
X10148753Y-15283698D02*
X10158277Y-15302746D01*
X10158277Y-15302746D02*
X10158277Y-15359888D01*
X10158277Y-15359888D02*
X10148753Y-15378936D01*
X10148753Y-15378936D02*
X10139230Y-15388460D01*
X10139230Y-15388460D02*
X10120182Y-15397984D01*
X10120182Y-15397984D02*
X10091611Y-15397984D01*
X10272563Y-15397984D02*
X10253515Y-15388460D01*
X10253515Y-15388460D02*
X10243992Y-15369412D01*
X10243992Y-15369412D02*
X10243992Y-15197984D01*
X10424944Y-15388460D02*
X10405896Y-15397984D01*
X10405896Y-15397984D02*
X10367801Y-15397984D01*
X10367801Y-15397984D02*
X10348753Y-15388460D01*
X10348753Y-15388460D02*
X10339230Y-15369412D01*
X10339230Y-15369412D02*
X10339230Y-15293222D01*
X10339230Y-15293222D02*
X10348753Y-15274174D01*
X10348753Y-15274174D02*
X10367801Y-15264650D01*
X10367801Y-15264650D02*
X10405896Y-15264650D01*
X10405896Y-15264650D02*
X10424944Y-15274174D01*
X10424944Y-15274174D02*
X10434468Y-15293222D01*
X10434468Y-15293222D02*
X10434468Y-15312269D01*
X10434468Y-15312269D02*
X10339230Y-15331317D01*
X10510658Y-15388460D02*
X10529706Y-15397984D01*
X10529706Y-15397984D02*
X10567801Y-15397984D01*
X10567801Y-15397984D02*
X10586849Y-15388460D01*
X10586849Y-15388460D02*
X10596373Y-15369412D01*
X10596373Y-15369412D02*
X10596373Y-15359888D01*
X10596373Y-15359888D02*
X10586849Y-15340841D01*
X10586849Y-15340841D02*
X10567801Y-15331317D01*
X10567801Y-15331317D02*
X10539230Y-15331317D01*
X10539230Y-15331317D02*
X10520182Y-15321793D01*
X10520182Y-15321793D02*
X10510658Y-15302746D01*
X10510658Y-15302746D02*
X10510658Y-15293222D01*
X10510658Y-15293222D02*
X10520182Y-15274174D01*
X10520182Y-15274174D02*
X10539230Y-15264650D01*
X10539230Y-15264650D02*
X10567801Y-15264650D01*
X10567801Y-15264650D02*
X10586849Y-15274174D01*
X10663039Y-15474174D02*
X10672563Y-15464650D01*
X10672563Y-15464650D02*
X10691611Y-15436079D01*
X10691611Y-15436079D02*
X10701134Y-15417031D01*
X10701134Y-15417031D02*
X10710658Y-15388460D01*
X10710658Y-15388460D02*
X10720182Y-15340841D01*
X10720182Y-15340841D02*
X10720182Y-15302746D01*
X10720182Y-15302746D02*
X10710658Y-15255127D01*
X10710658Y-15255127D02*
X10701134Y-15226555D01*
X10701134Y-15226555D02*
X10691611Y-15207508D01*
X10691611Y-15207508D02*
X10672563Y-15178936D01*
X10672563Y-15178936D02*
X10663039Y-15169412D01*
D12*
X5647500Y-15520500D02*
X5647500Y-15620500D01*
X5597500Y-15570500D02*
X5697500Y-15570500D01*
D11*
X6063039Y-15661984D02*
X5948753Y-15661984D01*
X6005896Y-15661984D02*
X6005896Y-15461984D01*
X6005896Y-15461984D02*
X5986848Y-15490555D01*
X5986848Y-15490555D02*
X5967801Y-15509603D01*
X5967801Y-15509603D02*
X5948753Y-15519127D01*
X6148753Y-15642936D02*
X6158277Y-15652460D01*
X6158277Y-15652460D02*
X6148753Y-15661984D01*
X6148753Y-15661984D02*
X6139229Y-15652460D01*
X6139229Y-15652460D02*
X6148753Y-15642936D01*
X6148753Y-15642936D02*
X6148753Y-15661984D01*
X6282086Y-15461984D02*
X6301134Y-15461984D01*
X6301134Y-15461984D02*
X6320182Y-15471508D01*
X6320182Y-15471508D02*
X6329705Y-15481031D01*
X6329705Y-15481031D02*
X6339229Y-15500079D01*
X6339229Y-15500079D02*
X6348753Y-15538174D01*
X6348753Y-15538174D02*
X6348753Y-15585793D01*
X6348753Y-15585793D02*
X6339229Y-15623888D01*
X6339229Y-15623888D02*
X6329705Y-15642936D01*
X6329705Y-15642936D02*
X6320182Y-15652460D01*
X6320182Y-15652460D02*
X6301134Y-15661984D01*
X6301134Y-15661984D02*
X6282086Y-15661984D01*
X6282086Y-15661984D02*
X6263039Y-15652460D01*
X6263039Y-15652460D02*
X6253515Y-15642936D01*
X6253515Y-15642936D02*
X6243991Y-15623888D01*
X6243991Y-15623888D02*
X6234467Y-15585793D01*
X6234467Y-15585793D02*
X6234467Y-15538174D01*
X6234467Y-15538174D02*
X6243991Y-15500079D01*
X6243991Y-15500079D02*
X6253515Y-15481031D01*
X6253515Y-15481031D02*
X6263039Y-15471508D01*
X6263039Y-15471508D02*
X6282086Y-15461984D01*
X6472562Y-15461984D02*
X6491610Y-15461984D01*
X6491610Y-15461984D02*
X6510658Y-15471508D01*
X6510658Y-15471508D02*
X6520182Y-15481031D01*
X6520182Y-15481031D02*
X6529705Y-15500079D01*
X6529705Y-15500079D02*
X6539229Y-15538174D01*
X6539229Y-15538174D02*
X6539229Y-15585793D01*
X6539229Y-15585793D02*
X6529705Y-15623888D01*
X6529705Y-15623888D02*
X6520182Y-15642936D01*
X6520182Y-15642936D02*
X6510658Y-15652460D01*
X6510658Y-15652460D02*
X6491610Y-15661984D01*
X6491610Y-15661984D02*
X6472562Y-15661984D01*
X6472562Y-15661984D02*
X6453515Y-15652460D01*
X6453515Y-15652460D02*
X6443991Y-15642936D01*
X6443991Y-15642936D02*
X6434467Y-15623888D01*
X6434467Y-15623888D02*
X6424943Y-15585793D01*
X6424943Y-15585793D02*
X6424943Y-15538174D01*
X6424943Y-15538174D02*
X6434467Y-15500079D01*
X6434467Y-15500079D02*
X6443991Y-15481031D01*
X6443991Y-15481031D02*
X6453515Y-15471508D01*
X6453515Y-15471508D02*
X6472562Y-15461984D01*
X6663039Y-15461984D02*
X6682086Y-15461984D01*
X6682086Y-15461984D02*
X6701134Y-15471508D01*
X6701134Y-15471508D02*
X6710658Y-15481031D01*
X6710658Y-15481031D02*
X6720182Y-15500079D01*
X6720182Y-15500079D02*
X6729705Y-15538174D01*
X6729705Y-15538174D02*
X6729705Y-15585793D01*
X6729705Y-15585793D02*
X6720182Y-15623888D01*
X6720182Y-15623888D02*
X6710658Y-15642936D01*
X6710658Y-15642936D02*
X6701134Y-15652460D01*
X6701134Y-15652460D02*
X6682086Y-15661984D01*
X6682086Y-15661984D02*
X6663039Y-15661984D01*
X6663039Y-15661984D02*
X6643991Y-15652460D01*
X6643991Y-15652460D02*
X6634467Y-15642936D01*
X6634467Y-15642936D02*
X6624943Y-15623888D01*
X6624943Y-15623888D02*
X6615420Y-15585793D01*
X6615420Y-15585793D02*
X6615420Y-15538174D01*
X6615420Y-15538174D02*
X6624943Y-15500079D01*
X6624943Y-15500079D02*
X6634467Y-15481031D01*
X6634467Y-15481031D02*
X6643991Y-15471508D01*
X6643991Y-15471508D02*
X6663039Y-15461984D01*
X6815420Y-15661984D02*
X6815420Y-15528650D01*
X6815420Y-15547698D02*
X6824943Y-15538174D01*
X6824943Y-15538174D02*
X6843991Y-15528650D01*
X6843991Y-15528650D02*
X6872563Y-15528650D01*
X6872563Y-15528650D02*
X6891610Y-15538174D01*
X6891610Y-15538174D02*
X6901134Y-15557222D01*
X6901134Y-15557222D02*
X6901134Y-15661984D01*
X6901134Y-15557222D02*
X6910658Y-15538174D01*
X6910658Y-15538174D02*
X6929705Y-15528650D01*
X6929705Y-15528650D02*
X6958277Y-15528650D01*
X6958277Y-15528650D02*
X6977324Y-15538174D01*
X6977324Y-15538174D02*
X6986848Y-15557222D01*
X6986848Y-15557222D02*
X6986848Y-15661984D01*
X7082086Y-15661984D02*
X7082086Y-15528650D01*
X7082086Y-15547698D02*
X7091610Y-15538174D01*
X7091610Y-15538174D02*
X7110658Y-15528650D01*
X7110658Y-15528650D02*
X7139229Y-15528650D01*
X7139229Y-15528650D02*
X7158277Y-15538174D01*
X7158277Y-15538174D02*
X7167801Y-15557222D01*
X7167801Y-15557222D02*
X7167801Y-15661984D01*
X7167801Y-15557222D02*
X7177324Y-15538174D01*
X7177324Y-15538174D02*
X7196372Y-15528650D01*
X7196372Y-15528650D02*
X7224943Y-15528650D01*
X7224943Y-15528650D02*
X7243991Y-15538174D01*
X7243991Y-15538174D02*
X7253515Y-15557222D01*
X7253515Y-15557222D02*
X7253515Y-15661984D01*
X7643991Y-15452460D02*
X7472563Y-15709603D01*
X7901134Y-15461984D02*
X7920182Y-15461984D01*
X7920182Y-15461984D02*
X7939229Y-15471508D01*
X7939229Y-15471508D02*
X7948753Y-15481031D01*
X7948753Y-15481031D02*
X7958277Y-15500079D01*
X7958277Y-15500079D02*
X7967801Y-15538174D01*
X7967801Y-15538174D02*
X7967801Y-15585793D01*
X7967801Y-15585793D02*
X7958277Y-15623888D01*
X7958277Y-15623888D02*
X7948753Y-15642936D01*
X7948753Y-15642936D02*
X7939229Y-15652460D01*
X7939229Y-15652460D02*
X7920182Y-15661984D01*
X7920182Y-15661984D02*
X7901134Y-15661984D01*
X7901134Y-15661984D02*
X7882086Y-15652460D01*
X7882086Y-15652460D02*
X7872563Y-15642936D01*
X7872563Y-15642936D02*
X7863039Y-15623888D01*
X7863039Y-15623888D02*
X7853515Y-15585793D01*
X7853515Y-15585793D02*
X7853515Y-15538174D01*
X7853515Y-15538174D02*
X7863039Y-15500079D01*
X7863039Y-15500079D02*
X7872563Y-15481031D01*
X7872563Y-15481031D02*
X7882086Y-15471508D01*
X7882086Y-15471508D02*
X7901134Y-15461984D01*
X8053515Y-15642936D02*
X8063039Y-15652460D01*
X8063039Y-15652460D02*
X8053515Y-15661984D01*
X8053515Y-15661984D02*
X8043991Y-15652460D01*
X8043991Y-15652460D02*
X8053515Y-15642936D01*
X8053515Y-15642936D02*
X8053515Y-15661984D01*
X8186848Y-15461984D02*
X8205896Y-15461984D01*
X8205896Y-15461984D02*
X8224944Y-15471508D01*
X8224944Y-15471508D02*
X8234467Y-15481031D01*
X8234467Y-15481031D02*
X8243991Y-15500079D01*
X8243991Y-15500079D02*
X8253515Y-15538174D01*
X8253515Y-15538174D02*
X8253515Y-15585793D01*
X8253515Y-15585793D02*
X8243991Y-15623888D01*
X8243991Y-15623888D02*
X8234467Y-15642936D01*
X8234467Y-15642936D02*
X8224944Y-15652460D01*
X8224944Y-15652460D02*
X8205896Y-15661984D01*
X8205896Y-15661984D02*
X8186848Y-15661984D01*
X8186848Y-15661984D02*
X8167801Y-15652460D01*
X8167801Y-15652460D02*
X8158277Y-15642936D01*
X8158277Y-15642936D02*
X8148753Y-15623888D01*
X8148753Y-15623888D02*
X8139229Y-15585793D01*
X8139229Y-15585793D02*
X8139229Y-15538174D01*
X8139229Y-15538174D02*
X8148753Y-15500079D01*
X8148753Y-15500079D02*
X8158277Y-15481031D01*
X8158277Y-15481031D02*
X8167801Y-15471508D01*
X8167801Y-15471508D02*
X8186848Y-15461984D01*
X8320182Y-15461984D02*
X8443991Y-15461984D01*
X8443991Y-15461984D02*
X8377325Y-15538174D01*
X8377325Y-15538174D02*
X8405896Y-15538174D01*
X8405896Y-15538174D02*
X8424944Y-15547698D01*
X8424944Y-15547698D02*
X8434468Y-15557222D01*
X8434468Y-15557222D02*
X8443991Y-15576269D01*
X8443991Y-15576269D02*
X8443991Y-15623888D01*
X8443991Y-15623888D02*
X8434468Y-15642936D01*
X8434468Y-15642936D02*
X8424944Y-15652460D01*
X8424944Y-15652460D02*
X8405896Y-15661984D01*
X8405896Y-15661984D02*
X8348753Y-15661984D01*
X8348753Y-15661984D02*
X8329706Y-15652460D01*
X8329706Y-15652460D02*
X8320182Y-15642936D01*
X8539229Y-15661984D02*
X8577325Y-15661984D01*
X8577325Y-15661984D02*
X8596372Y-15652460D01*
X8596372Y-15652460D02*
X8605896Y-15642936D01*
X8605896Y-15642936D02*
X8624944Y-15614365D01*
X8624944Y-15614365D02*
X8634468Y-15576269D01*
X8634468Y-15576269D02*
X8634468Y-15500079D01*
X8634468Y-15500079D02*
X8624944Y-15481031D01*
X8624944Y-15481031D02*
X8615420Y-15471508D01*
X8615420Y-15471508D02*
X8596372Y-15461984D01*
X8596372Y-15461984D02*
X8558277Y-15461984D01*
X8558277Y-15461984D02*
X8539229Y-15471508D01*
X8539229Y-15471508D02*
X8529706Y-15481031D01*
X8529706Y-15481031D02*
X8520182Y-15500079D01*
X8520182Y-15500079D02*
X8520182Y-15547698D01*
X8520182Y-15547698D02*
X8529706Y-15566746D01*
X8529706Y-15566746D02*
X8539229Y-15576269D01*
X8539229Y-15576269D02*
X8558277Y-15585793D01*
X8558277Y-15585793D02*
X8596372Y-15585793D01*
X8596372Y-15585793D02*
X8615420Y-15576269D01*
X8615420Y-15576269D02*
X8624944Y-15566746D01*
X8624944Y-15566746D02*
X8634468Y-15547698D01*
X8805896Y-15528650D02*
X8805896Y-15661984D01*
X8758277Y-15452460D02*
X8710658Y-15595317D01*
X8710658Y-15595317D02*
X8834468Y-15595317D01*
X8901134Y-15461984D02*
X8901134Y-15500079D01*
X8977325Y-15461984D02*
X8977325Y-15500079D01*
X9272563Y-15738174D02*
X9263039Y-15728650D01*
X9263039Y-15728650D02*
X9243991Y-15700079D01*
X9243991Y-15700079D02*
X9234468Y-15681031D01*
X9234468Y-15681031D02*
X9224944Y-15652460D01*
X9224944Y-15652460D02*
X9215420Y-15604841D01*
X9215420Y-15604841D02*
X9215420Y-15566746D01*
X9215420Y-15566746D02*
X9224944Y-15519127D01*
X9224944Y-15519127D02*
X9234468Y-15490555D01*
X9234468Y-15490555D02*
X9243991Y-15471508D01*
X9243991Y-15471508D02*
X9263039Y-15442936D01*
X9263039Y-15442936D02*
X9272563Y-15433412D01*
X9339230Y-15481031D02*
X9348753Y-15471508D01*
X9348753Y-15471508D02*
X9367801Y-15461984D01*
X9367801Y-15461984D02*
X9415420Y-15461984D01*
X9415420Y-15461984D02*
X9434468Y-15471508D01*
X9434468Y-15471508D02*
X9443991Y-15481031D01*
X9443991Y-15481031D02*
X9453515Y-15500079D01*
X9453515Y-15500079D02*
X9453515Y-15519127D01*
X9453515Y-15519127D02*
X9443991Y-15547698D01*
X9443991Y-15547698D02*
X9329706Y-15661984D01*
X9329706Y-15661984D02*
X9453515Y-15661984D01*
X9634468Y-15461984D02*
X9539230Y-15461984D01*
X9539230Y-15461984D02*
X9529706Y-15557222D01*
X9529706Y-15557222D02*
X9539230Y-15547698D01*
X9539230Y-15547698D02*
X9558277Y-15538174D01*
X9558277Y-15538174D02*
X9605896Y-15538174D01*
X9605896Y-15538174D02*
X9624944Y-15547698D01*
X9624944Y-15547698D02*
X9634468Y-15557222D01*
X9634468Y-15557222D02*
X9643991Y-15576269D01*
X9643991Y-15576269D02*
X9643991Y-15623888D01*
X9643991Y-15623888D02*
X9634468Y-15642936D01*
X9634468Y-15642936D02*
X9624944Y-15652460D01*
X9624944Y-15652460D02*
X9605896Y-15661984D01*
X9605896Y-15661984D02*
X9558277Y-15661984D01*
X9558277Y-15661984D02*
X9539230Y-15652460D01*
X9539230Y-15652460D02*
X9529706Y-15642936D01*
X9882087Y-15661984D02*
X9882087Y-15461984D01*
X9967801Y-15661984D02*
X9967801Y-15557222D01*
X9967801Y-15557222D02*
X9958277Y-15538174D01*
X9958277Y-15538174D02*
X9939230Y-15528650D01*
X9939230Y-15528650D02*
X9910658Y-15528650D01*
X9910658Y-15528650D02*
X9891611Y-15538174D01*
X9891611Y-15538174D02*
X9882087Y-15547698D01*
X10091611Y-15661984D02*
X10072563Y-15652460D01*
X10072563Y-15652460D02*
X10063039Y-15642936D01*
X10063039Y-15642936D02*
X10053515Y-15623888D01*
X10053515Y-15623888D02*
X10053515Y-15566746D01*
X10053515Y-15566746D02*
X10063039Y-15547698D01*
X10063039Y-15547698D02*
X10072563Y-15538174D01*
X10072563Y-15538174D02*
X10091611Y-15528650D01*
X10091611Y-15528650D02*
X10120182Y-15528650D01*
X10120182Y-15528650D02*
X10139230Y-15538174D01*
X10139230Y-15538174D02*
X10148753Y-15547698D01*
X10148753Y-15547698D02*
X10158277Y-15566746D01*
X10158277Y-15566746D02*
X10158277Y-15623888D01*
X10158277Y-15623888D02*
X10148753Y-15642936D01*
X10148753Y-15642936D02*
X10139230Y-15652460D01*
X10139230Y-15652460D02*
X10120182Y-15661984D01*
X10120182Y-15661984D02*
X10091611Y-15661984D01*
X10272563Y-15661984D02*
X10253515Y-15652460D01*
X10253515Y-15652460D02*
X10243992Y-15633412D01*
X10243992Y-15633412D02*
X10243992Y-15461984D01*
X10424944Y-15652460D02*
X10405896Y-15661984D01*
X10405896Y-15661984D02*
X10367801Y-15661984D01*
X10367801Y-15661984D02*
X10348753Y-15652460D01*
X10348753Y-15652460D02*
X10339230Y-15633412D01*
X10339230Y-15633412D02*
X10339230Y-15557222D01*
X10339230Y-15557222D02*
X10348753Y-15538174D01*
X10348753Y-15538174D02*
X10367801Y-15528650D01*
X10367801Y-15528650D02*
X10405896Y-15528650D01*
X10405896Y-15528650D02*
X10424944Y-15538174D01*
X10424944Y-15538174D02*
X10434468Y-15557222D01*
X10434468Y-15557222D02*
X10434468Y-15576269D01*
X10434468Y-15576269D02*
X10339230Y-15595317D01*
X10510658Y-15652460D02*
X10529706Y-15661984D01*
X10529706Y-15661984D02*
X10567801Y-15661984D01*
X10567801Y-15661984D02*
X10586849Y-15652460D01*
X10586849Y-15652460D02*
X10596373Y-15633412D01*
X10596373Y-15633412D02*
X10596373Y-15623888D01*
X10596373Y-15623888D02*
X10586849Y-15604841D01*
X10586849Y-15604841D02*
X10567801Y-15595317D01*
X10567801Y-15595317D02*
X10539230Y-15595317D01*
X10539230Y-15595317D02*
X10520182Y-15585793D01*
X10520182Y-15585793D02*
X10510658Y-15566746D01*
X10510658Y-15566746D02*
X10510658Y-15557222D01*
X10510658Y-15557222D02*
X10520182Y-15538174D01*
X10520182Y-15538174D02*
X10539230Y-15528650D01*
X10539230Y-15528650D02*
X10567801Y-15528650D01*
X10567801Y-15528650D02*
X10586849Y-15538174D01*
X10663039Y-15738174D02*
X10672563Y-15728650D01*
X10672563Y-15728650D02*
X10691611Y-15700079D01*
X10691611Y-15700079D02*
X10701134Y-15681031D01*
X10701134Y-15681031D02*
X10710658Y-15652460D01*
X10710658Y-15652460D02*
X10720182Y-15604841D01*
X10720182Y-15604841D02*
X10720182Y-15566746D01*
X10720182Y-15566746D02*
X10710658Y-15519127D01*
X10710658Y-15519127D02*
X10701134Y-15490555D01*
X10701134Y-15490555D02*
X10691611Y-15471508D01*
X10691611Y-15471508D02*
X10672563Y-15442936D01*
X10672563Y-15442936D02*
X10663039Y-15433412D01*
D13*
X5675533Y-15887533D02*
X5675533Y-15781466D01*
X5569467Y-15781466D01*
X5569467Y-15887533D01*
X5675533Y-15887533D01*
D11*
X6063039Y-15925984D02*
X5948753Y-15925984D01*
X6005896Y-15925984D02*
X6005896Y-15725984D01*
X6005896Y-15725984D02*
X5986848Y-15754555D01*
X5986848Y-15754555D02*
X5967801Y-15773603D01*
X5967801Y-15773603D02*
X5948753Y-15783127D01*
X6148753Y-15906936D02*
X6158277Y-15916460D01*
X6158277Y-15916460D02*
X6148753Y-15925984D01*
X6148753Y-15925984D02*
X6139229Y-15916460D01*
X6139229Y-15916460D02*
X6148753Y-15906936D01*
X6148753Y-15906936D02*
X6148753Y-15925984D01*
X6339229Y-15725984D02*
X6243991Y-15725984D01*
X6243991Y-15725984D02*
X6234467Y-15821222D01*
X6234467Y-15821222D02*
X6243991Y-15811698D01*
X6243991Y-15811698D02*
X6263039Y-15802174D01*
X6263039Y-15802174D02*
X6310658Y-15802174D01*
X6310658Y-15802174D02*
X6329705Y-15811698D01*
X6329705Y-15811698D02*
X6339229Y-15821222D01*
X6339229Y-15821222D02*
X6348753Y-15840269D01*
X6348753Y-15840269D02*
X6348753Y-15887888D01*
X6348753Y-15887888D02*
X6339229Y-15906936D01*
X6339229Y-15906936D02*
X6329705Y-15916460D01*
X6329705Y-15916460D02*
X6310658Y-15925984D01*
X6310658Y-15925984D02*
X6263039Y-15925984D01*
X6263039Y-15925984D02*
X6243991Y-15916460D01*
X6243991Y-15916460D02*
X6234467Y-15906936D01*
X6472562Y-15725984D02*
X6491610Y-15725984D01*
X6491610Y-15725984D02*
X6510658Y-15735508D01*
X6510658Y-15735508D02*
X6520182Y-15745031D01*
X6520182Y-15745031D02*
X6529705Y-15764079D01*
X6529705Y-15764079D02*
X6539229Y-15802174D01*
X6539229Y-15802174D02*
X6539229Y-15849793D01*
X6539229Y-15849793D02*
X6529705Y-15887888D01*
X6529705Y-15887888D02*
X6520182Y-15906936D01*
X6520182Y-15906936D02*
X6510658Y-15916460D01*
X6510658Y-15916460D02*
X6491610Y-15925984D01*
X6491610Y-15925984D02*
X6472562Y-15925984D01*
X6472562Y-15925984D02*
X6453515Y-15916460D01*
X6453515Y-15916460D02*
X6443991Y-15906936D01*
X6443991Y-15906936D02*
X6434467Y-15887888D01*
X6434467Y-15887888D02*
X6424943Y-15849793D01*
X6424943Y-15849793D02*
X6424943Y-15802174D01*
X6424943Y-15802174D02*
X6434467Y-15764079D01*
X6434467Y-15764079D02*
X6443991Y-15745031D01*
X6443991Y-15745031D02*
X6453515Y-15735508D01*
X6453515Y-15735508D02*
X6472562Y-15725984D01*
X6663039Y-15725984D02*
X6682086Y-15725984D01*
X6682086Y-15725984D02*
X6701134Y-15735508D01*
X6701134Y-15735508D02*
X6710658Y-15745031D01*
X6710658Y-15745031D02*
X6720182Y-15764079D01*
X6720182Y-15764079D02*
X6729705Y-15802174D01*
X6729705Y-15802174D02*
X6729705Y-15849793D01*
X6729705Y-15849793D02*
X6720182Y-15887888D01*
X6720182Y-15887888D02*
X6710658Y-15906936D01*
X6710658Y-15906936D02*
X6701134Y-15916460D01*
X6701134Y-15916460D02*
X6682086Y-15925984D01*
X6682086Y-15925984D02*
X6663039Y-15925984D01*
X6663039Y-15925984D02*
X6643991Y-15916460D01*
X6643991Y-15916460D02*
X6634467Y-15906936D01*
X6634467Y-15906936D02*
X6624943Y-15887888D01*
X6624943Y-15887888D02*
X6615420Y-15849793D01*
X6615420Y-15849793D02*
X6615420Y-15802174D01*
X6615420Y-15802174D02*
X6624943Y-15764079D01*
X6624943Y-15764079D02*
X6634467Y-15745031D01*
X6634467Y-15745031D02*
X6643991Y-15735508D01*
X6643991Y-15735508D02*
X6663039Y-15725984D01*
X6815420Y-15925984D02*
X6815420Y-15792650D01*
X6815420Y-15811698D02*
X6824943Y-15802174D01*
X6824943Y-15802174D02*
X6843991Y-15792650D01*
X6843991Y-15792650D02*
X6872563Y-15792650D01*
X6872563Y-15792650D02*
X6891610Y-15802174D01*
X6891610Y-15802174D02*
X6901134Y-15821222D01*
X6901134Y-15821222D02*
X6901134Y-15925984D01*
X6901134Y-15821222D02*
X6910658Y-15802174D01*
X6910658Y-15802174D02*
X6929705Y-15792650D01*
X6929705Y-15792650D02*
X6958277Y-15792650D01*
X6958277Y-15792650D02*
X6977324Y-15802174D01*
X6977324Y-15802174D02*
X6986848Y-15821222D01*
X6986848Y-15821222D02*
X6986848Y-15925984D01*
X7082086Y-15925984D02*
X7082086Y-15792650D01*
X7082086Y-15811698D02*
X7091610Y-15802174D01*
X7091610Y-15802174D02*
X7110658Y-15792650D01*
X7110658Y-15792650D02*
X7139229Y-15792650D01*
X7139229Y-15792650D02*
X7158277Y-15802174D01*
X7158277Y-15802174D02*
X7167801Y-15821222D01*
X7167801Y-15821222D02*
X7167801Y-15925984D01*
X7167801Y-15821222D02*
X7177324Y-15802174D01*
X7177324Y-15802174D02*
X7196372Y-15792650D01*
X7196372Y-15792650D02*
X7224943Y-15792650D01*
X7224943Y-15792650D02*
X7243991Y-15802174D01*
X7243991Y-15802174D02*
X7253515Y-15821222D01*
X7253515Y-15821222D02*
X7253515Y-15925984D01*
X7643991Y-15716460D02*
X7472563Y-15973603D01*
X7901134Y-15725984D02*
X7920182Y-15725984D01*
X7920182Y-15725984D02*
X7939229Y-15735508D01*
X7939229Y-15735508D02*
X7948753Y-15745031D01*
X7948753Y-15745031D02*
X7958277Y-15764079D01*
X7958277Y-15764079D02*
X7967801Y-15802174D01*
X7967801Y-15802174D02*
X7967801Y-15849793D01*
X7967801Y-15849793D02*
X7958277Y-15887888D01*
X7958277Y-15887888D02*
X7948753Y-15906936D01*
X7948753Y-15906936D02*
X7939229Y-15916460D01*
X7939229Y-15916460D02*
X7920182Y-15925984D01*
X7920182Y-15925984D02*
X7901134Y-15925984D01*
X7901134Y-15925984D02*
X7882086Y-15916460D01*
X7882086Y-15916460D02*
X7872563Y-15906936D01*
X7872563Y-15906936D02*
X7863039Y-15887888D01*
X7863039Y-15887888D02*
X7853515Y-15849793D01*
X7853515Y-15849793D02*
X7853515Y-15802174D01*
X7853515Y-15802174D02*
X7863039Y-15764079D01*
X7863039Y-15764079D02*
X7872563Y-15745031D01*
X7872563Y-15745031D02*
X7882086Y-15735508D01*
X7882086Y-15735508D02*
X7901134Y-15725984D01*
X8053515Y-15906936D02*
X8063039Y-15916460D01*
X8063039Y-15916460D02*
X8053515Y-15925984D01*
X8053515Y-15925984D02*
X8043991Y-15916460D01*
X8043991Y-15916460D02*
X8053515Y-15906936D01*
X8053515Y-15906936D02*
X8053515Y-15925984D01*
X8186848Y-15725984D02*
X8205896Y-15725984D01*
X8205896Y-15725984D02*
X8224944Y-15735508D01*
X8224944Y-15735508D02*
X8234467Y-15745031D01*
X8234467Y-15745031D02*
X8243991Y-15764079D01*
X8243991Y-15764079D02*
X8253515Y-15802174D01*
X8253515Y-15802174D02*
X8253515Y-15849793D01*
X8253515Y-15849793D02*
X8243991Y-15887888D01*
X8243991Y-15887888D02*
X8234467Y-15906936D01*
X8234467Y-15906936D02*
X8224944Y-15916460D01*
X8224944Y-15916460D02*
X8205896Y-15925984D01*
X8205896Y-15925984D02*
X8186848Y-15925984D01*
X8186848Y-15925984D02*
X8167801Y-15916460D01*
X8167801Y-15916460D02*
X8158277Y-15906936D01*
X8158277Y-15906936D02*
X8148753Y-15887888D01*
X8148753Y-15887888D02*
X8139229Y-15849793D01*
X8139229Y-15849793D02*
X8139229Y-15802174D01*
X8139229Y-15802174D02*
X8148753Y-15764079D01*
X8148753Y-15764079D02*
X8158277Y-15745031D01*
X8158277Y-15745031D02*
X8167801Y-15735508D01*
X8167801Y-15735508D02*
X8186848Y-15725984D01*
X8434468Y-15725984D02*
X8339229Y-15725984D01*
X8339229Y-15725984D02*
X8329706Y-15821222D01*
X8329706Y-15821222D02*
X8339229Y-15811698D01*
X8339229Y-15811698D02*
X8358277Y-15802174D01*
X8358277Y-15802174D02*
X8405896Y-15802174D01*
X8405896Y-15802174D02*
X8424944Y-15811698D01*
X8424944Y-15811698D02*
X8434468Y-15821222D01*
X8434468Y-15821222D02*
X8443991Y-15840269D01*
X8443991Y-15840269D02*
X8443991Y-15887888D01*
X8443991Y-15887888D02*
X8434468Y-15906936D01*
X8434468Y-15906936D02*
X8424944Y-15916460D01*
X8424944Y-15916460D02*
X8405896Y-15925984D01*
X8405896Y-15925984D02*
X8358277Y-15925984D01*
X8358277Y-15925984D02*
X8339229Y-15916460D01*
X8339229Y-15916460D02*
X8329706Y-15906936D01*
X8539229Y-15925984D02*
X8577325Y-15925984D01*
X8577325Y-15925984D02*
X8596372Y-15916460D01*
X8596372Y-15916460D02*
X8605896Y-15906936D01*
X8605896Y-15906936D02*
X8624944Y-15878365D01*
X8624944Y-15878365D02*
X8634468Y-15840269D01*
X8634468Y-15840269D02*
X8634468Y-15764079D01*
X8634468Y-15764079D02*
X8624944Y-15745031D01*
X8624944Y-15745031D02*
X8615420Y-15735508D01*
X8615420Y-15735508D02*
X8596372Y-15725984D01*
X8596372Y-15725984D02*
X8558277Y-15725984D01*
X8558277Y-15725984D02*
X8539229Y-15735508D01*
X8539229Y-15735508D02*
X8529706Y-15745031D01*
X8529706Y-15745031D02*
X8520182Y-15764079D01*
X8520182Y-15764079D02*
X8520182Y-15811698D01*
X8520182Y-15811698D02*
X8529706Y-15830746D01*
X8529706Y-15830746D02*
X8539229Y-15840269D01*
X8539229Y-15840269D02*
X8558277Y-15849793D01*
X8558277Y-15849793D02*
X8596372Y-15849793D01*
X8596372Y-15849793D02*
X8615420Y-15840269D01*
X8615420Y-15840269D02*
X8624944Y-15830746D01*
X8624944Y-15830746D02*
X8634468Y-15811698D01*
X8824944Y-15925984D02*
X8710658Y-15925984D01*
X8767801Y-15925984D02*
X8767801Y-15725984D01*
X8767801Y-15725984D02*
X8748753Y-15754555D01*
X8748753Y-15754555D02*
X8729706Y-15773603D01*
X8729706Y-15773603D02*
X8710658Y-15783127D01*
X8901134Y-15725984D02*
X8901134Y-15764079D01*
X8977325Y-15725984D02*
X8977325Y-15764079D01*
X9272563Y-16002174D02*
X9263039Y-15992650D01*
X9263039Y-15992650D02*
X9243991Y-15964079D01*
X9243991Y-15964079D02*
X9234468Y-15945031D01*
X9234468Y-15945031D02*
X9224944Y-15916460D01*
X9224944Y-15916460D02*
X9215420Y-15868841D01*
X9215420Y-15868841D02*
X9215420Y-15830746D01*
X9215420Y-15830746D02*
X9224944Y-15783127D01*
X9224944Y-15783127D02*
X9234468Y-15754555D01*
X9234468Y-15754555D02*
X9243991Y-15735508D01*
X9243991Y-15735508D02*
X9263039Y-15706936D01*
X9263039Y-15706936D02*
X9272563Y-15697412D01*
X9453515Y-15925984D02*
X9339230Y-15925984D01*
X9396372Y-15925984D02*
X9396372Y-15725984D01*
X9396372Y-15725984D02*
X9377325Y-15754555D01*
X9377325Y-15754555D02*
X9358277Y-15773603D01*
X9358277Y-15773603D02*
X9339230Y-15783127D01*
X9691611Y-15925984D02*
X9691611Y-15725984D01*
X9777325Y-15925984D02*
X9777325Y-15821222D01*
X9777325Y-15821222D02*
X9767801Y-15802174D01*
X9767801Y-15802174D02*
X9748753Y-15792650D01*
X9748753Y-15792650D02*
X9720182Y-15792650D01*
X9720182Y-15792650D02*
X9701134Y-15802174D01*
X9701134Y-15802174D02*
X9691611Y-15811698D01*
X9901134Y-15925984D02*
X9882087Y-15916460D01*
X9882087Y-15916460D02*
X9872563Y-15906936D01*
X9872563Y-15906936D02*
X9863039Y-15887888D01*
X9863039Y-15887888D02*
X9863039Y-15830746D01*
X9863039Y-15830746D02*
X9872563Y-15811698D01*
X9872563Y-15811698D02*
X9882087Y-15802174D01*
X9882087Y-15802174D02*
X9901134Y-15792650D01*
X9901134Y-15792650D02*
X9929706Y-15792650D01*
X9929706Y-15792650D02*
X9948753Y-15802174D01*
X9948753Y-15802174D02*
X9958277Y-15811698D01*
X9958277Y-15811698D02*
X9967801Y-15830746D01*
X9967801Y-15830746D02*
X9967801Y-15887888D01*
X9967801Y-15887888D02*
X9958277Y-15906936D01*
X9958277Y-15906936D02*
X9948753Y-15916460D01*
X9948753Y-15916460D02*
X9929706Y-15925984D01*
X9929706Y-15925984D02*
X9901134Y-15925984D01*
X10082087Y-15925984D02*
X10063039Y-15916460D01*
X10063039Y-15916460D02*
X10053515Y-15897412D01*
X10053515Y-15897412D02*
X10053515Y-15725984D01*
X10234468Y-15916460D02*
X10215420Y-15925984D01*
X10215420Y-15925984D02*
X10177325Y-15925984D01*
X10177325Y-15925984D02*
X10158277Y-15916460D01*
X10158277Y-15916460D02*
X10148753Y-15897412D01*
X10148753Y-15897412D02*
X10148753Y-15821222D01*
X10148753Y-15821222D02*
X10158277Y-15802174D01*
X10158277Y-15802174D02*
X10177325Y-15792650D01*
X10177325Y-15792650D02*
X10215420Y-15792650D01*
X10215420Y-15792650D02*
X10234468Y-15802174D01*
X10234468Y-15802174D02*
X10243992Y-15821222D01*
X10243992Y-15821222D02*
X10243992Y-15840269D01*
X10243992Y-15840269D02*
X10148753Y-15859317D01*
X10310658Y-16002174D02*
X10320182Y-15992650D01*
X10320182Y-15992650D02*
X10339230Y-15964079D01*
X10339230Y-15964079D02*
X10348753Y-15945031D01*
X10348753Y-15945031D02*
X10358277Y-15916460D01*
X10358277Y-15916460D02*
X10367801Y-15868841D01*
X10367801Y-15868841D02*
X10367801Y-15830746D01*
X10367801Y-15830746D02*
X10358277Y-15783127D01*
X10358277Y-15783127D02*
X10348753Y-15754555D01*
X10348753Y-15754555D02*
X10339230Y-15735508D01*
X10339230Y-15735508D02*
X10320182Y-15706936D01*
X10320182Y-15706936D02*
X10310658Y-15697412D01*
D14*
X5612500Y-16189500D02*
X5697500Y-16104500D01*
X5612500Y-16019500D01*
X5527500Y-16104500D01*
X5612500Y-16189500D01*
D11*
X6063039Y-16195984D02*
X5948753Y-16195984D01*
X6005896Y-16195984D02*
X6005896Y-15995984D01*
X6005896Y-15995984D02*
X5986848Y-16024555D01*
X5986848Y-16024555D02*
X5967801Y-16043603D01*
X5967801Y-16043603D02*
X5948753Y-16053127D01*
X6148753Y-16176936D02*
X6158277Y-16186460D01*
X6158277Y-16186460D02*
X6148753Y-16195984D01*
X6148753Y-16195984D02*
X6139229Y-16186460D01*
X6139229Y-16186460D02*
X6148753Y-16176936D01*
X6148753Y-16176936D02*
X6148753Y-16195984D01*
X6224943Y-15995984D02*
X6358277Y-15995984D01*
X6358277Y-15995984D02*
X6272562Y-16195984D01*
X6472562Y-15995984D02*
X6491610Y-15995984D01*
X6491610Y-15995984D02*
X6510658Y-16005508D01*
X6510658Y-16005508D02*
X6520182Y-16015031D01*
X6520182Y-16015031D02*
X6529705Y-16034079D01*
X6529705Y-16034079D02*
X6539229Y-16072174D01*
X6539229Y-16072174D02*
X6539229Y-16119793D01*
X6539229Y-16119793D02*
X6529705Y-16157888D01*
X6529705Y-16157888D02*
X6520182Y-16176936D01*
X6520182Y-16176936D02*
X6510658Y-16186460D01*
X6510658Y-16186460D02*
X6491610Y-16195984D01*
X6491610Y-16195984D02*
X6472562Y-16195984D01*
X6472562Y-16195984D02*
X6453515Y-16186460D01*
X6453515Y-16186460D02*
X6443991Y-16176936D01*
X6443991Y-16176936D02*
X6434467Y-16157888D01*
X6434467Y-16157888D02*
X6424943Y-16119793D01*
X6424943Y-16119793D02*
X6424943Y-16072174D01*
X6424943Y-16072174D02*
X6434467Y-16034079D01*
X6434467Y-16034079D02*
X6443991Y-16015031D01*
X6443991Y-16015031D02*
X6453515Y-16005508D01*
X6453515Y-16005508D02*
X6472562Y-15995984D01*
X6663039Y-15995984D02*
X6682086Y-15995984D01*
X6682086Y-15995984D02*
X6701134Y-16005508D01*
X6701134Y-16005508D02*
X6710658Y-16015031D01*
X6710658Y-16015031D02*
X6720182Y-16034079D01*
X6720182Y-16034079D02*
X6729705Y-16072174D01*
X6729705Y-16072174D02*
X6729705Y-16119793D01*
X6729705Y-16119793D02*
X6720182Y-16157888D01*
X6720182Y-16157888D02*
X6710658Y-16176936D01*
X6710658Y-16176936D02*
X6701134Y-16186460D01*
X6701134Y-16186460D02*
X6682086Y-16195984D01*
X6682086Y-16195984D02*
X6663039Y-16195984D01*
X6663039Y-16195984D02*
X6643991Y-16186460D01*
X6643991Y-16186460D02*
X6634467Y-16176936D01*
X6634467Y-16176936D02*
X6624943Y-16157888D01*
X6624943Y-16157888D02*
X6615420Y-16119793D01*
X6615420Y-16119793D02*
X6615420Y-16072174D01*
X6615420Y-16072174D02*
X6624943Y-16034079D01*
X6624943Y-16034079D02*
X6634467Y-16015031D01*
X6634467Y-16015031D02*
X6643991Y-16005508D01*
X6643991Y-16005508D02*
X6663039Y-15995984D01*
X6815420Y-16195984D02*
X6815420Y-16062650D01*
X6815420Y-16081698D02*
X6824943Y-16072174D01*
X6824943Y-16072174D02*
X6843991Y-16062650D01*
X6843991Y-16062650D02*
X6872563Y-16062650D01*
X6872563Y-16062650D02*
X6891610Y-16072174D01*
X6891610Y-16072174D02*
X6901134Y-16091222D01*
X6901134Y-16091222D02*
X6901134Y-16195984D01*
X6901134Y-16091222D02*
X6910658Y-16072174D01*
X6910658Y-16072174D02*
X6929705Y-16062650D01*
X6929705Y-16062650D02*
X6958277Y-16062650D01*
X6958277Y-16062650D02*
X6977324Y-16072174D01*
X6977324Y-16072174D02*
X6986848Y-16091222D01*
X6986848Y-16091222D02*
X6986848Y-16195984D01*
X7082086Y-16195984D02*
X7082086Y-16062650D01*
X7082086Y-16081698D02*
X7091610Y-16072174D01*
X7091610Y-16072174D02*
X7110658Y-16062650D01*
X7110658Y-16062650D02*
X7139229Y-16062650D01*
X7139229Y-16062650D02*
X7158277Y-16072174D01*
X7158277Y-16072174D02*
X7167801Y-16091222D01*
X7167801Y-16091222D02*
X7167801Y-16195984D01*
X7167801Y-16091222D02*
X7177324Y-16072174D01*
X7177324Y-16072174D02*
X7196372Y-16062650D01*
X7196372Y-16062650D02*
X7224943Y-16062650D01*
X7224943Y-16062650D02*
X7243991Y-16072174D01*
X7243991Y-16072174D02*
X7253515Y-16091222D01*
X7253515Y-16091222D02*
X7253515Y-16195984D01*
X7643991Y-15986460D02*
X7472563Y-16243603D01*
X7901134Y-15995984D02*
X7920182Y-15995984D01*
X7920182Y-15995984D02*
X7939229Y-16005508D01*
X7939229Y-16005508D02*
X7948753Y-16015031D01*
X7948753Y-16015031D02*
X7958277Y-16034079D01*
X7958277Y-16034079D02*
X7967801Y-16072174D01*
X7967801Y-16072174D02*
X7967801Y-16119793D01*
X7967801Y-16119793D02*
X7958277Y-16157888D01*
X7958277Y-16157888D02*
X7948753Y-16176936D01*
X7948753Y-16176936D02*
X7939229Y-16186460D01*
X7939229Y-16186460D02*
X7920182Y-16195984D01*
X7920182Y-16195984D02*
X7901134Y-16195984D01*
X7901134Y-16195984D02*
X7882086Y-16186460D01*
X7882086Y-16186460D02*
X7872563Y-16176936D01*
X7872563Y-16176936D02*
X7863039Y-16157888D01*
X7863039Y-16157888D02*
X7853515Y-16119793D01*
X7853515Y-16119793D02*
X7853515Y-16072174D01*
X7853515Y-16072174D02*
X7863039Y-16034079D01*
X7863039Y-16034079D02*
X7872563Y-16015031D01*
X7872563Y-16015031D02*
X7882086Y-16005508D01*
X7882086Y-16005508D02*
X7901134Y-15995984D01*
X8053515Y-16176936D02*
X8063039Y-16186460D01*
X8063039Y-16186460D02*
X8053515Y-16195984D01*
X8053515Y-16195984D02*
X8043991Y-16186460D01*
X8043991Y-16186460D02*
X8053515Y-16176936D01*
X8053515Y-16176936D02*
X8053515Y-16195984D01*
X8186848Y-15995984D02*
X8205896Y-15995984D01*
X8205896Y-15995984D02*
X8224944Y-16005508D01*
X8224944Y-16005508D02*
X8234467Y-16015031D01*
X8234467Y-16015031D02*
X8243991Y-16034079D01*
X8243991Y-16034079D02*
X8253515Y-16072174D01*
X8253515Y-16072174D02*
X8253515Y-16119793D01*
X8253515Y-16119793D02*
X8243991Y-16157888D01*
X8243991Y-16157888D02*
X8234467Y-16176936D01*
X8234467Y-16176936D02*
X8224944Y-16186460D01*
X8224944Y-16186460D02*
X8205896Y-16195984D01*
X8205896Y-16195984D02*
X8186848Y-16195984D01*
X8186848Y-16195984D02*
X8167801Y-16186460D01*
X8167801Y-16186460D02*
X8158277Y-16176936D01*
X8158277Y-16176936D02*
X8148753Y-16157888D01*
X8148753Y-16157888D02*
X8139229Y-16119793D01*
X8139229Y-16119793D02*
X8139229Y-16072174D01*
X8139229Y-16072174D02*
X8148753Y-16034079D01*
X8148753Y-16034079D02*
X8158277Y-16015031D01*
X8158277Y-16015031D02*
X8167801Y-16005508D01*
X8167801Y-16005508D02*
X8186848Y-15995984D01*
X8424944Y-15995984D02*
X8386848Y-15995984D01*
X8386848Y-15995984D02*
X8367801Y-16005508D01*
X8367801Y-16005508D02*
X8358277Y-16015031D01*
X8358277Y-16015031D02*
X8339229Y-16043603D01*
X8339229Y-16043603D02*
X8329706Y-16081698D01*
X8329706Y-16081698D02*
X8329706Y-16157888D01*
X8329706Y-16157888D02*
X8339229Y-16176936D01*
X8339229Y-16176936D02*
X8348753Y-16186460D01*
X8348753Y-16186460D02*
X8367801Y-16195984D01*
X8367801Y-16195984D02*
X8405896Y-16195984D01*
X8405896Y-16195984D02*
X8424944Y-16186460D01*
X8424944Y-16186460D02*
X8434468Y-16176936D01*
X8434468Y-16176936D02*
X8443991Y-16157888D01*
X8443991Y-16157888D02*
X8443991Y-16110269D01*
X8443991Y-16110269D02*
X8434468Y-16091222D01*
X8434468Y-16091222D02*
X8424944Y-16081698D01*
X8424944Y-16081698D02*
X8405896Y-16072174D01*
X8405896Y-16072174D02*
X8367801Y-16072174D01*
X8367801Y-16072174D02*
X8348753Y-16081698D01*
X8348753Y-16081698D02*
X8339229Y-16091222D01*
X8339229Y-16091222D02*
X8329706Y-16110269D01*
X8615420Y-15995984D02*
X8577325Y-15995984D01*
X8577325Y-15995984D02*
X8558277Y-16005508D01*
X8558277Y-16005508D02*
X8548753Y-16015031D01*
X8548753Y-16015031D02*
X8529706Y-16043603D01*
X8529706Y-16043603D02*
X8520182Y-16081698D01*
X8520182Y-16081698D02*
X8520182Y-16157888D01*
X8520182Y-16157888D02*
X8529706Y-16176936D01*
X8529706Y-16176936D02*
X8539229Y-16186460D01*
X8539229Y-16186460D02*
X8558277Y-16195984D01*
X8558277Y-16195984D02*
X8596372Y-16195984D01*
X8596372Y-16195984D02*
X8615420Y-16186460D01*
X8615420Y-16186460D02*
X8624944Y-16176936D01*
X8624944Y-16176936D02*
X8634468Y-16157888D01*
X8634468Y-16157888D02*
X8634468Y-16110269D01*
X8634468Y-16110269D02*
X8624944Y-16091222D01*
X8624944Y-16091222D02*
X8615420Y-16081698D01*
X8615420Y-16081698D02*
X8596372Y-16072174D01*
X8596372Y-16072174D02*
X8558277Y-16072174D01*
X8558277Y-16072174D02*
X8539229Y-16081698D01*
X8539229Y-16081698D02*
X8529706Y-16091222D01*
X8529706Y-16091222D02*
X8520182Y-16110269D01*
X8729706Y-16195984D02*
X8767801Y-16195984D01*
X8767801Y-16195984D02*
X8786849Y-16186460D01*
X8786849Y-16186460D02*
X8796372Y-16176936D01*
X8796372Y-16176936D02*
X8815420Y-16148365D01*
X8815420Y-16148365D02*
X8824944Y-16110269D01*
X8824944Y-16110269D02*
X8824944Y-16034079D01*
X8824944Y-16034079D02*
X8815420Y-16015031D01*
X8815420Y-16015031D02*
X8805896Y-16005508D01*
X8805896Y-16005508D02*
X8786849Y-15995984D01*
X8786849Y-15995984D02*
X8748753Y-15995984D01*
X8748753Y-15995984D02*
X8729706Y-16005508D01*
X8729706Y-16005508D02*
X8720182Y-16015031D01*
X8720182Y-16015031D02*
X8710658Y-16034079D01*
X8710658Y-16034079D02*
X8710658Y-16081698D01*
X8710658Y-16081698D02*
X8720182Y-16100746D01*
X8720182Y-16100746D02*
X8729706Y-16110269D01*
X8729706Y-16110269D02*
X8748753Y-16119793D01*
X8748753Y-16119793D02*
X8786849Y-16119793D01*
X8786849Y-16119793D02*
X8805896Y-16110269D01*
X8805896Y-16110269D02*
X8815420Y-16100746D01*
X8815420Y-16100746D02*
X8824944Y-16081698D01*
X8901134Y-15995984D02*
X8901134Y-16034079D01*
X8977325Y-15995984D02*
X8977325Y-16034079D01*
X9272563Y-16272174D02*
X9263039Y-16262650D01*
X9263039Y-16262650D02*
X9243991Y-16234079D01*
X9243991Y-16234079D02*
X9234468Y-16215031D01*
X9234468Y-16215031D02*
X9224944Y-16186460D01*
X9224944Y-16186460D02*
X9215420Y-16138841D01*
X9215420Y-16138841D02*
X9215420Y-16100746D01*
X9215420Y-16100746D02*
X9224944Y-16053127D01*
X9224944Y-16053127D02*
X9234468Y-16024555D01*
X9234468Y-16024555D02*
X9243991Y-16005508D01*
X9243991Y-16005508D02*
X9263039Y-15976936D01*
X9263039Y-15976936D02*
X9272563Y-15967412D01*
X9434468Y-16062650D02*
X9434468Y-16195984D01*
X9386849Y-15986460D02*
X9339230Y-16129317D01*
X9339230Y-16129317D02*
X9463039Y-16129317D01*
X9691611Y-16195984D02*
X9691611Y-15995984D01*
X9777325Y-16195984D02*
X9777325Y-16091222D01*
X9777325Y-16091222D02*
X9767801Y-16072174D01*
X9767801Y-16072174D02*
X9748753Y-16062650D01*
X9748753Y-16062650D02*
X9720182Y-16062650D01*
X9720182Y-16062650D02*
X9701134Y-16072174D01*
X9701134Y-16072174D02*
X9691611Y-16081698D01*
X9901134Y-16195984D02*
X9882087Y-16186460D01*
X9882087Y-16186460D02*
X9872563Y-16176936D01*
X9872563Y-16176936D02*
X9863039Y-16157888D01*
X9863039Y-16157888D02*
X9863039Y-16100746D01*
X9863039Y-16100746D02*
X9872563Y-16081698D01*
X9872563Y-16081698D02*
X9882087Y-16072174D01*
X9882087Y-16072174D02*
X9901134Y-16062650D01*
X9901134Y-16062650D02*
X9929706Y-16062650D01*
X9929706Y-16062650D02*
X9948753Y-16072174D01*
X9948753Y-16072174D02*
X9958277Y-16081698D01*
X9958277Y-16081698D02*
X9967801Y-16100746D01*
X9967801Y-16100746D02*
X9967801Y-16157888D01*
X9967801Y-16157888D02*
X9958277Y-16176936D01*
X9958277Y-16176936D02*
X9948753Y-16186460D01*
X9948753Y-16186460D02*
X9929706Y-16195984D01*
X9929706Y-16195984D02*
X9901134Y-16195984D01*
X10082087Y-16195984D02*
X10063039Y-16186460D01*
X10063039Y-16186460D02*
X10053515Y-16167412D01*
X10053515Y-16167412D02*
X10053515Y-15995984D01*
X10234468Y-16186460D02*
X10215420Y-16195984D01*
X10215420Y-16195984D02*
X10177325Y-16195984D01*
X10177325Y-16195984D02*
X10158277Y-16186460D01*
X10158277Y-16186460D02*
X10148753Y-16167412D01*
X10148753Y-16167412D02*
X10148753Y-16091222D01*
X10148753Y-16091222D02*
X10158277Y-16072174D01*
X10158277Y-16072174D02*
X10177325Y-16062650D01*
X10177325Y-16062650D02*
X10215420Y-16062650D01*
X10215420Y-16062650D02*
X10234468Y-16072174D01*
X10234468Y-16072174D02*
X10243992Y-16091222D01*
X10243992Y-16091222D02*
X10243992Y-16110269D01*
X10243992Y-16110269D02*
X10148753Y-16129317D01*
X10320182Y-16186460D02*
X10339230Y-16195984D01*
X10339230Y-16195984D02*
X10377325Y-16195984D01*
X10377325Y-16195984D02*
X10396373Y-16186460D01*
X10396373Y-16186460D02*
X10405896Y-16167412D01*
X10405896Y-16167412D02*
X10405896Y-16157888D01*
X10405896Y-16157888D02*
X10396373Y-16138841D01*
X10396373Y-16138841D02*
X10377325Y-16129317D01*
X10377325Y-16129317D02*
X10348753Y-16129317D01*
X10348753Y-16129317D02*
X10329706Y-16119793D01*
X10329706Y-16119793D02*
X10320182Y-16100746D01*
X10320182Y-16100746D02*
X10320182Y-16091222D01*
X10320182Y-16091222D02*
X10329706Y-16072174D01*
X10329706Y-16072174D02*
X10348753Y-16062650D01*
X10348753Y-16062650D02*
X10377325Y-16062650D01*
X10377325Y-16062650D02*
X10396373Y-16072174D01*
X10472563Y-16272174D02*
X10482087Y-16262650D01*
X10482087Y-16262650D02*
X10501134Y-16234079D01*
X10501134Y-16234079D02*
X10510658Y-16215031D01*
X10510658Y-16215031D02*
X10520182Y-16186460D01*
X10520182Y-16186460D02*
X10529706Y-16138841D01*
X10529706Y-16138841D02*
X10529706Y-16100746D01*
X10529706Y-16100746D02*
X10520182Y-16053127D01*
X10520182Y-16053127D02*
X10510658Y-16024555D01*
X10510658Y-16024555D02*
X10501134Y-16005508D01*
X10501134Y-16005508D02*
X10482087Y-15976936D01*
X10482087Y-15976936D02*
X10472563Y-15967412D01*
X5497500Y-16294500D02*
X5697500Y-16494500D01*
X5697500Y-16294500D02*
X5497500Y-16494500D01*
X5697500Y-16394500D02*
G75*
G02*
X5497500Y-16394500I-100000J0D01*
G01*
X5497500Y-16394500D02*
G75*
G02*
X5697500Y-16394500I100000J0D01*
G01*
X5939229Y-16285984D02*
X6063039Y-16285984D01*
X6063039Y-16285984D02*
X5996372Y-16362174D01*
X5996372Y-16362174D02*
X6024943Y-16362174D01*
X6024943Y-16362174D02*
X6043991Y-16371698D01*
X6043991Y-16371698D02*
X6053515Y-16381222D01*
X6053515Y-16381222D02*
X6063039Y-16400269D01*
X6063039Y-16400269D02*
X6063039Y-16447888D01*
X6063039Y-16447888D02*
X6053515Y-16466936D01*
X6053515Y-16466936D02*
X6043991Y-16476460D01*
X6043991Y-16476460D02*
X6024943Y-16485984D01*
X6024943Y-16485984D02*
X5967801Y-16485984D01*
X5967801Y-16485984D02*
X5948753Y-16476460D01*
X5948753Y-16476460D02*
X5939229Y-16466936D01*
X6148753Y-16466936D02*
X6158277Y-16476460D01*
X6158277Y-16476460D02*
X6148753Y-16485984D01*
X6148753Y-16485984D02*
X6139229Y-16476460D01*
X6139229Y-16476460D02*
X6148753Y-16466936D01*
X6148753Y-16466936D02*
X6148753Y-16485984D01*
X6282086Y-16285984D02*
X6301134Y-16285984D01*
X6301134Y-16285984D02*
X6320182Y-16295508D01*
X6320182Y-16295508D02*
X6329705Y-16305031D01*
X6329705Y-16305031D02*
X6339229Y-16324079D01*
X6339229Y-16324079D02*
X6348753Y-16362174D01*
X6348753Y-16362174D02*
X6348753Y-16409793D01*
X6348753Y-16409793D02*
X6339229Y-16447888D01*
X6339229Y-16447888D02*
X6329705Y-16466936D01*
X6329705Y-16466936D02*
X6320182Y-16476460D01*
X6320182Y-16476460D02*
X6301134Y-16485984D01*
X6301134Y-16485984D02*
X6282086Y-16485984D01*
X6282086Y-16485984D02*
X6263039Y-16476460D01*
X6263039Y-16476460D02*
X6253515Y-16466936D01*
X6253515Y-16466936D02*
X6243991Y-16447888D01*
X6243991Y-16447888D02*
X6234467Y-16409793D01*
X6234467Y-16409793D02*
X6234467Y-16362174D01*
X6234467Y-16362174D02*
X6243991Y-16324079D01*
X6243991Y-16324079D02*
X6253515Y-16305031D01*
X6253515Y-16305031D02*
X6263039Y-16295508D01*
X6263039Y-16295508D02*
X6282086Y-16285984D01*
X6472562Y-16285984D02*
X6491610Y-16285984D01*
X6491610Y-16285984D02*
X6510658Y-16295508D01*
X6510658Y-16295508D02*
X6520182Y-16305031D01*
X6520182Y-16305031D02*
X6529705Y-16324079D01*
X6529705Y-16324079D02*
X6539229Y-16362174D01*
X6539229Y-16362174D02*
X6539229Y-16409793D01*
X6539229Y-16409793D02*
X6529705Y-16447888D01*
X6529705Y-16447888D02*
X6520182Y-16466936D01*
X6520182Y-16466936D02*
X6510658Y-16476460D01*
X6510658Y-16476460D02*
X6491610Y-16485984D01*
X6491610Y-16485984D02*
X6472562Y-16485984D01*
X6472562Y-16485984D02*
X6453515Y-16476460D01*
X6453515Y-16476460D02*
X6443991Y-16466936D01*
X6443991Y-16466936D02*
X6434467Y-16447888D01*
X6434467Y-16447888D02*
X6424943Y-16409793D01*
X6424943Y-16409793D02*
X6424943Y-16362174D01*
X6424943Y-16362174D02*
X6434467Y-16324079D01*
X6434467Y-16324079D02*
X6443991Y-16305031D01*
X6443991Y-16305031D02*
X6453515Y-16295508D01*
X6453515Y-16295508D02*
X6472562Y-16285984D01*
X6663039Y-16285984D02*
X6682086Y-16285984D01*
X6682086Y-16285984D02*
X6701134Y-16295508D01*
X6701134Y-16295508D02*
X6710658Y-16305031D01*
X6710658Y-16305031D02*
X6720182Y-16324079D01*
X6720182Y-16324079D02*
X6729705Y-16362174D01*
X6729705Y-16362174D02*
X6729705Y-16409793D01*
X6729705Y-16409793D02*
X6720182Y-16447888D01*
X6720182Y-16447888D02*
X6710658Y-16466936D01*
X6710658Y-16466936D02*
X6701134Y-16476460D01*
X6701134Y-16476460D02*
X6682086Y-16485984D01*
X6682086Y-16485984D02*
X6663039Y-16485984D01*
X6663039Y-16485984D02*
X6643991Y-16476460D01*
X6643991Y-16476460D02*
X6634467Y-16466936D01*
X6634467Y-16466936D02*
X6624943Y-16447888D01*
X6624943Y-16447888D02*
X6615420Y-16409793D01*
X6615420Y-16409793D02*
X6615420Y-16362174D01*
X6615420Y-16362174D02*
X6624943Y-16324079D01*
X6624943Y-16324079D02*
X6634467Y-16305031D01*
X6634467Y-16305031D02*
X6643991Y-16295508D01*
X6643991Y-16295508D02*
X6663039Y-16285984D01*
X6815420Y-16485984D02*
X6815420Y-16352650D01*
X6815420Y-16371698D02*
X6824943Y-16362174D01*
X6824943Y-16362174D02*
X6843991Y-16352650D01*
X6843991Y-16352650D02*
X6872563Y-16352650D01*
X6872563Y-16352650D02*
X6891610Y-16362174D01*
X6891610Y-16362174D02*
X6901134Y-16381222D01*
X6901134Y-16381222D02*
X6901134Y-16485984D01*
X6901134Y-16381222D02*
X6910658Y-16362174D01*
X6910658Y-16362174D02*
X6929705Y-16352650D01*
X6929705Y-16352650D02*
X6958277Y-16352650D01*
X6958277Y-16352650D02*
X6977324Y-16362174D01*
X6977324Y-16362174D02*
X6986848Y-16381222D01*
X6986848Y-16381222D02*
X6986848Y-16485984D01*
X7082086Y-16485984D02*
X7082086Y-16352650D01*
X7082086Y-16371698D02*
X7091610Y-16362174D01*
X7091610Y-16362174D02*
X7110658Y-16352650D01*
X7110658Y-16352650D02*
X7139229Y-16352650D01*
X7139229Y-16352650D02*
X7158277Y-16362174D01*
X7158277Y-16362174D02*
X7167801Y-16381222D01*
X7167801Y-16381222D02*
X7167801Y-16485984D01*
X7167801Y-16381222D02*
X7177324Y-16362174D01*
X7177324Y-16362174D02*
X7196372Y-16352650D01*
X7196372Y-16352650D02*
X7224943Y-16352650D01*
X7224943Y-16352650D02*
X7243991Y-16362174D01*
X7243991Y-16362174D02*
X7253515Y-16381222D01*
X7253515Y-16381222D02*
X7253515Y-16485984D01*
X7643991Y-16276460D02*
X7472563Y-16533603D01*
X7901134Y-16285984D02*
X7920182Y-16285984D01*
X7920182Y-16285984D02*
X7939229Y-16295508D01*
X7939229Y-16295508D02*
X7948753Y-16305031D01*
X7948753Y-16305031D02*
X7958277Y-16324079D01*
X7958277Y-16324079D02*
X7967801Y-16362174D01*
X7967801Y-16362174D02*
X7967801Y-16409793D01*
X7967801Y-16409793D02*
X7958277Y-16447888D01*
X7958277Y-16447888D02*
X7948753Y-16466936D01*
X7948753Y-16466936D02*
X7939229Y-16476460D01*
X7939229Y-16476460D02*
X7920182Y-16485984D01*
X7920182Y-16485984D02*
X7901134Y-16485984D01*
X7901134Y-16485984D02*
X7882086Y-16476460D01*
X7882086Y-16476460D02*
X7872563Y-16466936D01*
X7872563Y-16466936D02*
X7863039Y-16447888D01*
X7863039Y-16447888D02*
X7853515Y-16409793D01*
X7853515Y-16409793D02*
X7853515Y-16362174D01*
X7853515Y-16362174D02*
X7863039Y-16324079D01*
X7863039Y-16324079D02*
X7872563Y-16305031D01*
X7872563Y-16305031D02*
X7882086Y-16295508D01*
X7882086Y-16295508D02*
X7901134Y-16285984D01*
X8053515Y-16466936D02*
X8063039Y-16476460D01*
X8063039Y-16476460D02*
X8053515Y-16485984D01*
X8053515Y-16485984D02*
X8043991Y-16476460D01*
X8043991Y-16476460D02*
X8053515Y-16466936D01*
X8053515Y-16466936D02*
X8053515Y-16485984D01*
X8253515Y-16485984D02*
X8139229Y-16485984D01*
X8196372Y-16485984D02*
X8196372Y-16285984D01*
X8196372Y-16285984D02*
X8177325Y-16314555D01*
X8177325Y-16314555D02*
X8158277Y-16333603D01*
X8158277Y-16333603D02*
X8139229Y-16343127D01*
X8443991Y-16485984D02*
X8329706Y-16485984D01*
X8386848Y-16485984D02*
X8386848Y-16285984D01*
X8386848Y-16285984D02*
X8367801Y-16314555D01*
X8367801Y-16314555D02*
X8348753Y-16333603D01*
X8348753Y-16333603D02*
X8329706Y-16343127D01*
X8558277Y-16371698D02*
X8539229Y-16362174D01*
X8539229Y-16362174D02*
X8529706Y-16352650D01*
X8529706Y-16352650D02*
X8520182Y-16333603D01*
X8520182Y-16333603D02*
X8520182Y-16324079D01*
X8520182Y-16324079D02*
X8529706Y-16305031D01*
X8529706Y-16305031D02*
X8539229Y-16295508D01*
X8539229Y-16295508D02*
X8558277Y-16285984D01*
X8558277Y-16285984D02*
X8596372Y-16285984D01*
X8596372Y-16285984D02*
X8615420Y-16295508D01*
X8615420Y-16295508D02*
X8624944Y-16305031D01*
X8624944Y-16305031D02*
X8634468Y-16324079D01*
X8634468Y-16324079D02*
X8634468Y-16333603D01*
X8634468Y-16333603D02*
X8624944Y-16352650D01*
X8624944Y-16352650D02*
X8615420Y-16362174D01*
X8615420Y-16362174D02*
X8596372Y-16371698D01*
X8596372Y-16371698D02*
X8558277Y-16371698D01*
X8558277Y-16371698D02*
X8539229Y-16381222D01*
X8539229Y-16381222D02*
X8529706Y-16390746D01*
X8529706Y-16390746D02*
X8520182Y-16409793D01*
X8520182Y-16409793D02*
X8520182Y-16447888D01*
X8520182Y-16447888D02*
X8529706Y-16466936D01*
X8529706Y-16466936D02*
X8539229Y-16476460D01*
X8539229Y-16476460D02*
X8558277Y-16485984D01*
X8558277Y-16485984D02*
X8596372Y-16485984D01*
X8596372Y-16485984D02*
X8615420Y-16476460D01*
X8615420Y-16476460D02*
X8624944Y-16466936D01*
X8624944Y-16466936D02*
X8634468Y-16447888D01*
X8634468Y-16447888D02*
X8634468Y-16409793D01*
X8634468Y-16409793D02*
X8624944Y-16390746D01*
X8624944Y-16390746D02*
X8615420Y-16381222D01*
X8615420Y-16381222D02*
X8596372Y-16371698D01*
X8824944Y-16485984D02*
X8710658Y-16485984D01*
X8767801Y-16485984D02*
X8767801Y-16285984D01*
X8767801Y-16285984D02*
X8748753Y-16314555D01*
X8748753Y-16314555D02*
X8729706Y-16333603D01*
X8729706Y-16333603D02*
X8710658Y-16343127D01*
X8901134Y-16285984D02*
X8901134Y-16324079D01*
X8977325Y-16285984D02*
X8977325Y-16324079D01*
X9272563Y-16562174D02*
X9263039Y-16552650D01*
X9263039Y-16552650D02*
X9243991Y-16524079D01*
X9243991Y-16524079D02*
X9234468Y-16505031D01*
X9234468Y-16505031D02*
X9224944Y-16476460D01*
X9224944Y-16476460D02*
X9215420Y-16428841D01*
X9215420Y-16428841D02*
X9215420Y-16390746D01*
X9215420Y-16390746D02*
X9224944Y-16343127D01*
X9224944Y-16343127D02*
X9234468Y-16314555D01*
X9234468Y-16314555D02*
X9243991Y-16295508D01*
X9243991Y-16295508D02*
X9263039Y-16266936D01*
X9263039Y-16266936D02*
X9272563Y-16257412D01*
X9434468Y-16352650D02*
X9434468Y-16485984D01*
X9386849Y-16276460D02*
X9339230Y-16419317D01*
X9339230Y-16419317D02*
X9463039Y-16419317D01*
X9691611Y-16485984D02*
X9691611Y-16285984D01*
X9777325Y-16485984D02*
X9777325Y-16381222D01*
X9777325Y-16381222D02*
X9767801Y-16362174D01*
X9767801Y-16362174D02*
X9748753Y-16352650D01*
X9748753Y-16352650D02*
X9720182Y-16352650D01*
X9720182Y-16352650D02*
X9701134Y-16362174D01*
X9701134Y-16362174D02*
X9691611Y-16371698D01*
X9901134Y-16485984D02*
X9882087Y-16476460D01*
X9882087Y-16476460D02*
X9872563Y-16466936D01*
X9872563Y-16466936D02*
X9863039Y-16447888D01*
X9863039Y-16447888D02*
X9863039Y-16390746D01*
X9863039Y-16390746D02*
X9872563Y-16371698D01*
X9872563Y-16371698D02*
X9882087Y-16362174D01*
X9882087Y-16362174D02*
X9901134Y-16352650D01*
X9901134Y-16352650D02*
X9929706Y-16352650D01*
X9929706Y-16352650D02*
X9948753Y-16362174D01*
X9948753Y-16362174D02*
X9958277Y-16371698D01*
X9958277Y-16371698D02*
X9967801Y-16390746D01*
X9967801Y-16390746D02*
X9967801Y-16447888D01*
X9967801Y-16447888D02*
X9958277Y-16466936D01*
X9958277Y-16466936D02*
X9948753Y-16476460D01*
X9948753Y-16476460D02*
X9929706Y-16485984D01*
X9929706Y-16485984D02*
X9901134Y-16485984D01*
X10082087Y-16485984D02*
X10063039Y-16476460D01*
X10063039Y-16476460D02*
X10053515Y-16457412D01*
X10053515Y-16457412D02*
X10053515Y-16285984D01*
X10234468Y-16476460D02*
X10215420Y-16485984D01*
X10215420Y-16485984D02*
X10177325Y-16485984D01*
X10177325Y-16485984D02*
X10158277Y-16476460D01*
X10158277Y-16476460D02*
X10148753Y-16457412D01*
X10148753Y-16457412D02*
X10148753Y-16381222D01*
X10148753Y-16381222D02*
X10158277Y-16362174D01*
X10158277Y-16362174D02*
X10177325Y-16352650D01*
X10177325Y-16352650D02*
X10215420Y-16352650D01*
X10215420Y-16352650D02*
X10234468Y-16362174D01*
X10234468Y-16362174D02*
X10243992Y-16381222D01*
X10243992Y-16381222D02*
X10243992Y-16400269D01*
X10243992Y-16400269D02*
X10148753Y-16419317D01*
X10320182Y-16476460D02*
X10339230Y-16485984D01*
X10339230Y-16485984D02*
X10377325Y-16485984D01*
X10377325Y-16485984D02*
X10396373Y-16476460D01*
X10396373Y-16476460D02*
X10405896Y-16457412D01*
X10405896Y-16457412D02*
X10405896Y-16447888D01*
X10405896Y-16447888D02*
X10396373Y-16428841D01*
X10396373Y-16428841D02*
X10377325Y-16419317D01*
X10377325Y-16419317D02*
X10348753Y-16419317D01*
X10348753Y-16419317D02*
X10329706Y-16409793D01*
X10329706Y-16409793D02*
X10320182Y-16390746D01*
X10320182Y-16390746D02*
X10320182Y-16381222D01*
X10320182Y-16381222D02*
X10329706Y-16362174D01*
X10329706Y-16362174D02*
X10348753Y-16352650D01*
X10348753Y-16352650D02*
X10377325Y-16352650D01*
X10377325Y-16352650D02*
X10396373Y-16362174D01*
X10472563Y-16562174D02*
X10482087Y-16552650D01*
X10482087Y-16552650D02*
X10501134Y-16524079D01*
X10501134Y-16524079D02*
X10510658Y-16505031D01*
X10510658Y-16505031D02*
X10520182Y-16476460D01*
X10520182Y-16476460D02*
X10529706Y-16428841D01*
X10529706Y-16428841D02*
X10529706Y-16390746D01*
X10529706Y-16390746D02*
X10520182Y-16343127D01*
X10520182Y-16343127D02*
X10510658Y-16314555D01*
X10510658Y-16314555D02*
X10501134Y-16295508D01*
X10501134Y-16295508D02*
X10482087Y-16266936D01*
X10482087Y-16266936D02*
X10472563Y-16257412D01*
X5497500Y-16614500D02*
X5697500Y-16814500D01*
X5697500Y-16614500D02*
X5497500Y-16814500D01*
X5597500Y-16614500D02*
X5597500Y-16814500D01*
X5497500Y-16714500D02*
X5697500Y-16714500D01*
X5939229Y-16605984D02*
X6063039Y-16605984D01*
X6063039Y-16605984D02*
X5996372Y-16682174D01*
X5996372Y-16682174D02*
X6024943Y-16682174D01*
X6024943Y-16682174D02*
X6043991Y-16691698D01*
X6043991Y-16691698D02*
X6053515Y-16701222D01*
X6053515Y-16701222D02*
X6063039Y-16720269D01*
X6063039Y-16720269D02*
X6063039Y-16767888D01*
X6063039Y-16767888D02*
X6053515Y-16786936D01*
X6053515Y-16786936D02*
X6043991Y-16796460D01*
X6043991Y-16796460D02*
X6024943Y-16805984D01*
X6024943Y-16805984D02*
X5967801Y-16805984D01*
X5967801Y-16805984D02*
X5948753Y-16796460D01*
X5948753Y-16796460D02*
X5939229Y-16786936D01*
X6148753Y-16786936D02*
X6158277Y-16796460D01*
X6158277Y-16796460D02*
X6148753Y-16805984D01*
X6148753Y-16805984D02*
X6139229Y-16796460D01*
X6139229Y-16796460D02*
X6148753Y-16786936D01*
X6148753Y-16786936D02*
X6148753Y-16805984D01*
X6282086Y-16605984D02*
X6301134Y-16605984D01*
X6301134Y-16605984D02*
X6320182Y-16615508D01*
X6320182Y-16615508D02*
X6329705Y-16625031D01*
X6329705Y-16625031D02*
X6339229Y-16644079D01*
X6339229Y-16644079D02*
X6348753Y-16682174D01*
X6348753Y-16682174D02*
X6348753Y-16729793D01*
X6348753Y-16729793D02*
X6339229Y-16767888D01*
X6339229Y-16767888D02*
X6329705Y-16786936D01*
X6329705Y-16786936D02*
X6320182Y-16796460D01*
X6320182Y-16796460D02*
X6301134Y-16805984D01*
X6301134Y-16805984D02*
X6282086Y-16805984D01*
X6282086Y-16805984D02*
X6263039Y-16796460D01*
X6263039Y-16796460D02*
X6253515Y-16786936D01*
X6253515Y-16786936D02*
X6243991Y-16767888D01*
X6243991Y-16767888D02*
X6234467Y-16729793D01*
X6234467Y-16729793D02*
X6234467Y-16682174D01*
X6234467Y-16682174D02*
X6243991Y-16644079D01*
X6243991Y-16644079D02*
X6253515Y-16625031D01*
X6253515Y-16625031D02*
X6263039Y-16615508D01*
X6263039Y-16615508D02*
X6282086Y-16605984D01*
X6472562Y-16605984D02*
X6491610Y-16605984D01*
X6491610Y-16605984D02*
X6510658Y-16615508D01*
X6510658Y-16615508D02*
X6520182Y-16625031D01*
X6520182Y-16625031D02*
X6529705Y-16644079D01*
X6529705Y-16644079D02*
X6539229Y-16682174D01*
X6539229Y-16682174D02*
X6539229Y-16729793D01*
X6539229Y-16729793D02*
X6529705Y-16767888D01*
X6529705Y-16767888D02*
X6520182Y-16786936D01*
X6520182Y-16786936D02*
X6510658Y-16796460D01*
X6510658Y-16796460D02*
X6491610Y-16805984D01*
X6491610Y-16805984D02*
X6472562Y-16805984D01*
X6472562Y-16805984D02*
X6453515Y-16796460D01*
X6453515Y-16796460D02*
X6443991Y-16786936D01*
X6443991Y-16786936D02*
X6434467Y-16767888D01*
X6434467Y-16767888D02*
X6424943Y-16729793D01*
X6424943Y-16729793D02*
X6424943Y-16682174D01*
X6424943Y-16682174D02*
X6434467Y-16644079D01*
X6434467Y-16644079D02*
X6443991Y-16625031D01*
X6443991Y-16625031D02*
X6453515Y-16615508D01*
X6453515Y-16615508D02*
X6472562Y-16605984D01*
X6663039Y-16605984D02*
X6682086Y-16605984D01*
X6682086Y-16605984D02*
X6701134Y-16615508D01*
X6701134Y-16615508D02*
X6710658Y-16625031D01*
X6710658Y-16625031D02*
X6720182Y-16644079D01*
X6720182Y-16644079D02*
X6729705Y-16682174D01*
X6729705Y-16682174D02*
X6729705Y-16729793D01*
X6729705Y-16729793D02*
X6720182Y-16767888D01*
X6720182Y-16767888D02*
X6710658Y-16786936D01*
X6710658Y-16786936D02*
X6701134Y-16796460D01*
X6701134Y-16796460D02*
X6682086Y-16805984D01*
X6682086Y-16805984D02*
X6663039Y-16805984D01*
X6663039Y-16805984D02*
X6643991Y-16796460D01*
X6643991Y-16796460D02*
X6634467Y-16786936D01*
X6634467Y-16786936D02*
X6624943Y-16767888D01*
X6624943Y-16767888D02*
X6615420Y-16729793D01*
X6615420Y-16729793D02*
X6615420Y-16682174D01*
X6615420Y-16682174D02*
X6624943Y-16644079D01*
X6624943Y-16644079D02*
X6634467Y-16625031D01*
X6634467Y-16625031D02*
X6643991Y-16615508D01*
X6643991Y-16615508D02*
X6663039Y-16605984D01*
X6815420Y-16805984D02*
X6815420Y-16672650D01*
X6815420Y-16691698D02*
X6824943Y-16682174D01*
X6824943Y-16682174D02*
X6843991Y-16672650D01*
X6843991Y-16672650D02*
X6872563Y-16672650D01*
X6872563Y-16672650D02*
X6891610Y-16682174D01*
X6891610Y-16682174D02*
X6901134Y-16701222D01*
X6901134Y-16701222D02*
X6901134Y-16805984D01*
X6901134Y-16701222D02*
X6910658Y-16682174D01*
X6910658Y-16682174D02*
X6929705Y-16672650D01*
X6929705Y-16672650D02*
X6958277Y-16672650D01*
X6958277Y-16672650D02*
X6977324Y-16682174D01*
X6977324Y-16682174D02*
X6986848Y-16701222D01*
X6986848Y-16701222D02*
X6986848Y-16805984D01*
X7082086Y-16805984D02*
X7082086Y-16672650D01*
X7082086Y-16691698D02*
X7091610Y-16682174D01*
X7091610Y-16682174D02*
X7110658Y-16672650D01*
X7110658Y-16672650D02*
X7139229Y-16672650D01*
X7139229Y-16672650D02*
X7158277Y-16682174D01*
X7158277Y-16682174D02*
X7167801Y-16701222D01*
X7167801Y-16701222D02*
X7167801Y-16805984D01*
X7167801Y-16701222D02*
X7177324Y-16682174D01*
X7177324Y-16682174D02*
X7196372Y-16672650D01*
X7196372Y-16672650D02*
X7224943Y-16672650D01*
X7224943Y-16672650D02*
X7243991Y-16682174D01*
X7243991Y-16682174D02*
X7253515Y-16701222D01*
X7253515Y-16701222D02*
X7253515Y-16805984D01*
X7643991Y-16596460D02*
X7472563Y-16853603D01*
X7901134Y-16605984D02*
X7920182Y-16605984D01*
X7920182Y-16605984D02*
X7939229Y-16615508D01*
X7939229Y-16615508D02*
X7948753Y-16625031D01*
X7948753Y-16625031D02*
X7958277Y-16644079D01*
X7958277Y-16644079D02*
X7967801Y-16682174D01*
X7967801Y-16682174D02*
X7967801Y-16729793D01*
X7967801Y-16729793D02*
X7958277Y-16767888D01*
X7958277Y-16767888D02*
X7948753Y-16786936D01*
X7948753Y-16786936D02*
X7939229Y-16796460D01*
X7939229Y-16796460D02*
X7920182Y-16805984D01*
X7920182Y-16805984D02*
X7901134Y-16805984D01*
X7901134Y-16805984D02*
X7882086Y-16796460D01*
X7882086Y-16796460D02*
X7872563Y-16786936D01*
X7872563Y-16786936D02*
X7863039Y-16767888D01*
X7863039Y-16767888D02*
X7853515Y-16729793D01*
X7853515Y-16729793D02*
X7853515Y-16682174D01*
X7853515Y-16682174D02*
X7863039Y-16644079D01*
X7863039Y-16644079D02*
X7872563Y-16625031D01*
X7872563Y-16625031D02*
X7882086Y-16615508D01*
X7882086Y-16615508D02*
X7901134Y-16605984D01*
X8053515Y-16786936D02*
X8063039Y-16796460D01*
X8063039Y-16796460D02*
X8053515Y-16805984D01*
X8053515Y-16805984D02*
X8043991Y-16796460D01*
X8043991Y-16796460D02*
X8053515Y-16786936D01*
X8053515Y-16786936D02*
X8053515Y-16805984D01*
X8253515Y-16805984D02*
X8139229Y-16805984D01*
X8196372Y-16805984D02*
X8196372Y-16605984D01*
X8196372Y-16605984D02*
X8177325Y-16634555D01*
X8177325Y-16634555D02*
X8158277Y-16653603D01*
X8158277Y-16653603D02*
X8139229Y-16663127D01*
X8443991Y-16805984D02*
X8329706Y-16805984D01*
X8386848Y-16805984D02*
X8386848Y-16605984D01*
X8386848Y-16605984D02*
X8367801Y-16634555D01*
X8367801Y-16634555D02*
X8348753Y-16653603D01*
X8348753Y-16653603D02*
X8329706Y-16663127D01*
X8558277Y-16691698D02*
X8539229Y-16682174D01*
X8539229Y-16682174D02*
X8529706Y-16672650D01*
X8529706Y-16672650D02*
X8520182Y-16653603D01*
X8520182Y-16653603D02*
X8520182Y-16644079D01*
X8520182Y-16644079D02*
X8529706Y-16625031D01*
X8529706Y-16625031D02*
X8539229Y-16615508D01*
X8539229Y-16615508D02*
X8558277Y-16605984D01*
X8558277Y-16605984D02*
X8596372Y-16605984D01*
X8596372Y-16605984D02*
X8615420Y-16615508D01*
X8615420Y-16615508D02*
X8624944Y-16625031D01*
X8624944Y-16625031D02*
X8634468Y-16644079D01*
X8634468Y-16644079D02*
X8634468Y-16653603D01*
X8634468Y-16653603D02*
X8624944Y-16672650D01*
X8624944Y-16672650D02*
X8615420Y-16682174D01*
X8615420Y-16682174D02*
X8596372Y-16691698D01*
X8596372Y-16691698D02*
X8558277Y-16691698D01*
X8558277Y-16691698D02*
X8539229Y-16701222D01*
X8539229Y-16701222D02*
X8529706Y-16710746D01*
X8529706Y-16710746D02*
X8520182Y-16729793D01*
X8520182Y-16729793D02*
X8520182Y-16767888D01*
X8520182Y-16767888D02*
X8529706Y-16786936D01*
X8529706Y-16786936D02*
X8539229Y-16796460D01*
X8539229Y-16796460D02*
X8558277Y-16805984D01*
X8558277Y-16805984D02*
X8596372Y-16805984D01*
X8596372Y-16805984D02*
X8615420Y-16796460D01*
X8615420Y-16796460D02*
X8624944Y-16786936D01*
X8624944Y-16786936D02*
X8634468Y-16767888D01*
X8634468Y-16767888D02*
X8634468Y-16729793D01*
X8634468Y-16729793D02*
X8624944Y-16710746D01*
X8624944Y-16710746D02*
X8615420Y-16701222D01*
X8615420Y-16701222D02*
X8596372Y-16691698D01*
X8824944Y-16805984D02*
X8710658Y-16805984D01*
X8767801Y-16805984D02*
X8767801Y-16605984D01*
X8767801Y-16605984D02*
X8748753Y-16634555D01*
X8748753Y-16634555D02*
X8729706Y-16653603D01*
X8729706Y-16653603D02*
X8710658Y-16663127D01*
X8901134Y-16605984D02*
X8901134Y-16644079D01*
X8977325Y-16605984D02*
X8977325Y-16644079D01*
X9272563Y-16882174D02*
X9263039Y-16872650D01*
X9263039Y-16872650D02*
X9243991Y-16844079D01*
X9243991Y-16844079D02*
X9234468Y-16825031D01*
X9234468Y-16825031D02*
X9224944Y-16796460D01*
X9224944Y-16796460D02*
X9215420Y-16748841D01*
X9215420Y-16748841D02*
X9215420Y-16710746D01*
X9215420Y-16710746D02*
X9224944Y-16663127D01*
X9224944Y-16663127D02*
X9234468Y-16634555D01*
X9234468Y-16634555D02*
X9243991Y-16615508D01*
X9243991Y-16615508D02*
X9263039Y-16586936D01*
X9263039Y-16586936D02*
X9272563Y-16577412D01*
X9339230Y-16625031D02*
X9348753Y-16615508D01*
X9348753Y-16615508D02*
X9367801Y-16605984D01*
X9367801Y-16605984D02*
X9415420Y-16605984D01*
X9415420Y-16605984D02*
X9434468Y-16615508D01*
X9434468Y-16615508D02*
X9443991Y-16625031D01*
X9443991Y-16625031D02*
X9453515Y-16644079D01*
X9453515Y-16644079D02*
X9453515Y-16663127D01*
X9453515Y-16663127D02*
X9443991Y-16691698D01*
X9443991Y-16691698D02*
X9329706Y-16805984D01*
X9329706Y-16805984D02*
X9453515Y-16805984D01*
X9691611Y-16805984D02*
X9691611Y-16605984D01*
X9777325Y-16805984D02*
X9777325Y-16701222D01*
X9777325Y-16701222D02*
X9767801Y-16682174D01*
X9767801Y-16682174D02*
X9748753Y-16672650D01*
X9748753Y-16672650D02*
X9720182Y-16672650D01*
X9720182Y-16672650D02*
X9701134Y-16682174D01*
X9701134Y-16682174D02*
X9691611Y-16691698D01*
X9901134Y-16805984D02*
X9882087Y-16796460D01*
X9882087Y-16796460D02*
X9872563Y-16786936D01*
X9872563Y-16786936D02*
X9863039Y-16767888D01*
X9863039Y-16767888D02*
X9863039Y-16710746D01*
X9863039Y-16710746D02*
X9872563Y-16691698D01*
X9872563Y-16691698D02*
X9882087Y-16682174D01*
X9882087Y-16682174D02*
X9901134Y-16672650D01*
X9901134Y-16672650D02*
X9929706Y-16672650D01*
X9929706Y-16672650D02*
X9948753Y-16682174D01*
X9948753Y-16682174D02*
X9958277Y-16691698D01*
X9958277Y-16691698D02*
X9967801Y-16710746D01*
X9967801Y-16710746D02*
X9967801Y-16767888D01*
X9967801Y-16767888D02*
X9958277Y-16786936D01*
X9958277Y-16786936D02*
X9948753Y-16796460D01*
X9948753Y-16796460D02*
X9929706Y-16805984D01*
X9929706Y-16805984D02*
X9901134Y-16805984D01*
X10082087Y-16805984D02*
X10063039Y-16796460D01*
X10063039Y-16796460D02*
X10053515Y-16777412D01*
X10053515Y-16777412D02*
X10053515Y-16605984D01*
X10234468Y-16796460D02*
X10215420Y-16805984D01*
X10215420Y-16805984D02*
X10177325Y-16805984D01*
X10177325Y-16805984D02*
X10158277Y-16796460D01*
X10158277Y-16796460D02*
X10148753Y-16777412D01*
X10148753Y-16777412D02*
X10148753Y-16701222D01*
X10148753Y-16701222D02*
X10158277Y-16682174D01*
X10158277Y-16682174D02*
X10177325Y-16672650D01*
X10177325Y-16672650D02*
X10215420Y-16672650D01*
X10215420Y-16672650D02*
X10234468Y-16682174D01*
X10234468Y-16682174D02*
X10243992Y-16701222D01*
X10243992Y-16701222D02*
X10243992Y-16720269D01*
X10243992Y-16720269D02*
X10148753Y-16739317D01*
X10320182Y-16796460D02*
X10339230Y-16805984D01*
X10339230Y-16805984D02*
X10377325Y-16805984D01*
X10377325Y-16805984D02*
X10396373Y-16796460D01*
X10396373Y-16796460D02*
X10405896Y-16777412D01*
X10405896Y-16777412D02*
X10405896Y-16767888D01*
X10405896Y-16767888D02*
X10396373Y-16748841D01*
X10396373Y-16748841D02*
X10377325Y-16739317D01*
X10377325Y-16739317D02*
X10348753Y-16739317D01*
X10348753Y-16739317D02*
X10329706Y-16729793D01*
X10329706Y-16729793D02*
X10320182Y-16710746D01*
X10320182Y-16710746D02*
X10320182Y-16701222D01*
X10320182Y-16701222D02*
X10329706Y-16682174D01*
X10329706Y-16682174D02*
X10348753Y-16672650D01*
X10348753Y-16672650D02*
X10377325Y-16672650D01*
X10377325Y-16672650D02*
X10396373Y-16682174D01*
X10472563Y-16882174D02*
X10482087Y-16872650D01*
X10482087Y-16872650D02*
X10501134Y-16844079D01*
X10501134Y-16844079D02*
X10510658Y-16825031D01*
X10510658Y-16825031D02*
X10520182Y-16796460D01*
X10520182Y-16796460D02*
X10529706Y-16748841D01*
X10529706Y-16748841D02*
X10529706Y-16710746D01*
X10529706Y-16710746D02*
X10520182Y-16663127D01*
X10520182Y-16663127D02*
X10510658Y-16634555D01*
X10510658Y-16634555D02*
X10501134Y-16615508D01*
X10501134Y-16615508D02*
X10482087Y-16586936D01*
X10482087Y-16586936D02*
X10472563Y-16577412D01*
M02*
